G04 #@! TF.FileFunction,Profile,NP*
%FSLAX46Y46*%
G04 Gerber Fmt 4.6, Leading zero omitted, Abs format (unit mm)*
G04 Created by KiCad (PCBNEW (2015-05-13 BZR 5653)-product) date Tue 26 May 2015 06:54:25 PM CEST*
%MOMM*%
G01*
G04 APERTURE LIST*
%ADD10C,0.100000*%
G04 APERTURE END LIST*
D10*
X258332581Y-173618878D02*
X258332581Y-173618878D01*
X252041378Y-197313785D02*
X252041378Y-197313785D01*
X109831481Y-173618878D02*
X109831481Y-173618878D01*
X83747810Y-73894261D02*
X83465482Y-70542872D01*
X84065278Y-73894261D02*
X83747810Y-73894261D01*
X84382740Y-73964746D02*
X84065278Y-73894261D01*
X84665068Y-74105821D02*
X84382740Y-73964746D01*
X84911906Y-74282210D02*
X84665068Y-74105821D01*
X85123611Y-74529225D02*
X84911906Y-74282210D01*
X85264684Y-74811377D02*
X85123611Y-74529225D01*
X85370623Y-75093529D02*
X85264684Y-74811377D01*
X85405760Y-75411170D02*
X85370623Y-75093529D01*
X85370623Y-75728776D02*
X85405760Y-75411170D01*
X85264684Y-76046099D02*
X85370623Y-75728776D01*
X85088295Y-76293114D02*
X85264684Y-76046099D01*
X84876593Y-76540094D02*
X85088295Y-76293114D01*
X84629755Y-76716483D02*
X84876593Y-76540094D01*
X84347427Y-76822281D02*
X84629755Y-76716483D01*
X84029962Y-76892872D02*
X84347427Y-76822281D01*
X84629755Y-83736584D02*
X84029962Y-76892872D01*
X84665068Y-84019053D02*
X84629755Y-83736584D01*
X84770833Y-84265751D02*
X84665068Y-84019053D01*
X84911906Y-84512766D02*
X84770833Y-84265751D01*
X85088295Y-84724609D02*
X84911906Y-84512766D01*
X85335310Y-84865544D02*
X85088295Y-84724609D01*
X85582149Y-85006761D02*
X85335310Y-84865544D01*
X85829167Y-85077387D02*
X85582149Y-85006761D01*
X86111316Y-85112559D02*
X85829167Y-85077387D01*
X169472632Y-85112559D02*
X86111316Y-85112559D01*
X169790278Y-85077387D02*
X169472632Y-85112559D01*
X170072425Y-84971306D02*
X169790278Y-85077387D01*
X170354576Y-84830372D02*
X170072425Y-84971306D01*
X170566455Y-84618529D02*
X170354576Y-84830372D01*
X170777980Y-84371831D02*
X170566455Y-84618529D01*
X170883743Y-84089362D02*
X170777980Y-84371831D01*
X170954369Y-83772038D02*
X170883743Y-84089362D01*
X170954369Y-83489887D02*
X170954369Y-83772038D01*
X170178187Y-74317664D02*
X170954369Y-83489887D01*
X169860899Y-74317664D02*
X170178187Y-74317664D01*
X169543258Y-74247038D02*
X169860899Y-74317664D01*
X169261111Y-74105821D02*
X169543258Y-74247038D01*
X169014091Y-73929432D02*
X169261111Y-74105821D01*
X168802566Y-73682559D02*
X169014091Y-73929432D01*
X168661313Y-73400266D02*
X168802566Y-73682559D01*
X168555556Y-73118114D02*
X168661313Y-73400266D01*
X168555556Y-72800614D02*
X168555556Y-73118114D01*
X168590687Y-72483149D02*
X168555556Y-72800614D01*
X168696803Y-72200857D02*
X168590687Y-72483149D01*
X168837702Y-71918670D02*
X168696803Y-72200857D01*
X169049581Y-71707003D02*
X168837702Y-71918670D01*
X169331732Y-71530614D02*
X169049581Y-71707003D01*
X169613889Y-71389503D02*
X169331732Y-71530614D01*
X169896036Y-71318912D02*
X169613889Y-71389503D01*
X169366869Y-64933599D02*
X169896036Y-71318912D01*
X169296243Y-64580821D02*
X169366869Y-64933599D01*
X169190480Y-64228044D02*
X169296243Y-64580821D01*
X169014091Y-63910579D02*
X169190480Y-64228044D01*
X168802566Y-63663705D02*
X169014091Y-63910579D01*
X168555556Y-63416725D02*
X168802566Y-63663705D01*
X168237910Y-63240336D02*
X168555556Y-63416725D01*
X167920621Y-63099225D02*
X168237910Y-63240336D01*
X167567843Y-63028634D02*
X167920621Y-63099225D01*
X167215066Y-63028634D02*
X167567843Y-63028634D01*
X85335310Y-68355614D02*
X167215066Y-63028634D01*
X84982533Y-68426205D02*
X85335310Y-68355614D01*
X84665068Y-68532003D02*
X84982533Y-68426205D01*
X84347427Y-68708392D02*
X84665068Y-68532003D01*
X84065278Y-68920059D02*
X84347427Y-68708392D01*
X83853573Y-69202246D02*
X84065278Y-68920059D01*
X83641871Y-69484538D02*
X83853573Y-69202246D01*
X83536111Y-69837316D02*
X83641871Y-69484538D01*
X83465482Y-70190094D02*
X83536111Y-69837316D01*
X83465482Y-70542872D02*
X83465482Y-70190094D01*
M02*
