G04 #@! TF.FileFunction,Copper,L2,Bot,Signal*
%FSLAX46Y46*%
G04 Gerber Fmt 4.6, Leading zero omitted, Abs format (unit mm)*
G04 Created by KiCad (PCBNEW (2015-05-13 BZR 5653)-product) date Tue 26 May 2015 06:01:31 PM CEST*
%MOMM*%
G01*
G04 APERTURE LIST*
%ADD10C,0.100000*%
%ADD11R,1.500000X4.000000*%
%ADD12C,0.800000*%
%ADD13C,0.250000*%
G04 APERTURE END LIST*
D10*
D11*
X145415000Y-106045000D03*
X147955000Y-106045000D03*
X146685000Y-100965000D03*
X149225000Y-100965000D03*
D12*
X138976100Y-96748600D03*
X141516100Y-94208600D03*
X139357100Y-104749600D03*
X152692100Y-110337600D03*
D13*
X146685000Y-100965000D02*
X146685000Y-95885000D01*
X138976100Y-94703900D02*
X138976100Y-96748600D01*
X141605000Y-92075000D02*
X138976100Y-94703900D01*
X142875000Y-92075000D02*
X141605000Y-92075000D01*
X146685000Y-95885000D02*
X142875000Y-92075000D01*
X149225000Y-100965000D02*
X152692100Y-104432100D01*
X152692100Y-104432100D02*
X152692100Y-110337600D01*
X141516100Y-94208600D02*
X141516100Y-99606100D01*
X145415000Y-103505000D02*
X145415000Y-106045000D01*
X141516100Y-99606100D02*
X145415000Y-103505000D01*
X139357100Y-104749600D02*
X143827500Y-109220000D01*
X147955000Y-108585000D02*
X147955000Y-106045000D01*
X147320000Y-109220000D02*
X147955000Y-108585000D01*
X143827500Y-109220000D02*
X147320000Y-109220000D01*
G36*
X161094232Y-93792390D02*
X161089072Y-94230019D01*
X161018963Y-94683793D01*
X160849382Y-95150496D01*
X158319777Y-100260019D01*
X158317854Y-100265097D01*
X158315058Y-100269747D01*
X158311072Y-100278286D01*
X156049963Y-105212146D01*
X156049963Y-105212147D01*
X156049959Y-105212154D01*
X156049711Y-105212697D01*
X156049698Y-105212734D01*
X156046089Y-105220738D01*
X154276688Y-109218771D01*
X154274570Y-109225183D01*
X154271368Y-109231124D01*
X154267787Y-109239842D01*
X153718566Y-110603942D01*
X153718566Y-110252835D01*
X153682305Y-110054210D01*
X153607992Y-109866475D01*
X153592669Y-109837806D01*
X153391939Y-109814538D01*
X153215162Y-109991315D01*
X153215162Y-109637761D01*
X153191894Y-109437031D01*
X153006598Y-109356830D01*
X152809217Y-109314320D01*
X152607335Y-109311134D01*
X152408710Y-109347395D01*
X152220975Y-109421708D01*
X152192306Y-109437031D01*
X152169038Y-109637761D01*
X152692100Y-110160823D01*
X153215162Y-109637761D01*
X153215162Y-109991315D01*
X152868877Y-110337600D01*
X153391939Y-110860662D01*
X153592669Y-110837394D01*
X153672870Y-110652098D01*
X153715380Y-110454717D01*
X153718566Y-110252835D01*
X153718566Y-110603942D01*
X153215162Y-111854246D01*
X153215162Y-111037439D01*
X152692100Y-110514377D01*
X152515323Y-110691154D01*
X152515323Y-110337600D01*
X151992261Y-109814538D01*
X151791531Y-109837806D01*
X151711330Y-110023102D01*
X151668820Y-110220483D01*
X151665634Y-110422365D01*
X151701895Y-110620990D01*
X151776208Y-110808725D01*
X151791531Y-110837394D01*
X151992261Y-110860662D01*
X152515323Y-110337600D01*
X152515323Y-110691154D01*
X152169038Y-111037439D01*
X152192306Y-111238169D01*
X152377602Y-111318370D01*
X152574983Y-111360880D01*
X152776865Y-111364066D01*
X152975490Y-111327805D01*
X153163225Y-111253492D01*
X153191894Y-111238169D01*
X153215162Y-111037439D01*
X153215162Y-111854246D01*
X152714394Y-113098004D01*
X152714358Y-113098126D01*
X152711746Y-113104683D01*
X151280731Y-116771057D01*
X151039519Y-117306459D01*
X150736163Y-117700225D01*
X150600000Y-117806791D01*
X150600000Y-103026557D01*
X150600000Y-102903443D01*
X150600000Y-101246250D01*
X150600000Y-100683750D01*
X150600000Y-99026557D01*
X150600000Y-98903443D01*
X150575982Y-98782694D01*
X150528868Y-98668951D01*
X150460469Y-98566586D01*
X150373414Y-98479531D01*
X150271048Y-98411132D01*
X150157306Y-98364018D01*
X150036557Y-98340000D01*
X149506250Y-98340000D01*
X149350000Y-98496250D01*
X149350000Y-100840000D01*
X150443750Y-100840000D01*
X150600000Y-100683750D01*
X150600000Y-101246250D01*
X150443750Y-101090000D01*
X149350000Y-101090000D01*
X149350000Y-103433750D01*
X149506250Y-103590000D01*
X150036557Y-103590000D01*
X150157306Y-103565982D01*
X150271048Y-103518868D01*
X150373414Y-103450469D01*
X150460469Y-103363414D01*
X150528868Y-103261049D01*
X150575982Y-103147306D01*
X150600000Y-103026557D01*
X150600000Y-117806791D01*
X150366319Y-117989679D01*
X149892664Y-118267398D01*
X149409326Y-118426600D01*
X149333024Y-118430188D01*
X149333024Y-108045000D01*
X149333024Y-104045000D01*
X149324781Y-103943580D01*
X149272153Y-103775274D01*
X149174809Y-103628235D01*
X149040425Y-103514053D01*
X149026126Y-103507623D01*
X149100000Y-103433750D01*
X149100000Y-101090000D01*
X149100000Y-100840000D01*
X149100000Y-98496250D01*
X148943750Y-98340000D01*
X148413443Y-98340000D01*
X148292694Y-98364018D01*
X148178952Y-98411132D01*
X148076586Y-98479531D01*
X147989531Y-98566586D01*
X147955000Y-98618264D01*
X147920469Y-98566586D01*
X147833414Y-98479531D01*
X147731048Y-98411132D01*
X147617306Y-98364018D01*
X147496557Y-98340000D01*
X146966250Y-98340000D01*
X146810000Y-98496250D01*
X146810000Y-100840000D01*
X147903750Y-100840000D01*
X147955000Y-100788750D01*
X148006250Y-100840000D01*
X149100000Y-100840000D01*
X149100000Y-101090000D01*
X148006250Y-101090000D01*
X147955000Y-101141250D01*
X147903750Y-101090000D01*
X146810000Y-101090000D01*
X146810000Y-103433750D01*
X146886431Y-103510181D01*
X146788235Y-103575191D01*
X146682262Y-103699913D01*
X146634809Y-103628235D01*
X146500425Y-103514053D01*
X146486126Y-103507623D01*
X146560000Y-103433750D01*
X146560000Y-101090000D01*
X146560000Y-100840000D01*
X146560000Y-98496250D01*
X146403750Y-98340000D01*
X145873443Y-98340000D01*
X145752694Y-98364018D01*
X145638952Y-98411132D01*
X145536586Y-98479531D01*
X145449531Y-98566586D01*
X145381132Y-98668951D01*
X145334018Y-98782694D01*
X145310000Y-98903443D01*
X145310000Y-99026557D01*
X145310000Y-100683750D01*
X145466250Y-100840000D01*
X146560000Y-100840000D01*
X146560000Y-101090000D01*
X145466250Y-101090000D01*
X145310000Y-101246250D01*
X145310000Y-102339340D01*
X142266100Y-99295440D01*
X142266100Y-94909856D01*
X142295775Y-94881597D01*
X142411645Y-94717340D01*
X142493404Y-94533706D01*
X142537938Y-94337688D01*
X142541144Y-94108094D01*
X142502101Y-93910909D01*
X142425501Y-93725063D01*
X142314262Y-93557635D01*
X142172621Y-93415002D01*
X142005974Y-93302597D01*
X141820667Y-93224701D01*
X141623760Y-93184282D01*
X141422752Y-93182879D01*
X141225300Y-93220545D01*
X141038924Y-93295846D01*
X140870723Y-93405913D01*
X140727105Y-93546554D01*
X140613539Y-93712413D01*
X140534352Y-93897171D01*
X140492559Y-94093791D01*
X140489752Y-94294785D01*
X140526039Y-94492495D01*
X140600037Y-94679393D01*
X140708927Y-94848357D01*
X140766100Y-94907561D01*
X140766100Y-99606100D01*
X140772856Y-99675006D01*
X140778899Y-99744064D01*
X140779999Y-99747850D01*
X140780384Y-99751776D01*
X140800415Y-99818124D01*
X140819736Y-99884627D01*
X140821549Y-99888125D01*
X140822690Y-99891903D01*
X140855229Y-99953099D01*
X140887097Y-100014579D01*
X140889556Y-100017659D01*
X140891409Y-100021144D01*
X140935207Y-100074846D01*
X140978417Y-100128974D01*
X140983828Y-100134461D01*
X140983922Y-100134576D01*
X140984028Y-100134664D01*
X140985770Y-100136430D01*
X144354307Y-103504967D01*
X144248235Y-103575191D01*
X144134053Y-103709575D01*
X144061733Y-103870405D01*
X144036976Y-104045000D01*
X144036976Y-108045000D01*
X144045219Y-108146420D01*
X144097847Y-108314726D01*
X144195191Y-108461765D01*
X144204883Y-108470000D01*
X144138160Y-108470000D01*
X140381250Y-104713090D01*
X140382144Y-104649094D01*
X140343101Y-104451909D01*
X140266501Y-104266063D01*
X140155262Y-104098635D01*
X140013621Y-103956002D01*
X140002566Y-103948545D01*
X140002566Y-96663835D01*
X139966305Y-96465210D01*
X139891992Y-96277475D01*
X139876669Y-96248806D01*
X139675939Y-96225538D01*
X139152877Y-96748600D01*
X139675939Y-97271662D01*
X139876669Y-97248394D01*
X139956870Y-97063098D01*
X139999380Y-96865717D01*
X140002566Y-96663835D01*
X140002566Y-103948545D01*
X139846974Y-103843597D01*
X139661667Y-103765701D01*
X139499162Y-103732343D01*
X139499162Y-97448439D01*
X138976100Y-96925377D01*
X138453038Y-97448439D01*
X138476306Y-97649169D01*
X138661602Y-97729370D01*
X138858983Y-97771880D01*
X139060865Y-97775066D01*
X139259490Y-97738805D01*
X139447225Y-97664492D01*
X139475894Y-97649169D01*
X139499162Y-97448439D01*
X139499162Y-103732343D01*
X139464760Y-103725282D01*
X139263752Y-103723879D01*
X139066300Y-103761545D01*
X138879924Y-103836846D01*
X138711723Y-103946913D01*
X138568105Y-104087554D01*
X138454539Y-104253413D01*
X138375352Y-104438171D01*
X138333559Y-104634791D01*
X138330752Y-104835785D01*
X138367039Y-105033495D01*
X138441037Y-105220393D01*
X138549927Y-105389357D01*
X138689562Y-105533954D01*
X138854624Y-105648675D01*
X139038825Y-105729150D01*
X139235149Y-105772315D01*
X139320952Y-105774112D01*
X143297170Y-109750330D01*
X143350682Y-109794285D01*
X143403775Y-109838835D01*
X143407230Y-109840734D01*
X143410278Y-109843238D01*
X143471346Y-109875983D01*
X143532044Y-109909352D01*
X143535801Y-109910544D01*
X143539278Y-109912408D01*
X143605505Y-109932655D01*
X143671566Y-109953611D01*
X143675488Y-109954051D01*
X143679257Y-109955203D01*
X143748121Y-109962197D01*
X143817028Y-109969927D01*
X143824741Y-109969980D01*
X143824882Y-109969995D01*
X143825012Y-109969982D01*
X143827500Y-109970000D01*
X147320000Y-109970000D01*
X147388906Y-109963243D01*
X147457964Y-109957201D01*
X147461750Y-109956100D01*
X147465676Y-109955716D01*
X147532024Y-109935684D01*
X147598527Y-109916364D01*
X147602025Y-109914550D01*
X147605803Y-109913410D01*
X147666999Y-109880870D01*
X147728479Y-109849003D01*
X147731559Y-109846543D01*
X147735044Y-109844691D01*
X147788746Y-109800892D01*
X147842874Y-109757683D01*
X147848361Y-109752271D01*
X147848476Y-109752178D01*
X147848564Y-109752071D01*
X147850330Y-109750330D01*
X148485330Y-109115330D01*
X148529289Y-109061813D01*
X148573835Y-109008725D01*
X148575734Y-109005270D01*
X148578239Y-109002221D01*
X148610982Y-108941153D01*
X148644352Y-108880456D01*
X148645544Y-108876695D01*
X148647408Y-108873221D01*
X148667663Y-108806967D01*
X148688611Y-108740934D01*
X148689050Y-108737015D01*
X148690204Y-108733243D01*
X148696320Y-108673024D01*
X148705000Y-108673024D01*
X148806420Y-108664781D01*
X148974726Y-108612153D01*
X149121765Y-108514809D01*
X149235947Y-108380425D01*
X149308267Y-108219595D01*
X149333024Y-108045000D01*
X149333024Y-118430188D01*
X148910947Y-118450040D01*
X148424209Y-118394580D01*
X147913397Y-118239386D01*
X137341650Y-113561345D01*
X136990810Y-113373323D01*
X136670195Y-113134939D01*
X136384644Y-112852072D01*
X136176500Y-112544189D01*
X136006847Y-112170363D01*
X135881141Y-111788757D01*
X135824442Y-111426604D01*
X135843164Y-110993440D01*
X136271204Y-107428991D01*
X136814631Y-103945655D01*
X137168012Y-102106506D01*
X137563909Y-100173024D01*
X138050269Y-98117903D01*
X138050400Y-98117351D01*
X138050405Y-98117309D01*
X138052383Y-98108719D01*
X138239856Y-97267442D01*
X138276261Y-97271662D01*
X138799323Y-96748600D01*
X138785181Y-96734458D01*
X138961958Y-96557681D01*
X138976100Y-96571823D01*
X139499162Y-96048761D01*
X139475894Y-95848031D01*
X139290598Y-95767830D01*
X139093217Y-95725320D01*
X138891335Y-95722134D01*
X138692710Y-95758395D01*
X138565891Y-95808594D01*
X139175859Y-93412067D01*
X139321458Y-93004940D01*
X139516256Y-92635266D01*
X139763585Y-92307393D01*
X140064762Y-92042461D01*
X140417216Y-91792423D01*
X140773225Y-91654869D01*
X141190875Y-91538911D01*
X141614185Y-91489718D01*
X158573613Y-91495036D01*
X159049433Y-91539725D01*
X159504724Y-91673873D01*
X159936023Y-91895106D01*
X160319875Y-92170256D01*
X160585808Y-92492060D01*
X160834880Y-92897014D01*
X161002548Y-93324632D01*
X161094232Y-93792390D01*
X161094232Y-93792390D01*
G37*
X161094232Y-93792390D02*
X161089072Y-94230019D01*
X161018963Y-94683793D01*
X160849382Y-95150496D01*
X158319777Y-100260019D01*
X158317854Y-100265097D01*
X158315058Y-100269747D01*
X158311072Y-100278286D01*
X156049963Y-105212146D01*
X156049963Y-105212147D01*
X156049959Y-105212154D01*
X156049711Y-105212697D01*
X156049698Y-105212734D01*
X156046089Y-105220738D01*
X154276688Y-109218771D01*
X154274570Y-109225183D01*
X154271368Y-109231124D01*
X154267787Y-109239842D01*
X153718566Y-110603942D01*
X153718566Y-110252835D01*
X153682305Y-110054210D01*
X153607992Y-109866475D01*
X153592669Y-109837806D01*
X153391939Y-109814538D01*
X153215162Y-109991315D01*
X153215162Y-109637761D01*
X153191894Y-109437031D01*
X153006598Y-109356830D01*
X152809217Y-109314320D01*
X152607335Y-109311134D01*
X152408710Y-109347395D01*
X152220975Y-109421708D01*
X152192306Y-109437031D01*
X152169038Y-109637761D01*
X152692100Y-110160823D01*
X153215162Y-109637761D01*
X153215162Y-109991315D01*
X152868877Y-110337600D01*
X153391939Y-110860662D01*
X153592669Y-110837394D01*
X153672870Y-110652098D01*
X153715380Y-110454717D01*
X153718566Y-110252835D01*
X153718566Y-110603942D01*
X153215162Y-111854246D01*
X153215162Y-111037439D01*
X152692100Y-110514377D01*
X152515323Y-110691154D01*
X152515323Y-110337600D01*
X151992261Y-109814538D01*
X151791531Y-109837806D01*
X151711330Y-110023102D01*
X151668820Y-110220483D01*
X151665634Y-110422365D01*
X151701895Y-110620990D01*
X151776208Y-110808725D01*
X151791531Y-110837394D01*
X151992261Y-110860662D01*
X152515323Y-110337600D01*
X152515323Y-110691154D01*
X152169038Y-111037439D01*
X152192306Y-111238169D01*
X152377602Y-111318370D01*
X152574983Y-111360880D01*
X152776865Y-111364066D01*
X152975490Y-111327805D01*
X153163225Y-111253492D01*
X153191894Y-111238169D01*
X153215162Y-111037439D01*
X153215162Y-111854246D01*
X152714394Y-113098004D01*
X152714358Y-113098126D01*
X152711746Y-113104683D01*
X151280731Y-116771057D01*
X151039519Y-117306459D01*
X150736163Y-117700225D01*
X150600000Y-117806791D01*
X150600000Y-103026557D01*
X150600000Y-102903443D01*
X150600000Y-101246250D01*
X150600000Y-100683750D01*
X150600000Y-99026557D01*
X150600000Y-98903443D01*
X150575982Y-98782694D01*
X150528868Y-98668951D01*
X150460469Y-98566586D01*
X150373414Y-98479531D01*
X150271048Y-98411132D01*
X150157306Y-98364018D01*
X150036557Y-98340000D01*
X149506250Y-98340000D01*
X149350000Y-98496250D01*
X149350000Y-100840000D01*
X150443750Y-100840000D01*
X150600000Y-100683750D01*
X150600000Y-101246250D01*
X150443750Y-101090000D01*
X149350000Y-101090000D01*
X149350000Y-103433750D01*
X149506250Y-103590000D01*
X150036557Y-103590000D01*
X150157306Y-103565982D01*
X150271048Y-103518868D01*
X150373414Y-103450469D01*
X150460469Y-103363414D01*
X150528868Y-103261049D01*
X150575982Y-103147306D01*
X150600000Y-103026557D01*
X150600000Y-117806791D01*
X150366319Y-117989679D01*
X149892664Y-118267398D01*
X149409326Y-118426600D01*
X149333024Y-118430188D01*
X149333024Y-108045000D01*
X149333024Y-104045000D01*
X149324781Y-103943580D01*
X149272153Y-103775274D01*
X149174809Y-103628235D01*
X149040425Y-103514053D01*
X149026126Y-103507623D01*
X149100000Y-103433750D01*
X149100000Y-101090000D01*
X149100000Y-100840000D01*
X149100000Y-98496250D01*
X148943750Y-98340000D01*
X148413443Y-98340000D01*
X148292694Y-98364018D01*
X148178952Y-98411132D01*
X148076586Y-98479531D01*
X147989531Y-98566586D01*
X147955000Y-98618264D01*
X147920469Y-98566586D01*
X147833414Y-98479531D01*
X147731048Y-98411132D01*
X147617306Y-98364018D01*
X147496557Y-98340000D01*
X146966250Y-98340000D01*
X146810000Y-98496250D01*
X146810000Y-100840000D01*
X147903750Y-100840000D01*
X147955000Y-100788750D01*
X148006250Y-100840000D01*
X149100000Y-100840000D01*
X149100000Y-101090000D01*
X148006250Y-101090000D01*
X147955000Y-101141250D01*
X147903750Y-101090000D01*
X146810000Y-101090000D01*
X146810000Y-103433750D01*
X146886431Y-103510181D01*
X146788235Y-103575191D01*
X146682262Y-103699913D01*
X146634809Y-103628235D01*
X146500425Y-103514053D01*
X146486126Y-103507623D01*
X146560000Y-103433750D01*
X146560000Y-101090000D01*
X146560000Y-100840000D01*
X146560000Y-98496250D01*
X146403750Y-98340000D01*
X145873443Y-98340000D01*
X145752694Y-98364018D01*
X145638952Y-98411132D01*
X145536586Y-98479531D01*
X145449531Y-98566586D01*
X145381132Y-98668951D01*
X145334018Y-98782694D01*
X145310000Y-98903443D01*
X145310000Y-99026557D01*
X145310000Y-100683750D01*
X145466250Y-100840000D01*
X146560000Y-100840000D01*
X146560000Y-101090000D01*
X145466250Y-101090000D01*
X145310000Y-101246250D01*
X145310000Y-102339340D01*
X142266100Y-99295440D01*
X142266100Y-94909856D01*
X142295775Y-94881597D01*
X142411645Y-94717340D01*
X142493404Y-94533706D01*
X142537938Y-94337688D01*
X142541144Y-94108094D01*
X142502101Y-93910909D01*
X142425501Y-93725063D01*
X142314262Y-93557635D01*
X142172621Y-93415002D01*
X142005974Y-93302597D01*
X141820667Y-93224701D01*
X141623760Y-93184282D01*
X141422752Y-93182879D01*
X141225300Y-93220545D01*
X141038924Y-93295846D01*
X140870723Y-93405913D01*
X140727105Y-93546554D01*
X140613539Y-93712413D01*
X140534352Y-93897171D01*
X140492559Y-94093791D01*
X140489752Y-94294785D01*
X140526039Y-94492495D01*
X140600037Y-94679393D01*
X140708927Y-94848357D01*
X140766100Y-94907561D01*
X140766100Y-99606100D01*
X140772856Y-99675006D01*
X140778899Y-99744064D01*
X140779999Y-99747850D01*
X140780384Y-99751776D01*
X140800415Y-99818124D01*
X140819736Y-99884627D01*
X140821549Y-99888125D01*
X140822690Y-99891903D01*
X140855229Y-99953099D01*
X140887097Y-100014579D01*
X140889556Y-100017659D01*
X140891409Y-100021144D01*
X140935207Y-100074846D01*
X140978417Y-100128974D01*
X140983828Y-100134461D01*
X140983922Y-100134576D01*
X140984028Y-100134664D01*
X140985770Y-100136430D01*
X144354307Y-103504967D01*
X144248235Y-103575191D01*
X144134053Y-103709575D01*
X144061733Y-103870405D01*
X144036976Y-104045000D01*
X144036976Y-108045000D01*
X144045219Y-108146420D01*
X144097847Y-108314726D01*
X144195191Y-108461765D01*
X144204883Y-108470000D01*
X144138160Y-108470000D01*
X140381250Y-104713090D01*
X140382144Y-104649094D01*
X140343101Y-104451909D01*
X140266501Y-104266063D01*
X140155262Y-104098635D01*
X140013621Y-103956002D01*
X140002566Y-103948545D01*
X140002566Y-96663835D01*
X139966305Y-96465210D01*
X139891992Y-96277475D01*
X139876669Y-96248806D01*
X139675939Y-96225538D01*
X139152877Y-96748600D01*
X139675939Y-97271662D01*
X139876669Y-97248394D01*
X139956870Y-97063098D01*
X139999380Y-96865717D01*
X140002566Y-96663835D01*
X140002566Y-103948545D01*
X139846974Y-103843597D01*
X139661667Y-103765701D01*
X139499162Y-103732343D01*
X139499162Y-97448439D01*
X138976100Y-96925377D01*
X138453038Y-97448439D01*
X138476306Y-97649169D01*
X138661602Y-97729370D01*
X138858983Y-97771880D01*
X139060865Y-97775066D01*
X139259490Y-97738805D01*
X139447225Y-97664492D01*
X139475894Y-97649169D01*
X139499162Y-97448439D01*
X139499162Y-103732343D01*
X139464760Y-103725282D01*
X139263752Y-103723879D01*
X139066300Y-103761545D01*
X138879924Y-103836846D01*
X138711723Y-103946913D01*
X138568105Y-104087554D01*
X138454539Y-104253413D01*
X138375352Y-104438171D01*
X138333559Y-104634791D01*
X138330752Y-104835785D01*
X138367039Y-105033495D01*
X138441037Y-105220393D01*
X138549927Y-105389357D01*
X138689562Y-105533954D01*
X138854624Y-105648675D01*
X139038825Y-105729150D01*
X139235149Y-105772315D01*
X139320952Y-105774112D01*
X143297170Y-109750330D01*
X143350682Y-109794285D01*
X143403775Y-109838835D01*
X143407230Y-109840734D01*
X143410278Y-109843238D01*
X143471346Y-109875983D01*
X143532044Y-109909352D01*
X143535801Y-109910544D01*
X143539278Y-109912408D01*
X143605505Y-109932655D01*
X143671566Y-109953611D01*
X143675488Y-109954051D01*
X143679257Y-109955203D01*
X143748121Y-109962197D01*
X143817028Y-109969927D01*
X143824741Y-109969980D01*
X143824882Y-109969995D01*
X143825012Y-109969982D01*
X143827500Y-109970000D01*
X147320000Y-109970000D01*
X147388906Y-109963243D01*
X147457964Y-109957201D01*
X147461750Y-109956100D01*
X147465676Y-109955716D01*
X147532024Y-109935684D01*
X147598527Y-109916364D01*
X147602025Y-109914550D01*
X147605803Y-109913410D01*
X147666999Y-109880870D01*
X147728479Y-109849003D01*
X147731559Y-109846543D01*
X147735044Y-109844691D01*
X147788746Y-109800892D01*
X147842874Y-109757683D01*
X147848361Y-109752271D01*
X147848476Y-109752178D01*
X147848564Y-109752071D01*
X147850330Y-109750330D01*
X148485330Y-109115330D01*
X148529289Y-109061813D01*
X148573835Y-109008725D01*
X148575734Y-109005270D01*
X148578239Y-109002221D01*
X148610982Y-108941153D01*
X148644352Y-108880456D01*
X148645544Y-108876695D01*
X148647408Y-108873221D01*
X148667663Y-108806967D01*
X148688611Y-108740934D01*
X148689050Y-108737015D01*
X148690204Y-108733243D01*
X148696320Y-108673024D01*
X148705000Y-108673024D01*
X148806420Y-108664781D01*
X148974726Y-108612153D01*
X149121765Y-108514809D01*
X149235947Y-108380425D01*
X149308267Y-108219595D01*
X149333024Y-108045000D01*
X149333024Y-118430188D01*
X148910947Y-118450040D01*
X148424209Y-118394580D01*
X147913397Y-118239386D01*
X137341650Y-113561345D01*
X136990810Y-113373323D01*
X136670195Y-113134939D01*
X136384644Y-112852072D01*
X136176500Y-112544189D01*
X136006847Y-112170363D01*
X135881141Y-111788757D01*
X135824442Y-111426604D01*
X135843164Y-110993440D01*
X136271204Y-107428991D01*
X136814631Y-103945655D01*
X137168012Y-102106506D01*
X137563909Y-100173024D01*
X138050269Y-98117903D01*
X138050400Y-98117351D01*
X138050405Y-98117309D01*
X138052383Y-98108719D01*
X138239856Y-97267442D01*
X138276261Y-97271662D01*
X138799323Y-96748600D01*
X138785181Y-96734458D01*
X138961958Y-96557681D01*
X138976100Y-96571823D01*
X139499162Y-96048761D01*
X139475894Y-95848031D01*
X139290598Y-95767830D01*
X139093217Y-95725320D01*
X138891335Y-95722134D01*
X138692710Y-95758395D01*
X138565891Y-95808594D01*
X139175859Y-93412067D01*
X139321458Y-93004940D01*
X139516256Y-92635266D01*
X139763585Y-92307393D01*
X140064762Y-92042461D01*
X140417216Y-91792423D01*
X140773225Y-91654869D01*
X141190875Y-91538911D01*
X141614185Y-91489718D01*
X158573613Y-91495036D01*
X159049433Y-91539725D01*
X159504724Y-91673873D01*
X159936023Y-91895106D01*
X160319875Y-92170256D01*
X160585808Y-92492060D01*
X160834880Y-92897014D01*
X161002548Y-93324632D01*
X161094232Y-93792390D01*
M02*
