G04 #@! TF.FileFunction,Copper,L1,Top,Signal*
%FSLAX46Y46*%
G04 Gerber Fmt 4.6, Leading zero omitted, Abs format (unit mm)*
G04 Created by KiCad (PCBNEW (2015-05-13 BZR 5653)-product) date Tue 26 May 2015 06:01:31 PM CEST*
%MOMM*%
G01*
G04 APERTURE LIST*
%ADD10C,0.100000*%
%ADD11C,0.800000*%
G04 APERTURE END LIST*
D10*
G36*
X161652947Y-94050551D02*
X161648024Y-94263788D01*
X161632805Y-94470373D01*
X161614925Y-94612886D01*
X161606845Y-94665222D01*
X161598561Y-94714990D01*
X161589421Y-94763637D01*
X161578774Y-94812605D01*
X161565970Y-94863341D01*
X161550356Y-94917287D01*
X161531281Y-94975888D01*
X161508095Y-95040589D01*
X161480145Y-95112835D01*
X161446781Y-95194068D01*
X161407351Y-95285735D01*
X161361204Y-95389279D01*
X161307688Y-95506144D01*
X161246153Y-95637776D01*
X161175946Y-95785618D01*
X161096417Y-95951114D01*
X161006914Y-96135710D01*
X160906787Y-96340849D01*
X160795383Y-96567977D01*
X160672051Y-96818536D01*
X160536140Y-97093973D01*
X160386999Y-97395730D01*
X160223977Y-97725253D01*
X160083453Y-98009172D01*
X160066488Y-98043450D01*
X160066488Y-93691292D01*
X160064107Y-93568148D01*
X160058498Y-93454500D01*
X160049723Y-93358029D01*
X160037843Y-93286419D01*
X160035695Y-93277916D01*
X159973156Y-93103612D01*
X159884680Y-92949847D01*
X159794455Y-92839902D01*
X159680842Y-92734431D01*
X159558005Y-92651345D01*
X159415705Y-92584112D01*
X159361943Y-92564012D01*
X159273825Y-92534851D01*
X159188132Y-92511419D01*
X159099440Y-92493040D01*
X159002327Y-92479035D01*
X158891372Y-92468728D01*
X158761153Y-92461443D01*
X158606247Y-92456501D01*
X158481486Y-92454095D01*
X158436088Y-92453597D01*
X158357886Y-92453005D01*
X158247965Y-92452322D01*
X158107411Y-92451554D01*
X157937309Y-92450702D01*
X157738743Y-92449773D01*
X157512800Y-92448769D01*
X157260564Y-92447695D01*
X156983122Y-92446555D01*
X156681556Y-92445352D01*
X156356955Y-92444091D01*
X156010401Y-92442776D01*
X155642981Y-92441410D01*
X155255780Y-92439998D01*
X154849883Y-92438544D01*
X154426375Y-92437051D01*
X153986342Y-92435524D01*
X153530868Y-92433967D01*
X153061040Y-92432383D01*
X152577941Y-92430777D01*
X152082659Y-92429153D01*
X151576276Y-92427514D01*
X151059880Y-92425866D01*
X150534554Y-92424210D01*
X150001385Y-92422553D01*
X149529558Y-92421104D01*
X141026662Y-92395161D01*
X140937857Y-92435817D01*
X140843113Y-92489293D01*
X140755411Y-92561658D01*
X140667621Y-92659049D01*
X140645074Y-92687699D01*
X140547549Y-92832716D01*
X140453273Y-93009184D01*
X140363040Y-93214755D01*
X140277645Y-93447082D01*
X140197883Y-93703815D01*
X140124549Y-93982605D01*
X140058438Y-94281106D01*
X140001767Y-94588433D01*
X139985079Y-94689633D01*
X139973831Y-94764388D01*
X139967708Y-94819649D01*
X139966395Y-94862370D01*
X139969575Y-94899500D01*
X139976932Y-94937993D01*
X139984452Y-94969687D01*
X140024257Y-95094105D01*
X140084881Y-95233277D01*
X140161947Y-95379292D01*
X140251080Y-95524238D01*
X140347904Y-95660205D01*
X140406278Y-95732321D01*
X140425366Y-95753479D01*
X140442732Y-95771598D01*
X140458110Y-95788447D01*
X140471232Y-95805795D01*
X140481833Y-95825413D01*
X140489647Y-95849070D01*
X140494407Y-95878537D01*
X140495848Y-95915582D01*
X140493702Y-95961976D01*
X140487704Y-96019488D01*
X140477588Y-96089888D01*
X140463088Y-96174945D01*
X140443937Y-96276430D01*
X140419868Y-96396112D01*
X140390617Y-96535762D01*
X140355916Y-96697147D01*
X140315500Y-96882039D01*
X140269101Y-97092208D01*
X140216455Y-97329422D01*
X140157295Y-97595452D01*
X140091354Y-97892067D01*
X140060532Y-98030885D01*
X140002650Y-98291257D01*
X139946399Y-98543417D01*
X139892255Y-98785279D01*
X139840691Y-99014758D01*
X139792184Y-99229768D01*
X139747208Y-99428224D01*
X139706238Y-99608041D01*
X139669750Y-99767132D01*
X139638218Y-99903413D01*
X139612117Y-100014798D01*
X139591923Y-100099201D01*
X139578111Y-100154537D01*
X139571406Y-100178095D01*
X139507599Y-100306640D01*
X139421204Y-100413654D01*
X139310635Y-100500266D01*
X139174311Y-100567605D01*
X139010648Y-100616800D01*
X138934990Y-100632039D01*
X138851436Y-100649048D01*
X138771808Y-100669130D01*
X138707434Y-100689248D01*
X138680359Y-100700307D01*
X138597171Y-100753506D01*
X138516148Y-100827514D01*
X138448938Y-100910691D01*
X138419841Y-100960661D01*
X138405317Y-101001794D01*
X138386659Y-101071787D01*
X138364712Y-101165977D01*
X138340321Y-101279703D01*
X138314332Y-101408301D01*
X138287589Y-101547111D01*
X138260940Y-101691470D01*
X138235228Y-101836716D01*
X138211300Y-101978187D01*
X138190001Y-102111221D01*
X138172175Y-102231156D01*
X138158669Y-102333329D01*
X138150328Y-102413080D01*
X138147931Y-102460146D01*
X138156442Y-102600712D01*
X138184348Y-102724542D01*
X138235203Y-102842755D01*
X138307592Y-102959382D01*
X138377745Y-103075150D01*
X138417791Y-103178915D01*
X138428405Y-103272859D01*
X138420760Y-103326082D01*
X138409057Y-103360645D01*
X138385742Y-103419671D01*
X138353441Y-103496869D01*
X138314777Y-103585945D01*
X138279468Y-103664974D01*
X138154403Y-103948526D01*
X138041660Y-104219034D01*
X137941735Y-104474828D01*
X137855123Y-104714238D01*
X137782319Y-104935595D01*
X137723818Y-105137226D01*
X137680116Y-105317464D01*
X137651706Y-105474637D01*
X137639085Y-105607075D01*
X137642747Y-105713108D01*
X137655261Y-105770717D01*
X137692900Y-105838432D01*
X137752711Y-105897022D01*
X137823324Y-105936554D01*
X137855274Y-105945422D01*
X137922569Y-105962172D01*
X137966756Y-105987918D01*
X137998597Y-106030557D01*
X138013683Y-106061654D01*
X138049412Y-106174512D01*
X138068203Y-106313864D01*
X138070163Y-106480870D01*
X138063269Y-106595268D01*
X138043249Y-106804503D01*
X138016419Y-107034806D01*
X137983632Y-107281428D01*
X137945739Y-107539618D01*
X137903592Y-107804627D01*
X137858042Y-108071704D01*
X137809942Y-108336100D01*
X137760142Y-108593066D01*
X137709495Y-108837850D01*
X137658852Y-109065703D01*
X137609065Y-109271875D01*
X137560985Y-109451617D01*
X137535947Y-109536289D01*
X137482961Y-109697305D01*
X137432380Y-109826993D01*
X137382638Y-109927679D01*
X137332166Y-110001692D01*
X137279397Y-110051357D01*
X137222762Y-110079001D01*
X137164870Y-110086989D01*
X137115629Y-110092651D01*
X137079107Y-110104636D01*
X137052250Y-110131475D01*
X137016761Y-110185288D01*
X136974948Y-110260974D01*
X136929118Y-110353431D01*
X136881580Y-110457559D01*
X136834642Y-110568255D01*
X136790611Y-110680420D01*
X136751795Y-110788952D01*
X136720502Y-110888749D01*
X136714371Y-110910821D01*
X136684110Y-111057876D01*
X136667593Y-111216940D01*
X136664964Y-111377490D01*
X136676370Y-111529000D01*
X136701956Y-111660948D01*
X136703916Y-111667909D01*
X136768751Y-111849123D01*
X136856342Y-112016163D01*
X136970172Y-112174528D01*
X137113731Y-112329722D01*
X137138272Y-112353283D01*
X137213739Y-112420912D01*
X137298749Y-112491137D01*
X137380572Y-112553678D01*
X137423512Y-112583682D01*
X137519567Y-112643603D01*
X137631830Y-112707358D01*
X137755566Y-112772815D01*
X137886041Y-112837844D01*
X138018520Y-112900315D01*
X138148269Y-112958096D01*
X138270552Y-113009056D01*
X138380636Y-113051066D01*
X138473785Y-113081995D01*
X138545266Y-113099712D01*
X138577810Y-113103133D01*
X138655280Y-113090396D01*
X138730706Y-113050983D01*
X138806225Y-112983087D01*
X138883976Y-112884903D01*
X138941647Y-112795915D01*
X138978752Y-112738226D01*
X139007474Y-112704366D01*
X139034569Y-112687840D01*
X139059328Y-112682764D01*
X139095581Y-112684120D01*
X139120594Y-112700421D01*
X139137685Y-112737109D01*
X139150173Y-112799627D01*
X139155517Y-112840491D01*
X139168422Y-112929927D01*
X139186641Y-113031500D01*
X139207952Y-113134675D01*
X139230129Y-113228918D01*
X139250950Y-113303693D01*
X139257368Y-113322931D01*
X139282304Y-113378837D01*
X139312221Y-113427558D01*
X139321919Y-113439405D01*
X139351601Y-113461883D01*
X139410300Y-113497206D01*
X139496072Y-113544437D01*
X139606974Y-113602641D01*
X139741062Y-113670880D01*
X139896391Y-113748220D01*
X140071019Y-113833724D01*
X140263002Y-113926456D01*
X140470395Y-114025480D01*
X140691255Y-114129861D01*
X140923637Y-114238662D01*
X141165599Y-114350947D01*
X141415197Y-114465780D01*
X141670485Y-114582225D01*
X141929522Y-114699347D01*
X142062140Y-114758900D01*
X142297793Y-114864089D01*
X142549249Y-114975619D01*
X142814626Y-115092690D01*
X143092042Y-115214500D01*
X143379613Y-115340247D01*
X143675459Y-115469130D01*
X143977696Y-115600346D01*
X144284442Y-115733095D01*
X144593814Y-115866574D01*
X144903931Y-115999982D01*
X145212909Y-116132517D01*
X145518867Y-116263377D01*
X145819921Y-116391762D01*
X146114190Y-116516868D01*
X146399792Y-116637895D01*
X146674843Y-116754041D01*
X146937461Y-116864503D01*
X147185764Y-116968481D01*
X147417870Y-117065173D01*
X147631895Y-117153777D01*
X147825959Y-117233491D01*
X147998177Y-117303514D01*
X148146669Y-117363044D01*
X148269551Y-117411279D01*
X148364941Y-117447418D01*
X148424849Y-117468645D01*
X148517553Y-117498878D01*
X148587248Y-117519246D01*
X148642782Y-117531436D01*
X148693004Y-117537135D01*
X148746765Y-117538033D01*
X148783304Y-117537008D01*
X148864152Y-117531620D01*
X148927130Y-117519878D01*
X148988165Y-117497930D01*
X149034765Y-117476156D01*
X149107228Y-117434765D01*
X149181821Y-117380060D01*
X149260508Y-117309834D01*
X149345250Y-117221878D01*
X149438008Y-117113985D01*
X149540746Y-116983945D01*
X149655426Y-116829551D01*
X149784008Y-116648595D01*
X149833900Y-116576782D01*
X149885908Y-116502589D01*
X149954274Y-116406649D01*
X150035082Y-116294370D01*
X150124418Y-116171160D01*
X150218364Y-116042429D01*
X150313005Y-115913583D01*
X150367591Y-115839691D01*
X150647313Y-115458144D01*
X150903785Y-115100379D01*
X151137344Y-114765843D01*
X151348329Y-114453982D01*
X151537075Y-114164246D01*
X151703921Y-113896080D01*
X151849203Y-113648932D01*
X151973259Y-113422250D01*
X152076426Y-113215481D01*
X152159041Y-113028073D01*
X152221441Y-112859472D01*
X152254593Y-112747296D01*
X152277668Y-112606087D01*
X152277071Y-112460765D01*
X152253569Y-112321979D01*
X152216287Y-112217372D01*
X152136838Y-112087305D01*
X152026058Y-111968879D01*
X151884545Y-111862387D01*
X151712903Y-111768124D01*
X151511730Y-111686387D01*
X151281630Y-111617468D01*
X151023202Y-111561663D01*
X150811646Y-111528658D01*
X150696804Y-111511934D01*
X150612275Y-111496194D01*
X150554532Y-111480653D01*
X150520045Y-111464527D01*
X150518675Y-111463551D01*
X150465155Y-111407458D01*
X150430503Y-111336931D01*
X150420662Y-111264651D01*
X150421467Y-111256168D01*
X150431955Y-111228334D01*
X150459936Y-111171937D01*
X150505214Y-111087322D01*
X150567596Y-110974833D01*
X150646887Y-110834816D01*
X150742891Y-110667615D01*
X150855415Y-110473575D01*
X150984264Y-110253040D01*
X151081771Y-110086989D01*
X151187460Y-109907556D01*
X151289206Y-109735255D01*
X151385551Y-109572530D01*
X151475039Y-109421821D01*
X151556211Y-109285571D01*
X151627608Y-109166222D01*
X151687775Y-109066215D01*
X151735252Y-108987992D01*
X151768583Y-108933996D01*
X151786308Y-108906668D01*
X151786774Y-108906025D01*
X151867338Y-108820866D01*
X151970079Y-108749362D01*
X152085091Y-108696588D01*
X152202467Y-108667616D01*
X152260022Y-108663640D01*
X152308058Y-108665614D01*
X152380518Y-108671013D01*
X152468201Y-108679051D01*
X152561903Y-108688943D01*
X152577763Y-108690752D01*
X152675509Y-108700545D01*
X152772693Y-108707704D01*
X152858676Y-108711600D01*
X152922817Y-108711609D01*
X152927773Y-108711363D01*
X153042824Y-108704862D01*
X153230031Y-108519041D01*
X153540071Y-108192557D01*
X153829531Y-107849782D01*
X154096301Y-107493947D01*
X154338270Y-107128286D01*
X154553328Y-106756031D01*
X154739364Y-106380413D01*
X154894268Y-106004666D01*
X154922220Y-105927253D01*
X154977696Y-105756731D01*
X155023041Y-105590597D01*
X155057464Y-105433493D01*
X155080177Y-105290064D01*
X155090390Y-105164953D01*
X155087313Y-105062802D01*
X155077952Y-105011427D01*
X155046476Y-104931406D01*
X154993455Y-104836872D01*
X154923430Y-104734943D01*
X154840942Y-104632736D01*
X154824608Y-104614288D01*
X154780518Y-104563376D01*
X154749018Y-104523336D01*
X154734149Y-104499526D01*
X154734887Y-104495261D01*
X154758866Y-104485539D01*
X154804452Y-104458829D01*
X154866397Y-104418817D01*
X154939454Y-104369189D01*
X155018377Y-104313630D01*
X155097919Y-104255825D01*
X155172832Y-104199460D01*
X155237869Y-104148220D01*
X155282043Y-104110938D01*
X155445181Y-103954025D01*
X155580381Y-103795617D01*
X155692018Y-103628728D01*
X155784469Y-103446376D01*
X155862107Y-103241575D01*
X155896123Y-103130725D01*
X155958293Y-102864528D01*
X155993942Y-102594803D01*
X156003203Y-102326389D01*
X155986212Y-102064125D01*
X155943104Y-101812850D01*
X155874013Y-101577401D01*
X155851130Y-101517687D01*
X155810329Y-101416673D01*
X156070887Y-100859069D01*
X156232871Y-100511812D01*
X156394868Y-100163355D01*
X156555605Y-99816480D01*
X156713808Y-99473972D01*
X156868203Y-99138614D01*
X157017516Y-98813188D01*
X157160473Y-98500479D01*
X157295800Y-98203270D01*
X157422225Y-97924344D01*
X157538472Y-97666485D01*
X157643268Y-97432476D01*
X157735339Y-97225101D01*
X157770576Y-97145094D01*
X157869131Y-96930742D01*
X157965050Y-96745284D01*
X158062085Y-96584330D01*
X158163986Y-96443494D01*
X158274505Y-96318385D01*
X158397393Y-96204616D01*
X158536402Y-96097799D01*
X158695283Y-95993544D01*
X158815865Y-95922288D01*
X158987415Y-95808237D01*
X159156916Y-95664981D01*
X159321185Y-95497181D01*
X159477038Y-95309503D01*
X159621292Y-95106610D01*
X159750765Y-94893166D01*
X159862271Y-94673834D01*
X159952629Y-94453279D01*
X160018655Y-94236165D01*
X160042503Y-94125148D01*
X160053649Y-94040857D01*
X160061321Y-93935329D01*
X160065580Y-93816246D01*
X160066488Y-93691292D01*
X160066488Y-98043450D01*
X159917975Y-98343523D01*
X159766279Y-98650178D01*
X159627095Y-98931801D01*
X159499151Y-99191059D01*
X159381176Y-99430616D01*
X159271897Y-99653138D01*
X159170043Y-99861290D01*
X159074344Y-100057738D01*
X158983526Y-100245146D01*
X158896319Y-100426180D01*
X158811451Y-100603505D01*
X158727650Y-100779787D01*
X158643645Y-100957691D01*
X158558165Y-101139883D01*
X158469937Y-101329027D01*
X158377691Y-101527788D01*
X158280154Y-101738834D01*
X158176056Y-101964827D01*
X158064124Y-102208435D01*
X157943087Y-102472321D01*
X157811673Y-102759153D01*
X157676223Y-103054968D01*
X157532610Y-103369160D01*
X157381026Y-103701729D01*
X157223285Y-104048650D01*
X157061203Y-104405898D01*
X156896595Y-104769448D01*
X156731276Y-105135277D01*
X156567060Y-105499358D01*
X156405763Y-105857668D01*
X156249200Y-106206182D01*
X156099184Y-106540875D01*
X155957532Y-106857723D01*
X155826058Y-107152700D01*
X155706578Y-107421782D01*
X155682933Y-107475182D01*
X155547839Y-107780616D01*
X155425070Y-108058641D01*
X155313130Y-108312794D01*
X155210525Y-108546608D01*
X155115758Y-108763620D01*
X155027333Y-108967363D01*
X154943757Y-109161374D01*
X154863532Y-109349187D01*
X154785164Y-109534337D01*
X154707156Y-109720359D01*
X154628015Y-109910788D01*
X154546243Y-110109160D01*
X154460346Y-110319010D01*
X154368828Y-110543871D01*
X154270194Y-110787280D01*
X154162948Y-111052772D01*
X154045594Y-111343881D01*
X154031572Y-111378693D01*
X153914069Y-111671002D01*
X153787066Y-111988017D01*
X153652711Y-112324323D01*
X153513153Y-112674503D01*
X153370539Y-113033141D01*
X153227019Y-113394821D01*
X153084740Y-113754128D01*
X152945851Y-114105646D01*
X152812501Y-114443957D01*
X152686837Y-114763648D01*
X152571007Y-115059300D01*
X152532240Y-115158527D01*
X152435863Y-115405074D01*
X152341020Y-115647056D01*
X152248651Y-115882102D01*
X152159698Y-116107844D01*
X152075103Y-116321912D01*
X151995807Y-116521938D01*
X151922752Y-116705551D01*
X151856880Y-116870384D01*
X151799131Y-117014067D01*
X151750448Y-117134230D01*
X151711771Y-117228505D01*
X151684044Y-117294521D01*
X151676125Y-117312722D01*
X151626110Y-117423746D01*
X151583371Y-117512553D01*
X151542531Y-117588363D01*
X151498212Y-117660398D01*
X151445039Y-117737879D01*
X151377635Y-117830028D01*
X151363216Y-117849366D01*
X151293535Y-117941644D01*
X151236711Y-118013333D01*
X151185956Y-118071456D01*
X151134477Y-118123035D01*
X151075485Y-118175092D01*
X151002189Y-118234651D01*
X150953848Y-118272737D01*
X150858595Y-118344216D01*
X150745188Y-118424377D01*
X150625077Y-118505406D01*
X150509712Y-118579489D01*
X150457557Y-118611383D01*
X150350570Y-118674407D01*
X150261188Y-118723941D01*
X150179364Y-118764668D01*
X150095048Y-118801271D01*
X149998195Y-118838432D01*
X149881440Y-118879903D01*
X149577084Y-118985715D01*
X149178885Y-118992228D01*
X149033612Y-118993979D01*
X148914720Y-118993769D01*
X148814745Y-118991296D01*
X148726219Y-118986261D01*
X148641675Y-118978366D01*
X148553648Y-118967310D01*
X148551933Y-118967073D01*
X148511589Y-118961578D01*
X148473677Y-118956414D01*
X148437187Y-118951155D01*
X148401109Y-118945377D01*
X148364433Y-118938656D01*
X148326149Y-118930569D01*
X148285246Y-118920691D01*
X148240715Y-118908599D01*
X148191544Y-118893867D01*
X148136725Y-118876073D01*
X148075246Y-118854792D01*
X148006097Y-118829599D01*
X147928269Y-118800072D01*
X147840752Y-118765785D01*
X147742534Y-118726315D01*
X147632606Y-118681238D01*
X147509957Y-118630129D01*
X147373578Y-118572566D01*
X147222458Y-118508122D01*
X147055588Y-118436376D01*
X146871956Y-118356901D01*
X146670552Y-118269275D01*
X146450368Y-118173074D01*
X146210391Y-118067872D01*
X145949613Y-117953247D01*
X145667023Y-117828774D01*
X145361610Y-117694029D01*
X145032365Y-117548589D01*
X144678277Y-117392028D01*
X144298337Y-117223923D01*
X143891533Y-117043850D01*
X143456857Y-116851385D01*
X142993297Y-116646103D01*
X142499843Y-116427581D01*
X142453556Y-116407084D01*
X142048108Y-116227485D01*
X141649578Y-116050839D01*
X141259148Y-115877674D01*
X140877999Y-115708517D01*
X140507312Y-115543895D01*
X140148270Y-115384335D01*
X139802053Y-115230365D01*
X139469843Y-115082512D01*
X139152821Y-114941304D01*
X138852169Y-114807268D01*
X138569068Y-114680931D01*
X138304700Y-114562821D01*
X138060245Y-114453464D01*
X137836886Y-114353388D01*
X137635804Y-114263121D01*
X137458179Y-114183190D01*
X137305195Y-114114122D01*
X137178031Y-114056445D01*
X137077870Y-114010685D01*
X137005893Y-113977370D01*
X136963281Y-113957028D01*
X136955024Y-113952804D01*
X136719821Y-113811854D01*
X136495213Y-113648774D01*
X136286706Y-113468416D01*
X136099804Y-113275637D01*
X135940011Y-113075291D01*
X135908418Y-113029757D01*
X135789030Y-112833494D01*
X135678071Y-112613760D01*
X135579133Y-112379786D01*
X135495812Y-112140804D01*
X135431700Y-111906047D01*
X135393569Y-111707198D01*
X135386077Y-111652839D01*
X135379978Y-111598910D01*
X135375438Y-111543374D01*
X135372625Y-111484196D01*
X135371705Y-111419342D01*
X135372844Y-111346776D01*
X135376211Y-111264462D01*
X135381971Y-111170366D01*
X135390291Y-111062453D01*
X135401338Y-110938686D01*
X135415280Y-110797032D01*
X135432282Y-110635454D01*
X135452512Y-110451917D01*
X135476136Y-110244387D01*
X135503321Y-110010827D01*
X135534234Y-109749203D01*
X135569042Y-109457479D01*
X135597192Y-109222813D01*
X135633230Y-108923472D01*
X135665941Y-108653482D01*
X135695920Y-108408534D01*
X135723759Y-108184317D01*
X135750051Y-107976521D01*
X135775391Y-107780835D01*
X135800371Y-107592951D01*
X135825586Y-107408556D01*
X135851628Y-107223342D01*
X135879090Y-107032999D01*
X135908567Y-106833214D01*
X135940652Y-106619680D01*
X135975938Y-106388085D01*
X136015019Y-106134119D01*
X136058487Y-105853472D01*
X136081274Y-105706802D01*
X136138452Y-105340801D01*
X136191478Y-105005213D01*
X136240881Y-104696886D01*
X136287191Y-104412668D01*
X136330937Y-104149409D01*
X136372650Y-103903956D01*
X136412859Y-103673158D01*
X136452093Y-103453863D01*
X136490883Y-103242921D01*
X136529758Y-103037178D01*
X136531219Y-103029551D01*
X136630480Y-102516406D01*
X136728959Y-102016827D01*
X136826126Y-101533345D01*
X136921450Y-101068492D01*
X137014403Y-100624800D01*
X137104455Y-100204798D01*
X137191076Y-99811020D01*
X137273736Y-99445997D01*
X137343099Y-99149230D01*
X137384664Y-98973234D01*
X137432240Y-98769859D01*
X137484515Y-98544815D01*
X137540179Y-98303810D01*
X137597920Y-98052555D01*
X137656426Y-97796759D01*
X137714387Y-97542133D01*
X137770491Y-97294384D01*
X137823425Y-97059224D01*
X137835414Y-97005735D01*
X137891931Y-96755704D01*
X137951718Y-96495607D01*
X138014132Y-96228002D01*
X138078531Y-95955445D01*
X138144273Y-95680493D01*
X138210717Y-95405705D01*
X138277220Y-95133636D01*
X138343140Y-94866845D01*
X138407835Y-94607888D01*
X138470663Y-94359323D01*
X138530983Y-94123706D01*
X138588151Y-93903595D01*
X138641527Y-93701548D01*
X138690469Y-93520120D01*
X138734333Y-93361870D01*
X138772479Y-93229354D01*
X138804264Y-93125131D01*
X138825927Y-93060343D01*
X138935579Y-92790802D01*
X139065505Y-92535718D01*
X139212972Y-92299327D01*
X139375250Y-92085867D01*
X139549605Y-91899574D01*
X139610275Y-91843946D01*
X139693421Y-91773251D01*
X139792441Y-91692837D01*
X139895336Y-91612259D01*
X139990104Y-91541073D01*
X139996378Y-91536505D01*
X140085418Y-91473059D01*
X140158789Y-91424765D01*
X140226925Y-91385979D01*
X140300265Y-91351058D01*
X140389245Y-91314360D01*
X140452400Y-91289934D01*
X140696157Y-91203731D01*
X140932028Y-91133735D01*
X141153818Y-91081599D01*
X141355224Y-91048991D01*
X141389583Y-91046951D01*
X141456584Y-91044990D01*
X141554977Y-91043107D01*
X141683515Y-91041302D01*
X141840949Y-91039575D01*
X142026031Y-91037926D01*
X142237514Y-91036355D01*
X142474148Y-91034861D01*
X142734685Y-91033445D01*
X143017878Y-91032107D01*
X143322478Y-91030846D01*
X143647237Y-91029663D01*
X143990907Y-91028557D01*
X144352239Y-91027529D01*
X144729985Y-91026578D01*
X145122898Y-91025704D01*
X145529729Y-91024908D01*
X145949229Y-91024190D01*
X146380151Y-91023548D01*
X146821246Y-91022983D01*
X147271266Y-91022496D01*
X147728963Y-91022085D01*
X148193088Y-91021751D01*
X148662394Y-91021495D01*
X149135633Y-91021315D01*
X149611555Y-91021212D01*
X150088914Y-91021186D01*
X150566460Y-91021236D01*
X151042945Y-91021363D01*
X151517122Y-91021567D01*
X151987742Y-91021847D01*
X152453556Y-91022204D01*
X152913317Y-91022637D01*
X153365777Y-91023147D01*
X153809687Y-91023733D01*
X154243799Y-91024394D01*
X154666865Y-91025132D01*
X155077636Y-91025947D01*
X155474865Y-91026838D01*
X155857303Y-91027805D01*
X156223702Y-91028847D01*
X156572814Y-91029966D01*
X156903390Y-91031161D01*
X157214183Y-91032432D01*
X157503944Y-91033778D01*
X157771425Y-91035201D01*
X158015378Y-91036699D01*
X158234555Y-91038272D01*
X158427706Y-91039922D01*
X158593585Y-91041647D01*
X158730943Y-91043447D01*
X158838532Y-91045323D01*
X158915103Y-91047274D01*
X158959409Y-91049301D01*
X158964408Y-91049727D01*
X159263239Y-91096507D01*
X159560599Y-91176923D01*
X159855873Y-91290730D01*
X160148447Y-91437685D01*
X160437705Y-91617545D01*
X160489425Y-91653432D01*
X160581800Y-91719477D01*
X160653529Y-91773898D01*
X160712257Y-91823724D01*
X160765629Y-91875989D01*
X160821292Y-91937722D01*
X160886890Y-92015956D01*
X160896995Y-92028251D01*
X161095694Y-92292244D01*
X161266049Y-92564743D01*
X161406767Y-92843126D01*
X161516557Y-93124771D01*
X161594128Y-93407058D01*
X161606648Y-93468501D01*
X161632189Y-93643151D01*
X161647645Y-93840420D01*
X161652947Y-94050551D01*
X161652947Y-94050551D01*
X161652947Y-94050551D01*
G37*
X161652947Y-94050551D02*
X161648024Y-94263788D01*
X161632805Y-94470373D01*
X161614925Y-94612886D01*
X161606845Y-94665222D01*
X161598561Y-94714990D01*
X161589421Y-94763637D01*
X161578774Y-94812605D01*
X161565970Y-94863341D01*
X161550356Y-94917287D01*
X161531281Y-94975888D01*
X161508095Y-95040589D01*
X161480145Y-95112835D01*
X161446781Y-95194068D01*
X161407351Y-95285735D01*
X161361204Y-95389279D01*
X161307688Y-95506144D01*
X161246153Y-95637776D01*
X161175946Y-95785618D01*
X161096417Y-95951114D01*
X161006914Y-96135710D01*
X160906787Y-96340849D01*
X160795383Y-96567977D01*
X160672051Y-96818536D01*
X160536140Y-97093973D01*
X160386999Y-97395730D01*
X160223977Y-97725253D01*
X160083453Y-98009172D01*
X160066488Y-98043450D01*
X160066488Y-93691292D01*
X160064107Y-93568148D01*
X160058498Y-93454500D01*
X160049723Y-93358029D01*
X160037843Y-93286419D01*
X160035695Y-93277916D01*
X159973156Y-93103612D01*
X159884680Y-92949847D01*
X159794455Y-92839902D01*
X159680842Y-92734431D01*
X159558005Y-92651345D01*
X159415705Y-92584112D01*
X159361943Y-92564012D01*
X159273825Y-92534851D01*
X159188132Y-92511419D01*
X159099440Y-92493040D01*
X159002327Y-92479035D01*
X158891372Y-92468728D01*
X158761153Y-92461443D01*
X158606247Y-92456501D01*
X158481486Y-92454095D01*
X158436088Y-92453597D01*
X158357886Y-92453005D01*
X158247965Y-92452322D01*
X158107411Y-92451554D01*
X157937309Y-92450702D01*
X157738743Y-92449773D01*
X157512800Y-92448769D01*
X157260564Y-92447695D01*
X156983122Y-92446555D01*
X156681556Y-92445352D01*
X156356955Y-92444091D01*
X156010401Y-92442776D01*
X155642981Y-92441410D01*
X155255780Y-92439998D01*
X154849883Y-92438544D01*
X154426375Y-92437051D01*
X153986342Y-92435524D01*
X153530868Y-92433967D01*
X153061040Y-92432383D01*
X152577941Y-92430777D01*
X152082659Y-92429153D01*
X151576276Y-92427514D01*
X151059880Y-92425866D01*
X150534554Y-92424210D01*
X150001385Y-92422553D01*
X149529558Y-92421104D01*
X141026662Y-92395161D01*
X140937857Y-92435817D01*
X140843113Y-92489293D01*
X140755411Y-92561658D01*
X140667621Y-92659049D01*
X140645074Y-92687699D01*
X140547549Y-92832716D01*
X140453273Y-93009184D01*
X140363040Y-93214755D01*
X140277645Y-93447082D01*
X140197883Y-93703815D01*
X140124549Y-93982605D01*
X140058438Y-94281106D01*
X140001767Y-94588433D01*
X139985079Y-94689633D01*
X139973831Y-94764388D01*
X139967708Y-94819649D01*
X139966395Y-94862370D01*
X139969575Y-94899500D01*
X139976932Y-94937993D01*
X139984452Y-94969687D01*
X140024257Y-95094105D01*
X140084881Y-95233277D01*
X140161947Y-95379292D01*
X140251080Y-95524238D01*
X140347904Y-95660205D01*
X140406278Y-95732321D01*
X140425366Y-95753479D01*
X140442732Y-95771598D01*
X140458110Y-95788447D01*
X140471232Y-95805795D01*
X140481833Y-95825413D01*
X140489647Y-95849070D01*
X140494407Y-95878537D01*
X140495848Y-95915582D01*
X140493702Y-95961976D01*
X140487704Y-96019488D01*
X140477588Y-96089888D01*
X140463088Y-96174945D01*
X140443937Y-96276430D01*
X140419868Y-96396112D01*
X140390617Y-96535762D01*
X140355916Y-96697147D01*
X140315500Y-96882039D01*
X140269101Y-97092208D01*
X140216455Y-97329422D01*
X140157295Y-97595452D01*
X140091354Y-97892067D01*
X140060532Y-98030885D01*
X140002650Y-98291257D01*
X139946399Y-98543417D01*
X139892255Y-98785279D01*
X139840691Y-99014758D01*
X139792184Y-99229768D01*
X139747208Y-99428224D01*
X139706238Y-99608041D01*
X139669750Y-99767132D01*
X139638218Y-99903413D01*
X139612117Y-100014798D01*
X139591923Y-100099201D01*
X139578111Y-100154537D01*
X139571406Y-100178095D01*
X139507599Y-100306640D01*
X139421204Y-100413654D01*
X139310635Y-100500266D01*
X139174311Y-100567605D01*
X139010648Y-100616800D01*
X138934990Y-100632039D01*
X138851436Y-100649048D01*
X138771808Y-100669130D01*
X138707434Y-100689248D01*
X138680359Y-100700307D01*
X138597171Y-100753506D01*
X138516148Y-100827514D01*
X138448938Y-100910691D01*
X138419841Y-100960661D01*
X138405317Y-101001794D01*
X138386659Y-101071787D01*
X138364712Y-101165977D01*
X138340321Y-101279703D01*
X138314332Y-101408301D01*
X138287589Y-101547111D01*
X138260940Y-101691470D01*
X138235228Y-101836716D01*
X138211300Y-101978187D01*
X138190001Y-102111221D01*
X138172175Y-102231156D01*
X138158669Y-102333329D01*
X138150328Y-102413080D01*
X138147931Y-102460146D01*
X138156442Y-102600712D01*
X138184348Y-102724542D01*
X138235203Y-102842755D01*
X138307592Y-102959382D01*
X138377745Y-103075150D01*
X138417791Y-103178915D01*
X138428405Y-103272859D01*
X138420760Y-103326082D01*
X138409057Y-103360645D01*
X138385742Y-103419671D01*
X138353441Y-103496869D01*
X138314777Y-103585945D01*
X138279468Y-103664974D01*
X138154403Y-103948526D01*
X138041660Y-104219034D01*
X137941735Y-104474828D01*
X137855123Y-104714238D01*
X137782319Y-104935595D01*
X137723818Y-105137226D01*
X137680116Y-105317464D01*
X137651706Y-105474637D01*
X137639085Y-105607075D01*
X137642747Y-105713108D01*
X137655261Y-105770717D01*
X137692900Y-105838432D01*
X137752711Y-105897022D01*
X137823324Y-105936554D01*
X137855274Y-105945422D01*
X137922569Y-105962172D01*
X137966756Y-105987918D01*
X137998597Y-106030557D01*
X138013683Y-106061654D01*
X138049412Y-106174512D01*
X138068203Y-106313864D01*
X138070163Y-106480870D01*
X138063269Y-106595268D01*
X138043249Y-106804503D01*
X138016419Y-107034806D01*
X137983632Y-107281428D01*
X137945739Y-107539618D01*
X137903592Y-107804627D01*
X137858042Y-108071704D01*
X137809942Y-108336100D01*
X137760142Y-108593066D01*
X137709495Y-108837850D01*
X137658852Y-109065703D01*
X137609065Y-109271875D01*
X137560985Y-109451617D01*
X137535947Y-109536289D01*
X137482961Y-109697305D01*
X137432380Y-109826993D01*
X137382638Y-109927679D01*
X137332166Y-110001692D01*
X137279397Y-110051357D01*
X137222762Y-110079001D01*
X137164870Y-110086989D01*
X137115629Y-110092651D01*
X137079107Y-110104636D01*
X137052250Y-110131475D01*
X137016761Y-110185288D01*
X136974948Y-110260974D01*
X136929118Y-110353431D01*
X136881580Y-110457559D01*
X136834642Y-110568255D01*
X136790611Y-110680420D01*
X136751795Y-110788952D01*
X136720502Y-110888749D01*
X136714371Y-110910821D01*
X136684110Y-111057876D01*
X136667593Y-111216940D01*
X136664964Y-111377490D01*
X136676370Y-111529000D01*
X136701956Y-111660948D01*
X136703916Y-111667909D01*
X136768751Y-111849123D01*
X136856342Y-112016163D01*
X136970172Y-112174528D01*
X137113731Y-112329722D01*
X137138272Y-112353283D01*
X137213739Y-112420912D01*
X137298749Y-112491137D01*
X137380572Y-112553678D01*
X137423512Y-112583682D01*
X137519567Y-112643603D01*
X137631830Y-112707358D01*
X137755566Y-112772815D01*
X137886041Y-112837844D01*
X138018520Y-112900315D01*
X138148269Y-112958096D01*
X138270552Y-113009056D01*
X138380636Y-113051066D01*
X138473785Y-113081995D01*
X138545266Y-113099712D01*
X138577810Y-113103133D01*
X138655280Y-113090396D01*
X138730706Y-113050983D01*
X138806225Y-112983087D01*
X138883976Y-112884903D01*
X138941647Y-112795915D01*
X138978752Y-112738226D01*
X139007474Y-112704366D01*
X139034569Y-112687840D01*
X139059328Y-112682764D01*
X139095581Y-112684120D01*
X139120594Y-112700421D01*
X139137685Y-112737109D01*
X139150173Y-112799627D01*
X139155517Y-112840491D01*
X139168422Y-112929927D01*
X139186641Y-113031500D01*
X139207952Y-113134675D01*
X139230129Y-113228918D01*
X139250950Y-113303693D01*
X139257368Y-113322931D01*
X139282304Y-113378837D01*
X139312221Y-113427558D01*
X139321919Y-113439405D01*
X139351601Y-113461883D01*
X139410300Y-113497206D01*
X139496072Y-113544437D01*
X139606974Y-113602641D01*
X139741062Y-113670880D01*
X139896391Y-113748220D01*
X140071019Y-113833724D01*
X140263002Y-113926456D01*
X140470395Y-114025480D01*
X140691255Y-114129861D01*
X140923637Y-114238662D01*
X141165599Y-114350947D01*
X141415197Y-114465780D01*
X141670485Y-114582225D01*
X141929522Y-114699347D01*
X142062140Y-114758900D01*
X142297793Y-114864089D01*
X142549249Y-114975619D01*
X142814626Y-115092690D01*
X143092042Y-115214500D01*
X143379613Y-115340247D01*
X143675459Y-115469130D01*
X143977696Y-115600346D01*
X144284442Y-115733095D01*
X144593814Y-115866574D01*
X144903931Y-115999982D01*
X145212909Y-116132517D01*
X145518867Y-116263377D01*
X145819921Y-116391762D01*
X146114190Y-116516868D01*
X146399792Y-116637895D01*
X146674843Y-116754041D01*
X146937461Y-116864503D01*
X147185764Y-116968481D01*
X147417870Y-117065173D01*
X147631895Y-117153777D01*
X147825959Y-117233491D01*
X147998177Y-117303514D01*
X148146669Y-117363044D01*
X148269551Y-117411279D01*
X148364941Y-117447418D01*
X148424849Y-117468645D01*
X148517553Y-117498878D01*
X148587248Y-117519246D01*
X148642782Y-117531436D01*
X148693004Y-117537135D01*
X148746765Y-117538033D01*
X148783304Y-117537008D01*
X148864152Y-117531620D01*
X148927130Y-117519878D01*
X148988165Y-117497930D01*
X149034765Y-117476156D01*
X149107228Y-117434765D01*
X149181821Y-117380060D01*
X149260508Y-117309834D01*
X149345250Y-117221878D01*
X149438008Y-117113985D01*
X149540746Y-116983945D01*
X149655426Y-116829551D01*
X149784008Y-116648595D01*
X149833900Y-116576782D01*
X149885908Y-116502589D01*
X149954274Y-116406649D01*
X150035082Y-116294370D01*
X150124418Y-116171160D01*
X150218364Y-116042429D01*
X150313005Y-115913583D01*
X150367591Y-115839691D01*
X150647313Y-115458144D01*
X150903785Y-115100379D01*
X151137344Y-114765843D01*
X151348329Y-114453982D01*
X151537075Y-114164246D01*
X151703921Y-113896080D01*
X151849203Y-113648932D01*
X151973259Y-113422250D01*
X152076426Y-113215481D01*
X152159041Y-113028073D01*
X152221441Y-112859472D01*
X152254593Y-112747296D01*
X152277668Y-112606087D01*
X152277071Y-112460765D01*
X152253569Y-112321979D01*
X152216287Y-112217372D01*
X152136838Y-112087305D01*
X152026058Y-111968879D01*
X151884545Y-111862387D01*
X151712903Y-111768124D01*
X151511730Y-111686387D01*
X151281630Y-111617468D01*
X151023202Y-111561663D01*
X150811646Y-111528658D01*
X150696804Y-111511934D01*
X150612275Y-111496194D01*
X150554532Y-111480653D01*
X150520045Y-111464527D01*
X150518675Y-111463551D01*
X150465155Y-111407458D01*
X150430503Y-111336931D01*
X150420662Y-111264651D01*
X150421467Y-111256168D01*
X150431955Y-111228334D01*
X150459936Y-111171937D01*
X150505214Y-111087322D01*
X150567596Y-110974833D01*
X150646887Y-110834816D01*
X150742891Y-110667615D01*
X150855415Y-110473575D01*
X150984264Y-110253040D01*
X151081771Y-110086989D01*
X151187460Y-109907556D01*
X151289206Y-109735255D01*
X151385551Y-109572530D01*
X151475039Y-109421821D01*
X151556211Y-109285571D01*
X151627608Y-109166222D01*
X151687775Y-109066215D01*
X151735252Y-108987992D01*
X151768583Y-108933996D01*
X151786308Y-108906668D01*
X151786774Y-108906025D01*
X151867338Y-108820866D01*
X151970079Y-108749362D01*
X152085091Y-108696588D01*
X152202467Y-108667616D01*
X152260022Y-108663640D01*
X152308058Y-108665614D01*
X152380518Y-108671013D01*
X152468201Y-108679051D01*
X152561903Y-108688943D01*
X152577763Y-108690752D01*
X152675509Y-108700545D01*
X152772693Y-108707704D01*
X152858676Y-108711600D01*
X152922817Y-108711609D01*
X152927773Y-108711363D01*
X153042824Y-108704862D01*
X153230031Y-108519041D01*
X153540071Y-108192557D01*
X153829531Y-107849782D01*
X154096301Y-107493947D01*
X154338270Y-107128286D01*
X154553328Y-106756031D01*
X154739364Y-106380413D01*
X154894268Y-106004666D01*
X154922220Y-105927253D01*
X154977696Y-105756731D01*
X155023041Y-105590597D01*
X155057464Y-105433493D01*
X155080177Y-105290064D01*
X155090390Y-105164953D01*
X155087313Y-105062802D01*
X155077952Y-105011427D01*
X155046476Y-104931406D01*
X154993455Y-104836872D01*
X154923430Y-104734943D01*
X154840942Y-104632736D01*
X154824608Y-104614288D01*
X154780518Y-104563376D01*
X154749018Y-104523336D01*
X154734149Y-104499526D01*
X154734887Y-104495261D01*
X154758866Y-104485539D01*
X154804452Y-104458829D01*
X154866397Y-104418817D01*
X154939454Y-104369189D01*
X155018377Y-104313630D01*
X155097919Y-104255825D01*
X155172832Y-104199460D01*
X155237869Y-104148220D01*
X155282043Y-104110938D01*
X155445181Y-103954025D01*
X155580381Y-103795617D01*
X155692018Y-103628728D01*
X155784469Y-103446376D01*
X155862107Y-103241575D01*
X155896123Y-103130725D01*
X155958293Y-102864528D01*
X155993942Y-102594803D01*
X156003203Y-102326389D01*
X155986212Y-102064125D01*
X155943104Y-101812850D01*
X155874013Y-101577401D01*
X155851130Y-101517687D01*
X155810329Y-101416673D01*
X156070887Y-100859069D01*
X156232871Y-100511812D01*
X156394868Y-100163355D01*
X156555605Y-99816480D01*
X156713808Y-99473972D01*
X156868203Y-99138614D01*
X157017516Y-98813188D01*
X157160473Y-98500479D01*
X157295800Y-98203270D01*
X157422225Y-97924344D01*
X157538472Y-97666485D01*
X157643268Y-97432476D01*
X157735339Y-97225101D01*
X157770576Y-97145094D01*
X157869131Y-96930742D01*
X157965050Y-96745284D01*
X158062085Y-96584330D01*
X158163986Y-96443494D01*
X158274505Y-96318385D01*
X158397393Y-96204616D01*
X158536402Y-96097799D01*
X158695283Y-95993544D01*
X158815865Y-95922288D01*
X158987415Y-95808237D01*
X159156916Y-95664981D01*
X159321185Y-95497181D01*
X159477038Y-95309503D01*
X159621292Y-95106610D01*
X159750765Y-94893166D01*
X159862271Y-94673834D01*
X159952629Y-94453279D01*
X160018655Y-94236165D01*
X160042503Y-94125148D01*
X160053649Y-94040857D01*
X160061321Y-93935329D01*
X160065580Y-93816246D01*
X160066488Y-93691292D01*
X160066488Y-98043450D01*
X159917975Y-98343523D01*
X159766279Y-98650178D01*
X159627095Y-98931801D01*
X159499151Y-99191059D01*
X159381176Y-99430616D01*
X159271897Y-99653138D01*
X159170043Y-99861290D01*
X159074344Y-100057738D01*
X158983526Y-100245146D01*
X158896319Y-100426180D01*
X158811451Y-100603505D01*
X158727650Y-100779787D01*
X158643645Y-100957691D01*
X158558165Y-101139883D01*
X158469937Y-101329027D01*
X158377691Y-101527788D01*
X158280154Y-101738834D01*
X158176056Y-101964827D01*
X158064124Y-102208435D01*
X157943087Y-102472321D01*
X157811673Y-102759153D01*
X157676223Y-103054968D01*
X157532610Y-103369160D01*
X157381026Y-103701729D01*
X157223285Y-104048650D01*
X157061203Y-104405898D01*
X156896595Y-104769448D01*
X156731276Y-105135277D01*
X156567060Y-105499358D01*
X156405763Y-105857668D01*
X156249200Y-106206182D01*
X156099184Y-106540875D01*
X155957532Y-106857723D01*
X155826058Y-107152700D01*
X155706578Y-107421782D01*
X155682933Y-107475182D01*
X155547839Y-107780616D01*
X155425070Y-108058641D01*
X155313130Y-108312794D01*
X155210525Y-108546608D01*
X155115758Y-108763620D01*
X155027333Y-108967363D01*
X154943757Y-109161374D01*
X154863532Y-109349187D01*
X154785164Y-109534337D01*
X154707156Y-109720359D01*
X154628015Y-109910788D01*
X154546243Y-110109160D01*
X154460346Y-110319010D01*
X154368828Y-110543871D01*
X154270194Y-110787280D01*
X154162948Y-111052772D01*
X154045594Y-111343881D01*
X154031572Y-111378693D01*
X153914069Y-111671002D01*
X153787066Y-111988017D01*
X153652711Y-112324323D01*
X153513153Y-112674503D01*
X153370539Y-113033141D01*
X153227019Y-113394821D01*
X153084740Y-113754128D01*
X152945851Y-114105646D01*
X152812501Y-114443957D01*
X152686837Y-114763648D01*
X152571007Y-115059300D01*
X152532240Y-115158527D01*
X152435863Y-115405074D01*
X152341020Y-115647056D01*
X152248651Y-115882102D01*
X152159698Y-116107844D01*
X152075103Y-116321912D01*
X151995807Y-116521938D01*
X151922752Y-116705551D01*
X151856880Y-116870384D01*
X151799131Y-117014067D01*
X151750448Y-117134230D01*
X151711771Y-117228505D01*
X151684044Y-117294521D01*
X151676125Y-117312722D01*
X151626110Y-117423746D01*
X151583371Y-117512553D01*
X151542531Y-117588363D01*
X151498212Y-117660398D01*
X151445039Y-117737879D01*
X151377635Y-117830028D01*
X151363216Y-117849366D01*
X151293535Y-117941644D01*
X151236711Y-118013333D01*
X151185956Y-118071456D01*
X151134477Y-118123035D01*
X151075485Y-118175092D01*
X151002189Y-118234651D01*
X150953848Y-118272737D01*
X150858595Y-118344216D01*
X150745188Y-118424377D01*
X150625077Y-118505406D01*
X150509712Y-118579489D01*
X150457557Y-118611383D01*
X150350570Y-118674407D01*
X150261188Y-118723941D01*
X150179364Y-118764668D01*
X150095048Y-118801271D01*
X149998195Y-118838432D01*
X149881440Y-118879903D01*
X149577084Y-118985715D01*
X149178885Y-118992228D01*
X149033612Y-118993979D01*
X148914720Y-118993769D01*
X148814745Y-118991296D01*
X148726219Y-118986261D01*
X148641675Y-118978366D01*
X148553648Y-118967310D01*
X148551933Y-118967073D01*
X148511589Y-118961578D01*
X148473677Y-118956414D01*
X148437187Y-118951155D01*
X148401109Y-118945377D01*
X148364433Y-118938656D01*
X148326149Y-118930569D01*
X148285246Y-118920691D01*
X148240715Y-118908599D01*
X148191544Y-118893867D01*
X148136725Y-118876073D01*
X148075246Y-118854792D01*
X148006097Y-118829599D01*
X147928269Y-118800072D01*
X147840752Y-118765785D01*
X147742534Y-118726315D01*
X147632606Y-118681238D01*
X147509957Y-118630129D01*
X147373578Y-118572566D01*
X147222458Y-118508122D01*
X147055588Y-118436376D01*
X146871956Y-118356901D01*
X146670552Y-118269275D01*
X146450368Y-118173074D01*
X146210391Y-118067872D01*
X145949613Y-117953247D01*
X145667023Y-117828774D01*
X145361610Y-117694029D01*
X145032365Y-117548589D01*
X144678277Y-117392028D01*
X144298337Y-117223923D01*
X143891533Y-117043850D01*
X143456857Y-116851385D01*
X142993297Y-116646103D01*
X142499843Y-116427581D01*
X142453556Y-116407084D01*
X142048108Y-116227485D01*
X141649578Y-116050839D01*
X141259148Y-115877674D01*
X140877999Y-115708517D01*
X140507312Y-115543895D01*
X140148270Y-115384335D01*
X139802053Y-115230365D01*
X139469843Y-115082512D01*
X139152821Y-114941304D01*
X138852169Y-114807268D01*
X138569068Y-114680931D01*
X138304700Y-114562821D01*
X138060245Y-114453464D01*
X137836886Y-114353388D01*
X137635804Y-114263121D01*
X137458179Y-114183190D01*
X137305195Y-114114122D01*
X137178031Y-114056445D01*
X137077870Y-114010685D01*
X137005893Y-113977370D01*
X136963281Y-113957028D01*
X136955024Y-113952804D01*
X136719821Y-113811854D01*
X136495213Y-113648774D01*
X136286706Y-113468416D01*
X136099804Y-113275637D01*
X135940011Y-113075291D01*
X135908418Y-113029757D01*
X135789030Y-112833494D01*
X135678071Y-112613760D01*
X135579133Y-112379786D01*
X135495812Y-112140804D01*
X135431700Y-111906047D01*
X135393569Y-111707198D01*
X135386077Y-111652839D01*
X135379978Y-111598910D01*
X135375438Y-111543374D01*
X135372625Y-111484196D01*
X135371705Y-111419342D01*
X135372844Y-111346776D01*
X135376211Y-111264462D01*
X135381971Y-111170366D01*
X135390291Y-111062453D01*
X135401338Y-110938686D01*
X135415280Y-110797032D01*
X135432282Y-110635454D01*
X135452512Y-110451917D01*
X135476136Y-110244387D01*
X135503321Y-110010827D01*
X135534234Y-109749203D01*
X135569042Y-109457479D01*
X135597192Y-109222813D01*
X135633230Y-108923472D01*
X135665941Y-108653482D01*
X135695920Y-108408534D01*
X135723759Y-108184317D01*
X135750051Y-107976521D01*
X135775391Y-107780835D01*
X135800371Y-107592951D01*
X135825586Y-107408556D01*
X135851628Y-107223342D01*
X135879090Y-107032999D01*
X135908567Y-106833214D01*
X135940652Y-106619680D01*
X135975938Y-106388085D01*
X136015019Y-106134119D01*
X136058487Y-105853472D01*
X136081274Y-105706802D01*
X136138452Y-105340801D01*
X136191478Y-105005213D01*
X136240881Y-104696886D01*
X136287191Y-104412668D01*
X136330937Y-104149409D01*
X136372650Y-103903956D01*
X136412859Y-103673158D01*
X136452093Y-103453863D01*
X136490883Y-103242921D01*
X136529758Y-103037178D01*
X136531219Y-103029551D01*
X136630480Y-102516406D01*
X136728959Y-102016827D01*
X136826126Y-101533345D01*
X136921450Y-101068492D01*
X137014403Y-100624800D01*
X137104455Y-100204798D01*
X137191076Y-99811020D01*
X137273736Y-99445997D01*
X137343099Y-99149230D01*
X137384664Y-98973234D01*
X137432240Y-98769859D01*
X137484515Y-98544815D01*
X137540179Y-98303810D01*
X137597920Y-98052555D01*
X137656426Y-97796759D01*
X137714387Y-97542133D01*
X137770491Y-97294384D01*
X137823425Y-97059224D01*
X137835414Y-97005735D01*
X137891931Y-96755704D01*
X137951718Y-96495607D01*
X138014132Y-96228002D01*
X138078531Y-95955445D01*
X138144273Y-95680493D01*
X138210717Y-95405705D01*
X138277220Y-95133636D01*
X138343140Y-94866845D01*
X138407835Y-94607888D01*
X138470663Y-94359323D01*
X138530983Y-94123706D01*
X138588151Y-93903595D01*
X138641527Y-93701548D01*
X138690469Y-93520120D01*
X138734333Y-93361870D01*
X138772479Y-93229354D01*
X138804264Y-93125131D01*
X138825927Y-93060343D01*
X138935579Y-92790802D01*
X139065505Y-92535718D01*
X139212972Y-92299327D01*
X139375250Y-92085867D01*
X139549605Y-91899574D01*
X139610275Y-91843946D01*
X139693421Y-91773251D01*
X139792441Y-91692837D01*
X139895336Y-91612259D01*
X139990104Y-91541073D01*
X139996378Y-91536505D01*
X140085418Y-91473059D01*
X140158789Y-91424765D01*
X140226925Y-91385979D01*
X140300265Y-91351058D01*
X140389245Y-91314360D01*
X140452400Y-91289934D01*
X140696157Y-91203731D01*
X140932028Y-91133735D01*
X141153818Y-91081599D01*
X141355224Y-91048991D01*
X141389583Y-91046951D01*
X141456584Y-91044990D01*
X141554977Y-91043107D01*
X141683515Y-91041302D01*
X141840949Y-91039575D01*
X142026031Y-91037926D01*
X142237514Y-91036355D01*
X142474148Y-91034861D01*
X142734685Y-91033445D01*
X143017878Y-91032107D01*
X143322478Y-91030846D01*
X143647237Y-91029663D01*
X143990907Y-91028557D01*
X144352239Y-91027529D01*
X144729985Y-91026578D01*
X145122898Y-91025704D01*
X145529729Y-91024908D01*
X145949229Y-91024190D01*
X146380151Y-91023548D01*
X146821246Y-91022983D01*
X147271266Y-91022496D01*
X147728963Y-91022085D01*
X148193088Y-91021751D01*
X148662394Y-91021495D01*
X149135633Y-91021315D01*
X149611555Y-91021212D01*
X150088914Y-91021186D01*
X150566460Y-91021236D01*
X151042945Y-91021363D01*
X151517122Y-91021567D01*
X151987742Y-91021847D01*
X152453556Y-91022204D01*
X152913317Y-91022637D01*
X153365777Y-91023147D01*
X153809687Y-91023733D01*
X154243799Y-91024394D01*
X154666865Y-91025132D01*
X155077636Y-91025947D01*
X155474865Y-91026838D01*
X155857303Y-91027805D01*
X156223702Y-91028847D01*
X156572814Y-91029966D01*
X156903390Y-91031161D01*
X157214183Y-91032432D01*
X157503944Y-91033778D01*
X157771425Y-91035201D01*
X158015378Y-91036699D01*
X158234555Y-91038272D01*
X158427706Y-91039922D01*
X158593585Y-91041647D01*
X158730943Y-91043447D01*
X158838532Y-91045323D01*
X158915103Y-91047274D01*
X158959409Y-91049301D01*
X158964408Y-91049727D01*
X159263239Y-91096507D01*
X159560599Y-91176923D01*
X159855873Y-91290730D01*
X160148447Y-91437685D01*
X160437705Y-91617545D01*
X160489425Y-91653432D01*
X160581800Y-91719477D01*
X160653529Y-91773898D01*
X160712257Y-91823724D01*
X160765629Y-91875989D01*
X160821292Y-91937722D01*
X160886890Y-92015956D01*
X160896995Y-92028251D01*
X161095694Y-92292244D01*
X161266049Y-92564743D01*
X161406767Y-92843126D01*
X161516557Y-93124771D01*
X161594128Y-93407058D01*
X161606648Y-93468501D01*
X161632189Y-93643151D01*
X161647645Y-93840420D01*
X161652947Y-94050551D01*
X161652947Y-94050551D01*
G36*
X154526669Y-105141558D02*
X154523846Y-105272245D01*
X154496161Y-105424570D01*
X154443648Y-105598221D01*
X154366338Y-105792884D01*
X154271028Y-105994861D01*
X154154865Y-106213498D01*
X154028505Y-106429346D01*
X153893871Y-106640302D01*
X153752885Y-106844264D01*
X153607466Y-107039127D01*
X153459539Y-107222790D01*
X153311023Y-107393148D01*
X153163840Y-107548099D01*
X153019913Y-107685539D01*
X152881162Y-107803365D01*
X152749509Y-107899475D01*
X152626876Y-107971765D01*
X152515185Y-108018131D01*
X152416356Y-108036471D01*
X152405466Y-108036689D01*
X152353747Y-108032719D01*
X152299466Y-108019159D01*
X152236821Y-107993533D01*
X152160009Y-107953368D01*
X152063227Y-107896188D01*
X152034393Y-107878426D01*
X151938303Y-107825469D01*
X151858919Y-107797161D01*
X151791310Y-107792067D01*
X151758689Y-107798253D01*
X151678215Y-107834852D01*
X151585820Y-107901212D01*
X151482846Y-107995911D01*
X151370636Y-108117525D01*
X151250531Y-108264629D01*
X151123872Y-108435799D01*
X151031179Y-108570445D01*
X151008571Y-108605199D01*
X150969211Y-108666872D01*
X150914257Y-108753610D01*
X150844867Y-108863560D01*
X150762196Y-108994870D01*
X150667403Y-109145688D01*
X150561644Y-109314159D01*
X150446077Y-109498431D01*
X150321859Y-109696652D01*
X150190146Y-109906969D01*
X150052097Y-110127528D01*
X149908869Y-110356478D01*
X149761618Y-110591965D01*
X149611501Y-110832136D01*
X149459677Y-111075139D01*
X149307301Y-111319120D01*
X149155532Y-111562228D01*
X149005526Y-111802609D01*
X148858441Y-112038410D01*
X148715433Y-112267779D01*
X148577660Y-112488863D01*
X148446280Y-112699808D01*
X148322448Y-112898763D01*
X148207323Y-113083874D01*
X148102062Y-113253289D01*
X148007821Y-113405155D01*
X147925758Y-113537618D01*
X147857031Y-113648827D01*
X147802795Y-113736927D01*
X147764210Y-113800068D01*
X147743955Y-113833790D01*
X147660776Y-113983233D01*
X147599777Y-114111614D01*
X147559653Y-114222303D01*
X147539098Y-114318670D01*
X147535613Y-114371738D01*
X147539673Y-114426793D01*
X147554701Y-114473743D01*
X147584261Y-114515517D01*
X147631918Y-114555046D01*
X147701235Y-114595257D01*
X147795777Y-114639080D01*
X147919108Y-114689445D01*
X147924982Y-114691751D01*
X148018426Y-114727899D01*
X148105979Y-114760859D01*
X148180553Y-114788029D01*
X148235061Y-114806808D01*
X148255402Y-114813024D01*
X148364550Y-114829452D01*
X148485616Y-114826211D01*
X148603319Y-114803847D01*
X148615731Y-114800142D01*
X148709549Y-114763962D01*
X148799880Y-114713811D01*
X148888741Y-114647417D01*
X148978145Y-114562509D01*
X149070109Y-114456814D01*
X149166648Y-114328061D01*
X149269778Y-114173979D01*
X149381514Y-113992296D01*
X149474917Y-113831752D01*
X149583753Y-113644254D01*
X149681803Y-113483008D01*
X149772384Y-113343449D01*
X149858814Y-113221015D01*
X149944412Y-113111143D01*
X150032496Y-113009269D01*
X150126383Y-112910830D01*
X150189546Y-112848964D01*
X150360149Y-112698194D01*
X150529743Y-112572883D01*
X150696309Y-112473848D01*
X150857831Y-112401904D01*
X151012290Y-112357869D01*
X151157671Y-112342560D01*
X151291956Y-112356794D01*
X151357023Y-112376251D01*
X151464263Y-112428618D01*
X151541845Y-112495667D01*
X151591367Y-112579933D01*
X151614426Y-112683954D01*
X151614746Y-112785256D01*
X151605421Y-112870228D01*
X151588276Y-112950543D01*
X151560554Y-113034795D01*
X151519501Y-113131579D01*
X151472012Y-113230218D01*
X151424820Y-113320319D01*
X151371218Y-113413425D01*
X151309435Y-113511935D01*
X151237701Y-113618247D01*
X151154245Y-113734760D01*
X151057295Y-113863873D01*
X150945081Y-114007985D01*
X150815832Y-114169494D01*
X150667777Y-114350799D01*
X150499145Y-114554299D01*
X150458735Y-114602733D01*
X150298067Y-114796529D01*
X150155159Y-114972364D01*
X150024772Y-115137165D01*
X149901666Y-115297860D01*
X149780602Y-115461379D01*
X149656340Y-115634648D01*
X149523641Y-115824597D01*
X149414484Y-115983555D01*
X149297031Y-116153102D01*
X149193911Y-116296092D01*
X149102564Y-116415350D01*
X149020435Y-116513700D01*
X148944965Y-116593966D01*
X148873596Y-116658973D01*
X148803772Y-116711543D01*
X148732934Y-116754503D01*
X148701710Y-116770632D01*
X148570005Y-116821729D01*
X148443726Y-116843457D01*
X148326756Y-116835313D01*
X148286268Y-116824516D01*
X148226551Y-116800474D01*
X148140044Y-116758885D01*
X148028399Y-116700630D01*
X147893266Y-116626590D01*
X147736296Y-116537649D01*
X147586090Y-116450495D01*
X147458519Y-116377885D01*
X147311780Y-116297963D01*
X147150295Y-116212868D01*
X146978489Y-116124744D01*
X146800786Y-116035731D01*
X146621610Y-115947971D01*
X146445385Y-115863605D01*
X146276536Y-115784776D01*
X146119485Y-115713624D01*
X145978658Y-115652292D01*
X145858478Y-115602920D01*
X145763369Y-115567650D01*
X145759819Y-115566452D01*
X145696438Y-115547606D01*
X145609994Y-115525246D01*
X145510777Y-115501877D01*
X145409073Y-115480006D01*
X145384886Y-115475149D01*
X145249921Y-115446646D01*
X145144532Y-115419873D01*
X145064562Y-115393316D01*
X145005853Y-115365460D01*
X144964247Y-115334791D01*
X144946638Y-115315530D01*
X144923151Y-115289030D01*
X144900348Y-115279092D01*
X144865412Y-115282887D01*
X144833431Y-115290545D01*
X144771731Y-115300703D01*
X144711980Y-115302300D01*
X144696269Y-115300622D01*
X144637492Y-115283207D01*
X144551664Y-115245691D01*
X144438952Y-115188159D01*
X144299526Y-115110699D01*
X144133553Y-115013395D01*
X144105621Y-114996638D01*
X143975974Y-114921027D01*
X143829009Y-114839392D01*
X143669794Y-114754235D01*
X143503397Y-114668059D01*
X143334885Y-114583363D01*
X143169325Y-114502650D01*
X143011786Y-114428420D01*
X142867335Y-114363176D01*
X142741040Y-114309418D01*
X142637967Y-114269648D01*
X142620344Y-114263511D01*
X142553695Y-114244196D01*
X142467064Y-114223747D01*
X142374097Y-114205229D01*
X142322879Y-114196620D01*
X142182504Y-114169706D01*
X142073718Y-114136820D01*
X141994618Y-114097162D01*
X141943300Y-114049931D01*
X141932025Y-114032341D01*
X141913414Y-113976051D01*
X141902369Y-113894723D01*
X141898774Y-113796328D01*
X141902515Y-113688836D01*
X141913475Y-113580215D01*
X141931539Y-113478437D01*
X141940565Y-113442026D01*
X141992952Y-113275621D01*
X142057758Y-113111545D01*
X142131500Y-112956785D01*
X142210698Y-112818328D01*
X142291872Y-112703158D01*
X142331741Y-112656886D01*
X142405171Y-112585283D01*
X142467744Y-112542720D01*
X142525087Y-112528625D01*
X142582827Y-112542429D01*
X142646592Y-112583563D01*
X142689556Y-112620638D01*
X142746598Y-112670525D01*
X142788215Y-112695972D01*
X142822636Y-112696806D01*
X142858086Y-112672859D01*
X142902794Y-112623960D01*
X142909439Y-112616090D01*
X142928120Y-112591633D01*
X142949400Y-112559141D01*
X142973897Y-112517213D01*
X143002227Y-112464451D01*
X143035008Y-112399454D01*
X143072858Y-112320825D01*
X143116393Y-112227164D01*
X143166232Y-112117071D01*
X143222991Y-111989148D01*
X143287289Y-111841995D01*
X143359742Y-111674213D01*
X143440968Y-111484402D01*
X143531584Y-111271165D01*
X143632208Y-111033101D01*
X143743457Y-110768811D01*
X143865949Y-110476896D01*
X144000301Y-110155957D01*
X144095539Y-109928110D01*
X144238644Y-109585542D01*
X144369246Y-109272751D01*
X144487917Y-108988249D01*
X144595231Y-108730548D01*
X144691760Y-108498161D01*
X144778077Y-108289600D01*
X144854756Y-108103376D01*
X144922368Y-107938003D01*
X144981487Y-107791991D01*
X145032686Y-107663854D01*
X145076537Y-107552103D01*
X145113613Y-107455251D01*
X145144488Y-107371809D01*
X145169733Y-107300290D01*
X145189923Y-107239206D01*
X145205629Y-107187068D01*
X145217425Y-107142390D01*
X145225883Y-107103684D01*
X145231576Y-107069461D01*
X145235077Y-107038233D01*
X145236959Y-107008513D01*
X145237795Y-106978813D01*
X145238030Y-106960705D01*
X145237920Y-106898494D01*
X145234353Y-106862417D01*
X145224895Y-106844733D01*
X145207108Y-106837701D01*
X145198913Y-106836387D01*
X145116052Y-106839353D01*
X145036459Y-106873476D01*
X144975714Y-106921226D01*
X144890914Y-106993224D01*
X144817775Y-107037123D01*
X144750685Y-107053980D01*
X144684030Y-107044851D01*
X144612194Y-107010791D01*
X144586642Y-106994427D01*
X144518959Y-106951323D01*
X144469923Y-106928915D01*
X144431665Y-106926799D01*
X144396316Y-106944571D01*
X144356004Y-106981826D01*
X144355320Y-106982533D01*
X144331291Y-107008207D01*
X144308098Y-107035313D01*
X144285025Y-107065525D01*
X144261358Y-107100515D01*
X144236382Y-107141958D01*
X144209383Y-107191526D01*
X144179647Y-107250893D01*
X144146458Y-107321732D01*
X144109102Y-107405718D01*
X144066865Y-107504522D01*
X144019032Y-107619819D01*
X143964889Y-107753283D01*
X143903720Y-107906586D01*
X143834812Y-108081402D01*
X143757450Y-108279404D01*
X143670920Y-108502267D01*
X143574506Y-108751662D01*
X143467494Y-109029265D01*
X143349171Y-109336747D01*
X143340855Y-109358370D01*
X143207445Y-109705123D01*
X143085432Y-110021883D01*
X142974130Y-110310322D01*
X142872859Y-110572109D01*
X142780935Y-110808917D01*
X142697675Y-111022416D01*
X142622397Y-111214276D01*
X142554418Y-111386170D01*
X142493055Y-111539767D01*
X142437625Y-111676739D01*
X142387446Y-111798757D01*
X142341834Y-111907492D01*
X142300108Y-112004614D01*
X142261583Y-112091796D01*
X142225578Y-112170706D01*
X142191409Y-112243018D01*
X142158394Y-112310401D01*
X142125850Y-112374526D01*
X142093095Y-112437065D01*
X142059444Y-112499689D01*
X142050651Y-112515849D01*
X141895313Y-112779859D01*
X141735211Y-113010968D01*
X141570477Y-113209043D01*
X141401242Y-113373945D01*
X141227639Y-113505541D01*
X141049799Y-113603694D01*
X140956706Y-113641115D01*
X140800864Y-113678620D01*
X140640694Y-113685060D01*
X140480750Y-113662074D01*
X140325585Y-113611302D01*
X140179751Y-113534384D01*
X140047803Y-113432959D01*
X139934291Y-113308668D01*
X139900110Y-113260594D01*
X139809891Y-113094968D01*
X139742510Y-112904399D01*
X139697979Y-112688992D01*
X139676306Y-112448849D01*
X139677502Y-112184076D01*
X139701577Y-111894775D01*
X139742073Y-111617802D01*
X139758619Y-111524241D01*
X139775521Y-111434015D01*
X139793495Y-111344422D01*
X139813257Y-111252759D01*
X139835520Y-111156323D01*
X139860999Y-111052412D01*
X139890410Y-110938324D01*
X139924468Y-110811354D01*
X139963887Y-110668802D01*
X140009381Y-110507963D01*
X140061667Y-110326136D01*
X140121458Y-110120618D01*
X140189470Y-109888705D01*
X140266418Y-109627696D01*
X140285916Y-109561705D01*
X140391048Y-109205196D01*
X140490303Y-108866988D01*
X140583344Y-108548275D01*
X140669831Y-108250252D01*
X140749427Y-107974111D01*
X140821793Y-107721046D01*
X140886590Y-107492250D01*
X140943481Y-107288918D01*
X140992126Y-107112242D01*
X141032189Y-106963416D01*
X141063330Y-106843633D01*
X141085211Y-106754088D01*
X141096070Y-106703725D01*
X141113789Y-106595892D01*
X141123722Y-106501756D01*
X141125767Y-106425995D01*
X141119821Y-106373284D01*
X141105781Y-106348300D01*
X141103886Y-106347492D01*
X141092404Y-106359979D01*
X141079151Y-106399536D01*
X141066273Y-106459570D01*
X141064976Y-106467111D01*
X141033456Y-106635196D01*
X140991621Y-106828104D01*
X140941235Y-107038993D01*
X140884064Y-107261023D01*
X140821870Y-107487352D01*
X140756418Y-107711140D01*
X140689474Y-107925546D01*
X140686403Y-107935021D01*
X140558901Y-108305468D01*
X140427790Y-108642288D01*
X140293033Y-108945552D01*
X140154593Y-109215336D01*
X140087409Y-109327043D01*
X140087409Y-106355942D01*
X140086554Y-106279552D01*
X140083845Y-106223958D01*
X140078422Y-106182613D01*
X140069422Y-106148969D01*
X140055988Y-106116481D01*
X140037257Y-106078601D01*
X140037165Y-106078419D01*
X140001314Y-106015763D01*
X139965182Y-105974594D01*
X139918759Y-105943940D01*
X139910726Y-105939791D01*
X139824750Y-105907037D01*
X139749749Y-105902465D01*
X139683992Y-105927196D01*
X139625747Y-105982353D01*
X139573284Y-106069059D01*
X139524871Y-106188437D01*
X139524153Y-106190521D01*
X139510815Y-106234725D01*
X139490889Y-106308069D01*
X139465312Y-106406653D01*
X139435019Y-106526572D01*
X139400945Y-106663925D01*
X139364026Y-106814809D01*
X139325196Y-106975321D01*
X139285393Y-107141559D01*
X139245550Y-107309619D01*
X139206604Y-107475601D01*
X139169489Y-107635600D01*
X139135142Y-107785714D01*
X139104497Y-107922041D01*
X139078491Y-108040679D01*
X139061900Y-108119041D01*
X139040937Y-108228839D01*
X139030816Y-108311307D01*
X139032894Y-108371654D01*
X139048532Y-108415085D01*
X139079088Y-108446807D01*
X139125922Y-108472027D01*
X139157260Y-108484337D01*
X139257560Y-108507218D01*
X139353088Y-108502880D01*
X139412539Y-108483526D01*
X139486452Y-108432056D01*
X139560993Y-108348320D01*
X139635411Y-108233912D01*
X139708953Y-108090429D01*
X139780867Y-107919463D01*
X139850400Y-107722612D01*
X139916800Y-107501468D01*
X139967235Y-107307823D01*
X140004446Y-107152060D01*
X140033240Y-107021545D01*
X140054649Y-106908980D01*
X140069707Y-106807068D01*
X140079447Y-106708511D01*
X140084901Y-106606012D01*
X140087101Y-106492273D01*
X140087269Y-106459673D01*
X140087409Y-106355942D01*
X140087409Y-109327043D01*
X140012431Y-109451711D01*
X139866512Y-109654750D01*
X139716795Y-109824527D01*
X139708005Y-109833345D01*
X139596248Y-109937321D01*
X139494938Y-110014540D01*
X139398456Y-110068081D01*
X139301184Y-110101025D01*
X139197501Y-110116453D01*
X139190798Y-110116898D01*
X139132930Y-110118838D01*
X139081072Y-110115516D01*
X139025380Y-110105204D01*
X138956006Y-110086172D01*
X138880625Y-110062397D01*
X138804651Y-110039020D01*
X138740004Y-110021532D01*
X138693664Y-110011659D01*
X138672811Y-110010987D01*
X138650226Y-110039189D01*
X138623649Y-110095207D01*
X138594575Y-110173417D01*
X138564495Y-110268192D01*
X138534903Y-110373907D01*
X138507292Y-110484935D01*
X138483155Y-110595652D01*
X138463984Y-110700432D01*
X138451273Y-110793648D01*
X138446580Y-110863501D01*
X138448472Y-110941073D01*
X138461159Y-110991324D01*
X138490392Y-111020028D01*
X138541920Y-111032957D01*
X138618261Y-111035888D01*
X138700518Y-111040826D01*
X138761188Y-111058334D01*
X138803223Y-111092461D01*
X138829573Y-111147250D01*
X138843190Y-111226748D01*
X138847027Y-111335000D01*
X138846975Y-111349364D01*
X138839478Y-111491047D01*
X138819868Y-111637251D01*
X138789780Y-111783674D01*
X138750846Y-111926011D01*
X138704700Y-112059961D01*
X138652977Y-112181219D01*
X138597310Y-112285482D01*
X138539332Y-112368447D01*
X138480678Y-112425810D01*
X138428345Y-112452071D01*
X138392345Y-112454797D01*
X138348979Y-112444739D01*
X138294235Y-112419881D01*
X138224101Y-112378206D01*
X138134568Y-112317699D01*
X138071680Y-112272829D01*
X137954029Y-112191572D01*
X137851517Y-112130541D01*
X137755443Y-112085876D01*
X137657103Y-112053718D01*
X137547797Y-112030208D01*
X137511022Y-112024180D01*
X137412673Y-112006817D01*
X137342063Y-111987426D01*
X137293096Y-111962034D01*
X137259677Y-111926667D01*
X137235713Y-111877353D01*
X137222335Y-111835996D01*
X137205981Y-111746209D01*
X137200042Y-111631605D01*
X137203808Y-111499376D01*
X137216572Y-111356717D01*
X137237625Y-111210822D01*
X137266259Y-111068885D01*
X137301765Y-110938099D01*
X137314554Y-110899516D01*
X137361712Y-110779404D01*
X137409811Y-110685425D01*
X137457455Y-110619670D01*
X137503248Y-110584229D01*
X137528967Y-110578383D01*
X137560368Y-110589990D01*
X137602546Y-110619814D01*
X137631120Y-110646162D01*
X137669634Y-110683376D01*
X137699284Y-110707994D01*
X137710465Y-110713940D01*
X137729528Y-110698164D01*
X137753966Y-110653937D01*
X137781891Y-110585907D01*
X137811415Y-110498725D01*
X137840649Y-110397041D01*
X137843414Y-110386523D01*
X137852864Y-110346983D01*
X137868687Y-110276734D01*
X137890360Y-110178248D01*
X137917362Y-110053994D01*
X137949171Y-109906446D01*
X137985264Y-109738074D01*
X138025120Y-109551349D01*
X138068217Y-109348744D01*
X138114033Y-109132729D01*
X138162047Y-108905776D01*
X138211735Y-108670356D01*
X138262577Y-108428940D01*
X138314050Y-108184000D01*
X138365632Y-107938008D01*
X138416802Y-107693434D01*
X138467038Y-107452750D01*
X138515817Y-107218427D01*
X138562618Y-106992938D01*
X138606919Y-106778752D01*
X138648198Y-106578342D01*
X138667094Y-106486255D01*
X138697624Y-106327659D01*
X138722225Y-106180014D01*
X138740529Y-106046961D01*
X138752171Y-105932141D01*
X138756781Y-105839196D01*
X138753994Y-105771767D01*
X138743443Y-105733496D01*
X138743050Y-105732905D01*
X138729096Y-105720507D01*
X138706339Y-105720324D01*
X138666155Y-105733377D01*
X138635804Y-105745614D01*
X138569137Y-105770998D01*
X138524203Y-105780813D01*
X138492795Y-105775365D01*
X138466704Y-105754960D01*
X138463984Y-105752012D01*
X138436118Y-105700308D01*
X138417661Y-105620130D01*
X138408187Y-105515431D01*
X138407269Y-105390168D01*
X138414481Y-105248295D01*
X138429397Y-105093769D01*
X138451590Y-104930544D01*
X138480634Y-104762576D01*
X138516102Y-104593819D01*
X138557568Y-104428231D01*
X138604605Y-104269764D01*
X138632697Y-104187075D01*
X138681349Y-104064682D01*
X138735402Y-103952515D01*
X138792138Y-103854594D01*
X138848839Y-103774943D01*
X138902785Y-103717582D01*
X138951260Y-103686532D01*
X138974030Y-103682120D01*
X139032813Y-103690525D01*
X139115176Y-103713836D01*
X139215293Y-103750113D01*
X139327338Y-103797418D01*
X139346259Y-103806007D01*
X139425037Y-103840560D01*
X139501745Y-103871526D01*
X139565673Y-103894709D01*
X139595519Y-103903670D01*
X139668134Y-103914410D01*
X139766107Y-103918041D01*
X139881765Y-103915023D01*
X140007432Y-103905816D01*
X140135435Y-103890878D01*
X140258098Y-103870671D01*
X140303847Y-103861238D01*
X140417560Y-103837672D01*
X140505935Y-103823754D01*
X140576160Y-103819617D01*
X140635424Y-103825392D01*
X140690913Y-103841211D01*
X140749817Y-103867206D01*
X140754453Y-103869510D01*
X140854623Y-103935139D01*
X140940349Y-104025665D01*
X141013150Y-104143301D01*
X141074544Y-104290260D01*
X141101266Y-104374830D01*
X141141931Y-104515686D01*
X141193382Y-104424987D01*
X141255438Y-104329758D01*
X141326339Y-104244078D01*
X141398947Y-104175740D01*
X141457404Y-104136735D01*
X141508044Y-104116689D01*
X141561633Y-104109149D01*
X141623332Y-104115132D01*
X141698303Y-104135656D01*
X141791705Y-104171738D01*
X141908700Y-104224395D01*
X141913498Y-104226650D01*
X142029492Y-104279029D01*
X142125102Y-104315179D01*
X142209196Y-104335986D01*
X142290642Y-104342332D01*
X142378308Y-104335101D01*
X142481061Y-104315178D01*
X142573434Y-104292419D01*
X142706693Y-104260568D01*
X142812394Y-104241614D01*
X142894255Y-104235401D01*
X142955991Y-104241773D01*
X143001320Y-104260574D01*
X143018082Y-104273723D01*
X143053439Y-104319626D01*
X143078274Y-104373721D01*
X143078749Y-104375390D01*
X143088645Y-104434623D01*
X143093967Y-104518148D01*
X143094837Y-104616692D01*
X143091374Y-104720986D01*
X143083698Y-104821758D01*
X143071930Y-104909736D01*
X143071813Y-104910405D01*
X143036520Y-105084310D01*
X142990656Y-105269425D01*
X142936189Y-105460223D01*
X142875086Y-105651178D01*
X142809313Y-105836764D01*
X142740836Y-106011455D01*
X142671624Y-106169726D01*
X142603641Y-106306050D01*
X142538856Y-106414900D01*
X142533572Y-106422691D01*
X142476810Y-106490186D01*
X142415395Y-106528112D01*
X142340427Y-106540524D01*
X142282438Y-106537091D01*
X142226809Y-106531665D01*
X142193078Y-106534253D01*
X142169525Y-106548615D01*
X142144426Y-106578510D01*
X142141555Y-106582269D01*
X142107283Y-106634657D01*
X142074190Y-106696661D01*
X142065867Y-106715026D01*
X142056106Y-106742177D01*
X142037049Y-106799267D01*
X142009457Y-106883872D01*
X141974091Y-106993568D01*
X141931711Y-107125930D01*
X141883078Y-107278536D01*
X141828952Y-107448962D01*
X141770094Y-107634782D01*
X141707265Y-107833574D01*
X141641225Y-108042913D01*
X141572736Y-108260376D01*
X141502557Y-108483538D01*
X141431449Y-108709976D01*
X141360173Y-108937266D01*
X141289489Y-109162983D01*
X141220159Y-109384705D01*
X141152942Y-109600006D01*
X141088600Y-109806463D01*
X141027893Y-110001652D01*
X140971581Y-110183149D01*
X140920426Y-110348530D01*
X140875188Y-110495372D01*
X140836627Y-110621250D01*
X140805504Y-110723740D01*
X140782580Y-110800418D01*
X140768616Y-110848861D01*
X140768220Y-110850304D01*
X140709614Y-111078049D01*
X140666450Y-111277591D01*
X140638623Y-111450839D01*
X140626029Y-111599702D01*
X140628562Y-111726092D01*
X140646119Y-111831917D01*
X140678595Y-111919088D01*
X140707180Y-111965996D01*
X140780056Y-112040311D01*
X140867472Y-112084896D01*
X140965368Y-112098309D01*
X141046057Y-112086295D01*
X141108355Y-112056943D01*
X141180071Y-112002588D01*
X141255814Y-111928707D01*
X141330194Y-111840782D01*
X141397820Y-111744290D01*
X141421977Y-111704165D01*
X141448195Y-111658067D01*
X141472865Y-111613657D01*
X141496646Y-111569197D01*
X141520197Y-111522944D01*
X141544174Y-111473159D01*
X141569236Y-111418099D01*
X141596042Y-111356025D01*
X141625250Y-111285196D01*
X141657517Y-111203871D01*
X141693502Y-111110309D01*
X141733862Y-111002769D01*
X141779257Y-110879510D01*
X141830344Y-110738793D01*
X141887782Y-110578875D01*
X141952228Y-110398016D01*
X142024340Y-110194476D01*
X142104777Y-109966513D01*
X142194197Y-109712387D01*
X142293259Y-109430357D01*
X142402619Y-109118681D01*
X142443112Y-109003234D01*
X142550180Y-108697817D01*
X142646508Y-108422679D01*
X142732652Y-108176149D01*
X142809167Y-107956554D01*
X142876609Y-107762222D01*
X142935531Y-107591481D01*
X142986491Y-107442658D01*
X143030043Y-107314082D01*
X143066742Y-107204080D01*
X143097144Y-107110981D01*
X143121805Y-107033111D01*
X143141278Y-106968800D01*
X143156120Y-106916374D01*
X143166886Y-106874161D01*
X143174132Y-106840490D01*
X143178411Y-106813689D01*
X143180281Y-106792084D01*
X143180486Y-106782802D01*
X143177254Y-106738872D01*
X143162945Y-106710554D01*
X143130636Y-106691849D01*
X143073408Y-106676757D01*
X143053401Y-106672646D01*
X142989332Y-106651766D01*
X142946307Y-106616234D01*
X142921951Y-106561483D01*
X142913886Y-106482944D01*
X142916764Y-106410004D01*
X142932182Y-106290472D01*
X142961152Y-106146712D01*
X143001751Y-105984645D01*
X143052054Y-105810192D01*
X143110135Y-105629274D01*
X143174071Y-105447812D01*
X143241935Y-105271725D01*
X143311803Y-105106935D01*
X143381750Y-104959362D01*
X143399708Y-104924551D01*
X143493527Y-104758548D01*
X143587029Y-104617049D01*
X143678631Y-104501924D01*
X143766752Y-104415046D01*
X143849810Y-104358284D01*
X143893755Y-104340280D01*
X143952380Y-104331884D01*
X144021827Y-104340204D01*
X144106189Y-104366447D01*
X144209561Y-104411818D01*
X144308181Y-104462423D01*
X144402813Y-104511095D01*
X144485811Y-104547374D01*
X144563462Y-104571826D01*
X144642049Y-104585020D01*
X144727858Y-104587522D01*
X144827173Y-104579899D01*
X144946280Y-104562719D01*
X145091462Y-104536549D01*
X145103701Y-104534216D01*
X145204737Y-104516877D01*
X145311755Y-104501774D01*
X145411212Y-104490651D01*
X145482132Y-104485520D01*
X145558967Y-104481399D01*
X145611295Y-104475152D01*
X145648494Y-104464419D01*
X145679947Y-104446842D01*
X145702412Y-104430109D01*
X145793246Y-104368147D01*
X145880065Y-104331001D01*
X145974781Y-104313576D01*
X145974861Y-104313569D01*
X146007017Y-104311849D01*
X146040599Y-104313395D01*
X146080175Y-104319346D01*
X146130313Y-104330846D01*
X146195580Y-104349036D01*
X146280544Y-104375058D01*
X146389773Y-104410054D01*
X146484689Y-104441017D01*
X146679119Y-104502862D01*
X146848127Y-104551846D01*
X146997394Y-104588553D01*
X147132605Y-104613570D01*
X147259444Y-104627481D01*
X147383594Y-104630873D01*
X147510739Y-104624331D01*
X147646563Y-104608440D01*
X147796749Y-104583785D01*
X147823314Y-104578914D01*
X147931007Y-104560121D01*
X148040803Y-104543028D01*
X148142517Y-104529084D01*
X148225967Y-104519738D01*
X148255874Y-104517353D01*
X148364608Y-104515867D01*
X148447253Y-104528651D01*
X148509462Y-104558095D01*
X148556885Y-104606594D01*
X148586299Y-104657219D01*
X148602679Y-104694113D01*
X148612987Y-104728965D01*
X148618087Y-104770131D01*
X148618843Y-104825971D01*
X148616117Y-104904841D01*
X148614802Y-104933136D01*
X148601637Y-105077275D01*
X148574963Y-105226077D01*
X148533509Y-105383400D01*
X148476005Y-105553103D01*
X148401180Y-105739045D01*
X148307764Y-105945085D01*
X148227324Y-106109953D01*
X148113777Y-106326850D01*
X147998910Y-106526809D01*
X147884179Y-106708060D01*
X147771041Y-106868835D01*
X147660954Y-107007366D01*
X147555374Y-107121884D01*
X147455758Y-107210620D01*
X147363563Y-107271806D01*
X147280246Y-107303672D01*
X147240430Y-107308070D01*
X147181591Y-107295851D01*
X147103922Y-107260487D01*
X147011383Y-107203912D01*
X146973752Y-107177693D01*
X146887042Y-107128374D01*
X146816090Y-107109032D01*
X146773618Y-107106398D01*
X146741302Y-107113306D01*
X146707770Y-107134607D01*
X146662093Y-107174747D01*
X146578082Y-107265830D01*
X146487946Y-107389969D01*
X146391621Y-107547255D01*
X146327466Y-107663907D01*
X146311045Y-107696977D01*
X146281524Y-107758786D01*
X146239864Y-107847237D01*
X146187027Y-107960236D01*
X146123976Y-108095685D01*
X146051671Y-108251489D01*
X145971074Y-108425553D01*
X145883148Y-108615781D01*
X145788854Y-108820076D01*
X145689154Y-109036344D01*
X145585010Y-109262489D01*
X145477383Y-109496415D01*
X145367236Y-109736025D01*
X145255530Y-109979225D01*
X145143227Y-110223919D01*
X145031288Y-110468011D01*
X144920677Y-110709404D01*
X144812353Y-110946005D01*
X144707280Y-111175715D01*
X144606418Y-111396441D01*
X144510731Y-111606086D01*
X144421179Y-111802554D01*
X144338724Y-111983750D01*
X144264329Y-112147579D01*
X144198954Y-112291943D01*
X144143562Y-112414748D01*
X144099115Y-112513897D01*
X144066575Y-112587296D01*
X144046902Y-112632848D01*
X144045402Y-112636464D01*
X144000279Y-112750958D01*
X143968916Y-112843767D01*
X143949173Y-112923136D01*
X143938913Y-112997307D01*
X143936103Y-113057828D01*
X143936267Y-113120199D01*
X143941447Y-113160008D01*
X143955499Y-113188558D01*
X143982277Y-113217156D01*
X143994208Y-113228204D01*
X144035603Y-113257113D01*
X144101539Y-113292958D01*
X144184264Y-113332389D01*
X144276028Y-113372063D01*
X144369079Y-113408631D01*
X144455665Y-113438748D01*
X144528035Y-113459067D01*
X144529988Y-113459509D01*
X144635743Y-113466939D01*
X144745928Y-113445654D01*
X144850784Y-113397713D01*
X144864663Y-113388872D01*
X144928341Y-113339574D01*
X144990340Y-113276046D01*
X145052314Y-113195533D01*
X145115917Y-113095281D01*
X145182803Y-112972538D01*
X145254625Y-112824550D01*
X145333038Y-112648563D01*
X145389438Y-112515172D01*
X145474281Y-112315638D01*
X145551773Y-112144149D01*
X145624512Y-111996354D01*
X145695094Y-111867902D01*
X145766117Y-111754441D01*
X145840178Y-111651622D01*
X145919872Y-111555092D01*
X146007798Y-111460500D01*
X146035703Y-111432314D01*
X146116898Y-111353608D01*
X146183758Y-111294866D01*
X146243842Y-111250186D01*
X146304713Y-111213666D01*
X146337323Y-111196860D01*
X146454694Y-111147658D01*
X146556977Y-111124792D01*
X146649484Y-111127539D01*
X146714416Y-111145500D01*
X146805670Y-111190544D01*
X146871543Y-111248453D01*
X146914279Y-111323342D01*
X146936124Y-111419323D01*
X146939321Y-111540510D01*
X146938586Y-111556402D01*
X146927676Y-111658900D01*
X146904661Y-111768806D01*
X146868440Y-111888605D01*
X146817912Y-112020785D01*
X146751976Y-112167835D01*
X146669531Y-112332239D01*
X146569476Y-112516487D01*
X146450711Y-112723066D01*
X146340160Y-112908270D01*
X146267444Y-113028538D01*
X146195089Y-113148348D01*
X146126450Y-113262138D01*
X146064881Y-113364342D01*
X146013736Y-113449395D01*
X145976368Y-113511734D01*
X145972777Y-113517747D01*
X145871936Y-113686664D01*
X145973290Y-113784625D01*
X146038591Y-113843506D01*
X146090447Y-113876022D01*
X146136266Y-113881980D01*
X146183452Y-113861183D01*
X146239413Y-113813438D01*
X146275601Y-113776682D01*
X146352528Y-113689279D01*
X146434009Y-113582516D01*
X146522927Y-113452393D01*
X146619113Y-113299902D01*
X146647423Y-113252524D01*
X146690969Y-113178138D01*
X146748612Y-113078744D01*
X146819218Y-112956342D01*
X146901650Y-112812935D01*
X146994773Y-112650521D01*
X147097451Y-112471102D01*
X147208547Y-112276679D01*
X147326927Y-112069252D01*
X147451453Y-111850821D01*
X147580991Y-111623388D01*
X147714404Y-111388953D01*
X147850556Y-111149517D01*
X147988312Y-110907080D01*
X148126535Y-110663643D01*
X148264091Y-110421207D01*
X148399842Y-110181773D01*
X148532652Y-109947340D01*
X148661387Y-109719910D01*
X148784911Y-109501484D01*
X148902086Y-109294062D01*
X149011778Y-109099644D01*
X149112850Y-108920232D01*
X149204167Y-108757826D01*
X149284592Y-108614426D01*
X149352990Y-108492034D01*
X149408226Y-108392650D01*
X149449162Y-108318275D01*
X149474663Y-108270909D01*
X149477933Y-108264616D01*
X149571956Y-108076721D01*
X149647149Y-107915438D01*
X149703973Y-107779517D01*
X149742889Y-107667708D01*
X149764358Y-107578761D01*
X149768841Y-107511425D01*
X149765017Y-107486100D01*
X149752195Y-107457383D01*
X149725813Y-107445491D01*
X149691311Y-107443627D01*
X149647091Y-107447383D01*
X149580979Y-107457456D01*
X149503987Y-107472049D01*
X149463774Y-107480723D01*
X149375904Y-107498808D01*
X149312055Y-107507285D01*
X149263987Y-107506920D01*
X149235681Y-107501903D01*
X149174279Y-107470493D01*
X149132048Y-107412876D01*
X149108743Y-107330623D01*
X149104123Y-107225306D01*
X149117945Y-107098498D01*
X149149968Y-106951768D01*
X149199947Y-106786690D01*
X149267642Y-106604835D01*
X149352809Y-106407774D01*
X149428959Y-106249030D01*
X149585902Y-105949265D01*
X149743592Y-105676987D01*
X149901407Y-105432899D01*
X150058722Y-105217708D01*
X150214915Y-105032118D01*
X150369363Y-104876835D01*
X150521441Y-104752563D01*
X150670526Y-104660007D01*
X150815996Y-104599872D01*
X150905619Y-104578933D01*
X150953555Y-104573247D01*
X151003603Y-104572306D01*
X151059946Y-104576962D01*
X151126767Y-104588070D01*
X151208249Y-104606483D01*
X151308574Y-104633054D01*
X151431926Y-104668637D01*
X151582487Y-104714083D01*
X151610999Y-104722824D01*
X151812766Y-104783608D01*
X151987960Y-104833473D01*
X152141745Y-104873390D01*
X152279282Y-104904331D01*
X152405736Y-104927267D01*
X152526268Y-104943168D01*
X152646041Y-104953005D01*
X152770218Y-104957751D01*
X152864342Y-104958561D01*
X152969105Y-104957165D01*
X153067140Y-104952710D01*
X153167362Y-104944374D01*
X153278686Y-104931338D01*
X153410029Y-104912782D01*
X153482821Y-104901670D01*
X153694136Y-104871955D01*
X153881602Y-104852005D01*
X154043648Y-104841852D01*
X154178708Y-104841530D01*
X154285211Y-104851073D01*
X154361590Y-104870513D01*
X154385649Y-104882459D01*
X154457603Y-104946352D01*
X154504599Y-105032823D01*
X154526669Y-105141558D01*
X154526669Y-105141558D01*
X154526669Y-105141558D01*
G37*
X154526669Y-105141558D02*
X154523846Y-105272245D01*
X154496161Y-105424570D01*
X154443648Y-105598221D01*
X154366338Y-105792884D01*
X154271028Y-105994861D01*
X154154865Y-106213498D01*
X154028505Y-106429346D01*
X153893871Y-106640302D01*
X153752885Y-106844264D01*
X153607466Y-107039127D01*
X153459539Y-107222790D01*
X153311023Y-107393148D01*
X153163840Y-107548099D01*
X153019913Y-107685539D01*
X152881162Y-107803365D01*
X152749509Y-107899475D01*
X152626876Y-107971765D01*
X152515185Y-108018131D01*
X152416356Y-108036471D01*
X152405466Y-108036689D01*
X152353747Y-108032719D01*
X152299466Y-108019159D01*
X152236821Y-107993533D01*
X152160009Y-107953368D01*
X152063227Y-107896188D01*
X152034393Y-107878426D01*
X151938303Y-107825469D01*
X151858919Y-107797161D01*
X151791310Y-107792067D01*
X151758689Y-107798253D01*
X151678215Y-107834852D01*
X151585820Y-107901212D01*
X151482846Y-107995911D01*
X151370636Y-108117525D01*
X151250531Y-108264629D01*
X151123872Y-108435799D01*
X151031179Y-108570445D01*
X151008571Y-108605199D01*
X150969211Y-108666872D01*
X150914257Y-108753610D01*
X150844867Y-108863560D01*
X150762196Y-108994870D01*
X150667403Y-109145688D01*
X150561644Y-109314159D01*
X150446077Y-109498431D01*
X150321859Y-109696652D01*
X150190146Y-109906969D01*
X150052097Y-110127528D01*
X149908869Y-110356478D01*
X149761618Y-110591965D01*
X149611501Y-110832136D01*
X149459677Y-111075139D01*
X149307301Y-111319120D01*
X149155532Y-111562228D01*
X149005526Y-111802609D01*
X148858441Y-112038410D01*
X148715433Y-112267779D01*
X148577660Y-112488863D01*
X148446280Y-112699808D01*
X148322448Y-112898763D01*
X148207323Y-113083874D01*
X148102062Y-113253289D01*
X148007821Y-113405155D01*
X147925758Y-113537618D01*
X147857031Y-113648827D01*
X147802795Y-113736927D01*
X147764210Y-113800068D01*
X147743955Y-113833790D01*
X147660776Y-113983233D01*
X147599777Y-114111614D01*
X147559653Y-114222303D01*
X147539098Y-114318670D01*
X147535613Y-114371738D01*
X147539673Y-114426793D01*
X147554701Y-114473743D01*
X147584261Y-114515517D01*
X147631918Y-114555046D01*
X147701235Y-114595257D01*
X147795777Y-114639080D01*
X147919108Y-114689445D01*
X147924982Y-114691751D01*
X148018426Y-114727899D01*
X148105979Y-114760859D01*
X148180553Y-114788029D01*
X148235061Y-114806808D01*
X148255402Y-114813024D01*
X148364550Y-114829452D01*
X148485616Y-114826211D01*
X148603319Y-114803847D01*
X148615731Y-114800142D01*
X148709549Y-114763962D01*
X148799880Y-114713811D01*
X148888741Y-114647417D01*
X148978145Y-114562509D01*
X149070109Y-114456814D01*
X149166648Y-114328061D01*
X149269778Y-114173979D01*
X149381514Y-113992296D01*
X149474917Y-113831752D01*
X149583753Y-113644254D01*
X149681803Y-113483008D01*
X149772384Y-113343449D01*
X149858814Y-113221015D01*
X149944412Y-113111143D01*
X150032496Y-113009269D01*
X150126383Y-112910830D01*
X150189546Y-112848964D01*
X150360149Y-112698194D01*
X150529743Y-112572883D01*
X150696309Y-112473848D01*
X150857831Y-112401904D01*
X151012290Y-112357869D01*
X151157671Y-112342560D01*
X151291956Y-112356794D01*
X151357023Y-112376251D01*
X151464263Y-112428618D01*
X151541845Y-112495667D01*
X151591367Y-112579933D01*
X151614426Y-112683954D01*
X151614746Y-112785256D01*
X151605421Y-112870228D01*
X151588276Y-112950543D01*
X151560554Y-113034795D01*
X151519501Y-113131579D01*
X151472012Y-113230218D01*
X151424820Y-113320319D01*
X151371218Y-113413425D01*
X151309435Y-113511935D01*
X151237701Y-113618247D01*
X151154245Y-113734760D01*
X151057295Y-113863873D01*
X150945081Y-114007985D01*
X150815832Y-114169494D01*
X150667777Y-114350799D01*
X150499145Y-114554299D01*
X150458735Y-114602733D01*
X150298067Y-114796529D01*
X150155159Y-114972364D01*
X150024772Y-115137165D01*
X149901666Y-115297860D01*
X149780602Y-115461379D01*
X149656340Y-115634648D01*
X149523641Y-115824597D01*
X149414484Y-115983555D01*
X149297031Y-116153102D01*
X149193911Y-116296092D01*
X149102564Y-116415350D01*
X149020435Y-116513700D01*
X148944965Y-116593966D01*
X148873596Y-116658973D01*
X148803772Y-116711543D01*
X148732934Y-116754503D01*
X148701710Y-116770632D01*
X148570005Y-116821729D01*
X148443726Y-116843457D01*
X148326756Y-116835313D01*
X148286268Y-116824516D01*
X148226551Y-116800474D01*
X148140044Y-116758885D01*
X148028399Y-116700630D01*
X147893266Y-116626590D01*
X147736296Y-116537649D01*
X147586090Y-116450495D01*
X147458519Y-116377885D01*
X147311780Y-116297963D01*
X147150295Y-116212868D01*
X146978489Y-116124744D01*
X146800786Y-116035731D01*
X146621610Y-115947971D01*
X146445385Y-115863605D01*
X146276536Y-115784776D01*
X146119485Y-115713624D01*
X145978658Y-115652292D01*
X145858478Y-115602920D01*
X145763369Y-115567650D01*
X145759819Y-115566452D01*
X145696438Y-115547606D01*
X145609994Y-115525246D01*
X145510777Y-115501877D01*
X145409073Y-115480006D01*
X145384886Y-115475149D01*
X145249921Y-115446646D01*
X145144532Y-115419873D01*
X145064562Y-115393316D01*
X145005853Y-115365460D01*
X144964247Y-115334791D01*
X144946638Y-115315530D01*
X144923151Y-115289030D01*
X144900348Y-115279092D01*
X144865412Y-115282887D01*
X144833431Y-115290545D01*
X144771731Y-115300703D01*
X144711980Y-115302300D01*
X144696269Y-115300622D01*
X144637492Y-115283207D01*
X144551664Y-115245691D01*
X144438952Y-115188159D01*
X144299526Y-115110699D01*
X144133553Y-115013395D01*
X144105621Y-114996638D01*
X143975974Y-114921027D01*
X143829009Y-114839392D01*
X143669794Y-114754235D01*
X143503397Y-114668059D01*
X143334885Y-114583363D01*
X143169325Y-114502650D01*
X143011786Y-114428420D01*
X142867335Y-114363176D01*
X142741040Y-114309418D01*
X142637967Y-114269648D01*
X142620344Y-114263511D01*
X142553695Y-114244196D01*
X142467064Y-114223747D01*
X142374097Y-114205229D01*
X142322879Y-114196620D01*
X142182504Y-114169706D01*
X142073718Y-114136820D01*
X141994618Y-114097162D01*
X141943300Y-114049931D01*
X141932025Y-114032341D01*
X141913414Y-113976051D01*
X141902369Y-113894723D01*
X141898774Y-113796328D01*
X141902515Y-113688836D01*
X141913475Y-113580215D01*
X141931539Y-113478437D01*
X141940565Y-113442026D01*
X141992952Y-113275621D01*
X142057758Y-113111545D01*
X142131500Y-112956785D01*
X142210698Y-112818328D01*
X142291872Y-112703158D01*
X142331741Y-112656886D01*
X142405171Y-112585283D01*
X142467744Y-112542720D01*
X142525087Y-112528625D01*
X142582827Y-112542429D01*
X142646592Y-112583563D01*
X142689556Y-112620638D01*
X142746598Y-112670525D01*
X142788215Y-112695972D01*
X142822636Y-112696806D01*
X142858086Y-112672859D01*
X142902794Y-112623960D01*
X142909439Y-112616090D01*
X142928120Y-112591633D01*
X142949400Y-112559141D01*
X142973897Y-112517213D01*
X143002227Y-112464451D01*
X143035008Y-112399454D01*
X143072858Y-112320825D01*
X143116393Y-112227164D01*
X143166232Y-112117071D01*
X143222991Y-111989148D01*
X143287289Y-111841995D01*
X143359742Y-111674213D01*
X143440968Y-111484402D01*
X143531584Y-111271165D01*
X143632208Y-111033101D01*
X143743457Y-110768811D01*
X143865949Y-110476896D01*
X144000301Y-110155957D01*
X144095539Y-109928110D01*
X144238644Y-109585542D01*
X144369246Y-109272751D01*
X144487917Y-108988249D01*
X144595231Y-108730548D01*
X144691760Y-108498161D01*
X144778077Y-108289600D01*
X144854756Y-108103376D01*
X144922368Y-107938003D01*
X144981487Y-107791991D01*
X145032686Y-107663854D01*
X145076537Y-107552103D01*
X145113613Y-107455251D01*
X145144488Y-107371809D01*
X145169733Y-107300290D01*
X145189923Y-107239206D01*
X145205629Y-107187068D01*
X145217425Y-107142390D01*
X145225883Y-107103684D01*
X145231576Y-107069461D01*
X145235077Y-107038233D01*
X145236959Y-107008513D01*
X145237795Y-106978813D01*
X145238030Y-106960705D01*
X145237920Y-106898494D01*
X145234353Y-106862417D01*
X145224895Y-106844733D01*
X145207108Y-106837701D01*
X145198913Y-106836387D01*
X145116052Y-106839353D01*
X145036459Y-106873476D01*
X144975714Y-106921226D01*
X144890914Y-106993224D01*
X144817775Y-107037123D01*
X144750685Y-107053980D01*
X144684030Y-107044851D01*
X144612194Y-107010791D01*
X144586642Y-106994427D01*
X144518959Y-106951323D01*
X144469923Y-106928915D01*
X144431665Y-106926799D01*
X144396316Y-106944571D01*
X144356004Y-106981826D01*
X144355320Y-106982533D01*
X144331291Y-107008207D01*
X144308098Y-107035313D01*
X144285025Y-107065525D01*
X144261358Y-107100515D01*
X144236382Y-107141958D01*
X144209383Y-107191526D01*
X144179647Y-107250893D01*
X144146458Y-107321732D01*
X144109102Y-107405718D01*
X144066865Y-107504522D01*
X144019032Y-107619819D01*
X143964889Y-107753283D01*
X143903720Y-107906586D01*
X143834812Y-108081402D01*
X143757450Y-108279404D01*
X143670920Y-108502267D01*
X143574506Y-108751662D01*
X143467494Y-109029265D01*
X143349171Y-109336747D01*
X143340855Y-109358370D01*
X143207445Y-109705123D01*
X143085432Y-110021883D01*
X142974130Y-110310322D01*
X142872859Y-110572109D01*
X142780935Y-110808917D01*
X142697675Y-111022416D01*
X142622397Y-111214276D01*
X142554418Y-111386170D01*
X142493055Y-111539767D01*
X142437625Y-111676739D01*
X142387446Y-111798757D01*
X142341834Y-111907492D01*
X142300108Y-112004614D01*
X142261583Y-112091796D01*
X142225578Y-112170706D01*
X142191409Y-112243018D01*
X142158394Y-112310401D01*
X142125850Y-112374526D01*
X142093095Y-112437065D01*
X142059444Y-112499689D01*
X142050651Y-112515849D01*
X141895313Y-112779859D01*
X141735211Y-113010968D01*
X141570477Y-113209043D01*
X141401242Y-113373945D01*
X141227639Y-113505541D01*
X141049799Y-113603694D01*
X140956706Y-113641115D01*
X140800864Y-113678620D01*
X140640694Y-113685060D01*
X140480750Y-113662074D01*
X140325585Y-113611302D01*
X140179751Y-113534384D01*
X140047803Y-113432959D01*
X139934291Y-113308668D01*
X139900110Y-113260594D01*
X139809891Y-113094968D01*
X139742510Y-112904399D01*
X139697979Y-112688992D01*
X139676306Y-112448849D01*
X139677502Y-112184076D01*
X139701577Y-111894775D01*
X139742073Y-111617802D01*
X139758619Y-111524241D01*
X139775521Y-111434015D01*
X139793495Y-111344422D01*
X139813257Y-111252759D01*
X139835520Y-111156323D01*
X139860999Y-111052412D01*
X139890410Y-110938324D01*
X139924468Y-110811354D01*
X139963887Y-110668802D01*
X140009381Y-110507963D01*
X140061667Y-110326136D01*
X140121458Y-110120618D01*
X140189470Y-109888705D01*
X140266418Y-109627696D01*
X140285916Y-109561705D01*
X140391048Y-109205196D01*
X140490303Y-108866988D01*
X140583344Y-108548275D01*
X140669831Y-108250252D01*
X140749427Y-107974111D01*
X140821793Y-107721046D01*
X140886590Y-107492250D01*
X140943481Y-107288918D01*
X140992126Y-107112242D01*
X141032189Y-106963416D01*
X141063330Y-106843633D01*
X141085211Y-106754088D01*
X141096070Y-106703725D01*
X141113789Y-106595892D01*
X141123722Y-106501756D01*
X141125767Y-106425995D01*
X141119821Y-106373284D01*
X141105781Y-106348300D01*
X141103886Y-106347492D01*
X141092404Y-106359979D01*
X141079151Y-106399536D01*
X141066273Y-106459570D01*
X141064976Y-106467111D01*
X141033456Y-106635196D01*
X140991621Y-106828104D01*
X140941235Y-107038993D01*
X140884064Y-107261023D01*
X140821870Y-107487352D01*
X140756418Y-107711140D01*
X140689474Y-107925546D01*
X140686403Y-107935021D01*
X140558901Y-108305468D01*
X140427790Y-108642288D01*
X140293033Y-108945552D01*
X140154593Y-109215336D01*
X140087409Y-109327043D01*
X140087409Y-106355942D01*
X140086554Y-106279552D01*
X140083845Y-106223958D01*
X140078422Y-106182613D01*
X140069422Y-106148969D01*
X140055988Y-106116481D01*
X140037257Y-106078601D01*
X140037165Y-106078419D01*
X140001314Y-106015763D01*
X139965182Y-105974594D01*
X139918759Y-105943940D01*
X139910726Y-105939791D01*
X139824750Y-105907037D01*
X139749749Y-105902465D01*
X139683992Y-105927196D01*
X139625747Y-105982353D01*
X139573284Y-106069059D01*
X139524871Y-106188437D01*
X139524153Y-106190521D01*
X139510815Y-106234725D01*
X139490889Y-106308069D01*
X139465312Y-106406653D01*
X139435019Y-106526572D01*
X139400945Y-106663925D01*
X139364026Y-106814809D01*
X139325196Y-106975321D01*
X139285393Y-107141559D01*
X139245550Y-107309619D01*
X139206604Y-107475601D01*
X139169489Y-107635600D01*
X139135142Y-107785714D01*
X139104497Y-107922041D01*
X139078491Y-108040679D01*
X139061900Y-108119041D01*
X139040937Y-108228839D01*
X139030816Y-108311307D01*
X139032894Y-108371654D01*
X139048532Y-108415085D01*
X139079088Y-108446807D01*
X139125922Y-108472027D01*
X139157260Y-108484337D01*
X139257560Y-108507218D01*
X139353088Y-108502880D01*
X139412539Y-108483526D01*
X139486452Y-108432056D01*
X139560993Y-108348320D01*
X139635411Y-108233912D01*
X139708953Y-108090429D01*
X139780867Y-107919463D01*
X139850400Y-107722612D01*
X139916800Y-107501468D01*
X139967235Y-107307823D01*
X140004446Y-107152060D01*
X140033240Y-107021545D01*
X140054649Y-106908980D01*
X140069707Y-106807068D01*
X140079447Y-106708511D01*
X140084901Y-106606012D01*
X140087101Y-106492273D01*
X140087269Y-106459673D01*
X140087409Y-106355942D01*
X140087409Y-109327043D01*
X140012431Y-109451711D01*
X139866512Y-109654750D01*
X139716795Y-109824527D01*
X139708005Y-109833345D01*
X139596248Y-109937321D01*
X139494938Y-110014540D01*
X139398456Y-110068081D01*
X139301184Y-110101025D01*
X139197501Y-110116453D01*
X139190798Y-110116898D01*
X139132930Y-110118838D01*
X139081072Y-110115516D01*
X139025380Y-110105204D01*
X138956006Y-110086172D01*
X138880625Y-110062397D01*
X138804651Y-110039020D01*
X138740004Y-110021532D01*
X138693664Y-110011659D01*
X138672811Y-110010987D01*
X138650226Y-110039189D01*
X138623649Y-110095207D01*
X138594575Y-110173417D01*
X138564495Y-110268192D01*
X138534903Y-110373907D01*
X138507292Y-110484935D01*
X138483155Y-110595652D01*
X138463984Y-110700432D01*
X138451273Y-110793648D01*
X138446580Y-110863501D01*
X138448472Y-110941073D01*
X138461159Y-110991324D01*
X138490392Y-111020028D01*
X138541920Y-111032957D01*
X138618261Y-111035888D01*
X138700518Y-111040826D01*
X138761188Y-111058334D01*
X138803223Y-111092461D01*
X138829573Y-111147250D01*
X138843190Y-111226748D01*
X138847027Y-111335000D01*
X138846975Y-111349364D01*
X138839478Y-111491047D01*
X138819868Y-111637251D01*
X138789780Y-111783674D01*
X138750846Y-111926011D01*
X138704700Y-112059961D01*
X138652977Y-112181219D01*
X138597310Y-112285482D01*
X138539332Y-112368447D01*
X138480678Y-112425810D01*
X138428345Y-112452071D01*
X138392345Y-112454797D01*
X138348979Y-112444739D01*
X138294235Y-112419881D01*
X138224101Y-112378206D01*
X138134568Y-112317699D01*
X138071680Y-112272829D01*
X137954029Y-112191572D01*
X137851517Y-112130541D01*
X137755443Y-112085876D01*
X137657103Y-112053718D01*
X137547797Y-112030208D01*
X137511022Y-112024180D01*
X137412673Y-112006817D01*
X137342063Y-111987426D01*
X137293096Y-111962034D01*
X137259677Y-111926667D01*
X137235713Y-111877353D01*
X137222335Y-111835996D01*
X137205981Y-111746209D01*
X137200042Y-111631605D01*
X137203808Y-111499376D01*
X137216572Y-111356717D01*
X137237625Y-111210822D01*
X137266259Y-111068885D01*
X137301765Y-110938099D01*
X137314554Y-110899516D01*
X137361712Y-110779404D01*
X137409811Y-110685425D01*
X137457455Y-110619670D01*
X137503248Y-110584229D01*
X137528967Y-110578383D01*
X137560368Y-110589990D01*
X137602546Y-110619814D01*
X137631120Y-110646162D01*
X137669634Y-110683376D01*
X137699284Y-110707994D01*
X137710465Y-110713940D01*
X137729528Y-110698164D01*
X137753966Y-110653937D01*
X137781891Y-110585907D01*
X137811415Y-110498725D01*
X137840649Y-110397041D01*
X137843414Y-110386523D01*
X137852864Y-110346983D01*
X137868687Y-110276734D01*
X137890360Y-110178248D01*
X137917362Y-110053994D01*
X137949171Y-109906446D01*
X137985264Y-109738074D01*
X138025120Y-109551349D01*
X138068217Y-109348744D01*
X138114033Y-109132729D01*
X138162047Y-108905776D01*
X138211735Y-108670356D01*
X138262577Y-108428940D01*
X138314050Y-108184000D01*
X138365632Y-107938008D01*
X138416802Y-107693434D01*
X138467038Y-107452750D01*
X138515817Y-107218427D01*
X138562618Y-106992938D01*
X138606919Y-106778752D01*
X138648198Y-106578342D01*
X138667094Y-106486255D01*
X138697624Y-106327659D01*
X138722225Y-106180014D01*
X138740529Y-106046961D01*
X138752171Y-105932141D01*
X138756781Y-105839196D01*
X138753994Y-105771767D01*
X138743443Y-105733496D01*
X138743050Y-105732905D01*
X138729096Y-105720507D01*
X138706339Y-105720324D01*
X138666155Y-105733377D01*
X138635804Y-105745614D01*
X138569137Y-105770998D01*
X138524203Y-105780813D01*
X138492795Y-105775365D01*
X138466704Y-105754960D01*
X138463984Y-105752012D01*
X138436118Y-105700308D01*
X138417661Y-105620130D01*
X138408187Y-105515431D01*
X138407269Y-105390168D01*
X138414481Y-105248295D01*
X138429397Y-105093769D01*
X138451590Y-104930544D01*
X138480634Y-104762576D01*
X138516102Y-104593819D01*
X138557568Y-104428231D01*
X138604605Y-104269764D01*
X138632697Y-104187075D01*
X138681349Y-104064682D01*
X138735402Y-103952515D01*
X138792138Y-103854594D01*
X138848839Y-103774943D01*
X138902785Y-103717582D01*
X138951260Y-103686532D01*
X138974030Y-103682120D01*
X139032813Y-103690525D01*
X139115176Y-103713836D01*
X139215293Y-103750113D01*
X139327338Y-103797418D01*
X139346259Y-103806007D01*
X139425037Y-103840560D01*
X139501745Y-103871526D01*
X139565673Y-103894709D01*
X139595519Y-103903670D01*
X139668134Y-103914410D01*
X139766107Y-103918041D01*
X139881765Y-103915023D01*
X140007432Y-103905816D01*
X140135435Y-103890878D01*
X140258098Y-103870671D01*
X140303847Y-103861238D01*
X140417560Y-103837672D01*
X140505935Y-103823754D01*
X140576160Y-103819617D01*
X140635424Y-103825392D01*
X140690913Y-103841211D01*
X140749817Y-103867206D01*
X140754453Y-103869510D01*
X140854623Y-103935139D01*
X140940349Y-104025665D01*
X141013150Y-104143301D01*
X141074544Y-104290260D01*
X141101266Y-104374830D01*
X141141931Y-104515686D01*
X141193382Y-104424987D01*
X141255438Y-104329758D01*
X141326339Y-104244078D01*
X141398947Y-104175740D01*
X141457404Y-104136735D01*
X141508044Y-104116689D01*
X141561633Y-104109149D01*
X141623332Y-104115132D01*
X141698303Y-104135656D01*
X141791705Y-104171738D01*
X141908700Y-104224395D01*
X141913498Y-104226650D01*
X142029492Y-104279029D01*
X142125102Y-104315179D01*
X142209196Y-104335986D01*
X142290642Y-104342332D01*
X142378308Y-104335101D01*
X142481061Y-104315178D01*
X142573434Y-104292419D01*
X142706693Y-104260568D01*
X142812394Y-104241614D01*
X142894255Y-104235401D01*
X142955991Y-104241773D01*
X143001320Y-104260574D01*
X143018082Y-104273723D01*
X143053439Y-104319626D01*
X143078274Y-104373721D01*
X143078749Y-104375390D01*
X143088645Y-104434623D01*
X143093967Y-104518148D01*
X143094837Y-104616692D01*
X143091374Y-104720986D01*
X143083698Y-104821758D01*
X143071930Y-104909736D01*
X143071813Y-104910405D01*
X143036520Y-105084310D01*
X142990656Y-105269425D01*
X142936189Y-105460223D01*
X142875086Y-105651178D01*
X142809313Y-105836764D01*
X142740836Y-106011455D01*
X142671624Y-106169726D01*
X142603641Y-106306050D01*
X142538856Y-106414900D01*
X142533572Y-106422691D01*
X142476810Y-106490186D01*
X142415395Y-106528112D01*
X142340427Y-106540524D01*
X142282438Y-106537091D01*
X142226809Y-106531665D01*
X142193078Y-106534253D01*
X142169525Y-106548615D01*
X142144426Y-106578510D01*
X142141555Y-106582269D01*
X142107283Y-106634657D01*
X142074190Y-106696661D01*
X142065867Y-106715026D01*
X142056106Y-106742177D01*
X142037049Y-106799267D01*
X142009457Y-106883872D01*
X141974091Y-106993568D01*
X141931711Y-107125930D01*
X141883078Y-107278536D01*
X141828952Y-107448962D01*
X141770094Y-107634782D01*
X141707265Y-107833574D01*
X141641225Y-108042913D01*
X141572736Y-108260376D01*
X141502557Y-108483538D01*
X141431449Y-108709976D01*
X141360173Y-108937266D01*
X141289489Y-109162983D01*
X141220159Y-109384705D01*
X141152942Y-109600006D01*
X141088600Y-109806463D01*
X141027893Y-110001652D01*
X140971581Y-110183149D01*
X140920426Y-110348530D01*
X140875188Y-110495372D01*
X140836627Y-110621250D01*
X140805504Y-110723740D01*
X140782580Y-110800418D01*
X140768616Y-110848861D01*
X140768220Y-110850304D01*
X140709614Y-111078049D01*
X140666450Y-111277591D01*
X140638623Y-111450839D01*
X140626029Y-111599702D01*
X140628562Y-111726092D01*
X140646119Y-111831917D01*
X140678595Y-111919088D01*
X140707180Y-111965996D01*
X140780056Y-112040311D01*
X140867472Y-112084896D01*
X140965368Y-112098309D01*
X141046057Y-112086295D01*
X141108355Y-112056943D01*
X141180071Y-112002588D01*
X141255814Y-111928707D01*
X141330194Y-111840782D01*
X141397820Y-111744290D01*
X141421977Y-111704165D01*
X141448195Y-111658067D01*
X141472865Y-111613657D01*
X141496646Y-111569197D01*
X141520197Y-111522944D01*
X141544174Y-111473159D01*
X141569236Y-111418099D01*
X141596042Y-111356025D01*
X141625250Y-111285196D01*
X141657517Y-111203871D01*
X141693502Y-111110309D01*
X141733862Y-111002769D01*
X141779257Y-110879510D01*
X141830344Y-110738793D01*
X141887782Y-110578875D01*
X141952228Y-110398016D01*
X142024340Y-110194476D01*
X142104777Y-109966513D01*
X142194197Y-109712387D01*
X142293259Y-109430357D01*
X142402619Y-109118681D01*
X142443112Y-109003234D01*
X142550180Y-108697817D01*
X142646508Y-108422679D01*
X142732652Y-108176149D01*
X142809167Y-107956554D01*
X142876609Y-107762222D01*
X142935531Y-107591481D01*
X142986491Y-107442658D01*
X143030043Y-107314082D01*
X143066742Y-107204080D01*
X143097144Y-107110981D01*
X143121805Y-107033111D01*
X143141278Y-106968800D01*
X143156120Y-106916374D01*
X143166886Y-106874161D01*
X143174132Y-106840490D01*
X143178411Y-106813689D01*
X143180281Y-106792084D01*
X143180486Y-106782802D01*
X143177254Y-106738872D01*
X143162945Y-106710554D01*
X143130636Y-106691849D01*
X143073408Y-106676757D01*
X143053401Y-106672646D01*
X142989332Y-106651766D01*
X142946307Y-106616234D01*
X142921951Y-106561483D01*
X142913886Y-106482944D01*
X142916764Y-106410004D01*
X142932182Y-106290472D01*
X142961152Y-106146712D01*
X143001751Y-105984645D01*
X143052054Y-105810192D01*
X143110135Y-105629274D01*
X143174071Y-105447812D01*
X143241935Y-105271725D01*
X143311803Y-105106935D01*
X143381750Y-104959362D01*
X143399708Y-104924551D01*
X143493527Y-104758548D01*
X143587029Y-104617049D01*
X143678631Y-104501924D01*
X143766752Y-104415046D01*
X143849810Y-104358284D01*
X143893755Y-104340280D01*
X143952380Y-104331884D01*
X144021827Y-104340204D01*
X144106189Y-104366447D01*
X144209561Y-104411818D01*
X144308181Y-104462423D01*
X144402813Y-104511095D01*
X144485811Y-104547374D01*
X144563462Y-104571826D01*
X144642049Y-104585020D01*
X144727858Y-104587522D01*
X144827173Y-104579899D01*
X144946280Y-104562719D01*
X145091462Y-104536549D01*
X145103701Y-104534216D01*
X145204737Y-104516877D01*
X145311755Y-104501774D01*
X145411212Y-104490651D01*
X145482132Y-104485520D01*
X145558967Y-104481399D01*
X145611295Y-104475152D01*
X145648494Y-104464419D01*
X145679947Y-104446842D01*
X145702412Y-104430109D01*
X145793246Y-104368147D01*
X145880065Y-104331001D01*
X145974781Y-104313576D01*
X145974861Y-104313569D01*
X146007017Y-104311849D01*
X146040599Y-104313395D01*
X146080175Y-104319346D01*
X146130313Y-104330846D01*
X146195580Y-104349036D01*
X146280544Y-104375058D01*
X146389773Y-104410054D01*
X146484689Y-104441017D01*
X146679119Y-104502862D01*
X146848127Y-104551846D01*
X146997394Y-104588553D01*
X147132605Y-104613570D01*
X147259444Y-104627481D01*
X147383594Y-104630873D01*
X147510739Y-104624331D01*
X147646563Y-104608440D01*
X147796749Y-104583785D01*
X147823314Y-104578914D01*
X147931007Y-104560121D01*
X148040803Y-104543028D01*
X148142517Y-104529084D01*
X148225967Y-104519738D01*
X148255874Y-104517353D01*
X148364608Y-104515867D01*
X148447253Y-104528651D01*
X148509462Y-104558095D01*
X148556885Y-104606594D01*
X148586299Y-104657219D01*
X148602679Y-104694113D01*
X148612987Y-104728965D01*
X148618087Y-104770131D01*
X148618843Y-104825971D01*
X148616117Y-104904841D01*
X148614802Y-104933136D01*
X148601637Y-105077275D01*
X148574963Y-105226077D01*
X148533509Y-105383400D01*
X148476005Y-105553103D01*
X148401180Y-105739045D01*
X148307764Y-105945085D01*
X148227324Y-106109953D01*
X148113777Y-106326850D01*
X147998910Y-106526809D01*
X147884179Y-106708060D01*
X147771041Y-106868835D01*
X147660954Y-107007366D01*
X147555374Y-107121884D01*
X147455758Y-107210620D01*
X147363563Y-107271806D01*
X147280246Y-107303672D01*
X147240430Y-107308070D01*
X147181591Y-107295851D01*
X147103922Y-107260487D01*
X147011383Y-107203912D01*
X146973752Y-107177693D01*
X146887042Y-107128374D01*
X146816090Y-107109032D01*
X146773618Y-107106398D01*
X146741302Y-107113306D01*
X146707770Y-107134607D01*
X146662093Y-107174747D01*
X146578082Y-107265830D01*
X146487946Y-107389969D01*
X146391621Y-107547255D01*
X146327466Y-107663907D01*
X146311045Y-107696977D01*
X146281524Y-107758786D01*
X146239864Y-107847237D01*
X146187027Y-107960236D01*
X146123976Y-108095685D01*
X146051671Y-108251489D01*
X145971074Y-108425553D01*
X145883148Y-108615781D01*
X145788854Y-108820076D01*
X145689154Y-109036344D01*
X145585010Y-109262489D01*
X145477383Y-109496415D01*
X145367236Y-109736025D01*
X145255530Y-109979225D01*
X145143227Y-110223919D01*
X145031288Y-110468011D01*
X144920677Y-110709404D01*
X144812353Y-110946005D01*
X144707280Y-111175715D01*
X144606418Y-111396441D01*
X144510731Y-111606086D01*
X144421179Y-111802554D01*
X144338724Y-111983750D01*
X144264329Y-112147579D01*
X144198954Y-112291943D01*
X144143562Y-112414748D01*
X144099115Y-112513897D01*
X144066575Y-112587296D01*
X144046902Y-112632848D01*
X144045402Y-112636464D01*
X144000279Y-112750958D01*
X143968916Y-112843767D01*
X143949173Y-112923136D01*
X143938913Y-112997307D01*
X143936103Y-113057828D01*
X143936267Y-113120199D01*
X143941447Y-113160008D01*
X143955499Y-113188558D01*
X143982277Y-113217156D01*
X143994208Y-113228204D01*
X144035603Y-113257113D01*
X144101539Y-113292958D01*
X144184264Y-113332389D01*
X144276028Y-113372063D01*
X144369079Y-113408631D01*
X144455665Y-113438748D01*
X144528035Y-113459067D01*
X144529988Y-113459509D01*
X144635743Y-113466939D01*
X144745928Y-113445654D01*
X144850784Y-113397713D01*
X144864663Y-113388872D01*
X144928341Y-113339574D01*
X144990340Y-113276046D01*
X145052314Y-113195533D01*
X145115917Y-113095281D01*
X145182803Y-112972538D01*
X145254625Y-112824550D01*
X145333038Y-112648563D01*
X145389438Y-112515172D01*
X145474281Y-112315638D01*
X145551773Y-112144149D01*
X145624512Y-111996354D01*
X145695094Y-111867902D01*
X145766117Y-111754441D01*
X145840178Y-111651622D01*
X145919872Y-111555092D01*
X146007798Y-111460500D01*
X146035703Y-111432314D01*
X146116898Y-111353608D01*
X146183758Y-111294866D01*
X146243842Y-111250186D01*
X146304713Y-111213666D01*
X146337323Y-111196860D01*
X146454694Y-111147658D01*
X146556977Y-111124792D01*
X146649484Y-111127539D01*
X146714416Y-111145500D01*
X146805670Y-111190544D01*
X146871543Y-111248453D01*
X146914279Y-111323342D01*
X146936124Y-111419323D01*
X146939321Y-111540510D01*
X146938586Y-111556402D01*
X146927676Y-111658900D01*
X146904661Y-111768806D01*
X146868440Y-111888605D01*
X146817912Y-112020785D01*
X146751976Y-112167835D01*
X146669531Y-112332239D01*
X146569476Y-112516487D01*
X146450711Y-112723066D01*
X146340160Y-112908270D01*
X146267444Y-113028538D01*
X146195089Y-113148348D01*
X146126450Y-113262138D01*
X146064881Y-113364342D01*
X146013736Y-113449395D01*
X145976368Y-113511734D01*
X145972777Y-113517747D01*
X145871936Y-113686664D01*
X145973290Y-113784625D01*
X146038591Y-113843506D01*
X146090447Y-113876022D01*
X146136266Y-113881980D01*
X146183452Y-113861183D01*
X146239413Y-113813438D01*
X146275601Y-113776682D01*
X146352528Y-113689279D01*
X146434009Y-113582516D01*
X146522927Y-113452393D01*
X146619113Y-113299902D01*
X146647423Y-113252524D01*
X146690969Y-113178138D01*
X146748612Y-113078744D01*
X146819218Y-112956342D01*
X146901650Y-112812935D01*
X146994773Y-112650521D01*
X147097451Y-112471102D01*
X147208547Y-112276679D01*
X147326927Y-112069252D01*
X147451453Y-111850821D01*
X147580991Y-111623388D01*
X147714404Y-111388953D01*
X147850556Y-111149517D01*
X147988312Y-110907080D01*
X148126535Y-110663643D01*
X148264091Y-110421207D01*
X148399842Y-110181773D01*
X148532652Y-109947340D01*
X148661387Y-109719910D01*
X148784911Y-109501484D01*
X148902086Y-109294062D01*
X149011778Y-109099644D01*
X149112850Y-108920232D01*
X149204167Y-108757826D01*
X149284592Y-108614426D01*
X149352990Y-108492034D01*
X149408226Y-108392650D01*
X149449162Y-108318275D01*
X149474663Y-108270909D01*
X149477933Y-108264616D01*
X149571956Y-108076721D01*
X149647149Y-107915438D01*
X149703973Y-107779517D01*
X149742889Y-107667708D01*
X149764358Y-107578761D01*
X149768841Y-107511425D01*
X149765017Y-107486100D01*
X149752195Y-107457383D01*
X149725813Y-107445491D01*
X149691311Y-107443627D01*
X149647091Y-107447383D01*
X149580979Y-107457456D01*
X149503987Y-107472049D01*
X149463774Y-107480723D01*
X149375904Y-107498808D01*
X149312055Y-107507285D01*
X149263987Y-107506920D01*
X149235681Y-107501903D01*
X149174279Y-107470493D01*
X149132048Y-107412876D01*
X149108743Y-107330623D01*
X149104123Y-107225306D01*
X149117945Y-107098498D01*
X149149968Y-106951768D01*
X149199947Y-106786690D01*
X149267642Y-106604835D01*
X149352809Y-106407774D01*
X149428959Y-106249030D01*
X149585902Y-105949265D01*
X149743592Y-105676987D01*
X149901407Y-105432899D01*
X150058722Y-105217708D01*
X150214915Y-105032118D01*
X150369363Y-104876835D01*
X150521441Y-104752563D01*
X150670526Y-104660007D01*
X150815996Y-104599872D01*
X150905619Y-104578933D01*
X150953555Y-104573247D01*
X151003603Y-104572306D01*
X151059946Y-104576962D01*
X151126767Y-104588070D01*
X151208249Y-104606483D01*
X151308574Y-104633054D01*
X151431926Y-104668637D01*
X151582487Y-104714083D01*
X151610999Y-104722824D01*
X151812766Y-104783608D01*
X151987960Y-104833473D01*
X152141745Y-104873390D01*
X152279282Y-104904331D01*
X152405736Y-104927267D01*
X152526268Y-104943168D01*
X152646041Y-104953005D01*
X152770218Y-104957751D01*
X152864342Y-104958561D01*
X152969105Y-104957165D01*
X153067140Y-104952710D01*
X153167362Y-104944374D01*
X153278686Y-104931338D01*
X153410029Y-104912782D01*
X153482821Y-104901670D01*
X153694136Y-104871955D01*
X153881602Y-104852005D01*
X154043648Y-104841852D01*
X154178708Y-104841530D01*
X154285211Y-104851073D01*
X154361590Y-104870513D01*
X154385649Y-104882459D01*
X154457603Y-104946352D01*
X154504599Y-105032823D01*
X154526669Y-105141558D01*
X154526669Y-105141558D01*
G36*
X159526240Y-93600433D02*
X159513520Y-93740413D01*
X159482362Y-93898375D01*
X159434492Y-94070374D01*
X159371635Y-94252466D01*
X159295517Y-94440706D01*
X159207864Y-94631150D01*
X159110403Y-94819853D01*
X159004858Y-95002870D01*
X158892957Y-95176258D01*
X158776424Y-95336072D01*
X158656986Y-95478366D01*
X158635117Y-95502021D01*
X158530951Y-95604218D01*
X158437259Y-95676372D01*
X158350918Y-95719481D01*
X158268805Y-95734544D01*
X158187796Y-95722559D01*
X158104770Y-95684524D01*
X158090975Y-95676015D01*
X158013714Y-95634579D01*
X157947991Y-95617529D01*
X157931617Y-95616709D01*
X157895043Y-95619161D01*
X157863777Y-95630479D01*
X157829306Y-95655790D01*
X157783120Y-95700220D01*
X157769014Y-95714639D01*
X157687744Y-95811157D01*
X157601455Y-95938044D01*
X157511902Y-96092465D01*
X157420843Y-96271583D01*
X157410154Y-96294060D01*
X157373002Y-96373238D01*
X157324311Y-96477840D01*
X157264997Y-96605857D01*
X157195978Y-96755283D01*
X157118170Y-96924108D01*
X157032492Y-97110323D01*
X156939859Y-97311922D01*
X156841190Y-97526894D01*
X156737401Y-97753232D01*
X156629410Y-97988928D01*
X156518133Y-98231974D01*
X156404489Y-98480359D01*
X156289393Y-98732078D01*
X156173764Y-98985120D01*
X156058518Y-99237479D01*
X155944573Y-99487145D01*
X155832845Y-99732109D01*
X155724253Y-99970365D01*
X155619712Y-100199903D01*
X155520141Y-100418715D01*
X155426456Y-100624792D01*
X155339575Y-100816127D01*
X155260414Y-100990711D01*
X155189891Y-101146535D01*
X155128924Y-101281592D01*
X155078429Y-101393873D01*
X155039323Y-101481369D01*
X155012523Y-101542072D01*
X154998980Y-101573894D01*
X154951683Y-101700222D01*
X154912787Y-101818092D01*
X154883573Y-101922621D01*
X154865325Y-102008928D01*
X154859326Y-102072128D01*
X154861831Y-102095753D01*
X154877594Y-102124460D01*
X154909453Y-102138463D01*
X154961454Y-102137939D01*
X155037646Y-102123060D01*
X155101033Y-102106068D01*
X155204659Y-102080543D01*
X155283099Y-102071995D01*
X155341050Y-102081417D01*
X155383207Y-102109802D01*
X155414268Y-102158143D01*
X155420943Y-102173695D01*
X155442151Y-102265699D01*
X155443053Y-102379593D01*
X155425292Y-102511447D01*
X155390515Y-102657333D01*
X155340365Y-102813319D01*
X155276487Y-102975479D01*
X155200526Y-103139880D01*
X155114126Y-103302596D01*
X155018932Y-103459695D01*
X154916589Y-103607248D01*
X154808740Y-103741327D01*
X154729013Y-103826904D01*
X154622714Y-103925673D01*
X154526154Y-103996666D01*
X154433197Y-104042048D01*
X154337701Y-104063983D01*
X154233528Y-104064634D01*
X154114539Y-104046164D01*
X154109772Y-104045142D01*
X154043206Y-104028182D01*
X153959352Y-104003188D01*
X153872467Y-103974508D01*
X153838658Y-103962466D01*
X153756206Y-103933457D01*
X153672393Y-103905861D01*
X153600760Y-103884072D01*
X153576692Y-103877483D01*
X153458800Y-103857579D01*
X153315957Y-103851246D01*
X153154199Y-103858328D01*
X152979561Y-103878671D01*
X152879969Y-103895498D01*
X152731194Y-103920004D01*
X152611413Y-103930782D01*
X152517922Y-103926096D01*
X152448016Y-103904211D01*
X152398994Y-103863390D01*
X152368151Y-103801898D01*
X152352783Y-103717998D01*
X152350188Y-103609954D01*
X152352272Y-103556648D01*
X152366454Y-103417860D01*
X152395560Y-103273438D01*
X152441033Y-103118813D01*
X152504318Y-102949414D01*
X152586857Y-102760671D01*
X152636901Y-102655346D01*
X152732524Y-102470919D01*
X152824491Y-102318909D01*
X152913573Y-102198137D01*
X152988274Y-102118535D01*
X153048497Y-102066108D01*
X153100310Y-102032583D01*
X153154765Y-102013864D01*
X153222910Y-102005853D01*
X153296093Y-102004401D01*
X153429107Y-102004401D01*
X153497715Y-101926457D01*
X153534393Y-101877798D01*
X153578525Y-101808810D01*
X153623620Y-101730049D01*
X153651410Y-101676524D01*
X153681581Y-101613808D01*
X153721175Y-101528831D01*
X153768801Y-101424767D01*
X153823071Y-101304793D01*
X153882592Y-101172082D01*
X153945976Y-101029810D01*
X154011832Y-100881151D01*
X154078770Y-100729282D01*
X154145400Y-100577377D01*
X154210331Y-100428611D01*
X154272175Y-100286159D01*
X154329540Y-100153196D01*
X154381036Y-100032897D01*
X154425273Y-99928437D01*
X154460862Y-99842992D01*
X154486412Y-99779736D01*
X154500533Y-99741845D01*
X154502784Y-99731980D01*
X154483939Y-99728882D01*
X154435608Y-99724449D01*
X154362056Y-99718914D01*
X154267544Y-99712511D01*
X154156335Y-99705472D01*
X154032693Y-99698031D01*
X153900880Y-99690421D01*
X153765158Y-99682876D01*
X153629791Y-99675629D01*
X153499042Y-99668912D01*
X153377173Y-99662960D01*
X153330555Y-99660835D01*
X153330555Y-95572621D01*
X153324792Y-95512671D01*
X153308559Y-95483753D01*
X153289034Y-95475187D01*
X153257499Y-95475228D01*
X153209165Y-95484847D01*
X153139244Y-95505017D01*
X153042949Y-95536712D01*
X153035607Y-95539213D01*
X152938049Y-95566157D01*
X152863409Y-95570732D01*
X152807907Y-95551438D01*
X152767761Y-95506776D01*
X152739189Y-95435247D01*
X152735155Y-95420085D01*
X152715457Y-95341856D01*
X152665925Y-95457885D01*
X152646711Y-95505602D01*
X152618390Y-95579566D01*
X152583086Y-95674048D01*
X152542923Y-95783323D01*
X152500024Y-95901661D01*
X152462674Y-96006002D01*
X152381117Y-96231376D01*
X152307068Y-96427235D01*
X152239044Y-96596738D01*
X152175565Y-96743044D01*
X152115150Y-96869315D01*
X152056318Y-96978709D01*
X151997587Y-97074387D01*
X151937477Y-97159508D01*
X151899377Y-97207747D01*
X151793810Y-97317310D01*
X151680442Y-97400572D01*
X151563211Y-97455300D01*
X151446057Y-97479260D01*
X151418912Y-97480184D01*
X151322462Y-97465709D01*
X151243819Y-97422477D01*
X151183490Y-97350778D01*
X151179198Y-97343336D01*
X151157008Y-97297539D01*
X151144406Y-97251292D01*
X151139032Y-97192468D01*
X151138324Y-97133214D01*
X151139630Y-97072064D01*
X151143648Y-97013798D01*
X151151445Y-96953006D01*
X151164083Y-96884278D01*
X151182627Y-96802204D01*
X151208141Y-96701374D01*
X151241689Y-96576379D01*
X151263391Y-96497396D01*
X151307636Y-96332836D01*
X151341818Y-96194794D01*
X151366961Y-96077763D01*
X151384089Y-95976238D01*
X151394224Y-95884712D01*
X151398391Y-95797678D01*
X151398631Y-95769980D01*
X151392362Y-95640624D01*
X151372265Y-95536830D01*
X151336410Y-95452428D01*
X151282864Y-95381248D01*
X151274102Y-95372242D01*
X151208056Y-95317930D01*
X151134376Y-95282930D01*
X151045680Y-95265081D01*
X150934587Y-95262218D01*
X150903233Y-95263549D01*
X150756420Y-95286082D01*
X150621016Y-95338264D01*
X150495157Y-95421199D01*
X150376977Y-95535988D01*
X150316612Y-95610390D01*
X150231798Y-95735862D01*
X150150306Y-95880636D01*
X150074684Y-96038043D01*
X150007481Y-96201410D01*
X149951246Y-96364068D01*
X149908528Y-96519345D01*
X149881876Y-96660570D01*
X149873733Y-96769429D01*
X149878176Y-96835870D01*
X149893432Y-96897041D01*
X149922171Y-96955870D01*
X149967061Y-97015284D01*
X150030772Y-97078212D01*
X150115972Y-97147580D01*
X150225330Y-97226317D01*
X150361515Y-97317351D01*
X150390209Y-97335998D01*
X150588900Y-97479107D01*
X150759221Y-97633376D01*
X150901530Y-97800012D01*
X151016184Y-97980220D01*
X151103544Y-98175208D01*
X151163965Y-98386181D01*
X151197807Y-98614347D01*
X151205428Y-98860910D01*
X151187186Y-99127077D01*
X151143439Y-99414056D01*
X151085674Y-99678488D01*
X150991526Y-100017485D01*
X150871566Y-100373890D01*
X150726975Y-100744620D01*
X150558932Y-101126592D01*
X150424783Y-101405435D01*
X150364198Y-101527606D01*
X150317887Y-101622455D01*
X150284673Y-101692820D01*
X150263376Y-101741539D01*
X150252817Y-101771452D01*
X150251818Y-101785395D01*
X150259199Y-101786209D01*
X150269125Y-101780197D01*
X150317914Y-101755845D01*
X150377550Y-101739319D01*
X150390166Y-101737503D01*
X150435277Y-101735876D01*
X150477480Y-101744640D01*
X150528420Y-101767200D01*
X150570773Y-101790331D01*
X150628331Y-101820574D01*
X150678040Y-101842492D01*
X150709650Y-101851597D01*
X150710761Y-101851638D01*
X150740231Y-101840116D01*
X150780323Y-101810355D01*
X150805086Y-101786673D01*
X150852519Y-101731136D01*
X150901561Y-101661757D01*
X150953515Y-101575974D01*
X151009681Y-101471221D01*
X151071359Y-101344934D01*
X151139850Y-101194550D01*
X151216455Y-101017503D01*
X151302474Y-100811230D01*
X151313492Y-100784387D01*
X151384494Y-100610948D01*
X151462449Y-100420145D01*
X151546483Y-100214140D01*
X151635722Y-99995091D01*
X151729292Y-99765160D01*
X151826319Y-99526506D01*
X151925929Y-99281290D01*
X152027248Y-99031671D01*
X152129401Y-98779811D01*
X152231515Y-98527870D01*
X152332714Y-98278007D01*
X152432126Y-98032383D01*
X152528876Y-97793158D01*
X152622090Y-97562492D01*
X152710893Y-97342546D01*
X152794412Y-97135479D01*
X152871773Y-96943452D01*
X152942101Y-96768626D01*
X153004522Y-96613160D01*
X153058162Y-96479214D01*
X153102148Y-96368949D01*
X153135604Y-96284526D01*
X153157657Y-96228103D01*
X153164775Y-96209337D01*
X153222195Y-96045551D01*
X153267988Y-95897440D01*
X153301648Y-95767551D01*
X153322672Y-95658430D01*
X153330555Y-95572621D01*
X153330555Y-99660835D01*
X153268447Y-99658005D01*
X153177126Y-99654281D01*
X153107475Y-99652021D01*
X153063755Y-99651458D01*
X153050163Y-99652491D01*
X153042396Y-99669035D01*
X153022585Y-99714177D01*
X152991851Y-99785285D01*
X152951319Y-99879730D01*
X152902111Y-99994883D01*
X152845350Y-100128113D01*
X152782160Y-100276792D01*
X152713664Y-100438289D01*
X152640984Y-100609975D01*
X152616829Y-100667105D01*
X152521918Y-100892272D01*
X152439888Y-101088422D01*
X152370009Y-101257577D01*
X152311555Y-101401755D01*
X152263796Y-101522978D01*
X152226005Y-101623266D01*
X152197454Y-101704639D01*
X152177415Y-101769119D01*
X152165160Y-101818725D01*
X152159961Y-101855478D01*
X152161090Y-101881399D01*
X152167819Y-101898508D01*
X152171543Y-101902970D01*
X152196198Y-101913601D01*
X152244191Y-101924839D01*
X152304804Y-101934205D01*
X152381549Y-101946949D01*
X152433307Y-101967235D01*
X152464320Y-102000886D01*
X152478830Y-102053724D01*
X152481077Y-102131572D01*
X152479350Y-102173800D01*
X152462847Y-102299691D01*
X152426974Y-102445610D01*
X152374429Y-102605868D01*
X152307911Y-102774774D01*
X152230117Y-102946638D01*
X152143746Y-103115768D01*
X152051497Y-103276475D01*
X151956067Y-103423069D01*
X151860155Y-103549858D01*
X151789588Y-103628469D01*
X151687752Y-103721715D01*
X151593488Y-103785544D01*
X151502501Y-103822283D01*
X151410494Y-103834259D01*
X151409578Y-103834262D01*
X151363520Y-103832081D01*
X151315461Y-103824072D01*
X151258496Y-103808262D01*
X151185717Y-103782679D01*
X151090218Y-103745351D01*
X151070685Y-103737476D01*
X150830986Y-103640531D01*
X150593761Y-103634494D01*
X150467023Y-103633243D01*
X150359233Y-103637315D01*
X150255732Y-103647677D01*
X150151319Y-103663660D01*
X149987409Y-103687463D01*
X149851673Y-103697900D01*
X149744967Y-103694965D01*
X149668151Y-103678653D01*
X149643506Y-103666911D01*
X149585152Y-103611859D01*
X149545710Y-103530826D01*
X149525074Y-103425881D01*
X149523137Y-103299092D01*
X149539795Y-103152529D01*
X149574939Y-102988261D01*
X149628466Y-102808355D01*
X149697037Y-102622880D01*
X149692408Y-102621985D01*
X149670006Y-102643748D01*
X149633325Y-102684442D01*
X149585859Y-102740340D01*
X149577894Y-102749964D01*
X149516008Y-102822001D01*
X149438360Y-102907944D01*
X149353716Y-102998319D01*
X149270844Y-103083649D01*
X149248452Y-103106041D01*
X149057594Y-103284109D01*
X148873522Y-103432159D01*
X148692835Y-103552492D01*
X148512132Y-103647411D01*
X148357070Y-103709454D01*
X148291654Y-103730536D01*
X148234144Y-103744329D01*
X148173667Y-103752367D01*
X148099347Y-103756182D01*
X148018178Y-103757247D01*
X147930500Y-103757166D01*
X147867527Y-103754955D01*
X147820080Y-103749067D01*
X147778979Y-103737953D01*
X147735046Y-103720064D01*
X147699364Y-103703474D01*
X147585564Y-103636727D01*
X147487422Y-103550017D01*
X147400805Y-103438855D01*
X147321580Y-103298754D01*
X147315870Y-103287056D01*
X147276192Y-103198888D01*
X147238038Y-103103554D01*
X147206990Y-103015469D01*
X147194552Y-102973804D01*
X147156786Y-102833334D01*
X147109424Y-102944354D01*
X147040874Y-103088109D01*
X146964697Y-103218111D01*
X146884244Y-103329868D01*
X146802868Y-103418889D01*
X146723917Y-103480681D01*
X146699245Y-103494197D01*
X146614442Y-103521874D01*
X146524057Y-103529368D01*
X146440154Y-103516639D01*
X146390967Y-103495203D01*
X146334702Y-103440744D01*
X146298660Y-103360050D01*
X146282821Y-103254065D01*
X146287166Y-103123734D01*
X146311675Y-102970003D01*
X146356330Y-102793815D01*
X146408626Y-102631352D01*
X146430018Y-102572134D01*
X146461898Y-102486694D01*
X146502246Y-102380307D01*
X146549044Y-102258248D01*
X146600272Y-102125794D01*
X146653912Y-101988218D01*
X146687468Y-101902733D01*
X146750692Y-101741732D01*
X146803599Y-101605732D01*
X146848458Y-101488271D01*
X146887536Y-101382885D01*
X146923103Y-101283109D01*
X146957425Y-101182479D01*
X146992771Y-101074532D01*
X147031408Y-100952804D01*
X147075606Y-100810830D01*
X147112196Y-100692279D01*
X147175509Y-100494571D01*
X147235237Y-100325974D01*
X147293545Y-100182201D01*
X147352602Y-100058964D01*
X147414572Y-99951976D01*
X147481624Y-99856951D01*
X147555924Y-99769601D01*
X147603252Y-99720707D01*
X147713373Y-99625685D01*
X147821231Y-99562273D01*
X147930440Y-99528702D01*
X148009705Y-99522012D01*
X148109787Y-99531289D01*
X148186410Y-99561103D01*
X148245103Y-99614427D01*
X148278005Y-99666429D01*
X148296196Y-99704538D01*
X148307070Y-99739847D01*
X148311774Y-99781774D01*
X148311459Y-99839739D01*
X148307928Y-99911739D01*
X148296983Y-100028376D01*
X148276125Y-100160073D01*
X148244487Y-100311027D01*
X148201206Y-100485437D01*
X148154999Y-100653916D01*
X148101341Y-100859635D01*
X148064863Y-101039292D01*
X148045274Y-101195863D01*
X148042281Y-101332324D01*
X148055594Y-101451650D01*
X148070668Y-101514167D01*
X148114064Y-101607415D01*
X148182349Y-101689928D01*
X148267264Y-101753435D01*
X148341062Y-101784843D01*
X148474660Y-101808054D01*
X148604232Y-101799597D01*
X148731419Y-101758944D01*
X148857862Y-101685566D01*
X148985202Y-101578935D01*
X148987587Y-101576636D01*
X149112764Y-101443806D01*
X149221137Y-101301712D01*
X149317152Y-101143399D01*
X149405260Y-100961913D01*
X149450981Y-100852166D01*
X149524148Y-100649104D01*
X149573124Y-100469189D01*
X149597977Y-100311905D01*
X149598774Y-100176736D01*
X149575585Y-100063167D01*
X149560539Y-100025654D01*
X149511087Y-99945434D01*
X149431079Y-99851376D01*
X149320777Y-99743732D01*
X149180444Y-99622759D01*
X149010345Y-99488710D01*
X148984022Y-99468801D01*
X148896028Y-99401430D01*
X148813218Y-99335939D01*
X148741074Y-99276823D01*
X148685077Y-99228578D01*
X148650708Y-99195698D01*
X148649862Y-99194767D01*
X148574169Y-99090853D01*
X148507160Y-98958589D01*
X148450660Y-98802814D01*
X148406493Y-98628366D01*
X148382086Y-98484724D01*
X148371785Y-98370934D01*
X148367447Y-98232790D01*
X148368751Y-98079241D01*
X148375377Y-97919235D01*
X148387004Y-97761720D01*
X148403310Y-97615645D01*
X148416276Y-97531018D01*
X148468881Y-97270772D01*
X148538924Y-96989807D01*
X148624231Y-96695045D01*
X148722630Y-96393407D01*
X148831945Y-96091811D01*
X148950004Y-95797179D01*
X148990662Y-95702312D01*
X149019752Y-95634211D01*
X149042876Y-95577456D01*
X149057128Y-95539330D01*
X149060272Y-95527677D01*
X149045515Y-95510102D01*
X149008513Y-95489646D01*
X148960173Y-95470469D01*
X148911401Y-95456728D01*
X148873103Y-95452581D01*
X148866044Y-95453628D01*
X148811714Y-95482872D01*
X148751961Y-95543800D01*
X148687779Y-95634819D01*
X148620164Y-95754336D01*
X148550109Y-95900759D01*
X148478610Y-96072495D01*
X148477179Y-96076159D01*
X148461155Y-96118945D01*
X148434865Y-96191301D01*
X148399173Y-96290786D01*
X148354939Y-96414957D01*
X148303025Y-96561373D01*
X148244293Y-96727594D01*
X148179604Y-96911177D01*
X148109822Y-97109683D01*
X148035806Y-97320668D01*
X147958419Y-97541693D01*
X147878523Y-97770316D01*
X147823080Y-97929217D01*
X147702751Y-98274183D01*
X147592897Y-98588840D01*
X147492907Y-98874903D01*
X147402170Y-99134088D01*
X147320075Y-99368112D01*
X147246012Y-99578689D01*
X147179371Y-99767536D01*
X147119540Y-99936368D01*
X147065908Y-100086901D01*
X147017866Y-100220851D01*
X146974803Y-100339933D01*
X146936107Y-100445865D01*
X146901169Y-100540360D01*
X146869378Y-100625135D01*
X146840122Y-100701906D01*
X146812793Y-100772388D01*
X146796113Y-100814779D01*
X146652702Y-101161170D01*
X146508540Y-101476429D01*
X146361972Y-101763299D01*
X146211340Y-102024525D01*
X146054988Y-102262850D01*
X145891259Y-102481020D01*
X145718497Y-102681778D01*
X145586914Y-102817743D01*
X145375216Y-103007747D01*
X145158783Y-103165927D01*
X144938563Y-103291708D01*
X144715504Y-103384512D01*
X144594964Y-103420517D01*
X144440258Y-103450047D01*
X144270930Y-103464671D01*
X144100279Y-103464045D01*
X144061607Y-103460093D01*
X144061607Y-98030885D01*
X144053134Y-98022413D01*
X144044662Y-98030885D01*
X144053134Y-98039357D01*
X144061607Y-98030885D01*
X144061607Y-103460093D01*
X143941602Y-103447830D01*
X143892160Y-103438580D01*
X143711784Y-103383802D01*
X143550105Y-103301191D01*
X143408804Y-103192173D01*
X143289566Y-103058173D01*
X143194073Y-102900619D01*
X143156512Y-102815384D01*
X143098370Y-102638223D01*
X143058406Y-102447897D01*
X143036609Y-102241942D01*
X143032967Y-102017896D01*
X143047468Y-101773298D01*
X143080103Y-101505686D01*
X143130858Y-101212597D01*
X143148801Y-101123280D01*
X143171516Y-101015045D01*
X143194098Y-100911639D01*
X143217361Y-100810200D01*
X143242116Y-100707867D01*
X143269178Y-100601779D01*
X143299358Y-100489075D01*
X143333469Y-100366894D01*
X143372325Y-100232376D01*
X143416736Y-100082660D01*
X143467517Y-99914884D01*
X143525480Y-99726188D01*
X143591437Y-99513710D01*
X143666202Y-99274590D01*
X143747140Y-99016923D01*
X143801160Y-98845013D01*
X143852011Y-98682779D01*
X143898801Y-98533094D01*
X143940636Y-98398834D01*
X143976626Y-98282874D01*
X144005876Y-98188089D01*
X144027495Y-98117353D01*
X144040590Y-98073542D01*
X144044354Y-98059551D01*
X144036913Y-98069253D01*
X144016711Y-98103979D01*
X143986580Y-98158664D01*
X143949351Y-98228243D01*
X143937273Y-98251165D01*
X143759422Y-98567105D01*
X143573932Y-98851643D01*
X143379457Y-99106675D01*
X143340446Y-99149994D01*
X143340446Y-95796045D01*
X143322838Y-95644014D01*
X143285569Y-95515939D01*
X143228633Y-95411085D01*
X143206451Y-95382543D01*
X143148365Y-95325884D01*
X143081284Y-95286575D01*
X142997930Y-95261806D01*
X142891026Y-95248763D01*
X142855178Y-95246799D01*
X142774162Y-95244323D01*
X142716975Y-95246112D01*
X142673690Y-95253386D01*
X142634384Y-95267365D01*
X142615077Y-95276300D01*
X142553563Y-95314444D01*
X142499882Y-95367902D01*
X142449371Y-95442498D01*
X142397363Y-95544057D01*
X142392992Y-95553532D01*
X142377252Y-95588551D01*
X142362384Y-95623651D01*
X142347579Y-95661564D01*
X142332028Y-95705019D01*
X142314920Y-95756748D01*
X142295447Y-95819482D01*
X142272799Y-95895951D01*
X142246166Y-95988887D01*
X142214739Y-96101020D01*
X142177708Y-96235080D01*
X142134263Y-96393800D01*
X142083596Y-96579910D01*
X142027795Y-96785455D01*
X141965627Y-97015000D01*
X141912029Y-97214154D01*
X141866565Y-97385201D01*
X141828802Y-97530419D01*
X141798304Y-97652092D01*
X141774638Y-97752500D01*
X141757368Y-97833924D01*
X141746060Y-97898646D01*
X141740280Y-97948947D01*
X141739592Y-97987108D01*
X141743563Y-98015410D01*
X141751758Y-98036135D01*
X141763742Y-98051565D01*
X141779081Y-98063980D01*
X141783671Y-98067064D01*
X141836585Y-98089056D01*
X141915428Y-98105357D01*
X142012566Y-98114984D01*
X142120366Y-98116953D01*
X142160312Y-98115598D01*
X142255672Y-98105292D01*
X142339973Y-98081235D01*
X142393938Y-98058145D01*
X142522890Y-97979914D01*
X142646091Y-97868966D01*
X142763099Y-97726052D01*
X142873473Y-97551928D01*
X142976772Y-97347344D01*
X143072554Y-97113054D01*
X143160378Y-96849812D01*
X143214350Y-96658370D01*
X143275344Y-96403193D01*
X143316694Y-96174901D01*
X143338396Y-95972763D01*
X143340446Y-95796045D01*
X143340446Y-99149994D01*
X143174653Y-99334098D01*
X143155527Y-99353419D01*
X143027728Y-99476905D01*
X142911832Y-99578126D01*
X142800480Y-99662700D01*
X142686314Y-99736243D01*
X142570479Y-99800016D01*
X142440762Y-99862528D01*
X142320192Y-99910256D01*
X142201800Y-99944413D01*
X142078612Y-99966211D01*
X141943660Y-99976865D01*
X141789970Y-99977586D01*
X141610573Y-99969587D01*
X141599816Y-99968918D01*
X141281521Y-99948878D01*
X141230778Y-99997493D01*
X141197805Y-100034439D01*
X141167030Y-100081625D01*
X141136854Y-100143038D01*
X141105675Y-100222663D01*
X141071895Y-100324485D01*
X141033913Y-100452490D01*
X141001710Y-100568059D01*
X140958837Y-100732165D01*
X140928112Y-100867355D01*
X140909250Y-100976242D01*
X140901964Y-101061436D01*
X140905969Y-101125548D01*
X140920979Y-101171189D01*
X140933712Y-101189243D01*
X140977934Y-101214799D01*
X141046860Y-101224949D01*
X141134913Y-101219503D01*
X141231853Y-101199531D01*
X141303420Y-101185357D01*
X141385616Y-101176197D01*
X141432256Y-101174315D01*
X141494196Y-101175985D01*
X141534370Y-101183753D01*
X141564815Y-101201322D01*
X141587397Y-101222047D01*
X141624986Y-101270626D01*
X141650581Y-101332226D01*
X141665725Y-101412937D01*
X141671956Y-101518850D01*
X141672319Y-101557732D01*
X141663304Y-101716619D01*
X141637442Y-101884578D01*
X141596787Y-102056631D01*
X141543392Y-102227800D01*
X141479311Y-102393105D01*
X141406598Y-102547567D01*
X141327307Y-102686207D01*
X141243491Y-102804046D01*
X141157204Y-102896106D01*
X141102799Y-102938429D01*
X141051507Y-102969986D01*
X141002483Y-102993419D01*
X140951475Y-103008556D01*
X140894234Y-103015227D01*
X140826509Y-103013260D01*
X140744049Y-103002485D01*
X140642604Y-102982729D01*
X140517923Y-102953823D01*
X140365757Y-102915594D01*
X140334233Y-102907481D01*
X140212882Y-102876426D01*
X140117019Y-102852917D01*
X140039389Y-102835772D01*
X139972734Y-102823806D01*
X139909798Y-102815838D01*
X139843324Y-102810683D01*
X139766055Y-102807159D01*
X139706837Y-102805190D01*
X139510508Y-102803757D01*
X139330893Y-102812942D01*
X139220384Y-102824322D01*
X139080701Y-102840009D01*
X138969853Y-102848357D01*
X138883366Y-102848255D01*
X138816760Y-102838592D01*
X138765562Y-102818257D01*
X138725293Y-102786138D01*
X138691478Y-102741124D01*
X138661323Y-102685545D01*
X138640126Y-102638872D01*
X138625880Y-102595437D01*
X138616895Y-102545945D01*
X138611478Y-102481099D01*
X138607957Y-102392270D01*
X138610968Y-102235553D01*
X138628235Y-102074574D01*
X138658191Y-101912857D01*
X138699268Y-101753924D01*
X138749898Y-101601297D01*
X138808513Y-101458497D01*
X138873546Y-101329048D01*
X138943428Y-101216472D01*
X139016591Y-101124291D01*
X139091468Y-101056027D01*
X139166490Y-101015203D01*
X139225632Y-101004667D01*
X139253693Y-101012043D01*
X139301936Y-101031530D01*
X139360704Y-101059168D01*
X139370226Y-101063974D01*
X139430470Y-101092612D01*
X139482459Y-101113657D01*
X139516164Y-101123109D01*
X139518960Y-101123280D01*
X139561441Y-101106622D01*
X139607644Y-101057261D01*
X139657057Y-100976121D01*
X139709170Y-100864124D01*
X139763471Y-100722190D01*
X139797947Y-100619770D01*
X139808534Y-100583540D01*
X139826882Y-100516802D01*
X139852392Y-100421889D01*
X139884462Y-100301134D01*
X139922491Y-100156870D01*
X139965879Y-99991430D01*
X140014024Y-99807147D01*
X140066326Y-99606355D01*
X140122184Y-99391385D01*
X140180997Y-99164572D01*
X140242164Y-98928249D01*
X140305085Y-98684748D01*
X140369158Y-98436402D01*
X140433783Y-98185545D01*
X140498359Y-97934510D01*
X140562285Y-97685629D01*
X140624960Y-97441236D01*
X140685783Y-97203665D01*
X140744154Y-96975247D01*
X140799472Y-96758316D01*
X140851136Y-96555205D01*
X140898545Y-96368247D01*
X140941098Y-96199776D01*
X140978194Y-96052124D01*
X141009233Y-95927624D01*
X141033614Y-95828609D01*
X141050735Y-95757413D01*
X141055954Y-95734888D01*
X141080673Y-95607303D01*
X141096872Y-95483929D01*
X141102468Y-95392294D01*
X141102685Y-95318943D01*
X141099491Y-95270912D01*
X141091266Y-95239680D01*
X141076391Y-95216726D01*
X141067259Y-95206990D01*
X141029750Y-95169416D01*
X140871646Y-95223399D01*
X140764722Y-95256704D01*
X140682953Y-95273141D01*
X140621476Y-95271565D01*
X140575425Y-95250832D01*
X140539935Y-95209796D01*
X140510141Y-95147313D01*
X140506391Y-95137443D01*
X140472972Y-95009009D01*
X140458703Y-94857377D01*
X140463972Y-94687570D01*
X140468334Y-94643347D01*
X140499209Y-94429579D01*
X140542758Y-94221684D01*
X140597567Y-94022285D01*
X140662223Y-93834004D01*
X140735313Y-93659465D01*
X140815421Y-93501290D01*
X140901135Y-93362103D01*
X140991042Y-93244527D01*
X141083726Y-93151185D01*
X141177775Y-93084700D01*
X141271775Y-93047694D01*
X141332098Y-93040691D01*
X141389303Y-93044947D01*
X141473241Y-93056950D01*
X141577942Y-93075559D01*
X141697437Y-93099631D01*
X141825757Y-93128022D01*
X141956932Y-93159591D01*
X141968945Y-93162618D01*
X142187897Y-93204179D01*
X142431498Y-93224667D01*
X142697876Y-93224108D01*
X142985162Y-93202531D01*
X143291484Y-93159962D01*
X143393980Y-93141770D01*
X143535057Y-93116142D01*
X143648601Y-93097458D01*
X143740163Y-93085336D01*
X143815298Y-93079392D01*
X143879558Y-93079241D01*
X143938497Y-93084501D01*
X143997668Y-93094787D01*
X144016214Y-93098778D01*
X144188161Y-93152958D01*
X144340201Y-93234426D01*
X144471877Y-93342880D01*
X144577880Y-93470905D01*
X144641806Y-93563723D01*
X144706894Y-93466254D01*
X144794364Y-93352844D01*
X144891833Y-93257012D01*
X144994392Y-93182207D01*
X145097132Y-93131879D01*
X145195145Y-93109475D01*
X145215905Y-93108635D01*
X145267358Y-93112527D01*
X145338748Y-93124809D01*
X145432822Y-93146125D01*
X145552328Y-93177119D01*
X145700016Y-93218434D01*
X145764542Y-93237104D01*
X145869801Y-93263840D01*
X145968586Y-93279225D01*
X146068126Y-93283012D01*
X146175648Y-93274952D01*
X146298380Y-93254797D01*
X146443548Y-93222298D01*
X146483434Y-93212407D01*
X146637425Y-93176138D01*
X146763060Y-93153221D01*
X146863561Y-93144707D01*
X146942151Y-93151647D01*
X147002053Y-93175094D01*
X147046490Y-93216099D01*
X147078684Y-93275715D01*
X147101858Y-93354994D01*
X147113702Y-93418133D01*
X147121289Y-93528537D01*
X147114000Y-93663276D01*
X147093410Y-93817288D01*
X147061093Y-93985513D01*
X147018623Y-94162891D01*
X146967573Y-94344361D01*
X146909517Y-94524862D01*
X146846031Y-94699333D01*
X146778686Y-94862714D01*
X146709059Y-95009945D01*
X146638721Y-95135964D01*
X146569248Y-95235711D01*
X146536973Y-95272459D01*
X146463231Y-95334149D01*
X146386498Y-95365836D01*
X146297742Y-95370864D01*
X146276603Y-95368831D01*
X146220856Y-95364438D01*
X146183694Y-95370128D01*
X146150430Y-95389544D01*
X146131527Y-95404816D01*
X146093089Y-95446310D01*
X146052475Y-95504059D01*
X146028396Y-95546522D01*
X146019078Y-95570927D01*
X146000289Y-95625351D01*
X145972760Y-95707498D01*
X145937227Y-95815071D01*
X145894424Y-95945774D01*
X145845084Y-96097310D01*
X145789941Y-96267383D01*
X145729729Y-96453696D01*
X145665182Y-96653953D01*
X145597034Y-96865858D01*
X145526019Y-97087113D01*
X145452871Y-97315423D01*
X145378323Y-97548490D01*
X145303110Y-97784018D01*
X145227965Y-98019712D01*
X145153623Y-98253273D01*
X145080817Y-98482406D01*
X145010282Y-98704815D01*
X144942750Y-98918202D01*
X144878957Y-99120272D01*
X144819635Y-99308727D01*
X144765520Y-99481271D01*
X144717344Y-99635608D01*
X144675842Y-99769442D01*
X144641747Y-99880475D01*
X144615794Y-99966411D01*
X144614415Y-99971045D01*
X144538528Y-100241265D01*
X144480175Y-100483096D01*
X144439457Y-100697213D01*
X144416476Y-100884287D01*
X144411333Y-101044992D01*
X144424129Y-101180001D01*
X144454965Y-101289988D01*
X144503941Y-101375624D01*
X144571159Y-101437584D01*
X144656721Y-101476540D01*
X144760726Y-101493165D01*
X144842801Y-101492004D01*
X144964369Y-101469460D01*
X145082059Y-101419012D01*
X145196517Y-101339879D01*
X145308387Y-101231280D01*
X145418315Y-101092434D01*
X145526947Y-100922560D01*
X145634928Y-100720877D01*
X145742902Y-100486605D01*
X145812619Y-100318410D01*
X145830248Y-100271561D01*
X145857712Y-100194976D01*
X145894193Y-100091088D01*
X145938874Y-99962332D01*
X145990938Y-99811144D01*
X146049566Y-99639958D01*
X146113941Y-99451208D01*
X146183246Y-99247329D01*
X146256664Y-99030757D01*
X146333376Y-98803924D01*
X146412567Y-98569268D01*
X146493417Y-98329221D01*
X146575109Y-98086219D01*
X146656827Y-97842696D01*
X146737752Y-97601087D01*
X146817067Y-97363827D01*
X146893955Y-97133351D01*
X146967598Y-96912092D01*
X147037179Y-96702487D01*
X147101880Y-96506969D01*
X147160884Y-96327973D01*
X147213373Y-96167934D01*
X147258530Y-96029286D01*
X147295537Y-95914465D01*
X147323577Y-95825905D01*
X147341833Y-95766041D01*
X147345894Y-95751832D01*
X147376044Y-95637976D01*
X147394297Y-95552119D01*
X147399481Y-95490111D01*
X147390424Y-95447804D01*
X147365952Y-95421048D01*
X147324892Y-95405695D01*
X147266073Y-95397594D01*
X147245322Y-95395995D01*
X147179903Y-95390124D01*
X147138609Y-95381411D01*
X147111680Y-95366357D01*
X147089358Y-95341462D01*
X147087936Y-95339558D01*
X147063543Y-95282076D01*
X147053496Y-95198074D01*
X147056743Y-95091221D01*
X147072233Y-94965186D01*
X147098914Y-94823639D01*
X147135735Y-94670249D01*
X147181645Y-94508686D01*
X147235592Y-94342618D01*
X147296525Y-94175716D01*
X147363392Y-94011648D01*
X147435142Y-93854084D01*
X147510723Y-93706693D01*
X147589085Y-93573144D01*
X147598160Y-93558943D01*
X147673450Y-93453595D01*
X147756511Y-93356699D01*
X147840941Y-93274835D01*
X147920338Y-93214578D01*
X147949606Y-93197820D01*
X148016075Y-93172421D01*
X148090036Y-93161848D01*
X148176548Y-93166524D01*
X148280667Y-93186869D01*
X148407450Y-93223302D01*
X148458738Y-93240143D01*
X148576523Y-93278401D01*
X148677051Y-93306619D01*
X148767100Y-93324953D01*
X148853447Y-93333561D01*
X148942870Y-93332598D01*
X149042148Y-93322222D01*
X149158056Y-93302590D01*
X149297374Y-93273857D01*
X149356429Y-93260903D01*
X149515909Y-93227056D01*
X149646735Y-93203106D01*
X149752677Y-93189098D01*
X149837507Y-93185081D01*
X149904998Y-93191101D01*
X149958921Y-93207205D01*
X150003048Y-93233441D01*
X150040800Y-93269458D01*
X150081935Y-93327908D01*
X150109732Y-93397532D01*
X150125856Y-93484966D01*
X150131970Y-93596851D01*
X150132114Y-93633753D01*
X150131372Y-93794727D01*
X150328678Y-93594074D01*
X150524408Y-93408082D01*
X150714439Y-93254431D01*
X150900182Y-93132327D01*
X151083047Y-93040977D01*
X151264447Y-92979585D01*
X151445790Y-92947359D01*
X151483354Y-92944265D01*
X151645430Y-92946617D01*
X151789389Y-92976541D01*
X151915443Y-93034298D01*
X152023807Y-93120148D01*
X152114692Y-93234354D01*
X152188311Y-93377177D01*
X152244878Y-93548878D01*
X152284603Y-93749719D01*
X152306140Y-93955701D01*
X152312043Y-94033699D01*
X152317468Y-94081643D01*
X152323256Y-94103341D01*
X152330250Y-94102603D01*
X152336112Y-94091258D01*
X152427608Y-93881581D01*
X152512850Y-93702843D01*
X152593475Y-93553025D01*
X152671122Y-93430108D01*
X152747426Y-93332074D01*
X152824024Y-93256904D01*
X152902554Y-93202579D01*
X152984652Y-93167080D01*
X153071956Y-93148388D01*
X153102963Y-93145513D01*
X153206935Y-93150174D01*
X153288716Y-93179820D01*
X153349240Y-93235308D01*
X153389437Y-93317498D01*
X153410242Y-93427248D01*
X153410345Y-93428378D01*
X153418995Y-93523775D01*
X153558759Y-93384012D01*
X153667308Y-93284868D01*
X153766547Y-93214984D01*
X153860206Y-93172339D01*
X153952016Y-93154912D01*
X153982687Y-93154355D01*
X154034614Y-93160940D01*
X154112152Y-93178018D01*
X154209223Y-93204070D01*
X154319746Y-93237581D01*
X154332323Y-93241612D01*
X154435965Y-93273159D01*
X154542092Y-93302274D01*
X154640610Y-93326394D01*
X154721431Y-93342959D01*
X154747466Y-93347019D01*
X154916768Y-93359008D01*
X155092688Y-93352572D01*
X155260409Y-93328596D01*
X155329785Y-93312178D01*
X155481546Y-93271048D01*
X155604465Y-93238342D01*
X155702357Y-93213427D01*
X155779039Y-93195671D01*
X155838324Y-93184441D01*
X155884030Y-93179104D01*
X155919970Y-93179029D01*
X155949960Y-93183581D01*
X155977815Y-93192130D01*
X156000185Y-93201028D01*
X156057674Y-93242866D01*
X156098065Y-93311732D01*
X156121569Y-93405519D01*
X156128398Y-93522119D01*
X156118762Y-93659425D01*
X156092872Y-93815328D01*
X156050940Y-93987722D01*
X155993176Y-94174499D01*
X155919792Y-94373552D01*
X155870905Y-94492047D01*
X155765179Y-94726526D01*
X155661246Y-94932219D01*
X155559755Y-95108031D01*
X155461358Y-95252864D01*
X155366703Y-95365622D01*
X155333215Y-95398572D01*
X155251637Y-95465223D01*
X155175708Y-95505263D01*
X155095681Y-95522272D01*
X155002846Y-95519939D01*
X154904660Y-95509710D01*
X154824928Y-95592951D01*
X154773641Y-95652829D01*
X154724650Y-95720330D01*
X154697661Y-95764624D01*
X154682389Y-95796241D01*
X154656335Y-95853853D01*
X154620917Y-95934110D01*
X154577553Y-96033661D01*
X154527661Y-96149158D01*
X154472659Y-96277249D01*
X154413966Y-96414585D01*
X154352998Y-96557816D01*
X154291175Y-96703592D01*
X154229914Y-96848563D01*
X154170634Y-96989379D01*
X154114752Y-97122690D01*
X154063686Y-97245145D01*
X154018855Y-97353396D01*
X153981676Y-97444092D01*
X153953568Y-97513883D01*
X153935948Y-97559419D01*
X153930235Y-97577350D01*
X153930290Y-97577464D01*
X153947818Y-97579438D01*
X153994996Y-97582599D01*
X154067664Y-97586759D01*
X154161659Y-97591730D01*
X154272823Y-97597324D01*
X154396994Y-97603352D01*
X154530011Y-97609626D01*
X154667715Y-97615958D01*
X154805943Y-97622159D01*
X154940536Y-97628040D01*
X155067333Y-97633414D01*
X155182174Y-97638092D01*
X155280897Y-97641886D01*
X155359343Y-97644607D01*
X155413349Y-97646068D01*
X155438757Y-97646078D01*
X155440166Y-97645819D01*
X155447665Y-97629778D01*
X155467197Y-97586329D01*
X155497165Y-97519094D01*
X155535972Y-97431691D01*
X155582020Y-97327740D01*
X155633713Y-97210863D01*
X155689454Y-97084678D01*
X155747645Y-96952806D01*
X155806689Y-96818867D01*
X155864988Y-96686480D01*
X155920947Y-96559267D01*
X155972967Y-96440846D01*
X156019452Y-96334838D01*
X156058804Y-96244863D01*
X156089426Y-96174541D01*
X156096375Y-96158503D01*
X156157222Y-96013805D01*
X156202993Y-95895260D01*
X156234856Y-95799279D01*
X156253975Y-95722271D01*
X156261518Y-95660646D01*
X156261740Y-95649414D01*
X156260398Y-95601019D01*
X156251553Y-95576272D01*
X156227977Y-95564928D01*
X156198198Y-95559373D01*
X156136505Y-95551965D01*
X156075983Y-95548688D01*
X156074883Y-95548683D01*
X156004263Y-95536165D01*
X155953944Y-95498835D01*
X155923882Y-95436273D01*
X155914031Y-95348060D01*
X155924344Y-95233775D01*
X155954777Y-95093000D01*
X156005283Y-94925315D01*
X156006544Y-94921545D01*
X156093801Y-94680995D01*
X156190922Y-94448912D01*
X156296081Y-94228153D01*
X156407452Y-94021573D01*
X156523209Y-93832030D01*
X156641526Y-93662379D01*
X156760576Y-93515476D01*
X156878534Y-93394177D01*
X156993574Y-93301339D01*
X157072537Y-93254239D01*
X157133935Y-93226830D01*
X157193169Y-93209217D01*
X157255297Y-93201870D01*
X157325381Y-93205255D01*
X157408480Y-93219843D01*
X157509655Y-93246101D01*
X157633966Y-93284498D01*
X157725024Y-93314655D01*
X157826556Y-93347719D01*
X157917233Y-93373834D01*
X158001601Y-93392952D01*
X158084204Y-93405026D01*
X158169586Y-93410008D01*
X158262294Y-93407849D01*
X158366871Y-93398503D01*
X158487862Y-93381922D01*
X158629812Y-93358057D01*
X158797266Y-93326861D01*
X158924905Y-93302048D01*
X159048507Y-93277867D01*
X159143453Y-93259767D01*
X159214339Y-93247279D01*
X159265758Y-93239932D01*
X159302305Y-93237258D01*
X159328575Y-93238786D01*
X159349163Y-93244047D01*
X159368662Y-93252570D01*
X159375564Y-93255981D01*
X159436916Y-93296792D01*
X159479452Y-93352152D01*
X159507812Y-93429396D01*
X159518796Y-93482380D01*
X159526240Y-93600433D01*
X159526240Y-93600433D01*
X159526240Y-93600433D01*
G37*
X159526240Y-93600433D02*
X159513520Y-93740413D01*
X159482362Y-93898375D01*
X159434492Y-94070374D01*
X159371635Y-94252466D01*
X159295517Y-94440706D01*
X159207864Y-94631150D01*
X159110403Y-94819853D01*
X159004858Y-95002870D01*
X158892957Y-95176258D01*
X158776424Y-95336072D01*
X158656986Y-95478366D01*
X158635117Y-95502021D01*
X158530951Y-95604218D01*
X158437259Y-95676372D01*
X158350918Y-95719481D01*
X158268805Y-95734544D01*
X158187796Y-95722559D01*
X158104770Y-95684524D01*
X158090975Y-95676015D01*
X158013714Y-95634579D01*
X157947991Y-95617529D01*
X157931617Y-95616709D01*
X157895043Y-95619161D01*
X157863777Y-95630479D01*
X157829306Y-95655790D01*
X157783120Y-95700220D01*
X157769014Y-95714639D01*
X157687744Y-95811157D01*
X157601455Y-95938044D01*
X157511902Y-96092465D01*
X157420843Y-96271583D01*
X157410154Y-96294060D01*
X157373002Y-96373238D01*
X157324311Y-96477840D01*
X157264997Y-96605857D01*
X157195978Y-96755283D01*
X157118170Y-96924108D01*
X157032492Y-97110323D01*
X156939859Y-97311922D01*
X156841190Y-97526894D01*
X156737401Y-97753232D01*
X156629410Y-97988928D01*
X156518133Y-98231974D01*
X156404489Y-98480359D01*
X156289393Y-98732078D01*
X156173764Y-98985120D01*
X156058518Y-99237479D01*
X155944573Y-99487145D01*
X155832845Y-99732109D01*
X155724253Y-99970365D01*
X155619712Y-100199903D01*
X155520141Y-100418715D01*
X155426456Y-100624792D01*
X155339575Y-100816127D01*
X155260414Y-100990711D01*
X155189891Y-101146535D01*
X155128924Y-101281592D01*
X155078429Y-101393873D01*
X155039323Y-101481369D01*
X155012523Y-101542072D01*
X154998980Y-101573894D01*
X154951683Y-101700222D01*
X154912787Y-101818092D01*
X154883573Y-101922621D01*
X154865325Y-102008928D01*
X154859326Y-102072128D01*
X154861831Y-102095753D01*
X154877594Y-102124460D01*
X154909453Y-102138463D01*
X154961454Y-102137939D01*
X155037646Y-102123060D01*
X155101033Y-102106068D01*
X155204659Y-102080543D01*
X155283099Y-102071995D01*
X155341050Y-102081417D01*
X155383207Y-102109802D01*
X155414268Y-102158143D01*
X155420943Y-102173695D01*
X155442151Y-102265699D01*
X155443053Y-102379593D01*
X155425292Y-102511447D01*
X155390515Y-102657333D01*
X155340365Y-102813319D01*
X155276487Y-102975479D01*
X155200526Y-103139880D01*
X155114126Y-103302596D01*
X155018932Y-103459695D01*
X154916589Y-103607248D01*
X154808740Y-103741327D01*
X154729013Y-103826904D01*
X154622714Y-103925673D01*
X154526154Y-103996666D01*
X154433197Y-104042048D01*
X154337701Y-104063983D01*
X154233528Y-104064634D01*
X154114539Y-104046164D01*
X154109772Y-104045142D01*
X154043206Y-104028182D01*
X153959352Y-104003188D01*
X153872467Y-103974508D01*
X153838658Y-103962466D01*
X153756206Y-103933457D01*
X153672393Y-103905861D01*
X153600760Y-103884072D01*
X153576692Y-103877483D01*
X153458800Y-103857579D01*
X153315957Y-103851246D01*
X153154199Y-103858328D01*
X152979561Y-103878671D01*
X152879969Y-103895498D01*
X152731194Y-103920004D01*
X152611413Y-103930782D01*
X152517922Y-103926096D01*
X152448016Y-103904211D01*
X152398994Y-103863390D01*
X152368151Y-103801898D01*
X152352783Y-103717998D01*
X152350188Y-103609954D01*
X152352272Y-103556648D01*
X152366454Y-103417860D01*
X152395560Y-103273438D01*
X152441033Y-103118813D01*
X152504318Y-102949414D01*
X152586857Y-102760671D01*
X152636901Y-102655346D01*
X152732524Y-102470919D01*
X152824491Y-102318909D01*
X152913573Y-102198137D01*
X152988274Y-102118535D01*
X153048497Y-102066108D01*
X153100310Y-102032583D01*
X153154765Y-102013864D01*
X153222910Y-102005853D01*
X153296093Y-102004401D01*
X153429107Y-102004401D01*
X153497715Y-101926457D01*
X153534393Y-101877798D01*
X153578525Y-101808810D01*
X153623620Y-101730049D01*
X153651410Y-101676524D01*
X153681581Y-101613808D01*
X153721175Y-101528831D01*
X153768801Y-101424767D01*
X153823071Y-101304793D01*
X153882592Y-101172082D01*
X153945976Y-101029810D01*
X154011832Y-100881151D01*
X154078770Y-100729282D01*
X154145400Y-100577377D01*
X154210331Y-100428611D01*
X154272175Y-100286159D01*
X154329540Y-100153196D01*
X154381036Y-100032897D01*
X154425273Y-99928437D01*
X154460862Y-99842992D01*
X154486412Y-99779736D01*
X154500533Y-99741845D01*
X154502784Y-99731980D01*
X154483939Y-99728882D01*
X154435608Y-99724449D01*
X154362056Y-99718914D01*
X154267544Y-99712511D01*
X154156335Y-99705472D01*
X154032693Y-99698031D01*
X153900880Y-99690421D01*
X153765158Y-99682876D01*
X153629791Y-99675629D01*
X153499042Y-99668912D01*
X153377173Y-99662960D01*
X153330555Y-99660835D01*
X153330555Y-95572621D01*
X153324792Y-95512671D01*
X153308559Y-95483753D01*
X153289034Y-95475187D01*
X153257499Y-95475228D01*
X153209165Y-95484847D01*
X153139244Y-95505017D01*
X153042949Y-95536712D01*
X153035607Y-95539213D01*
X152938049Y-95566157D01*
X152863409Y-95570732D01*
X152807907Y-95551438D01*
X152767761Y-95506776D01*
X152739189Y-95435247D01*
X152735155Y-95420085D01*
X152715457Y-95341856D01*
X152665925Y-95457885D01*
X152646711Y-95505602D01*
X152618390Y-95579566D01*
X152583086Y-95674048D01*
X152542923Y-95783323D01*
X152500024Y-95901661D01*
X152462674Y-96006002D01*
X152381117Y-96231376D01*
X152307068Y-96427235D01*
X152239044Y-96596738D01*
X152175565Y-96743044D01*
X152115150Y-96869315D01*
X152056318Y-96978709D01*
X151997587Y-97074387D01*
X151937477Y-97159508D01*
X151899377Y-97207747D01*
X151793810Y-97317310D01*
X151680442Y-97400572D01*
X151563211Y-97455300D01*
X151446057Y-97479260D01*
X151418912Y-97480184D01*
X151322462Y-97465709D01*
X151243819Y-97422477D01*
X151183490Y-97350778D01*
X151179198Y-97343336D01*
X151157008Y-97297539D01*
X151144406Y-97251292D01*
X151139032Y-97192468D01*
X151138324Y-97133214D01*
X151139630Y-97072064D01*
X151143648Y-97013798D01*
X151151445Y-96953006D01*
X151164083Y-96884278D01*
X151182627Y-96802204D01*
X151208141Y-96701374D01*
X151241689Y-96576379D01*
X151263391Y-96497396D01*
X151307636Y-96332836D01*
X151341818Y-96194794D01*
X151366961Y-96077763D01*
X151384089Y-95976238D01*
X151394224Y-95884712D01*
X151398391Y-95797678D01*
X151398631Y-95769980D01*
X151392362Y-95640624D01*
X151372265Y-95536830D01*
X151336410Y-95452428D01*
X151282864Y-95381248D01*
X151274102Y-95372242D01*
X151208056Y-95317930D01*
X151134376Y-95282930D01*
X151045680Y-95265081D01*
X150934587Y-95262218D01*
X150903233Y-95263549D01*
X150756420Y-95286082D01*
X150621016Y-95338264D01*
X150495157Y-95421199D01*
X150376977Y-95535988D01*
X150316612Y-95610390D01*
X150231798Y-95735862D01*
X150150306Y-95880636D01*
X150074684Y-96038043D01*
X150007481Y-96201410D01*
X149951246Y-96364068D01*
X149908528Y-96519345D01*
X149881876Y-96660570D01*
X149873733Y-96769429D01*
X149878176Y-96835870D01*
X149893432Y-96897041D01*
X149922171Y-96955870D01*
X149967061Y-97015284D01*
X150030772Y-97078212D01*
X150115972Y-97147580D01*
X150225330Y-97226317D01*
X150361515Y-97317351D01*
X150390209Y-97335998D01*
X150588900Y-97479107D01*
X150759221Y-97633376D01*
X150901530Y-97800012D01*
X151016184Y-97980220D01*
X151103544Y-98175208D01*
X151163965Y-98386181D01*
X151197807Y-98614347D01*
X151205428Y-98860910D01*
X151187186Y-99127077D01*
X151143439Y-99414056D01*
X151085674Y-99678488D01*
X150991526Y-100017485D01*
X150871566Y-100373890D01*
X150726975Y-100744620D01*
X150558932Y-101126592D01*
X150424783Y-101405435D01*
X150364198Y-101527606D01*
X150317887Y-101622455D01*
X150284673Y-101692820D01*
X150263376Y-101741539D01*
X150252817Y-101771452D01*
X150251818Y-101785395D01*
X150259199Y-101786209D01*
X150269125Y-101780197D01*
X150317914Y-101755845D01*
X150377550Y-101739319D01*
X150390166Y-101737503D01*
X150435277Y-101735876D01*
X150477480Y-101744640D01*
X150528420Y-101767200D01*
X150570773Y-101790331D01*
X150628331Y-101820574D01*
X150678040Y-101842492D01*
X150709650Y-101851597D01*
X150710761Y-101851638D01*
X150740231Y-101840116D01*
X150780323Y-101810355D01*
X150805086Y-101786673D01*
X150852519Y-101731136D01*
X150901561Y-101661757D01*
X150953515Y-101575974D01*
X151009681Y-101471221D01*
X151071359Y-101344934D01*
X151139850Y-101194550D01*
X151216455Y-101017503D01*
X151302474Y-100811230D01*
X151313492Y-100784387D01*
X151384494Y-100610948D01*
X151462449Y-100420145D01*
X151546483Y-100214140D01*
X151635722Y-99995091D01*
X151729292Y-99765160D01*
X151826319Y-99526506D01*
X151925929Y-99281290D01*
X152027248Y-99031671D01*
X152129401Y-98779811D01*
X152231515Y-98527870D01*
X152332714Y-98278007D01*
X152432126Y-98032383D01*
X152528876Y-97793158D01*
X152622090Y-97562492D01*
X152710893Y-97342546D01*
X152794412Y-97135479D01*
X152871773Y-96943452D01*
X152942101Y-96768626D01*
X153004522Y-96613160D01*
X153058162Y-96479214D01*
X153102148Y-96368949D01*
X153135604Y-96284526D01*
X153157657Y-96228103D01*
X153164775Y-96209337D01*
X153222195Y-96045551D01*
X153267988Y-95897440D01*
X153301648Y-95767551D01*
X153322672Y-95658430D01*
X153330555Y-95572621D01*
X153330555Y-99660835D01*
X153268447Y-99658005D01*
X153177126Y-99654281D01*
X153107475Y-99652021D01*
X153063755Y-99651458D01*
X153050163Y-99652491D01*
X153042396Y-99669035D01*
X153022585Y-99714177D01*
X152991851Y-99785285D01*
X152951319Y-99879730D01*
X152902111Y-99994883D01*
X152845350Y-100128113D01*
X152782160Y-100276792D01*
X152713664Y-100438289D01*
X152640984Y-100609975D01*
X152616829Y-100667105D01*
X152521918Y-100892272D01*
X152439888Y-101088422D01*
X152370009Y-101257577D01*
X152311555Y-101401755D01*
X152263796Y-101522978D01*
X152226005Y-101623266D01*
X152197454Y-101704639D01*
X152177415Y-101769119D01*
X152165160Y-101818725D01*
X152159961Y-101855478D01*
X152161090Y-101881399D01*
X152167819Y-101898508D01*
X152171543Y-101902970D01*
X152196198Y-101913601D01*
X152244191Y-101924839D01*
X152304804Y-101934205D01*
X152381549Y-101946949D01*
X152433307Y-101967235D01*
X152464320Y-102000886D01*
X152478830Y-102053724D01*
X152481077Y-102131572D01*
X152479350Y-102173800D01*
X152462847Y-102299691D01*
X152426974Y-102445610D01*
X152374429Y-102605868D01*
X152307911Y-102774774D01*
X152230117Y-102946638D01*
X152143746Y-103115768D01*
X152051497Y-103276475D01*
X151956067Y-103423069D01*
X151860155Y-103549858D01*
X151789588Y-103628469D01*
X151687752Y-103721715D01*
X151593488Y-103785544D01*
X151502501Y-103822283D01*
X151410494Y-103834259D01*
X151409578Y-103834262D01*
X151363520Y-103832081D01*
X151315461Y-103824072D01*
X151258496Y-103808262D01*
X151185717Y-103782679D01*
X151090218Y-103745351D01*
X151070685Y-103737476D01*
X150830986Y-103640531D01*
X150593761Y-103634494D01*
X150467023Y-103633243D01*
X150359233Y-103637315D01*
X150255732Y-103647677D01*
X150151319Y-103663660D01*
X149987409Y-103687463D01*
X149851673Y-103697900D01*
X149744967Y-103694965D01*
X149668151Y-103678653D01*
X149643506Y-103666911D01*
X149585152Y-103611859D01*
X149545710Y-103530826D01*
X149525074Y-103425881D01*
X149523137Y-103299092D01*
X149539795Y-103152529D01*
X149574939Y-102988261D01*
X149628466Y-102808355D01*
X149697037Y-102622880D01*
X149692408Y-102621985D01*
X149670006Y-102643748D01*
X149633325Y-102684442D01*
X149585859Y-102740340D01*
X149577894Y-102749964D01*
X149516008Y-102822001D01*
X149438360Y-102907944D01*
X149353716Y-102998319D01*
X149270844Y-103083649D01*
X149248452Y-103106041D01*
X149057594Y-103284109D01*
X148873522Y-103432159D01*
X148692835Y-103552492D01*
X148512132Y-103647411D01*
X148357070Y-103709454D01*
X148291654Y-103730536D01*
X148234144Y-103744329D01*
X148173667Y-103752367D01*
X148099347Y-103756182D01*
X148018178Y-103757247D01*
X147930500Y-103757166D01*
X147867527Y-103754955D01*
X147820080Y-103749067D01*
X147778979Y-103737953D01*
X147735046Y-103720064D01*
X147699364Y-103703474D01*
X147585564Y-103636727D01*
X147487422Y-103550017D01*
X147400805Y-103438855D01*
X147321580Y-103298754D01*
X147315870Y-103287056D01*
X147276192Y-103198888D01*
X147238038Y-103103554D01*
X147206990Y-103015469D01*
X147194552Y-102973804D01*
X147156786Y-102833334D01*
X147109424Y-102944354D01*
X147040874Y-103088109D01*
X146964697Y-103218111D01*
X146884244Y-103329868D01*
X146802868Y-103418889D01*
X146723917Y-103480681D01*
X146699245Y-103494197D01*
X146614442Y-103521874D01*
X146524057Y-103529368D01*
X146440154Y-103516639D01*
X146390967Y-103495203D01*
X146334702Y-103440744D01*
X146298660Y-103360050D01*
X146282821Y-103254065D01*
X146287166Y-103123734D01*
X146311675Y-102970003D01*
X146356330Y-102793815D01*
X146408626Y-102631352D01*
X146430018Y-102572134D01*
X146461898Y-102486694D01*
X146502246Y-102380307D01*
X146549044Y-102258248D01*
X146600272Y-102125794D01*
X146653912Y-101988218D01*
X146687468Y-101902733D01*
X146750692Y-101741732D01*
X146803599Y-101605732D01*
X146848458Y-101488271D01*
X146887536Y-101382885D01*
X146923103Y-101283109D01*
X146957425Y-101182479D01*
X146992771Y-101074532D01*
X147031408Y-100952804D01*
X147075606Y-100810830D01*
X147112196Y-100692279D01*
X147175509Y-100494571D01*
X147235237Y-100325974D01*
X147293545Y-100182201D01*
X147352602Y-100058964D01*
X147414572Y-99951976D01*
X147481624Y-99856951D01*
X147555924Y-99769601D01*
X147603252Y-99720707D01*
X147713373Y-99625685D01*
X147821231Y-99562273D01*
X147930440Y-99528702D01*
X148009705Y-99522012D01*
X148109787Y-99531289D01*
X148186410Y-99561103D01*
X148245103Y-99614427D01*
X148278005Y-99666429D01*
X148296196Y-99704538D01*
X148307070Y-99739847D01*
X148311774Y-99781774D01*
X148311459Y-99839739D01*
X148307928Y-99911739D01*
X148296983Y-100028376D01*
X148276125Y-100160073D01*
X148244487Y-100311027D01*
X148201206Y-100485437D01*
X148154999Y-100653916D01*
X148101341Y-100859635D01*
X148064863Y-101039292D01*
X148045274Y-101195863D01*
X148042281Y-101332324D01*
X148055594Y-101451650D01*
X148070668Y-101514167D01*
X148114064Y-101607415D01*
X148182349Y-101689928D01*
X148267264Y-101753435D01*
X148341062Y-101784843D01*
X148474660Y-101808054D01*
X148604232Y-101799597D01*
X148731419Y-101758944D01*
X148857862Y-101685566D01*
X148985202Y-101578935D01*
X148987587Y-101576636D01*
X149112764Y-101443806D01*
X149221137Y-101301712D01*
X149317152Y-101143399D01*
X149405260Y-100961913D01*
X149450981Y-100852166D01*
X149524148Y-100649104D01*
X149573124Y-100469189D01*
X149597977Y-100311905D01*
X149598774Y-100176736D01*
X149575585Y-100063167D01*
X149560539Y-100025654D01*
X149511087Y-99945434D01*
X149431079Y-99851376D01*
X149320777Y-99743732D01*
X149180444Y-99622759D01*
X149010345Y-99488710D01*
X148984022Y-99468801D01*
X148896028Y-99401430D01*
X148813218Y-99335939D01*
X148741074Y-99276823D01*
X148685077Y-99228578D01*
X148650708Y-99195698D01*
X148649862Y-99194767D01*
X148574169Y-99090853D01*
X148507160Y-98958589D01*
X148450660Y-98802814D01*
X148406493Y-98628366D01*
X148382086Y-98484724D01*
X148371785Y-98370934D01*
X148367447Y-98232790D01*
X148368751Y-98079241D01*
X148375377Y-97919235D01*
X148387004Y-97761720D01*
X148403310Y-97615645D01*
X148416276Y-97531018D01*
X148468881Y-97270772D01*
X148538924Y-96989807D01*
X148624231Y-96695045D01*
X148722630Y-96393407D01*
X148831945Y-96091811D01*
X148950004Y-95797179D01*
X148990662Y-95702312D01*
X149019752Y-95634211D01*
X149042876Y-95577456D01*
X149057128Y-95539330D01*
X149060272Y-95527677D01*
X149045515Y-95510102D01*
X149008513Y-95489646D01*
X148960173Y-95470469D01*
X148911401Y-95456728D01*
X148873103Y-95452581D01*
X148866044Y-95453628D01*
X148811714Y-95482872D01*
X148751961Y-95543800D01*
X148687779Y-95634819D01*
X148620164Y-95754336D01*
X148550109Y-95900759D01*
X148478610Y-96072495D01*
X148477179Y-96076159D01*
X148461155Y-96118945D01*
X148434865Y-96191301D01*
X148399173Y-96290786D01*
X148354939Y-96414957D01*
X148303025Y-96561373D01*
X148244293Y-96727594D01*
X148179604Y-96911177D01*
X148109822Y-97109683D01*
X148035806Y-97320668D01*
X147958419Y-97541693D01*
X147878523Y-97770316D01*
X147823080Y-97929217D01*
X147702751Y-98274183D01*
X147592897Y-98588840D01*
X147492907Y-98874903D01*
X147402170Y-99134088D01*
X147320075Y-99368112D01*
X147246012Y-99578689D01*
X147179371Y-99767536D01*
X147119540Y-99936368D01*
X147065908Y-100086901D01*
X147017866Y-100220851D01*
X146974803Y-100339933D01*
X146936107Y-100445865D01*
X146901169Y-100540360D01*
X146869378Y-100625135D01*
X146840122Y-100701906D01*
X146812793Y-100772388D01*
X146796113Y-100814779D01*
X146652702Y-101161170D01*
X146508540Y-101476429D01*
X146361972Y-101763299D01*
X146211340Y-102024525D01*
X146054988Y-102262850D01*
X145891259Y-102481020D01*
X145718497Y-102681778D01*
X145586914Y-102817743D01*
X145375216Y-103007747D01*
X145158783Y-103165927D01*
X144938563Y-103291708D01*
X144715504Y-103384512D01*
X144594964Y-103420517D01*
X144440258Y-103450047D01*
X144270930Y-103464671D01*
X144100279Y-103464045D01*
X144061607Y-103460093D01*
X144061607Y-98030885D01*
X144053134Y-98022413D01*
X144044662Y-98030885D01*
X144053134Y-98039357D01*
X144061607Y-98030885D01*
X144061607Y-103460093D01*
X143941602Y-103447830D01*
X143892160Y-103438580D01*
X143711784Y-103383802D01*
X143550105Y-103301191D01*
X143408804Y-103192173D01*
X143289566Y-103058173D01*
X143194073Y-102900619D01*
X143156512Y-102815384D01*
X143098370Y-102638223D01*
X143058406Y-102447897D01*
X143036609Y-102241942D01*
X143032967Y-102017896D01*
X143047468Y-101773298D01*
X143080103Y-101505686D01*
X143130858Y-101212597D01*
X143148801Y-101123280D01*
X143171516Y-101015045D01*
X143194098Y-100911639D01*
X143217361Y-100810200D01*
X143242116Y-100707867D01*
X143269178Y-100601779D01*
X143299358Y-100489075D01*
X143333469Y-100366894D01*
X143372325Y-100232376D01*
X143416736Y-100082660D01*
X143467517Y-99914884D01*
X143525480Y-99726188D01*
X143591437Y-99513710D01*
X143666202Y-99274590D01*
X143747140Y-99016923D01*
X143801160Y-98845013D01*
X143852011Y-98682779D01*
X143898801Y-98533094D01*
X143940636Y-98398834D01*
X143976626Y-98282874D01*
X144005876Y-98188089D01*
X144027495Y-98117353D01*
X144040590Y-98073542D01*
X144044354Y-98059551D01*
X144036913Y-98069253D01*
X144016711Y-98103979D01*
X143986580Y-98158664D01*
X143949351Y-98228243D01*
X143937273Y-98251165D01*
X143759422Y-98567105D01*
X143573932Y-98851643D01*
X143379457Y-99106675D01*
X143340446Y-99149994D01*
X143340446Y-95796045D01*
X143322838Y-95644014D01*
X143285569Y-95515939D01*
X143228633Y-95411085D01*
X143206451Y-95382543D01*
X143148365Y-95325884D01*
X143081284Y-95286575D01*
X142997930Y-95261806D01*
X142891026Y-95248763D01*
X142855178Y-95246799D01*
X142774162Y-95244323D01*
X142716975Y-95246112D01*
X142673690Y-95253386D01*
X142634384Y-95267365D01*
X142615077Y-95276300D01*
X142553563Y-95314444D01*
X142499882Y-95367902D01*
X142449371Y-95442498D01*
X142397363Y-95544057D01*
X142392992Y-95553532D01*
X142377252Y-95588551D01*
X142362384Y-95623651D01*
X142347579Y-95661564D01*
X142332028Y-95705019D01*
X142314920Y-95756748D01*
X142295447Y-95819482D01*
X142272799Y-95895951D01*
X142246166Y-95988887D01*
X142214739Y-96101020D01*
X142177708Y-96235080D01*
X142134263Y-96393800D01*
X142083596Y-96579910D01*
X142027795Y-96785455D01*
X141965627Y-97015000D01*
X141912029Y-97214154D01*
X141866565Y-97385201D01*
X141828802Y-97530419D01*
X141798304Y-97652092D01*
X141774638Y-97752500D01*
X141757368Y-97833924D01*
X141746060Y-97898646D01*
X141740280Y-97948947D01*
X141739592Y-97987108D01*
X141743563Y-98015410D01*
X141751758Y-98036135D01*
X141763742Y-98051565D01*
X141779081Y-98063980D01*
X141783671Y-98067064D01*
X141836585Y-98089056D01*
X141915428Y-98105357D01*
X142012566Y-98114984D01*
X142120366Y-98116953D01*
X142160312Y-98115598D01*
X142255672Y-98105292D01*
X142339973Y-98081235D01*
X142393938Y-98058145D01*
X142522890Y-97979914D01*
X142646091Y-97868966D01*
X142763099Y-97726052D01*
X142873473Y-97551928D01*
X142976772Y-97347344D01*
X143072554Y-97113054D01*
X143160378Y-96849812D01*
X143214350Y-96658370D01*
X143275344Y-96403193D01*
X143316694Y-96174901D01*
X143338396Y-95972763D01*
X143340446Y-95796045D01*
X143340446Y-99149994D01*
X143174653Y-99334098D01*
X143155527Y-99353419D01*
X143027728Y-99476905D01*
X142911832Y-99578126D01*
X142800480Y-99662700D01*
X142686314Y-99736243D01*
X142570479Y-99800016D01*
X142440762Y-99862528D01*
X142320192Y-99910256D01*
X142201800Y-99944413D01*
X142078612Y-99966211D01*
X141943660Y-99976865D01*
X141789970Y-99977586D01*
X141610573Y-99969587D01*
X141599816Y-99968918D01*
X141281521Y-99948878D01*
X141230778Y-99997493D01*
X141197805Y-100034439D01*
X141167030Y-100081625D01*
X141136854Y-100143038D01*
X141105675Y-100222663D01*
X141071895Y-100324485D01*
X141033913Y-100452490D01*
X141001710Y-100568059D01*
X140958837Y-100732165D01*
X140928112Y-100867355D01*
X140909250Y-100976242D01*
X140901964Y-101061436D01*
X140905969Y-101125548D01*
X140920979Y-101171189D01*
X140933712Y-101189243D01*
X140977934Y-101214799D01*
X141046860Y-101224949D01*
X141134913Y-101219503D01*
X141231853Y-101199531D01*
X141303420Y-101185357D01*
X141385616Y-101176197D01*
X141432256Y-101174315D01*
X141494196Y-101175985D01*
X141534370Y-101183753D01*
X141564815Y-101201322D01*
X141587397Y-101222047D01*
X141624986Y-101270626D01*
X141650581Y-101332226D01*
X141665725Y-101412937D01*
X141671956Y-101518850D01*
X141672319Y-101557732D01*
X141663304Y-101716619D01*
X141637442Y-101884578D01*
X141596787Y-102056631D01*
X141543392Y-102227800D01*
X141479311Y-102393105D01*
X141406598Y-102547567D01*
X141327307Y-102686207D01*
X141243491Y-102804046D01*
X141157204Y-102896106D01*
X141102799Y-102938429D01*
X141051507Y-102969986D01*
X141002483Y-102993419D01*
X140951475Y-103008556D01*
X140894234Y-103015227D01*
X140826509Y-103013260D01*
X140744049Y-103002485D01*
X140642604Y-102982729D01*
X140517923Y-102953823D01*
X140365757Y-102915594D01*
X140334233Y-102907481D01*
X140212882Y-102876426D01*
X140117019Y-102852917D01*
X140039389Y-102835772D01*
X139972734Y-102823806D01*
X139909798Y-102815838D01*
X139843324Y-102810683D01*
X139766055Y-102807159D01*
X139706837Y-102805190D01*
X139510508Y-102803757D01*
X139330893Y-102812942D01*
X139220384Y-102824322D01*
X139080701Y-102840009D01*
X138969853Y-102848357D01*
X138883366Y-102848255D01*
X138816760Y-102838592D01*
X138765562Y-102818257D01*
X138725293Y-102786138D01*
X138691478Y-102741124D01*
X138661323Y-102685545D01*
X138640126Y-102638872D01*
X138625880Y-102595437D01*
X138616895Y-102545945D01*
X138611478Y-102481099D01*
X138607957Y-102392270D01*
X138610968Y-102235553D01*
X138628235Y-102074574D01*
X138658191Y-101912857D01*
X138699268Y-101753924D01*
X138749898Y-101601297D01*
X138808513Y-101458497D01*
X138873546Y-101329048D01*
X138943428Y-101216472D01*
X139016591Y-101124291D01*
X139091468Y-101056027D01*
X139166490Y-101015203D01*
X139225632Y-101004667D01*
X139253693Y-101012043D01*
X139301936Y-101031530D01*
X139360704Y-101059168D01*
X139370226Y-101063974D01*
X139430470Y-101092612D01*
X139482459Y-101113657D01*
X139516164Y-101123109D01*
X139518960Y-101123280D01*
X139561441Y-101106622D01*
X139607644Y-101057261D01*
X139657057Y-100976121D01*
X139709170Y-100864124D01*
X139763471Y-100722190D01*
X139797947Y-100619770D01*
X139808534Y-100583540D01*
X139826882Y-100516802D01*
X139852392Y-100421889D01*
X139884462Y-100301134D01*
X139922491Y-100156870D01*
X139965879Y-99991430D01*
X140014024Y-99807147D01*
X140066326Y-99606355D01*
X140122184Y-99391385D01*
X140180997Y-99164572D01*
X140242164Y-98928249D01*
X140305085Y-98684748D01*
X140369158Y-98436402D01*
X140433783Y-98185545D01*
X140498359Y-97934510D01*
X140562285Y-97685629D01*
X140624960Y-97441236D01*
X140685783Y-97203665D01*
X140744154Y-96975247D01*
X140799472Y-96758316D01*
X140851136Y-96555205D01*
X140898545Y-96368247D01*
X140941098Y-96199776D01*
X140978194Y-96052124D01*
X141009233Y-95927624D01*
X141033614Y-95828609D01*
X141050735Y-95757413D01*
X141055954Y-95734888D01*
X141080673Y-95607303D01*
X141096872Y-95483929D01*
X141102468Y-95392294D01*
X141102685Y-95318943D01*
X141099491Y-95270912D01*
X141091266Y-95239680D01*
X141076391Y-95216726D01*
X141067259Y-95206990D01*
X141029750Y-95169416D01*
X140871646Y-95223399D01*
X140764722Y-95256704D01*
X140682953Y-95273141D01*
X140621476Y-95271565D01*
X140575425Y-95250832D01*
X140539935Y-95209796D01*
X140510141Y-95147313D01*
X140506391Y-95137443D01*
X140472972Y-95009009D01*
X140458703Y-94857377D01*
X140463972Y-94687570D01*
X140468334Y-94643347D01*
X140499209Y-94429579D01*
X140542758Y-94221684D01*
X140597567Y-94022285D01*
X140662223Y-93834004D01*
X140735313Y-93659465D01*
X140815421Y-93501290D01*
X140901135Y-93362103D01*
X140991042Y-93244527D01*
X141083726Y-93151185D01*
X141177775Y-93084700D01*
X141271775Y-93047694D01*
X141332098Y-93040691D01*
X141389303Y-93044947D01*
X141473241Y-93056950D01*
X141577942Y-93075559D01*
X141697437Y-93099631D01*
X141825757Y-93128022D01*
X141956932Y-93159591D01*
X141968945Y-93162618D01*
X142187897Y-93204179D01*
X142431498Y-93224667D01*
X142697876Y-93224108D01*
X142985162Y-93202531D01*
X143291484Y-93159962D01*
X143393980Y-93141770D01*
X143535057Y-93116142D01*
X143648601Y-93097458D01*
X143740163Y-93085336D01*
X143815298Y-93079392D01*
X143879558Y-93079241D01*
X143938497Y-93084501D01*
X143997668Y-93094787D01*
X144016214Y-93098778D01*
X144188161Y-93152958D01*
X144340201Y-93234426D01*
X144471877Y-93342880D01*
X144577880Y-93470905D01*
X144641806Y-93563723D01*
X144706894Y-93466254D01*
X144794364Y-93352844D01*
X144891833Y-93257012D01*
X144994392Y-93182207D01*
X145097132Y-93131879D01*
X145195145Y-93109475D01*
X145215905Y-93108635D01*
X145267358Y-93112527D01*
X145338748Y-93124809D01*
X145432822Y-93146125D01*
X145552328Y-93177119D01*
X145700016Y-93218434D01*
X145764542Y-93237104D01*
X145869801Y-93263840D01*
X145968586Y-93279225D01*
X146068126Y-93283012D01*
X146175648Y-93274952D01*
X146298380Y-93254797D01*
X146443548Y-93222298D01*
X146483434Y-93212407D01*
X146637425Y-93176138D01*
X146763060Y-93153221D01*
X146863561Y-93144707D01*
X146942151Y-93151647D01*
X147002053Y-93175094D01*
X147046490Y-93216099D01*
X147078684Y-93275715D01*
X147101858Y-93354994D01*
X147113702Y-93418133D01*
X147121289Y-93528537D01*
X147114000Y-93663276D01*
X147093410Y-93817288D01*
X147061093Y-93985513D01*
X147018623Y-94162891D01*
X146967573Y-94344361D01*
X146909517Y-94524862D01*
X146846031Y-94699333D01*
X146778686Y-94862714D01*
X146709059Y-95009945D01*
X146638721Y-95135964D01*
X146569248Y-95235711D01*
X146536973Y-95272459D01*
X146463231Y-95334149D01*
X146386498Y-95365836D01*
X146297742Y-95370864D01*
X146276603Y-95368831D01*
X146220856Y-95364438D01*
X146183694Y-95370128D01*
X146150430Y-95389544D01*
X146131527Y-95404816D01*
X146093089Y-95446310D01*
X146052475Y-95504059D01*
X146028396Y-95546522D01*
X146019078Y-95570927D01*
X146000289Y-95625351D01*
X145972760Y-95707498D01*
X145937227Y-95815071D01*
X145894424Y-95945774D01*
X145845084Y-96097310D01*
X145789941Y-96267383D01*
X145729729Y-96453696D01*
X145665182Y-96653953D01*
X145597034Y-96865858D01*
X145526019Y-97087113D01*
X145452871Y-97315423D01*
X145378323Y-97548490D01*
X145303110Y-97784018D01*
X145227965Y-98019712D01*
X145153623Y-98253273D01*
X145080817Y-98482406D01*
X145010282Y-98704815D01*
X144942750Y-98918202D01*
X144878957Y-99120272D01*
X144819635Y-99308727D01*
X144765520Y-99481271D01*
X144717344Y-99635608D01*
X144675842Y-99769442D01*
X144641747Y-99880475D01*
X144615794Y-99966411D01*
X144614415Y-99971045D01*
X144538528Y-100241265D01*
X144480175Y-100483096D01*
X144439457Y-100697213D01*
X144416476Y-100884287D01*
X144411333Y-101044992D01*
X144424129Y-101180001D01*
X144454965Y-101289988D01*
X144503941Y-101375624D01*
X144571159Y-101437584D01*
X144656721Y-101476540D01*
X144760726Y-101493165D01*
X144842801Y-101492004D01*
X144964369Y-101469460D01*
X145082059Y-101419012D01*
X145196517Y-101339879D01*
X145308387Y-101231280D01*
X145418315Y-101092434D01*
X145526947Y-100922560D01*
X145634928Y-100720877D01*
X145742902Y-100486605D01*
X145812619Y-100318410D01*
X145830248Y-100271561D01*
X145857712Y-100194976D01*
X145894193Y-100091088D01*
X145938874Y-99962332D01*
X145990938Y-99811144D01*
X146049566Y-99639958D01*
X146113941Y-99451208D01*
X146183246Y-99247329D01*
X146256664Y-99030757D01*
X146333376Y-98803924D01*
X146412567Y-98569268D01*
X146493417Y-98329221D01*
X146575109Y-98086219D01*
X146656827Y-97842696D01*
X146737752Y-97601087D01*
X146817067Y-97363827D01*
X146893955Y-97133351D01*
X146967598Y-96912092D01*
X147037179Y-96702487D01*
X147101880Y-96506969D01*
X147160884Y-96327973D01*
X147213373Y-96167934D01*
X147258530Y-96029286D01*
X147295537Y-95914465D01*
X147323577Y-95825905D01*
X147341833Y-95766041D01*
X147345894Y-95751832D01*
X147376044Y-95637976D01*
X147394297Y-95552119D01*
X147399481Y-95490111D01*
X147390424Y-95447804D01*
X147365952Y-95421048D01*
X147324892Y-95405695D01*
X147266073Y-95397594D01*
X147245322Y-95395995D01*
X147179903Y-95390124D01*
X147138609Y-95381411D01*
X147111680Y-95366357D01*
X147089358Y-95341462D01*
X147087936Y-95339558D01*
X147063543Y-95282076D01*
X147053496Y-95198074D01*
X147056743Y-95091221D01*
X147072233Y-94965186D01*
X147098914Y-94823639D01*
X147135735Y-94670249D01*
X147181645Y-94508686D01*
X147235592Y-94342618D01*
X147296525Y-94175716D01*
X147363392Y-94011648D01*
X147435142Y-93854084D01*
X147510723Y-93706693D01*
X147589085Y-93573144D01*
X147598160Y-93558943D01*
X147673450Y-93453595D01*
X147756511Y-93356699D01*
X147840941Y-93274835D01*
X147920338Y-93214578D01*
X147949606Y-93197820D01*
X148016075Y-93172421D01*
X148090036Y-93161848D01*
X148176548Y-93166524D01*
X148280667Y-93186869D01*
X148407450Y-93223302D01*
X148458738Y-93240143D01*
X148576523Y-93278401D01*
X148677051Y-93306619D01*
X148767100Y-93324953D01*
X148853447Y-93333561D01*
X148942870Y-93332598D01*
X149042148Y-93322222D01*
X149158056Y-93302590D01*
X149297374Y-93273857D01*
X149356429Y-93260903D01*
X149515909Y-93227056D01*
X149646735Y-93203106D01*
X149752677Y-93189098D01*
X149837507Y-93185081D01*
X149904998Y-93191101D01*
X149958921Y-93207205D01*
X150003048Y-93233441D01*
X150040800Y-93269458D01*
X150081935Y-93327908D01*
X150109732Y-93397532D01*
X150125856Y-93484966D01*
X150131970Y-93596851D01*
X150132114Y-93633753D01*
X150131372Y-93794727D01*
X150328678Y-93594074D01*
X150524408Y-93408082D01*
X150714439Y-93254431D01*
X150900182Y-93132327D01*
X151083047Y-93040977D01*
X151264447Y-92979585D01*
X151445790Y-92947359D01*
X151483354Y-92944265D01*
X151645430Y-92946617D01*
X151789389Y-92976541D01*
X151915443Y-93034298D01*
X152023807Y-93120148D01*
X152114692Y-93234354D01*
X152188311Y-93377177D01*
X152244878Y-93548878D01*
X152284603Y-93749719D01*
X152306140Y-93955701D01*
X152312043Y-94033699D01*
X152317468Y-94081643D01*
X152323256Y-94103341D01*
X152330250Y-94102603D01*
X152336112Y-94091258D01*
X152427608Y-93881581D01*
X152512850Y-93702843D01*
X152593475Y-93553025D01*
X152671122Y-93430108D01*
X152747426Y-93332074D01*
X152824024Y-93256904D01*
X152902554Y-93202579D01*
X152984652Y-93167080D01*
X153071956Y-93148388D01*
X153102963Y-93145513D01*
X153206935Y-93150174D01*
X153288716Y-93179820D01*
X153349240Y-93235308D01*
X153389437Y-93317498D01*
X153410242Y-93427248D01*
X153410345Y-93428378D01*
X153418995Y-93523775D01*
X153558759Y-93384012D01*
X153667308Y-93284868D01*
X153766547Y-93214984D01*
X153860206Y-93172339D01*
X153952016Y-93154912D01*
X153982687Y-93154355D01*
X154034614Y-93160940D01*
X154112152Y-93178018D01*
X154209223Y-93204070D01*
X154319746Y-93237581D01*
X154332323Y-93241612D01*
X154435965Y-93273159D01*
X154542092Y-93302274D01*
X154640610Y-93326394D01*
X154721431Y-93342959D01*
X154747466Y-93347019D01*
X154916768Y-93359008D01*
X155092688Y-93352572D01*
X155260409Y-93328596D01*
X155329785Y-93312178D01*
X155481546Y-93271048D01*
X155604465Y-93238342D01*
X155702357Y-93213427D01*
X155779039Y-93195671D01*
X155838324Y-93184441D01*
X155884030Y-93179104D01*
X155919970Y-93179029D01*
X155949960Y-93183581D01*
X155977815Y-93192130D01*
X156000185Y-93201028D01*
X156057674Y-93242866D01*
X156098065Y-93311732D01*
X156121569Y-93405519D01*
X156128398Y-93522119D01*
X156118762Y-93659425D01*
X156092872Y-93815328D01*
X156050940Y-93987722D01*
X155993176Y-94174499D01*
X155919792Y-94373552D01*
X155870905Y-94492047D01*
X155765179Y-94726526D01*
X155661246Y-94932219D01*
X155559755Y-95108031D01*
X155461358Y-95252864D01*
X155366703Y-95365622D01*
X155333215Y-95398572D01*
X155251637Y-95465223D01*
X155175708Y-95505263D01*
X155095681Y-95522272D01*
X155002846Y-95519939D01*
X154904660Y-95509710D01*
X154824928Y-95592951D01*
X154773641Y-95652829D01*
X154724650Y-95720330D01*
X154697661Y-95764624D01*
X154682389Y-95796241D01*
X154656335Y-95853853D01*
X154620917Y-95934110D01*
X154577553Y-96033661D01*
X154527661Y-96149158D01*
X154472659Y-96277249D01*
X154413966Y-96414585D01*
X154352998Y-96557816D01*
X154291175Y-96703592D01*
X154229914Y-96848563D01*
X154170634Y-96989379D01*
X154114752Y-97122690D01*
X154063686Y-97245145D01*
X154018855Y-97353396D01*
X153981676Y-97444092D01*
X153953568Y-97513883D01*
X153935948Y-97559419D01*
X153930235Y-97577350D01*
X153930290Y-97577464D01*
X153947818Y-97579438D01*
X153994996Y-97582599D01*
X154067664Y-97586759D01*
X154161659Y-97591730D01*
X154272823Y-97597324D01*
X154396994Y-97603352D01*
X154530011Y-97609626D01*
X154667715Y-97615958D01*
X154805943Y-97622159D01*
X154940536Y-97628040D01*
X155067333Y-97633414D01*
X155182174Y-97638092D01*
X155280897Y-97641886D01*
X155359343Y-97644607D01*
X155413349Y-97646068D01*
X155438757Y-97646078D01*
X155440166Y-97645819D01*
X155447665Y-97629778D01*
X155467197Y-97586329D01*
X155497165Y-97519094D01*
X155535972Y-97431691D01*
X155582020Y-97327740D01*
X155633713Y-97210863D01*
X155689454Y-97084678D01*
X155747645Y-96952806D01*
X155806689Y-96818867D01*
X155864988Y-96686480D01*
X155920947Y-96559267D01*
X155972967Y-96440846D01*
X156019452Y-96334838D01*
X156058804Y-96244863D01*
X156089426Y-96174541D01*
X156096375Y-96158503D01*
X156157222Y-96013805D01*
X156202993Y-95895260D01*
X156234856Y-95799279D01*
X156253975Y-95722271D01*
X156261518Y-95660646D01*
X156261740Y-95649414D01*
X156260398Y-95601019D01*
X156251553Y-95576272D01*
X156227977Y-95564928D01*
X156198198Y-95559373D01*
X156136505Y-95551965D01*
X156075983Y-95548688D01*
X156074883Y-95548683D01*
X156004263Y-95536165D01*
X155953944Y-95498835D01*
X155923882Y-95436273D01*
X155914031Y-95348060D01*
X155924344Y-95233775D01*
X155954777Y-95093000D01*
X156005283Y-94925315D01*
X156006544Y-94921545D01*
X156093801Y-94680995D01*
X156190922Y-94448912D01*
X156296081Y-94228153D01*
X156407452Y-94021573D01*
X156523209Y-93832030D01*
X156641526Y-93662379D01*
X156760576Y-93515476D01*
X156878534Y-93394177D01*
X156993574Y-93301339D01*
X157072537Y-93254239D01*
X157133935Y-93226830D01*
X157193169Y-93209217D01*
X157255297Y-93201870D01*
X157325381Y-93205255D01*
X157408480Y-93219843D01*
X157509655Y-93246101D01*
X157633966Y-93284498D01*
X157725024Y-93314655D01*
X157826556Y-93347719D01*
X157917233Y-93373834D01*
X158001601Y-93392952D01*
X158084204Y-93405026D01*
X158169586Y-93410008D01*
X158262294Y-93407849D01*
X158366871Y-93398503D01*
X158487862Y-93381922D01*
X158629812Y-93358057D01*
X158797266Y-93326861D01*
X158924905Y-93302048D01*
X159048507Y-93277867D01*
X159143453Y-93259767D01*
X159214339Y-93247279D01*
X159265758Y-93239932D01*
X159302305Y-93237258D01*
X159328575Y-93238786D01*
X159349163Y-93244047D01*
X159368662Y-93252570D01*
X159375564Y-93255981D01*
X159436916Y-93296792D01*
X159479452Y-93352152D01*
X159507812Y-93429396D01*
X159518796Y-93482380D01*
X159526240Y-93600433D01*
X159526240Y-93600433D01*
D11*
X138976100Y-96748600D03*
X141516100Y-94208600D03*
X139357100Y-104749600D03*
X152692100Y-110337600D03*
M02*
