G04 #@! TF.FileFunction,Profile,NP*
%FSLAX46Y46*%
G04 Gerber Fmt 4.6, Leading zero omitted, Abs format (unit mm)*
G04 Created by KiCad (PCBNEW (2015-05-13 BZR 5653)-product) date Tue 26 May 2015 06:01:31 PM CEST*
%MOMM*%
G01*
G04 APERTURE LIST*
%ADD10C,0.100000*%
G04 APERTURE END LIST*
D10*
X149533027Y-119096529D02*
X148888450Y-119126845D01*
X150172093Y-118886033D02*
X149533027Y-119096529D01*
X150746734Y-118549103D02*
X150172093Y-118886033D01*
X151219057Y-118179444D02*
X150746734Y-118549103D01*
X151622478Y-117655790D02*
X151219057Y-118179444D01*
X151903253Y-117032572D02*
X151622478Y-117655790D01*
X153340547Y-113350109D02*
X151903253Y-117032572D01*
X154893940Y-109491947D02*
X153340547Y-113350109D01*
X156663341Y-105493914D02*
X154893940Y-109491947D01*
X158924702Y-100559503D02*
X156663341Y-105493914D01*
X161470972Y-95416320D02*
X158924702Y-100559503D01*
X161675955Y-94852186D02*
X161470972Y-95416320D01*
X161763461Y-94285812D02*
X161675955Y-94852186D01*
X161770006Y-93730807D02*
X161763461Y-94285812D01*
X161653218Y-93134978D02*
X161770006Y-93730807D01*
X161441344Y-92594615D02*
X161653218Y-93134978D01*
X161136109Y-92098349D02*
X161441344Y-92594615D01*
X160784365Y-91672707D02*
X161136109Y-92098349D01*
X160288615Y-91317346D02*
X160784365Y-91672707D01*
X159756348Y-91044322D02*
X160288615Y-91317346D01*
X159177572Y-90873790D02*
X159756348Y-91044322D01*
X158605342Y-90820046D02*
X159177572Y-90873790D01*
X141575201Y-90814706D02*
X158605342Y-90820046D01*
X141060848Y-90874479D02*
X141575201Y-90814706D01*
X140560793Y-91013316D02*
X141060848Y-90874479D01*
X140095360Y-91193150D02*
X140560793Y-91013316D01*
X139645431Y-91512338D02*
X140095360Y-91193150D01*
X139266126Y-91845996D02*
X139645431Y-91512338D01*
X138944526Y-92272326D02*
X139266126Y-91845996D01*
X138701992Y-92732591D02*
X138944526Y-92272326D01*
X138529565Y-93214732D02*
X138701992Y-92732591D01*
X137901696Y-95681593D02*
X138529565Y-93214732D01*
X137393544Y-97961901D02*
X137901696Y-95681593D01*
X136904685Y-100027581D02*
X137393544Y-97961901D01*
X136505916Y-101975093D02*
X136904685Y-100027581D01*
X136149520Y-103829932D02*
X136505916Y-101975093D01*
X135602439Y-107336695D02*
X136149520Y-103829932D01*
X135169907Y-110938542D02*
X135602439Y-107336695D01*
X135147170Y-111464609D02*
X135169907Y-110938542D01*
X135222790Y-111947611D02*
X135147170Y-111464609D01*
X135377130Y-112416144D02*
X135222790Y-111947611D01*
X135585386Y-112875031D02*
X135377130Y-112416144D01*
X135862544Y-113284997D02*
X135585386Y-112875031D01*
X136229102Y-113648110D02*
X135862544Y-113284997D01*
X136628044Y-113944733D02*
X136229102Y-113648110D01*
X137045245Y-114168319D02*
X136628044Y-113944733D01*
X147677843Y-118873286D02*
X137045245Y-114168319D01*
X148286764Y-119058288D02*
X147677843Y-118873286D01*
X148888450Y-119126845D02*
X148286764Y-119058288D01*
M02*
