G04 #@! TF.FileFunction,Legend,Bot*
%FSLAX46Y46*%
G04 Gerber Fmt 4.6, Leading zero omitted, Abs format (unit mm)*
G04 Created by KiCad (PCBNEW (2015-05-13 BZR 5653)-product) date Tue 26 May 2015 06:01:31 PM CEST*
%MOMM*%
G01*
G04 APERTURE LIST*
%ADD10C,0.100000*%
%ADD11C,0.200000*%
%ADD12C,0.150000*%
%ADD13C,0.250000*%
G04 APERTURE END LIST*
D10*
D11*
X157409285Y-92077857D02*
X156666428Y-92077857D01*
X157066428Y-92535000D01*
X156895000Y-92535000D01*
X156780714Y-92592143D01*
X156723571Y-92649286D01*
X156666428Y-92763571D01*
X156666428Y-93049286D01*
X156723571Y-93163571D01*
X156780714Y-93220714D01*
X156895000Y-93277857D01*
X157237857Y-93277857D01*
X157352143Y-93220714D01*
X157409285Y-93163571D01*
X156152143Y-93277857D02*
X156152143Y-92077857D01*
X155866428Y-92077857D01*
X155695000Y-92135000D01*
X155580714Y-92249286D01*
X155523571Y-92363571D01*
X155466428Y-92592143D01*
X155466428Y-92763571D01*
X155523571Y-92992143D01*
X155580714Y-93106429D01*
X155695000Y-93220714D01*
X155866428Y-93277857D01*
X156152143Y-93277857D01*
X154952143Y-93277857D02*
X154952143Y-92077857D01*
X154552143Y-92935000D01*
X154152143Y-92077857D01*
X154152143Y-93277857D01*
X153580714Y-93277857D02*
X153580714Y-92477857D01*
X153580714Y-92077857D02*
X153637857Y-92135000D01*
X153580714Y-92192143D01*
X153523571Y-92135000D01*
X153580714Y-92077857D01*
X153580714Y-92192143D01*
X153009285Y-92477857D02*
X153009285Y-93277857D01*
X153009285Y-92592143D02*
X152952142Y-92535000D01*
X152837856Y-92477857D01*
X152666428Y-92477857D01*
X152552142Y-92535000D01*
X152494999Y-92649286D01*
X152494999Y-93277857D01*
X151009285Y-93277857D02*
X151009285Y-92077857D01*
X150552142Y-92077857D01*
X150437856Y-92135000D01*
X150380713Y-92192143D01*
X150323570Y-92306429D01*
X150323570Y-92477857D01*
X150380713Y-92592143D01*
X150437856Y-92649286D01*
X150552142Y-92706429D01*
X151009285Y-92706429D01*
X149294999Y-92477857D02*
X149294999Y-93277857D01*
X149809285Y-92477857D02*
X149809285Y-93106429D01*
X149752142Y-93220714D01*
X149637856Y-93277857D01*
X149466428Y-93277857D01*
X149352142Y-93220714D01*
X149294999Y-93163571D01*
X148780714Y-93220714D02*
X148666428Y-93277857D01*
X148437856Y-93277857D01*
X148323571Y-93220714D01*
X148266428Y-93106429D01*
X148266428Y-93049286D01*
X148323571Y-92935000D01*
X148437856Y-92877857D01*
X148609285Y-92877857D01*
X148723571Y-92820714D01*
X148780714Y-92706429D01*
X148780714Y-92649286D01*
X148723571Y-92535000D01*
X148609285Y-92477857D01*
X148437856Y-92477857D01*
X148323571Y-92535000D01*
X147752142Y-93277857D02*
X147752142Y-92077857D01*
X147237856Y-93277857D02*
X147237856Y-92649286D01*
X147294999Y-92535000D01*
X147409285Y-92477857D01*
X147580713Y-92477857D01*
X147694999Y-92535000D01*
X147752142Y-92592143D01*
X146666428Y-93277857D02*
X146666428Y-92077857D01*
X146209285Y-92077857D01*
X146094999Y-92135000D01*
X146037856Y-92192143D01*
X145980713Y-92306429D01*
X145980713Y-92477857D01*
X146037856Y-92592143D01*
X146094999Y-92649286D01*
X146209285Y-92706429D01*
X146666428Y-92706429D01*
X144952142Y-92477857D02*
X144952142Y-93277857D01*
X145466428Y-92477857D02*
X145466428Y-93106429D01*
X145409285Y-93220714D01*
X145294999Y-93277857D01*
X145123571Y-93277857D01*
X145009285Y-93220714D01*
X144952142Y-93163571D01*
X144209285Y-93277857D02*
X144323571Y-93220714D01*
X144380714Y-93106429D01*
X144380714Y-92077857D01*
X143580714Y-93277857D02*
X143695000Y-93220714D01*
X143752143Y-93106429D01*
X143752143Y-92077857D01*
X157695000Y-93957857D02*
X157695000Y-94929286D01*
X157637857Y-95043571D01*
X157580714Y-95100714D01*
X157466428Y-95157857D01*
X157237857Y-95157857D01*
X157123571Y-95100714D01*
X157066428Y-95043571D01*
X157009285Y-94929286D01*
X157009285Y-93957857D01*
X155923571Y-95157857D02*
X155923571Y-93957857D01*
X155923571Y-95100714D02*
X156037857Y-95157857D01*
X156266428Y-95157857D01*
X156380714Y-95100714D01*
X156437857Y-95043571D01*
X156495000Y-94929286D01*
X156495000Y-94586429D01*
X156437857Y-94472143D01*
X156380714Y-94415000D01*
X156266428Y-94357857D01*
X156037857Y-94357857D01*
X155923571Y-94415000D01*
X155352143Y-95157857D02*
X155352143Y-93957857D01*
X155237857Y-94700714D02*
X154895000Y-95157857D01*
X154895000Y-94357857D02*
X155352143Y-94815000D01*
X153066428Y-94529286D02*
X152894999Y-94586429D01*
X152837856Y-94643571D01*
X152780713Y-94757857D01*
X152780713Y-94929286D01*
X152837856Y-95043571D01*
X152894999Y-95100714D01*
X153009285Y-95157857D01*
X153466428Y-95157857D01*
X153466428Y-93957857D01*
X153066428Y-93957857D01*
X152952142Y-94015000D01*
X152894999Y-94072143D01*
X152837856Y-94186429D01*
X152837856Y-94300714D01*
X152894999Y-94415000D01*
X152952142Y-94472143D01*
X153066428Y-94529286D01*
X153466428Y-94529286D01*
X151809285Y-95100714D02*
X151923571Y-95157857D01*
X152152142Y-95157857D01*
X152266428Y-95100714D01*
X152323571Y-94986429D01*
X152323571Y-94529286D01*
X152266428Y-94415000D01*
X152152142Y-94357857D01*
X151923571Y-94357857D01*
X151809285Y-94415000D01*
X151752142Y-94529286D01*
X151752142Y-94643571D01*
X152323571Y-94757857D01*
X151237857Y-95157857D02*
X151237857Y-94357857D01*
X151237857Y-94586429D02*
X151180714Y-94472143D01*
X151123571Y-94415000D01*
X151009285Y-94357857D01*
X150895000Y-94357857D01*
X150323571Y-95157857D02*
X150437857Y-95100714D01*
X150495000Y-94986429D01*
X150495000Y-93957857D01*
X149866429Y-95157857D02*
X149866429Y-94357857D01*
X149866429Y-93957857D02*
X149923572Y-94015000D01*
X149866429Y-94072143D01*
X149809286Y-94015000D01*
X149866429Y-93957857D01*
X149866429Y-94072143D01*
X149295000Y-94357857D02*
X149295000Y-95157857D01*
X149295000Y-94472143D02*
X149237857Y-94415000D01*
X149123571Y-94357857D01*
X148952143Y-94357857D01*
X148837857Y-94415000D01*
X148780714Y-94529286D01*
X148780714Y-95157857D01*
X147352143Y-94072143D02*
X147295000Y-94015000D01*
X147180714Y-93957857D01*
X146895000Y-93957857D01*
X146780714Y-94015000D01*
X146723571Y-94072143D01*
X146666428Y-94186429D01*
X146666428Y-94300714D01*
X146723571Y-94472143D01*
X147409285Y-95157857D01*
X146666428Y-95157857D01*
X145923571Y-93957857D02*
X145809286Y-93957857D01*
X145695000Y-94015000D01*
X145637857Y-94072143D01*
X145580714Y-94186429D01*
X145523571Y-94415000D01*
X145523571Y-94700714D01*
X145580714Y-94929286D01*
X145637857Y-95043571D01*
X145695000Y-95100714D01*
X145809286Y-95157857D01*
X145923571Y-95157857D01*
X146037857Y-95100714D01*
X146095000Y-95043571D01*
X146152143Y-94929286D01*
X146209286Y-94700714D01*
X146209286Y-94415000D01*
X146152143Y-94186429D01*
X146095000Y-94072143D01*
X146037857Y-94015000D01*
X145923571Y-93957857D01*
X144380714Y-95157857D02*
X145066429Y-95157857D01*
X144723571Y-95157857D02*
X144723571Y-93957857D01*
X144837857Y-94129286D01*
X144952143Y-94243571D01*
X145066429Y-94300714D01*
X143295000Y-93957857D02*
X143866429Y-93957857D01*
X143923572Y-94529286D01*
X143866429Y-94472143D01*
X143752143Y-94415000D01*
X143466429Y-94415000D01*
X143352143Y-94472143D01*
X143295000Y-94529286D01*
X143237857Y-94643571D01*
X143237857Y-94929286D01*
X143295000Y-95043571D01*
X143352143Y-95100714D01*
X143466429Y-95157857D01*
X143752143Y-95157857D01*
X143866429Y-95100714D01*
X143923572Y-95043571D01*
X159380714Y-95837857D02*
X158695000Y-95837857D01*
X159037857Y-97037857D02*
X159037857Y-95837857D01*
X158295000Y-97037857D02*
X158295000Y-95837857D01*
X157780714Y-97037857D02*
X157780714Y-96409286D01*
X157837857Y-96295000D01*
X157952143Y-96237857D01*
X158123571Y-96237857D01*
X158237857Y-96295000D01*
X158295000Y-96352143D01*
X156695000Y-96237857D02*
X156695000Y-97037857D01*
X157209286Y-96237857D02*
X157209286Y-96866429D01*
X157152143Y-96980714D01*
X157037857Y-97037857D01*
X156866429Y-97037857D01*
X156752143Y-96980714D01*
X156695000Y-96923571D01*
X156123572Y-97037857D02*
X156123572Y-96237857D01*
X156123572Y-96352143D02*
X156066429Y-96295000D01*
X155952143Y-96237857D01*
X155780715Y-96237857D01*
X155666429Y-96295000D01*
X155609286Y-96409286D01*
X155609286Y-97037857D01*
X155609286Y-96409286D02*
X155552143Y-96295000D01*
X155437857Y-96237857D01*
X155266429Y-96237857D01*
X155152143Y-96295000D01*
X155095000Y-96409286D01*
X155095000Y-97037857D01*
X154523572Y-97037857D02*
X154523572Y-95837857D01*
X154523572Y-96295000D02*
X154409286Y-96237857D01*
X154180715Y-96237857D01*
X154066429Y-96295000D01*
X154009286Y-96352143D01*
X153952143Y-96466429D01*
X153952143Y-96809286D01*
X154009286Y-96923571D01*
X154066429Y-96980714D01*
X154180715Y-97037857D01*
X154409286Y-97037857D01*
X154523572Y-96980714D01*
X152523572Y-97037857D02*
X152523572Y-95837857D01*
X152066429Y-95837857D01*
X151952143Y-95895000D01*
X151895000Y-95952143D01*
X151837857Y-96066429D01*
X151837857Y-96237857D01*
X151895000Y-96352143D01*
X151952143Y-96409286D01*
X152066429Y-96466429D01*
X152523572Y-96466429D01*
X150637857Y-96923571D02*
X150695000Y-96980714D01*
X150866429Y-97037857D01*
X150980715Y-97037857D01*
X151152143Y-96980714D01*
X151266429Y-96866429D01*
X151323572Y-96752143D01*
X151380715Y-96523571D01*
X151380715Y-96352143D01*
X151323572Y-96123571D01*
X151266429Y-96009286D01*
X151152143Y-95895000D01*
X150980715Y-95837857D01*
X150866429Y-95837857D01*
X150695000Y-95895000D01*
X150637857Y-95952143D01*
X149723572Y-96409286D02*
X149552143Y-96466429D01*
X149495000Y-96523571D01*
X149437857Y-96637857D01*
X149437857Y-96809286D01*
X149495000Y-96923571D01*
X149552143Y-96980714D01*
X149666429Y-97037857D01*
X150123572Y-97037857D01*
X150123572Y-95837857D01*
X149723572Y-95837857D01*
X149609286Y-95895000D01*
X149552143Y-95952143D01*
X149495000Y-96066429D01*
X149495000Y-96180714D01*
X149552143Y-96295000D01*
X149609286Y-96352143D01*
X149723572Y-96409286D01*
X150123572Y-96409286D01*
X147095000Y-97037857D02*
X147095000Y-96237857D01*
X147095000Y-96466429D02*
X147037857Y-96352143D01*
X146980714Y-96295000D01*
X146866428Y-96237857D01*
X146752143Y-96237857D01*
X145895000Y-96980714D02*
X146009286Y-97037857D01*
X146237857Y-97037857D01*
X146352143Y-96980714D01*
X146409286Y-96866429D01*
X146409286Y-96409286D01*
X146352143Y-96295000D01*
X146237857Y-96237857D01*
X146009286Y-96237857D01*
X145895000Y-96295000D01*
X145837857Y-96409286D01*
X145837857Y-96523571D01*
X146409286Y-96637857D01*
X145437857Y-96237857D02*
X145152143Y-97037857D01*
X144866429Y-96237857D01*
X143266428Y-95837857D02*
X143152143Y-95837857D01*
X143037857Y-95895000D01*
X142980714Y-95952143D01*
X142923571Y-96066429D01*
X142866428Y-96295000D01*
X142866428Y-96580714D01*
X142923571Y-96809286D01*
X142980714Y-96923571D01*
X143037857Y-96980714D01*
X143152143Y-97037857D01*
X143266428Y-97037857D01*
X143380714Y-96980714D01*
X143437857Y-96923571D01*
X143495000Y-96809286D01*
X143552143Y-96580714D01*
X143552143Y-96295000D01*
X143495000Y-96066429D01*
X143437857Y-95952143D01*
X143380714Y-95895000D01*
X143266428Y-95837857D01*
X141723571Y-97037857D02*
X142409286Y-97037857D01*
X142066428Y-97037857D02*
X142066428Y-95837857D01*
X142180714Y-96009286D01*
X142295000Y-96123571D01*
X142409286Y-96180714D01*
D12*
X143764000Y-100076000D02*
X150876000Y-100076000D01*
X147320000Y-106934000D02*
X150876000Y-106934000D01*
X147320000Y-106934000D02*
X143764000Y-106934000D01*
X150876000Y-104521000D02*
X150876000Y-106934000D01*
X150876000Y-102489000D02*
X150876000Y-100076000D01*
X150368000Y-102489000D02*
X150368000Y-104521000D01*
X150876000Y-102489000D02*
X150368000Y-102489000D01*
X150368000Y-104521000D02*
X150876000Y-104521000D01*
X143764000Y-106934000D02*
X143764000Y-100076000D01*
X148058095Y-103957381D02*
X148058095Y-102957381D01*
X147677142Y-102957381D01*
X147581904Y-103005000D01*
X147534285Y-103052619D01*
X147486666Y-103147857D01*
X147486666Y-103290714D01*
X147534285Y-103385952D01*
X147581904Y-103433571D01*
X147677142Y-103481190D01*
X148058095Y-103481190D01*
X146534285Y-103957381D02*
X147105714Y-103957381D01*
X146820000Y-103957381D02*
X146820000Y-102957381D01*
X146915238Y-103100238D01*
X147010476Y-103195476D01*
X147105714Y-103243095D01*
D13*
X142775714Y-99005000D02*
X142847143Y-98933571D01*
X142918571Y-98719285D01*
X142918571Y-98576428D01*
X142847143Y-98362143D01*
X142704286Y-98219285D01*
X142561429Y-98147857D01*
X142275714Y-98076428D01*
X142061429Y-98076428D01*
X141775714Y-98147857D01*
X141632857Y-98219285D01*
X141490000Y-98362143D01*
X141418571Y-98576428D01*
X141418571Y-98719285D01*
X141490000Y-98933571D01*
X141561429Y-99005000D01*
X142918571Y-100290714D02*
X142132857Y-100290714D01*
X141990000Y-100219285D01*
X141918571Y-100076428D01*
X141918571Y-99790714D01*
X141990000Y-99647857D01*
X142847143Y-100290714D02*
X142918571Y-100147857D01*
X142918571Y-99790714D01*
X142847143Y-99647857D01*
X142704286Y-99576428D01*
X142561429Y-99576428D01*
X142418571Y-99647857D01*
X142347143Y-99790714D01*
X142347143Y-100147857D01*
X142275714Y-100290714D01*
X141918571Y-101005000D02*
X143418571Y-101005000D01*
X141990000Y-101005000D02*
X141918571Y-101147857D01*
X141918571Y-101433571D01*
X141990000Y-101576428D01*
X142061429Y-101647857D01*
X142204286Y-101719286D01*
X142632857Y-101719286D01*
X142775714Y-101647857D01*
X142847143Y-101576428D01*
X142918571Y-101433571D01*
X142918571Y-101147857D01*
X142847143Y-101005000D01*
X141418571Y-102147857D02*
X141418571Y-103005000D01*
X142918571Y-102576429D02*
X141418571Y-102576429D01*
X142918571Y-103505000D02*
X141418571Y-103505000D01*
X142918571Y-104147857D02*
X142132857Y-104147857D01*
X141990000Y-104076428D01*
X141918571Y-103933571D01*
X141918571Y-103719286D01*
X141990000Y-103576428D01*
X142061429Y-103505000D01*
X141918571Y-105505000D02*
X142918571Y-105505000D01*
X141918571Y-104862143D02*
X142704286Y-104862143D01*
X142847143Y-104933571D01*
X142918571Y-105076429D01*
X142918571Y-105290714D01*
X142847143Y-105433571D01*
X142775714Y-105505000D01*
X142918571Y-106219286D02*
X141918571Y-106219286D01*
X142061429Y-106219286D02*
X141990000Y-106290714D01*
X141918571Y-106433572D01*
X141918571Y-106647857D01*
X141990000Y-106790714D01*
X142132857Y-106862143D01*
X142918571Y-106862143D01*
X142132857Y-106862143D02*
X141990000Y-106933572D01*
X141918571Y-107076429D01*
X141918571Y-107290714D01*
X141990000Y-107433572D01*
X142132857Y-107505000D01*
X142918571Y-107505000D01*
X142918571Y-108219286D02*
X141418571Y-108219286D01*
X141990000Y-108219286D02*
X141918571Y-108362143D01*
X141918571Y-108647857D01*
X141990000Y-108790714D01*
X142061429Y-108862143D01*
X142204286Y-108933572D01*
X142632857Y-108933572D01*
X142775714Y-108862143D01*
X142847143Y-108790714D01*
X142918571Y-108647857D01*
X142918571Y-108362143D01*
X142847143Y-108219286D01*
M02*
