  0
SECTION
  2
HEADER
  9
$ACADVER
  1
AC1014
  9
$HANDSEED
  5
FFFF
  9
$MEASUREMENT
 70
     1
  0
ENDSEC
  0
SECTION
  2
TABLES
  0
TABLE
  2
VPORT
  5
8
330
0
100
AcDbSymbolTable
 70
     4
  0
VPORT
  5
2E
330
8
100
AcDbSymbolTableRecord
100
AcDbViewportTableRecord
  2
*ACTIVE
 70
     0
 10
0.0
 20
0.0
 11
1.0
 21
1.0
 12
210.0
 22
148.5
 13
0.0
 23
0.0
 14
10.0
 24
10.0
 15
10.0
 25
10.0
 16
0.0
 26
0.0
 36
1.0
 17
0.0
 27
0.0
 37
0.0
 40
341.0
 41
1.24
 42
50.0
 43
0.0
 44
0.0
 50
0.0
 51
0.0
 71
     0
 72
   100
 73
     1
 74
     3
 75
     0
 76
     0
 77
     0
 78
     0
  0
ENDTAB
  0
TABLE
  2
LTYPE
  5
5
330
0
100
AcDbSymbolTable
 70
     1
  0
LTYPE
  5
14
330
5
100
AcDbSymbolTableRecord
100
AcDbLinetypeTableRecord
  2
BYBLOCK
 70
     0
  3

 72
    65
 73
     0
 40
0.0
  0
LTYPE
  5
15
330
5
100
AcDbSymbolTableRecord
100
AcDbLinetypeTableRecord
  2
BYLAYER
 70
     0
  3

 72
    65
 73
     0
 40
0.0
  0
LTYPE
  5
16
330
5
100
AcDbSymbolTableRecord
100
AcDbLinetypeTableRecord
  2
CONTINUOUS
 70
     0
  3
Solid line
 72
    65
 73
     0
 40
0.0
  0
ENDTAB
  0
TABLE
  2
LAYER
  5
2
100
AcDbSymbolTable
 70
2
  0
LAYER
  5
50
100
AcDbSymbolTableRecord
100
AcDbLayerTableRecord
  2
0
 70
0
  6
CONTINUOUS
  0
LAYER
  5
51
100
AcDbSymbolTableRecord
100
AcDbLayerTableRecord
  2
Layer_1
 70
0
  6
CONTINUOUS
  0
ENDTAB
  0
TABLE
  2
STYLE
  5
3
330
0
100
AcDbSymbolTable
 70
     1
  0
STYLE
  5
11
330
3
100
AcDbSymbolTableRecord
100
AcDbTextStyleTableRecord
  2
STANDARD
 70
     0
 40
0.0
 41
1.0
 50
0.0
 71
     0
 42
2.5
  3
txt
  4

  0
ENDTAB
  0
TABLE
  2
VIEW
  5
6
330
0
100
AcDbSymbolTable
 70
     0
  0
ENDTAB
  0
TABLE
  2
UCS
  5
7
330
0
100
AcDbSymbolTable
 70
     0
  0
ENDTAB
  0
TABLE
  2
APPID
  5
9
330
0
100
AcDbSymbolTable
 70
     2
  0
APPID
  5
12
330
9
100
AcDbSymbolTableRecord
100
AcDbRegAppTableRecord
  2
ACAD
 70
     0
  0
ENDTAB
  0
TABLE
  2
DIMSTYLE
  5
A
330
0
100
AcDbSymbolTable
 70
     1
  0
DIMSTYLE
105
27
330
A
100
AcDbSymbolTableRecord
100
AcDbDimStyleTableRecord
  2
ISO-25
 70
     0
  3

  4

  5

  6

  7

 40
1.0
 41
2.5
 42
0.625
 43
3.75
 44
1.25
 45
0.0
 46
0.0
 47
0.0
 48
0.0
140
2.5
141
2.5
142
0.0
143
0.03937007874016
144
1.0
145
0.0
146
1.0
147
0.625
 71
     0
 72
     0
 73
     0
 74
     0
 75
     0
 76
     0
 77
     1
 78
     8
170
     0
171
     3
172
     1
173
     0
174
     0
175
     0
176
     0
177
     0
178
     0
270
     2
271
     2
272
     2
273
     2
274
     3
340
11
275
     0
280
     0
281
     0
282
     0
283
     0
284
     8
285
     0
286
     0
287
     3
288
     0
  0
ENDTAB
  0
TABLE
  2
BLOCK_RECORD
  5
1
330
0
100
AcDbSymbolTable
 70
     1
  0
BLOCK_RECORD
  5
1F
330
1
100
AcDbSymbolTableRecord
100
AcDbBlockTableRecord
  2
*MODEL_SPACE
  0
BLOCK_RECORD
  5
1B
330
1
100
AcDbSymbolTableRecord
100
AcDbBlockTableRecord
  2
*PAPER_SPACE
  0
ENDTAB
  0
ENDSEC
  0
SECTION
  2
BLOCKS
  0
BLOCK
  5
20
330
1F
100
AcDbEntity
  8
0
100
AcDbBlockBegin
  2
*MODEL_SPACE
 70
     0
 10
0.0
 20
0.0
 30
0.0
  3
*MODEL_SPACE
  1

  0
ENDBLK
  5
21
330
1F
100
AcDbEntity
  8
0
100
AcDbBlockEnd
  0
BLOCK
  5
1C
330
1B
100
AcDbEntity
 67
     1
  8
0
100
AcDbBlockBegin
  2
*PAPER_SPACE
  1

  0
ENDBLK
  5
1D
330
1B
100
AcDbEntity
 67
     1
  8
0
100
AcDbBlockEnd
  0
ENDSEC
  0
SECTION
  2
ENTITIES
  0
LWPOLYLINE
  5
100
100
AcDbEntity
  8
Layer_1
 62
7
100
AcDbPolyline
 90
35
 70
0
 10
84.968278
 20
0.125280
 30
0.0
 10
85.250500
 20
0.160558
 30
0.0
 10
85.497444
 20
0.231113
 30
0.0
 10
85.744389
 20
0.336946
 30
0.0
 10
85.991333
 20
0.513335
 30
0.0
 10
86.167722
 20
0.725002
 30
0.0
 10
86.308833
 20
0.971946
 30
0.0
 10
86.414666
 20
1.218891
 30
0.0
 10
86.449944
 20
1.501113
 30
0.0
 10
87.049666
 20
8.345002
 30
0.0
 10
86.732166
 20
8.415558
 30
0.0
 10
86.449944
 20
8.521391
 30
0.0
 10
86.203000
 20
8.697780
 30
0.0
 10
85.991333
 20
8.944724
 30
0.0
 10
85.814944
 20
9.191669
 30
0.0
 10
85.709111
 20
9.509169
 30
0.0
 10
85.673833
 20
9.826669
 30
0.0
 10
85.709111
 20
10.144169
 30
0.0
 10
85.814944
 20
10.426391
 30
0.0
 10
85.956055
 20
10.708613
 30
0.0
 10
86.167722
 20
10.920280
 30
0.0
 10
86.414666
 20
11.131946
 30
0.0
 10
86.696889
 20
11.273058
 30
0.0
 10
87.014389
 20
11.343613
 30
0.0
 10
87.296611
 20
11.343613
 30
0.0
 10
87.614111
 20
14.695002
 30
0.0
 10
87.614111
 20
15.047780
 30
0.0
 10
87.543555
 20
15.400558
 30
0.0
 10
87.437722
 20
15.718058
 30
0.0
 10
87.226055
 20
16.035558
 30
0.0
 10
87.014389
 20
16.317780
 30
0.0
 10
86.732166
 20
16.529446
 30
0.0
 10
86.414666
 20
16.705835
 30
0.0
 10
86.097166
 20
16.811669
 30
0.0
 10
85.744389
 20
16.882224
 30
0.0
  0
LWPOLYLINE
  5
101
100
AcDbEntity
  8
Layer_1
 62
7
100
AcDbPolyline
 90
35
 70
0
 10
3.864666
 20
22.209169
 30
0.0
 10
3.511889
 20
22.209169
 30
0.0
 10
3.159111
 20
22.138613
 30
0.0
 10
2.841611
 20
21.997502
 30
0.0
 10
2.524111
 20
21.821113
 30
0.0
 10
2.277166
 20
21.574169
 30
0.0
 10
2.065500
 20
21.291946
 30
0.0
 10
1.889111
 20
21.009724
 30
0.0
 10
1.783278
 20
20.656946
 30
0.0
 10
1.712722
 20
20.304169
 30
0.0
 10
1.183555
 20
13.918891
 30
0.0
 10
1.465778
 20
13.848335
 30
0.0
 10
1.748000
 20
13.707224
 30
0.0
 10
2.030222
 20
13.530835
 30
0.0
 10
2.241889
 20
13.319169
 30
0.0
 10
2.383000
 20
13.036946
 30
0.0
 10
2.488833
 20
12.754724
 30
0.0
 10
2.524111
 20
12.437224
 30
0.0
 10
2.524111
 20
12.119724
 30
0.0
 10
2.418278
 20
11.837502
 30
0.0
 10
2.277166
 20
11.555280
 30
0.0
 10
2.065500
 20
11.308335
 30
0.0
 10
1.818555
 20
11.131946
 30
0.0
 10
1.536333
 20
10.990835
 30
0.0
 10
1.218833
 20
10.920280
 30
0.0
 10
0.901333
 20
10.920280
 30
0.0
 10
0.125222
 20
1.748058
 30
0.0
 10
0.125222
 20
1.430558
 30
0.0
 10
0.195778
 20
1.148335
 30
0.0
 10
0.301611
 20
0.866113
 30
0.0
 10
0.513278
 20
0.619169
 30
0.0
 10
0.724944
 20
0.407502
 30
0.0
 10
1.007166
 20
0.266391
 30
0.0
 10
1.289389
 20
0.160558
 30
0.0
 10
1.606889
 20
0.125280
 30
0.0
  0
LWPOLYLINE
  5
102
100
AcDbEntity
  8
Layer_1
 62
7
100
AcDbPolyline
 90
2
 70
0
 10
85.744389
 20
16.882224
 30
0.0
 10
3.864666
 20
22.209169
 30
0.0
  0
LWPOLYLINE
  5
103
100
AcDbEntity
  8
Layer_1
 62
7
100
AcDbPolyline
 90
2
 70
0
 10
1.606889
 20
0.125280
 30
0.0
 10
84.968278
 20
0.125280
 30
0.0
  0
ENDSEC
  0
SECTION
  2
OBJECTS
  0
DICTIONARY
  5
C
330
0
100
AcDbDictionary
  3
ACAD_GROUP
350
D
  3
ACAD_MLINESTYLE
350
17
  0
DICTIONARY
  5
D
330
C
100
AcDbDictionary
  0
DICTIONARY
  5
1A
330
C
100
AcDbDictionary
  0
DICTIONARY
  5
17
330
C
100
AcDbDictionary
  3
STANDARD
350
18
  0
DICTIONARY
  5
19
330
C
100
AcDbDictionary
  0
ENDSEC
  0
EOF
