G04 #@! TF.FileFunction,Profile,NP*
%FSLAX46Y46*%
G04 Gerber Fmt 4.6, Leading zero omitted, Abs format (unit mm)*
G04 Created by KiCad (PCBNEW (2015-07-06 BZR 5889)-product) date Wed 26 Aug 2015 12:38:22 PM CEST*
%MOMM*%
G01*
G04 APERTURE LIST*
%ADD10C,0.100000*%
G04 APERTURE END LIST*
D10*
X161081350Y-108153931D02*
X161416039Y-110553596D01*
X160711547Y-105847133D02*
X161081350Y-108153931D01*
X160409086Y-103433119D02*
X160711547Y-105847133D01*
X160307412Y-101817885D02*
X160409086Y-103433119D01*
X160191712Y-100170279D02*
X160307412Y-101817885D01*
X159986389Y-98408111D02*
X160191712Y-100170279D01*
X159608786Y-96606797D02*
X159986389Y-98408111D01*
X158980744Y-94762521D02*
X159608786Y-96606797D01*
X158023779Y-92871609D02*
X158980744Y-94762521D01*
X157800842Y-92546088D02*
X158023779Y-92871609D01*
X157561315Y-92266568D02*
X157800842Y-92546088D01*
X157256688Y-92016034D02*
X157561315Y-92266568D01*
X156933538Y-91812362D02*
X157256688Y-92016034D01*
X156579126Y-91622610D02*
X156933538Y-91812362D01*
X156220540Y-91511948D02*
X156579126Y-91622610D01*
X155845041Y-91447433D02*
X156220540Y-91511948D01*
X155451019Y-91429780D02*
X155845041Y-91447433D01*
X138393305Y-91455561D02*
X155451019Y-91429780D01*
X137806238Y-91523859D02*
X138393305Y-91455561D01*
X137261250Y-91689270D02*
X137806238Y-91523859D01*
X136728047Y-91965283D02*
X137261250Y-91689270D01*
X136269797Y-92323775D02*
X136728047Y-91965283D01*
X135886821Y-92764601D02*
X136269797Y-92323775D01*
X135611346Y-93273414D02*
X135886821Y-92764601D01*
X135443374Y-93850213D02*
X135611346Y-93273414D01*
X135386111Y-94416336D02*
X135443374Y-93850213D01*
X135454552Y-95003726D02*
X135386111Y-94416336D01*
X135939979Y-96872882D02*
X135454552Y-95003726D01*
X136635686Y-98609799D02*
X135939979Y-96872882D01*
X137492854Y-100274829D02*
X136635686Y-98609799D01*
X138446706Y-101896813D02*
X137492854Y-100274829D01*
X139418114Y-103472363D02*
X138446706Y-101896813D01*
X140311040Y-105044239D02*
X139418114Y-103472363D01*
X141789058Y-108016119D02*
X140311040Y-105044239D01*
X142984085Y-110959529D02*
X141789058Y-108016119D01*
X144024068Y-113817504D02*
X142984085Y-110959529D01*
X145036319Y-116610593D02*
X144024068Y-113817504D01*
X145280248Y-117158466D02*
X145036319Y-116610593D01*
X145685316Y-117634596D02*
X145280248Y-117158466D01*
X146140814Y-118049657D02*
X145685316Y-117634596D01*
X146695881Y-118343154D02*
X146140814Y-118049657D01*
X147272357Y-118511270D02*
X146695881Y-118343154D01*
X147884913Y-118586089D02*
X147272357Y-118511270D01*
X148472947Y-118517361D02*
X147884913Y-118586089D01*
X149081424Y-118323682D02*
X148472947Y-118517361D01*
X159652160Y-113617288D02*
X149081424Y-118323682D01*
X160089323Y-113384034D02*
X159652160Y-113617288D01*
X160451213Y-113068445D02*
X160089323Y-113384034D01*
X160765881Y-112735264D02*
X160451213Y-113068445D01*
X161019624Y-112351976D02*
X160765881Y-112735264D01*
X161227112Y-111950665D02*
X161019624Y-112351976D01*
X161373998Y-111499104D02*
X161227112Y-111950665D01*
X161427085Y-111012072D02*
X161373998Y-111499104D01*
X161416039Y-110553594D02*
X161427085Y-111012072D01*
M02*
