G04 #@! TF.FileFunction,Copper,L2,Bot,Signal*
%FSLAX46Y46*%
G04 Gerber Fmt 4.6, Leading zero omitted, Abs format (unit mm)*
G04 Created by KiCad (PCBNEW (2015-07-06 BZR 5889)-product) date Wed 26 Aug 2015 12:38:22 PM CEST*
%MOMM*%
G01*
G04 APERTURE LIST*
%ADD10C,0.100000*%
%ADD11R,1.500000X4.000000*%
%ADD12C,0.800000*%
%ADD13C,0.250000*%
G04 APERTURE END LIST*
D10*
D11*
X152336500Y-100965000D03*
X149796500Y-100965000D03*
X151066500Y-106045000D03*
X148526500Y-106045000D03*
D12*
X155501100Y-94103600D03*
X158001100Y-97703600D03*
X157601100Y-104803600D03*
X144601100Y-110303600D03*
D13*
X148590000Y-106045000D02*
X148590000Y-104140000D01*
X153712500Y-100965000D02*
X157501100Y-104753600D01*
X152336500Y-100965000D02*
X153712500Y-100965000D01*
X153713900Y-94253600D02*
X155501100Y-94253600D01*
X149796500Y-100965000D02*
X149796500Y-98171000D01*
X149796500Y-98171000D02*
X153713900Y-94253600D01*
X149796500Y-100965000D02*
X149796500Y-102171500D01*
G36*
X155772502Y-92119861D02*
X156063213Y-92169808D01*
X156317896Y-92248405D01*
X156593857Y-92396154D01*
X156860788Y-92564393D01*
X157087076Y-92750500D01*
X157264546Y-92957601D01*
X157441658Y-93216211D01*
X158357065Y-95025006D01*
X158956573Y-96785491D01*
X159319468Y-98516641D01*
X159519455Y-100233009D01*
X159633897Y-101862711D01*
X159735419Y-103475524D01*
X159740837Y-103495956D01*
X159739323Y-103517036D01*
X160041784Y-105931050D01*
X160045497Y-105942217D01*
X160045057Y-105953978D01*
X160413771Y-108253981D01*
X160742167Y-110608528D01*
X160751201Y-110983506D01*
X160710530Y-111356628D01*
X160602240Y-111689537D01*
X160436719Y-112009677D01*
X160235174Y-112314119D01*
X159982927Y-112581205D01*
X159703679Y-112824726D01*
X159355632Y-113010432D01*
X148841052Y-117691823D01*
X148330089Y-117854464D01*
X147886680Y-117906288D01*
X147408656Y-117847901D01*
X146950737Y-117714359D01*
X146532100Y-117493001D01*
X146171652Y-117164552D01*
X145857353Y-116795114D01*
X145662743Y-116358014D01*
X144658678Y-113587513D01*
X144658445Y-113587128D01*
X144658377Y-113586686D01*
X143722295Y-111014240D01*
X144067237Y-111014240D01*
X144092354Y-111216492D01*
X144480428Y-111341691D01*
X144886874Y-111308851D01*
X145109846Y-111216492D01*
X145134963Y-111014240D01*
X144601100Y-110480377D01*
X144067237Y-111014240D01*
X143722295Y-111014240D01*
X143618394Y-110728711D01*
X143611871Y-110717959D01*
X143609504Y-110705608D01*
X143397296Y-110182928D01*
X143563009Y-110182928D01*
X143595849Y-110589374D01*
X143688208Y-110812346D01*
X143890460Y-110837463D01*
X144424323Y-110303600D01*
X144777877Y-110303600D01*
X145311740Y-110837463D01*
X145513992Y-110812346D01*
X145639191Y-110424272D01*
X145606351Y-110017826D01*
X145513992Y-109794854D01*
X145311740Y-109769737D01*
X144777877Y-110303600D01*
X144424323Y-110303600D01*
X144424323Y-110303600D01*
X143890460Y-109769737D01*
X143688208Y-109794854D01*
X143563009Y-110182928D01*
X143397296Y-110182928D01*
X143157769Y-109592960D01*
X144067237Y-109592960D01*
X144601100Y-110126823D01*
X145134963Y-109592960D01*
X145109846Y-109390708D01*
X144721772Y-109265509D01*
X144315326Y-109298349D01*
X144092354Y-109390708D01*
X144067237Y-109592960D01*
X143157769Y-109592960D01*
X142414477Y-107762198D01*
X142400232Y-107740551D01*
X142393440Y-107715540D01*
X141702499Y-106326250D01*
X147151500Y-106326250D01*
X147151500Y-108169320D01*
X147246651Y-108399034D01*
X147422466Y-108574850D01*
X147652180Y-108670000D01*
X148245250Y-108670000D01*
X148401500Y-108513750D01*
X148401500Y-106170000D01*
X148651500Y-106170000D01*
X148651500Y-108513750D01*
X148807750Y-108670000D01*
X149400820Y-108670000D01*
X149630534Y-108574850D01*
X149796500Y-108408883D01*
X149962466Y-108574850D01*
X150192180Y-108670000D01*
X150785250Y-108670000D01*
X150941500Y-108513750D01*
X150941500Y-106170000D01*
X151191500Y-106170000D01*
X151191500Y-108513750D01*
X151347750Y-108670000D01*
X151940820Y-108670000D01*
X152170534Y-108574850D01*
X152346349Y-108399034D01*
X152441500Y-108169320D01*
X152441500Y-106326250D01*
X152285250Y-106170000D01*
X151191500Y-106170000D01*
X150941500Y-106170000D01*
X150941500Y-106170000D01*
X149847750Y-106170000D01*
X149796500Y-106221250D01*
X149745250Y-106170000D01*
X148651500Y-106170000D01*
X148401500Y-106170000D01*
X148401500Y-106170000D01*
X147307750Y-106170000D01*
X147151500Y-106326250D01*
X141702499Y-106326250D01*
X140915421Y-104743659D01*
X140903890Y-104728736D01*
X140897953Y-104710835D01*
X140449095Y-103920680D01*
X147151500Y-103920680D01*
X147151500Y-105763750D01*
X147307750Y-105920000D01*
X148401500Y-105920000D01*
X148401500Y-103576250D01*
X148245250Y-103420000D01*
X147652180Y-103420000D01*
X147422466Y-103515150D01*
X147246651Y-103690966D01*
X147151500Y-103920680D01*
X140449095Y-103920680D01*
X140005027Y-103138959D01*
X139996976Y-103129648D01*
X139992684Y-103118111D01*
X139024975Y-101548561D01*
X138084313Y-99949006D01*
X137577741Y-98965000D01*
X148409256Y-98965000D01*
X148409256Y-102965000D01*
X148455493Y-103203310D01*
X148593081Y-103412763D01*
X148725562Y-103502188D01*
X148651500Y-103576250D01*
X148651500Y-105920000D01*
X149745250Y-105920000D01*
X149796500Y-105868750D01*
X149847750Y-105920000D01*
X150941500Y-105920000D01*
X150941500Y-103576250D01*
X150867161Y-103501911D01*
X150994263Y-103418419D01*
X151066499Y-103311404D01*
X151133081Y-103412763D01*
X151265562Y-103502188D01*
X151191500Y-103576250D01*
X151191500Y-105920000D01*
X152285250Y-105920000D01*
X152441500Y-105763750D01*
X152441500Y-103920680D01*
X152346349Y-103690966D01*
X152257628Y-103602244D01*
X153086500Y-103602244D01*
X153324810Y-103556007D01*
X153534263Y-103418419D01*
X153674469Y-103210709D01*
X153723744Y-102965000D01*
X153723744Y-102036904D01*
X156576025Y-104889185D01*
X156575922Y-105006591D01*
X156731641Y-105383457D01*
X157019726Y-105672046D01*
X157396320Y-105828422D01*
X157804091Y-105828778D01*
X158180957Y-105673059D01*
X158469546Y-105384974D01*
X158625922Y-105008380D01*
X158626278Y-104600609D01*
X158470559Y-104223743D01*
X158182474Y-103935154D01*
X157805880Y-103778778D01*
X157586747Y-103778587D01*
X154242830Y-100434670D01*
X153999513Y-100272090D01*
X153723744Y-100217237D01*
X153723744Y-98965000D01*
X153677507Y-98726690D01*
X153539919Y-98517237D01*
X153387333Y-98414240D01*
X157467237Y-98414240D01*
X157492354Y-98616492D01*
X157880428Y-98741691D01*
X158286874Y-98708851D01*
X158509846Y-98616492D01*
X158534963Y-98414240D01*
X158001100Y-97880377D01*
X157467237Y-98414240D01*
X153387333Y-98414240D01*
X153332209Y-98377031D01*
X153086500Y-98327756D01*
X151586500Y-98327756D01*
X151348190Y-98373993D01*
X151138737Y-98511581D01*
X151066501Y-98618596D01*
X150999919Y-98517237D01*
X150792209Y-98377031D01*
X150674695Y-98353465D01*
X151445232Y-97582928D01*
X156963009Y-97582928D01*
X156995849Y-97989374D01*
X157088208Y-98212346D01*
X157290460Y-98237463D01*
X157824323Y-97703600D01*
X158177877Y-97703600D01*
X158711740Y-98237463D01*
X158913992Y-98212346D01*
X159039191Y-97824272D01*
X159006351Y-97417826D01*
X158913992Y-97194854D01*
X158711740Y-97169737D01*
X158177877Y-97703600D01*
X157824323Y-97703600D01*
X157824323Y-97703600D01*
X157290460Y-97169737D01*
X157088208Y-97194854D01*
X156963009Y-97582928D01*
X151445232Y-97582928D01*
X152035200Y-96992960D01*
X157467237Y-96992960D01*
X158001100Y-97526823D01*
X158534963Y-96992960D01*
X158509846Y-96790708D01*
X158121772Y-96665509D01*
X157715326Y-96698349D01*
X157492354Y-96790708D01*
X157467237Y-96992960D01*
X152035200Y-96992960D01*
X154024560Y-95003600D01*
X154995716Y-95003600D01*
X155296320Y-95128422D01*
X155704091Y-95128778D01*
X156080957Y-94973059D01*
X156369546Y-94684974D01*
X156525922Y-94308380D01*
X156526278Y-93900609D01*
X156370559Y-93523743D01*
X156082474Y-93235154D01*
X155705880Y-93078778D01*
X155298109Y-93078422D01*
X154921243Y-93234141D01*
X154651313Y-93503600D01*
X153713900Y-93503600D01*
X153426887Y-93560690D01*
X153183570Y-93723270D01*
X149266170Y-97640670D01*
X149103590Y-97883987D01*
X149046500Y-98171000D01*
X149046500Y-98327756D01*
X148808190Y-98373993D01*
X148598737Y-98511581D01*
X148458531Y-98719291D01*
X148409256Y-98965000D01*
X137577741Y-98965000D01*
X137250431Y-98329208D01*
X136582527Y-96661704D01*
X136119613Y-94879237D01*
X136065077Y-94411179D01*
X136108728Y-93979621D01*
X136239264Y-93531375D01*
X136445063Y-93151256D01*
X136736806Y-92815442D01*
X137094320Y-92535758D01*
X137516554Y-92317188D01*
X137944361Y-92187343D01*
X138432947Y-92130502D01*
X155436402Y-92104803D01*
X155772502Y-92119861D01*
X155772502Y-92119861D01*
G37*
X155772502Y-92119861D02*
X156063213Y-92169808D01*
X156317896Y-92248405D01*
X156593857Y-92396154D01*
X156860788Y-92564393D01*
X157087076Y-92750500D01*
X157264546Y-92957601D01*
X157441658Y-93216211D01*
X158357065Y-95025006D01*
X158956573Y-96785491D01*
X159319468Y-98516641D01*
X159519455Y-100233009D01*
X159633897Y-101862711D01*
X159735419Y-103475524D01*
X159740837Y-103495956D01*
X159739323Y-103517036D01*
X160041784Y-105931050D01*
X160045497Y-105942217D01*
X160045057Y-105953978D01*
X160413771Y-108253981D01*
X160742167Y-110608528D01*
X160751201Y-110983506D01*
X160710530Y-111356628D01*
X160602240Y-111689537D01*
X160436719Y-112009677D01*
X160235174Y-112314119D01*
X159982927Y-112581205D01*
X159703679Y-112824726D01*
X159355632Y-113010432D01*
X148841052Y-117691823D01*
X148330089Y-117854464D01*
X147886680Y-117906288D01*
X147408656Y-117847901D01*
X146950737Y-117714359D01*
X146532100Y-117493001D01*
X146171652Y-117164552D01*
X145857353Y-116795114D01*
X145662743Y-116358014D01*
X144658678Y-113587513D01*
X144658445Y-113587128D01*
X144658377Y-113586686D01*
X143722295Y-111014240D01*
X144067237Y-111014240D01*
X144092354Y-111216492D01*
X144480428Y-111341691D01*
X144886874Y-111308851D01*
X145109846Y-111216492D01*
X145134963Y-111014240D01*
X144601100Y-110480377D01*
X144067237Y-111014240D01*
X143722295Y-111014240D01*
X143618394Y-110728711D01*
X143611871Y-110717959D01*
X143609504Y-110705608D01*
X143397296Y-110182928D01*
X143563009Y-110182928D01*
X143595849Y-110589374D01*
X143688208Y-110812346D01*
X143890460Y-110837463D01*
X144424323Y-110303600D01*
X144777877Y-110303600D01*
X145311740Y-110837463D01*
X145513992Y-110812346D01*
X145639191Y-110424272D01*
X145606351Y-110017826D01*
X145513992Y-109794854D01*
X145311740Y-109769737D01*
X144777877Y-110303600D01*
X144424323Y-110303600D01*
X144424323Y-110303600D01*
X143890460Y-109769737D01*
X143688208Y-109794854D01*
X143563009Y-110182928D01*
X143397296Y-110182928D01*
X143157769Y-109592960D01*
X144067237Y-109592960D01*
X144601100Y-110126823D01*
X145134963Y-109592960D01*
X145109846Y-109390708D01*
X144721772Y-109265509D01*
X144315326Y-109298349D01*
X144092354Y-109390708D01*
X144067237Y-109592960D01*
X143157769Y-109592960D01*
X142414477Y-107762198D01*
X142400232Y-107740551D01*
X142393440Y-107715540D01*
X141702499Y-106326250D01*
X147151500Y-106326250D01*
X147151500Y-108169320D01*
X147246651Y-108399034D01*
X147422466Y-108574850D01*
X147652180Y-108670000D01*
X148245250Y-108670000D01*
X148401500Y-108513750D01*
X148401500Y-106170000D01*
X148651500Y-106170000D01*
X148651500Y-108513750D01*
X148807750Y-108670000D01*
X149400820Y-108670000D01*
X149630534Y-108574850D01*
X149796500Y-108408883D01*
X149962466Y-108574850D01*
X150192180Y-108670000D01*
X150785250Y-108670000D01*
X150941500Y-108513750D01*
X150941500Y-106170000D01*
X151191500Y-106170000D01*
X151191500Y-108513750D01*
X151347750Y-108670000D01*
X151940820Y-108670000D01*
X152170534Y-108574850D01*
X152346349Y-108399034D01*
X152441500Y-108169320D01*
X152441500Y-106326250D01*
X152285250Y-106170000D01*
X151191500Y-106170000D01*
X150941500Y-106170000D01*
X150941500Y-106170000D01*
X149847750Y-106170000D01*
X149796500Y-106221250D01*
X149745250Y-106170000D01*
X148651500Y-106170000D01*
X148401500Y-106170000D01*
X148401500Y-106170000D01*
X147307750Y-106170000D01*
X147151500Y-106326250D01*
X141702499Y-106326250D01*
X140915421Y-104743659D01*
X140903890Y-104728736D01*
X140897953Y-104710835D01*
X140449095Y-103920680D01*
X147151500Y-103920680D01*
X147151500Y-105763750D01*
X147307750Y-105920000D01*
X148401500Y-105920000D01*
X148401500Y-103576250D01*
X148245250Y-103420000D01*
X147652180Y-103420000D01*
X147422466Y-103515150D01*
X147246651Y-103690966D01*
X147151500Y-103920680D01*
X140449095Y-103920680D01*
X140005027Y-103138959D01*
X139996976Y-103129648D01*
X139992684Y-103118111D01*
X139024975Y-101548561D01*
X138084313Y-99949006D01*
X137577741Y-98965000D01*
X148409256Y-98965000D01*
X148409256Y-102965000D01*
X148455493Y-103203310D01*
X148593081Y-103412763D01*
X148725562Y-103502188D01*
X148651500Y-103576250D01*
X148651500Y-105920000D01*
X149745250Y-105920000D01*
X149796500Y-105868750D01*
X149847750Y-105920000D01*
X150941500Y-105920000D01*
X150941500Y-103576250D01*
X150867161Y-103501911D01*
X150994263Y-103418419D01*
X151066499Y-103311404D01*
X151133081Y-103412763D01*
X151265562Y-103502188D01*
X151191500Y-103576250D01*
X151191500Y-105920000D01*
X152285250Y-105920000D01*
X152441500Y-105763750D01*
X152441500Y-103920680D01*
X152346349Y-103690966D01*
X152257628Y-103602244D01*
X153086500Y-103602244D01*
X153324810Y-103556007D01*
X153534263Y-103418419D01*
X153674469Y-103210709D01*
X153723744Y-102965000D01*
X153723744Y-102036904D01*
X156576025Y-104889185D01*
X156575922Y-105006591D01*
X156731641Y-105383457D01*
X157019726Y-105672046D01*
X157396320Y-105828422D01*
X157804091Y-105828778D01*
X158180957Y-105673059D01*
X158469546Y-105384974D01*
X158625922Y-105008380D01*
X158626278Y-104600609D01*
X158470559Y-104223743D01*
X158182474Y-103935154D01*
X157805880Y-103778778D01*
X157586747Y-103778587D01*
X154242830Y-100434670D01*
X153999513Y-100272090D01*
X153723744Y-100217237D01*
X153723744Y-98965000D01*
X153677507Y-98726690D01*
X153539919Y-98517237D01*
X153387333Y-98414240D01*
X157467237Y-98414240D01*
X157492354Y-98616492D01*
X157880428Y-98741691D01*
X158286874Y-98708851D01*
X158509846Y-98616492D01*
X158534963Y-98414240D01*
X158001100Y-97880377D01*
X157467237Y-98414240D01*
X153387333Y-98414240D01*
X153332209Y-98377031D01*
X153086500Y-98327756D01*
X151586500Y-98327756D01*
X151348190Y-98373993D01*
X151138737Y-98511581D01*
X151066501Y-98618596D01*
X150999919Y-98517237D01*
X150792209Y-98377031D01*
X150674695Y-98353465D01*
X151445232Y-97582928D01*
X156963009Y-97582928D01*
X156995849Y-97989374D01*
X157088208Y-98212346D01*
X157290460Y-98237463D01*
X157824323Y-97703600D01*
X158177877Y-97703600D01*
X158711740Y-98237463D01*
X158913992Y-98212346D01*
X159039191Y-97824272D01*
X159006351Y-97417826D01*
X158913992Y-97194854D01*
X158711740Y-97169737D01*
X158177877Y-97703600D01*
X157824323Y-97703600D01*
X157824323Y-97703600D01*
X157290460Y-97169737D01*
X157088208Y-97194854D01*
X156963009Y-97582928D01*
X151445232Y-97582928D01*
X152035200Y-96992960D01*
X157467237Y-96992960D01*
X158001100Y-97526823D01*
X158534963Y-96992960D01*
X158509846Y-96790708D01*
X158121772Y-96665509D01*
X157715326Y-96698349D01*
X157492354Y-96790708D01*
X157467237Y-96992960D01*
X152035200Y-96992960D01*
X154024560Y-95003600D01*
X154995716Y-95003600D01*
X155296320Y-95128422D01*
X155704091Y-95128778D01*
X156080957Y-94973059D01*
X156369546Y-94684974D01*
X156525922Y-94308380D01*
X156526278Y-93900609D01*
X156370559Y-93523743D01*
X156082474Y-93235154D01*
X155705880Y-93078778D01*
X155298109Y-93078422D01*
X154921243Y-93234141D01*
X154651313Y-93503600D01*
X153713900Y-93503600D01*
X153426887Y-93560690D01*
X153183570Y-93723270D01*
X149266170Y-97640670D01*
X149103590Y-97883987D01*
X149046500Y-98171000D01*
X149046500Y-98327756D01*
X148808190Y-98373993D01*
X148598737Y-98511581D01*
X148458531Y-98719291D01*
X148409256Y-98965000D01*
X137577741Y-98965000D01*
X137250431Y-98329208D01*
X136582527Y-96661704D01*
X136119613Y-94879237D01*
X136065077Y-94411179D01*
X136108728Y-93979621D01*
X136239264Y-93531375D01*
X136445063Y-93151256D01*
X136736806Y-92815442D01*
X137094320Y-92535758D01*
X137516554Y-92317188D01*
X137944361Y-92187343D01*
X138432947Y-92130502D01*
X155436402Y-92104803D01*
X155772502Y-92119861D01*
M02*
