G04 #@! TF.FileFunction,Legend,Bot*
%FSLAX46Y46*%
G04 Gerber Fmt 4.6, Leading zero omitted, Abs format (unit mm)*
G04 Created by KiCad (PCBNEW (2015-07-06 BZR 5889)-product) date Wed 26 Aug 2015 12:38:22 PM CEST*
%MOMM*%
G01*
G04 APERTURE LIST*
%ADD10C,0.100000*%
%ADD11C,0.200000*%
%ADD12C,0.150000*%
G04 APERTURE END LIST*
D10*
D11*
X156673571Y-92077857D02*
X155930714Y-92077857D01*
X156330714Y-92535000D01*
X156159286Y-92535000D01*
X156045000Y-92592143D01*
X155987857Y-92649286D01*
X155930714Y-92763571D01*
X155930714Y-93049286D01*
X155987857Y-93163571D01*
X156045000Y-93220714D01*
X156159286Y-93277857D01*
X156502143Y-93277857D01*
X156616429Y-93220714D01*
X156673571Y-93163571D01*
X155416429Y-93277857D02*
X155416429Y-92077857D01*
X155130714Y-92077857D01*
X154959286Y-92135000D01*
X154845000Y-92249286D01*
X154787857Y-92363571D01*
X154730714Y-92592143D01*
X154730714Y-92763571D01*
X154787857Y-92992143D01*
X154845000Y-93106429D01*
X154959286Y-93220714D01*
X155130714Y-93277857D01*
X155416429Y-93277857D01*
X154216429Y-93277857D02*
X154216429Y-92077857D01*
X153816429Y-92935000D01*
X153416429Y-92077857D01*
X153416429Y-93277857D01*
X152845000Y-93277857D02*
X152845000Y-92477857D01*
X152845000Y-92077857D02*
X152902143Y-92135000D01*
X152845000Y-92192143D01*
X152787857Y-92135000D01*
X152845000Y-92077857D01*
X152845000Y-92192143D01*
X152273571Y-92477857D02*
X152273571Y-93277857D01*
X152273571Y-92592143D02*
X152216428Y-92535000D01*
X152102142Y-92477857D01*
X151930714Y-92477857D01*
X151816428Y-92535000D01*
X151759285Y-92649286D01*
X151759285Y-93277857D01*
X150273571Y-93277857D02*
X150273571Y-92077857D01*
X149816428Y-92077857D01*
X149702142Y-92135000D01*
X149644999Y-92192143D01*
X149587856Y-92306429D01*
X149587856Y-92477857D01*
X149644999Y-92592143D01*
X149702142Y-92649286D01*
X149816428Y-92706429D01*
X150273571Y-92706429D01*
X148559285Y-92477857D02*
X148559285Y-93277857D01*
X149073571Y-92477857D02*
X149073571Y-93106429D01*
X149016428Y-93220714D01*
X148902142Y-93277857D01*
X148730714Y-93277857D01*
X148616428Y-93220714D01*
X148559285Y-93163571D01*
X148045000Y-93220714D02*
X147930714Y-93277857D01*
X147702142Y-93277857D01*
X147587857Y-93220714D01*
X147530714Y-93106429D01*
X147530714Y-93049286D01*
X147587857Y-92935000D01*
X147702142Y-92877857D01*
X147873571Y-92877857D01*
X147987857Y-92820714D01*
X148045000Y-92706429D01*
X148045000Y-92649286D01*
X147987857Y-92535000D01*
X147873571Y-92477857D01*
X147702142Y-92477857D01*
X147587857Y-92535000D01*
X147016428Y-93277857D02*
X147016428Y-92077857D01*
X146502142Y-93277857D02*
X146502142Y-92649286D01*
X146559285Y-92535000D01*
X146673571Y-92477857D01*
X146844999Y-92477857D01*
X146959285Y-92535000D01*
X147016428Y-92592143D01*
X145930714Y-93277857D02*
X145930714Y-92077857D01*
X145473571Y-92077857D01*
X145359285Y-92135000D01*
X145302142Y-92192143D01*
X145244999Y-92306429D01*
X145244999Y-92477857D01*
X145302142Y-92592143D01*
X145359285Y-92649286D01*
X145473571Y-92706429D01*
X145930714Y-92706429D01*
X144216428Y-92477857D02*
X144216428Y-93277857D01*
X144730714Y-92477857D02*
X144730714Y-93106429D01*
X144673571Y-93220714D01*
X144559285Y-93277857D01*
X144387857Y-93277857D01*
X144273571Y-93220714D01*
X144216428Y-93163571D01*
X143473571Y-93277857D02*
X143587857Y-93220714D01*
X143645000Y-93106429D01*
X143645000Y-92077857D01*
X142845000Y-93277857D02*
X142959286Y-93220714D01*
X143016429Y-93106429D01*
X143016429Y-92077857D01*
X156559286Y-93957857D02*
X156559286Y-94929286D01*
X156502143Y-95043571D01*
X156445000Y-95100714D01*
X156330714Y-95157857D01*
X156102143Y-95157857D01*
X155987857Y-95100714D01*
X155930714Y-95043571D01*
X155873571Y-94929286D01*
X155873571Y-93957857D01*
X154787857Y-95157857D02*
X154787857Y-93957857D01*
X154787857Y-95100714D02*
X154902143Y-95157857D01*
X155130714Y-95157857D01*
X155245000Y-95100714D01*
X155302143Y-95043571D01*
X155359286Y-94929286D01*
X155359286Y-94586429D01*
X155302143Y-94472143D01*
X155245000Y-94415000D01*
X155130714Y-94357857D01*
X154902143Y-94357857D01*
X154787857Y-94415000D01*
X154216429Y-95157857D02*
X154216429Y-93957857D01*
X154102143Y-94700714D02*
X153759286Y-95157857D01*
X153759286Y-94357857D02*
X154216429Y-94815000D01*
X151930714Y-94529286D02*
X151759285Y-94586429D01*
X151702142Y-94643571D01*
X151644999Y-94757857D01*
X151644999Y-94929286D01*
X151702142Y-95043571D01*
X151759285Y-95100714D01*
X151873571Y-95157857D01*
X152330714Y-95157857D01*
X152330714Y-93957857D01*
X151930714Y-93957857D01*
X151816428Y-94015000D01*
X151759285Y-94072143D01*
X151702142Y-94186429D01*
X151702142Y-94300714D01*
X151759285Y-94415000D01*
X151816428Y-94472143D01*
X151930714Y-94529286D01*
X152330714Y-94529286D01*
X150673571Y-95100714D02*
X150787857Y-95157857D01*
X151016428Y-95157857D01*
X151130714Y-95100714D01*
X151187857Y-94986429D01*
X151187857Y-94529286D01*
X151130714Y-94415000D01*
X151016428Y-94357857D01*
X150787857Y-94357857D01*
X150673571Y-94415000D01*
X150616428Y-94529286D01*
X150616428Y-94643571D01*
X151187857Y-94757857D01*
X150102143Y-95157857D02*
X150102143Y-94357857D01*
X150102143Y-94586429D02*
X150045000Y-94472143D01*
X149987857Y-94415000D01*
X149873571Y-94357857D01*
X149759286Y-94357857D01*
X149187857Y-95157857D02*
X149302143Y-95100714D01*
X149359286Y-94986429D01*
X149359286Y-93957857D01*
X148730715Y-95157857D02*
X148730715Y-94357857D01*
X148730715Y-93957857D02*
X148787858Y-94015000D01*
X148730715Y-94072143D01*
X148673572Y-94015000D01*
X148730715Y-93957857D01*
X148730715Y-94072143D01*
X148159286Y-94357857D02*
X148159286Y-95157857D01*
X148159286Y-94472143D02*
X148102143Y-94415000D01*
X147987857Y-94357857D01*
X147816429Y-94357857D01*
X147702143Y-94415000D01*
X147645000Y-94529286D01*
X147645000Y-95157857D01*
X146216429Y-94072143D02*
X146159286Y-94015000D01*
X146045000Y-93957857D01*
X145759286Y-93957857D01*
X145645000Y-94015000D01*
X145587857Y-94072143D01*
X145530714Y-94186429D01*
X145530714Y-94300714D01*
X145587857Y-94472143D01*
X146273571Y-95157857D01*
X145530714Y-95157857D01*
X144787857Y-93957857D02*
X144673572Y-93957857D01*
X144559286Y-94015000D01*
X144502143Y-94072143D01*
X144445000Y-94186429D01*
X144387857Y-94415000D01*
X144387857Y-94700714D01*
X144445000Y-94929286D01*
X144502143Y-95043571D01*
X144559286Y-95100714D01*
X144673572Y-95157857D01*
X144787857Y-95157857D01*
X144902143Y-95100714D01*
X144959286Y-95043571D01*
X145016429Y-94929286D01*
X145073572Y-94700714D01*
X145073572Y-94415000D01*
X145016429Y-94186429D01*
X144959286Y-94072143D01*
X144902143Y-94015000D01*
X144787857Y-93957857D01*
X143245000Y-95157857D02*
X143930715Y-95157857D01*
X143587857Y-95157857D02*
X143587857Y-93957857D01*
X143702143Y-94129286D01*
X143816429Y-94243571D01*
X143930715Y-94300714D01*
X142159286Y-93957857D02*
X142730715Y-93957857D01*
X142787858Y-94529286D01*
X142730715Y-94472143D01*
X142616429Y-94415000D01*
X142330715Y-94415000D01*
X142216429Y-94472143D01*
X142159286Y-94529286D01*
X142102143Y-94643571D01*
X142102143Y-94929286D01*
X142159286Y-95043571D01*
X142216429Y-95100714D01*
X142330715Y-95157857D01*
X142616429Y-95157857D01*
X142730715Y-95100714D01*
X142787858Y-95043571D01*
X156730714Y-95837857D02*
X156045000Y-95837857D01*
X156387857Y-97037857D02*
X156387857Y-95837857D01*
X155645000Y-97037857D02*
X155645000Y-95837857D01*
X155130714Y-97037857D02*
X155130714Y-96409286D01*
X155187857Y-96295000D01*
X155302143Y-96237857D01*
X155473571Y-96237857D01*
X155587857Y-96295000D01*
X155645000Y-96352143D01*
X154045000Y-96237857D02*
X154045000Y-97037857D01*
X154559286Y-96237857D02*
X154559286Y-96866429D01*
X154502143Y-96980714D01*
X154387857Y-97037857D01*
X154216429Y-97037857D01*
X154102143Y-96980714D01*
X154045000Y-96923571D01*
X153473572Y-97037857D02*
X153473572Y-96237857D01*
X153473572Y-96352143D02*
X153416429Y-96295000D01*
X153302143Y-96237857D01*
X153130715Y-96237857D01*
X153016429Y-96295000D01*
X152959286Y-96409286D01*
X152959286Y-97037857D01*
X152959286Y-96409286D02*
X152902143Y-96295000D01*
X152787857Y-96237857D01*
X152616429Y-96237857D01*
X152502143Y-96295000D01*
X152445000Y-96409286D01*
X152445000Y-97037857D01*
X151873572Y-97037857D02*
X151873572Y-95837857D01*
X151873572Y-96295000D02*
X151759286Y-96237857D01*
X151530715Y-96237857D01*
X151416429Y-96295000D01*
X151359286Y-96352143D01*
X151302143Y-96466429D01*
X151302143Y-96809286D01*
X151359286Y-96923571D01*
X151416429Y-96980714D01*
X151530715Y-97037857D01*
X151759286Y-97037857D01*
X151873572Y-96980714D01*
X150216429Y-97037857D02*
X150787858Y-97037857D01*
X150787858Y-95837857D01*
X148902143Y-97037857D02*
X148902143Y-95837857D01*
X148445000Y-95837857D01*
X148330714Y-95895000D01*
X148273571Y-95952143D01*
X148216428Y-96066429D01*
X148216428Y-96237857D01*
X148273571Y-96352143D01*
X148330714Y-96409286D01*
X148445000Y-96466429D01*
X148902143Y-96466429D01*
X147016428Y-96923571D02*
X147073571Y-96980714D01*
X147245000Y-97037857D01*
X147359286Y-97037857D01*
X147530714Y-96980714D01*
X147645000Y-96866429D01*
X147702143Y-96752143D01*
X147759286Y-96523571D01*
X147759286Y-96352143D01*
X147702143Y-96123571D01*
X147645000Y-96009286D01*
X147530714Y-95895000D01*
X147359286Y-95837857D01*
X147245000Y-95837857D01*
X147073571Y-95895000D01*
X147016428Y-95952143D01*
X146102143Y-96409286D02*
X145930714Y-96466429D01*
X145873571Y-96523571D01*
X145816428Y-96637857D01*
X145816428Y-96809286D01*
X145873571Y-96923571D01*
X145930714Y-96980714D01*
X146045000Y-97037857D01*
X146502143Y-97037857D01*
X146502143Y-95837857D01*
X146102143Y-95837857D01*
X145987857Y-95895000D01*
X145930714Y-95952143D01*
X145873571Y-96066429D01*
X145873571Y-96180714D01*
X145930714Y-96295000D01*
X145987857Y-96352143D01*
X146102143Y-96409286D01*
X146502143Y-96409286D01*
X143473571Y-97037857D02*
X143473571Y-96237857D01*
X143473571Y-96466429D02*
X143416428Y-96352143D01*
X143359285Y-96295000D01*
X143244999Y-96237857D01*
X143130714Y-96237857D01*
X142273571Y-96980714D02*
X142387857Y-97037857D01*
X142616428Y-97037857D01*
X142730714Y-96980714D01*
X142787857Y-96866429D01*
X142787857Y-96409286D01*
X142730714Y-96295000D01*
X142616428Y-96237857D01*
X142387857Y-96237857D01*
X142273571Y-96295000D01*
X142216428Y-96409286D01*
X142216428Y-96523571D01*
X142787857Y-96637857D01*
X141816428Y-96237857D02*
X141530714Y-97037857D01*
X141245000Y-96237857D01*
X139644999Y-95837857D02*
X139530714Y-95837857D01*
X139416428Y-95895000D01*
X139359285Y-95952143D01*
X139302142Y-96066429D01*
X139244999Y-96295000D01*
X139244999Y-96580714D01*
X139302142Y-96809286D01*
X139359285Y-96923571D01*
X139416428Y-96980714D01*
X139530714Y-97037857D01*
X139644999Y-97037857D01*
X139759285Y-96980714D01*
X139816428Y-96923571D01*
X139873571Y-96809286D01*
X139930714Y-96580714D01*
X139930714Y-96295000D01*
X139873571Y-96066429D01*
X139816428Y-95952143D01*
X139759285Y-95895000D01*
X139644999Y-95837857D01*
X138102142Y-97037857D02*
X138787857Y-97037857D01*
X138444999Y-97037857D02*
X138444999Y-95837857D01*
X138559285Y-96009286D01*
X138673571Y-96123571D01*
X138787857Y-96180714D01*
D12*
X153987500Y-106934000D02*
X146875500Y-106934000D01*
X150431500Y-100076000D02*
X146875500Y-100076000D01*
X150431500Y-100076000D02*
X153987500Y-100076000D01*
X146875500Y-102489000D02*
X146875500Y-100076000D01*
X146875500Y-104521000D02*
X146875500Y-106934000D01*
X147383500Y-104521000D02*
X147383500Y-102489000D01*
X146875500Y-104521000D02*
X147383500Y-104521000D01*
X147383500Y-102489000D02*
X146875500Y-102489000D01*
X153987500Y-100076000D02*
X153987500Y-106934000D01*
X151169595Y-103957381D02*
X151169595Y-102957381D01*
X150788642Y-102957381D01*
X150693404Y-103005000D01*
X150645785Y-103052619D01*
X150598166Y-103147857D01*
X150598166Y-103290714D01*
X150645785Y-103385952D01*
X150693404Y-103433571D01*
X150788642Y-103481190D01*
X151169595Y-103481190D01*
X149645785Y-103957381D02*
X150217214Y-103957381D01*
X149931500Y-103957381D02*
X149931500Y-102957381D01*
X150026738Y-103100238D01*
X150121976Y-103195476D01*
X150217214Y-103243095D01*
D11*
X156054357Y-99190715D02*
X154854357Y-99190715D01*
X155711500Y-99590715D01*
X154854357Y-99990715D01*
X156054357Y-99990715D01*
X156054357Y-101076430D02*
X155425786Y-101076430D01*
X155311500Y-101019287D01*
X155254357Y-100905001D01*
X155254357Y-100676430D01*
X155311500Y-100562144D01*
X155997214Y-101076430D02*
X156054357Y-100962144D01*
X156054357Y-100676430D01*
X155997214Y-100562144D01*
X155882929Y-100505001D01*
X155768643Y-100505001D01*
X155654357Y-100562144D01*
X155597214Y-100676430D01*
X155597214Y-100962144D01*
X155540071Y-101076430D01*
X156054357Y-101647858D02*
X155254357Y-101647858D01*
X154854357Y-101647858D02*
X154911500Y-101590715D01*
X154968643Y-101647858D01*
X154911500Y-101705001D01*
X154854357Y-101647858D01*
X154968643Y-101647858D01*
X155254357Y-102219287D02*
X156054357Y-102219287D01*
X155368643Y-102219287D02*
X155311500Y-102276430D01*
X155254357Y-102390716D01*
X155254357Y-102562144D01*
X155311500Y-102676430D01*
X155425786Y-102733573D01*
X156054357Y-102733573D01*
X156054357Y-103305001D02*
X154854357Y-103305001D01*
X155311500Y-103305001D02*
X155254357Y-103419287D01*
X155254357Y-103647858D01*
X155311500Y-103762144D01*
X155368643Y-103819287D01*
X155482929Y-103876430D01*
X155825786Y-103876430D01*
X155940071Y-103819287D01*
X155997214Y-103762144D01*
X156054357Y-103647858D01*
X156054357Y-103419287D01*
X155997214Y-103305001D01*
X156054357Y-104562144D02*
X155997214Y-104447858D01*
X155940071Y-104390715D01*
X155825786Y-104333572D01*
X155482929Y-104333572D01*
X155368643Y-104390715D01*
X155311500Y-104447858D01*
X155254357Y-104562144D01*
X155254357Y-104733572D01*
X155311500Y-104847858D01*
X155368643Y-104905001D01*
X155482929Y-104962144D01*
X155825786Y-104962144D01*
X155940071Y-104905001D01*
X155997214Y-104847858D01*
X156054357Y-104733572D01*
X156054357Y-104562144D01*
X156054357Y-105990715D02*
X155425786Y-105990715D01*
X155311500Y-105933572D01*
X155254357Y-105819286D01*
X155254357Y-105590715D01*
X155311500Y-105476429D01*
X155997214Y-105990715D02*
X156054357Y-105876429D01*
X156054357Y-105590715D01*
X155997214Y-105476429D01*
X155882929Y-105419286D01*
X155768643Y-105419286D01*
X155654357Y-105476429D01*
X155597214Y-105590715D01*
X155597214Y-105876429D01*
X155540071Y-105990715D01*
X156054357Y-106562143D02*
X155254357Y-106562143D01*
X155482929Y-106562143D02*
X155368643Y-106619286D01*
X155311500Y-106676429D01*
X155254357Y-106790715D01*
X155254357Y-106905000D01*
X156054357Y-107819286D02*
X154854357Y-107819286D01*
X155997214Y-107819286D02*
X156054357Y-107705000D01*
X156054357Y-107476429D01*
X155997214Y-107362143D01*
X155940071Y-107305000D01*
X155825786Y-107247857D01*
X155482929Y-107247857D01*
X155368643Y-107305000D01*
X155311500Y-107362143D01*
X155254357Y-107476429D01*
X155254357Y-107705000D01*
X155311500Y-107819286D01*
M02*
