G04 #@! TF.FileFunction,Legend,Bot*
%FSLAX46Y46*%
G04 Gerber Fmt 4.6, Leading zero omitted, Abs format (unit mm)*
G04 Created by KiCad (PCBNEW (2015-07-06 BZR 5889)-product) date Wed 26 Aug 2015 12:42:29 PM CEST*
%MOMM*%
G01*
G04 APERTURE LIST*
%ADD10C,0.100000*%
%ADD11C,0.200000*%
%ADD12C,0.150000*%
G04 APERTURE END LIST*
D10*
D11*
X83966071Y14919643D02*
X83223214Y14919643D01*
X83623214Y14462500D01*
X83451786Y14462500D01*
X83337500Y14405357D01*
X83280357Y14348214D01*
X83223214Y14233929D01*
X83223214Y13948214D01*
X83280357Y13833929D01*
X83337500Y13776786D01*
X83451786Y13719643D01*
X83794643Y13719643D01*
X83908929Y13776786D01*
X83966071Y13833929D01*
X82708929Y13719643D02*
X82708929Y14919643D01*
X82423214Y14919643D01*
X82251786Y14862500D01*
X82137500Y14748214D01*
X82080357Y14633929D01*
X82023214Y14405357D01*
X82023214Y14233929D01*
X82080357Y14005357D01*
X82137500Y13891071D01*
X82251786Y13776786D01*
X82423214Y13719643D01*
X82708929Y13719643D01*
X81508929Y13719643D02*
X81508929Y14919643D01*
X81108929Y14062500D01*
X80708929Y14919643D01*
X80708929Y13719643D01*
X80137500Y13719643D02*
X80137500Y14519643D01*
X80137500Y14919643D02*
X80194643Y14862500D01*
X80137500Y14805357D01*
X80080357Y14862500D01*
X80137500Y14919643D01*
X80137500Y14805357D01*
X79566071Y14519643D02*
X79566071Y13719643D01*
X79566071Y14405357D02*
X79508928Y14462500D01*
X79394642Y14519643D01*
X79223214Y14519643D01*
X79108928Y14462500D01*
X79051785Y14348214D01*
X79051785Y13719643D01*
X77566071Y13719643D02*
X77566071Y14919643D01*
X77108928Y14919643D01*
X76994642Y14862500D01*
X76937499Y14805357D01*
X76880356Y14691071D01*
X76880356Y14519643D01*
X76937499Y14405357D01*
X76994642Y14348214D01*
X77108928Y14291071D01*
X77566071Y14291071D01*
X75851785Y14519643D02*
X75851785Y13719643D01*
X76366071Y14519643D02*
X76366071Y13891071D01*
X76308928Y13776786D01*
X76194642Y13719643D01*
X76023214Y13719643D01*
X75908928Y13776786D01*
X75851785Y13833929D01*
X75337500Y13776786D02*
X75223214Y13719643D01*
X74994642Y13719643D01*
X74880357Y13776786D01*
X74823214Y13891071D01*
X74823214Y13948214D01*
X74880357Y14062500D01*
X74994642Y14119643D01*
X75166071Y14119643D01*
X75280357Y14176786D01*
X75337500Y14291071D01*
X75337500Y14348214D01*
X75280357Y14462500D01*
X75166071Y14519643D01*
X74994642Y14519643D01*
X74880357Y14462500D01*
X74308928Y13719643D02*
X74308928Y14919643D01*
X73794642Y13719643D02*
X73794642Y14348214D01*
X73851785Y14462500D01*
X73966071Y14519643D01*
X74137499Y14519643D01*
X74251785Y14462500D01*
X74308928Y14405357D01*
X73223214Y13719643D02*
X73223214Y14919643D01*
X72766071Y14919643D01*
X72651785Y14862500D01*
X72594642Y14805357D01*
X72537499Y14691071D01*
X72537499Y14519643D01*
X72594642Y14405357D01*
X72651785Y14348214D01*
X72766071Y14291071D01*
X73223214Y14291071D01*
X71508928Y14519643D02*
X71508928Y13719643D01*
X72023214Y14519643D02*
X72023214Y13891071D01*
X71966071Y13776786D01*
X71851785Y13719643D01*
X71680357Y13719643D01*
X71566071Y13776786D01*
X71508928Y13833929D01*
X70766071Y13719643D02*
X70880357Y13776786D01*
X70937500Y13891071D01*
X70937500Y14919643D01*
X70137500Y13719643D02*
X70251786Y13776786D01*
X70308929Y13891071D01*
X70308929Y14919643D01*
X83851786Y13039643D02*
X83851786Y12068214D01*
X83794643Y11953929D01*
X83737500Y11896786D01*
X83623214Y11839643D01*
X83394643Y11839643D01*
X83280357Y11896786D01*
X83223214Y11953929D01*
X83166071Y12068214D01*
X83166071Y13039643D01*
X82080357Y11839643D02*
X82080357Y13039643D01*
X82080357Y11896786D02*
X82194643Y11839643D01*
X82423214Y11839643D01*
X82537500Y11896786D01*
X82594643Y11953929D01*
X82651786Y12068214D01*
X82651786Y12411071D01*
X82594643Y12525357D01*
X82537500Y12582500D01*
X82423214Y12639643D01*
X82194643Y12639643D01*
X82080357Y12582500D01*
X81508929Y11839643D02*
X81508929Y13039643D01*
X80823214Y11839643D02*
X81337500Y12525357D01*
X80823214Y13039643D02*
X81508929Y12353929D01*
X78994643Y12468214D02*
X78823214Y12411071D01*
X78766071Y12353929D01*
X78708928Y12239643D01*
X78708928Y12068214D01*
X78766071Y11953929D01*
X78823214Y11896786D01*
X78937500Y11839643D01*
X79394643Y11839643D01*
X79394643Y13039643D01*
X78994643Y13039643D01*
X78880357Y12982500D01*
X78823214Y12925357D01*
X78766071Y12811071D01*
X78766071Y12696786D01*
X78823214Y12582500D01*
X78880357Y12525357D01*
X78994643Y12468214D01*
X79394643Y12468214D01*
X77737500Y11896786D02*
X77851786Y11839643D01*
X78080357Y11839643D01*
X78194643Y11896786D01*
X78251786Y12011071D01*
X78251786Y12468214D01*
X78194643Y12582500D01*
X78080357Y12639643D01*
X77851786Y12639643D01*
X77737500Y12582500D01*
X77680357Y12468214D01*
X77680357Y12353929D01*
X78251786Y12239643D01*
X77166072Y11839643D02*
X77166072Y12639643D01*
X77166072Y12411071D02*
X77108929Y12525357D01*
X77051786Y12582500D01*
X76937500Y12639643D01*
X76823215Y12639643D01*
X76251786Y11839643D02*
X76366072Y11896786D01*
X76423215Y12011071D01*
X76423215Y13039643D01*
X75794644Y11839643D02*
X75794644Y12639643D01*
X75794644Y13039643D02*
X75851787Y12982500D01*
X75794644Y12925357D01*
X75737501Y12982500D01*
X75794644Y13039643D01*
X75794644Y12925357D01*
X75223215Y12639643D02*
X75223215Y11839643D01*
X75223215Y12525357D02*
X75166072Y12582500D01*
X75051786Y12639643D01*
X74880358Y12639643D01*
X74766072Y12582500D01*
X74708929Y12468214D01*
X74708929Y11839643D01*
X73280358Y12925357D02*
X73223215Y12982500D01*
X73108929Y13039643D01*
X72823215Y13039643D01*
X72708929Y12982500D01*
X72651786Y12925357D01*
X72594643Y12811071D01*
X72594643Y12696786D01*
X72651786Y12525357D01*
X73337500Y11839643D01*
X72594643Y11839643D01*
X71851786Y13039643D02*
X71737501Y13039643D01*
X71623215Y12982500D01*
X71566072Y12925357D01*
X71508929Y12811071D01*
X71451786Y12582500D01*
X71451786Y12296786D01*
X71508929Y12068214D01*
X71566072Y11953929D01*
X71623215Y11896786D01*
X71737501Y11839643D01*
X71851786Y11839643D01*
X71966072Y11896786D01*
X72023215Y11953929D01*
X72080358Y12068214D01*
X72137501Y12296786D01*
X72137501Y12582500D01*
X72080358Y12811071D01*
X72023215Y12925357D01*
X71966072Y12982500D01*
X71851786Y13039643D01*
X70308929Y11839643D02*
X70994644Y11839643D01*
X70651786Y11839643D02*
X70651786Y13039643D01*
X70766072Y12868214D01*
X70880358Y12753929D01*
X70994644Y12696786D01*
X69223215Y13039643D02*
X69794644Y13039643D01*
X69851787Y12468214D01*
X69794644Y12525357D01*
X69680358Y12582500D01*
X69394644Y12582500D01*
X69280358Y12525357D01*
X69223215Y12468214D01*
X69166072Y12353929D01*
X69166072Y12068214D01*
X69223215Y11953929D01*
X69280358Y11896786D01*
X69394644Y11839643D01*
X69680358Y11839643D01*
X69794644Y11896786D01*
X69851787Y11953929D01*
X83451786Y10588214D02*
X83851786Y10588214D01*
X83851786Y9959643D02*
X83851786Y11159643D01*
X83280357Y11159643D01*
X82823215Y9959643D02*
X82823215Y10759643D01*
X82823215Y11159643D02*
X82880358Y11102500D01*
X82823215Y11045357D01*
X82766072Y11102500D01*
X82823215Y11159643D01*
X82823215Y11045357D01*
X82251786Y10759643D02*
X82251786Y9959643D01*
X82251786Y10645357D02*
X82194643Y10702500D01*
X82080357Y10759643D01*
X81908929Y10759643D01*
X81794643Y10702500D01*
X81737500Y10588214D01*
X81737500Y9959643D01*
X80651786Y10759643D02*
X80651786Y9788214D01*
X80708929Y9673929D01*
X80766072Y9616786D01*
X80880357Y9559643D01*
X81051786Y9559643D01*
X81166072Y9616786D01*
X80651786Y10016786D02*
X80766072Y9959643D01*
X80994643Y9959643D01*
X81108929Y10016786D01*
X81166072Y10073929D01*
X81223215Y10188214D01*
X81223215Y10531071D01*
X81166072Y10645357D01*
X81108929Y10702500D01*
X80994643Y10759643D01*
X80766072Y10759643D01*
X80651786Y10702500D01*
X79623215Y10016786D02*
X79737501Y9959643D01*
X79966072Y9959643D01*
X80080358Y10016786D01*
X80137501Y10131071D01*
X80137501Y10588214D01*
X80080358Y10702500D01*
X79966072Y10759643D01*
X79737501Y10759643D01*
X79623215Y10702500D01*
X79566072Y10588214D01*
X79566072Y10473929D01*
X80137501Y10359643D01*
X79051787Y9959643D02*
X79051787Y10759643D01*
X79051787Y10531071D02*
X78994644Y10645357D01*
X78937501Y10702500D01*
X78823215Y10759643D01*
X78708930Y10759643D01*
X78366073Y10016786D02*
X78251787Y9959643D01*
X78023215Y9959643D01*
X77908930Y10016786D01*
X77851787Y10131071D01*
X77851787Y10188214D01*
X77908930Y10302500D01*
X78023215Y10359643D01*
X78194644Y10359643D01*
X78308930Y10416786D01*
X78366073Y10531071D01*
X78366073Y10588214D01*
X78308930Y10702500D01*
X78194644Y10759643D01*
X78023215Y10759643D01*
X77908930Y10702500D01*
X76766072Y9959643D02*
X77337501Y9959643D01*
X77337501Y11159643D01*
X75451786Y9959643D02*
X75451786Y11159643D01*
X74994643Y11159643D01*
X74880357Y11102500D01*
X74823214Y11045357D01*
X74766071Y10931071D01*
X74766071Y10759643D01*
X74823214Y10645357D01*
X74880357Y10588214D01*
X74994643Y10531071D01*
X75451786Y10531071D01*
X73566071Y10073929D02*
X73623214Y10016786D01*
X73794643Y9959643D01*
X73908929Y9959643D01*
X74080357Y10016786D01*
X74194643Y10131071D01*
X74251786Y10245357D01*
X74308929Y10473929D01*
X74308929Y10645357D01*
X74251786Y10873929D01*
X74194643Y10988214D01*
X74080357Y11102500D01*
X73908929Y11159643D01*
X73794643Y11159643D01*
X73623214Y11102500D01*
X73566071Y11045357D01*
X72651786Y10588214D02*
X72480357Y10531071D01*
X72423214Y10473929D01*
X72366071Y10359643D01*
X72366071Y10188214D01*
X72423214Y10073929D01*
X72480357Y10016786D01*
X72594643Y9959643D01*
X73051786Y9959643D01*
X73051786Y11159643D01*
X72651786Y11159643D01*
X72537500Y11102500D01*
X72480357Y11045357D01*
X72423214Y10931071D01*
X72423214Y10816786D01*
X72480357Y10702500D01*
X72537500Y10645357D01*
X72651786Y10588214D01*
X73051786Y10588214D01*
X70937500Y9959643D02*
X70937500Y10759643D01*
X70937500Y10531071D02*
X70880357Y10645357D01*
X70823214Y10702500D01*
X70708928Y10759643D01*
X70594643Y10759643D01*
X69737500Y10016786D02*
X69851786Y9959643D01*
X70080357Y9959643D01*
X70194643Y10016786D01*
X70251786Y10131071D01*
X70251786Y10588214D01*
X70194643Y10702500D01*
X70080357Y10759643D01*
X69851786Y10759643D01*
X69737500Y10702500D01*
X69680357Y10588214D01*
X69680357Y10473929D01*
X70251786Y10359643D01*
X69280357Y10759643D02*
X68994643Y9959643D01*
X68708929Y10759643D01*
X68023214Y11159643D02*
X67908929Y11159643D01*
X67794643Y11102500D01*
X67737500Y11045357D01*
X67680357Y10931071D01*
X67623214Y10702500D01*
X67623214Y10416786D01*
X67680357Y10188214D01*
X67737500Y10073929D01*
X67794643Y10016786D01*
X67908929Y9959643D01*
X68023214Y9959643D01*
X68137500Y10016786D01*
X68194643Y10073929D01*
X68251786Y10188214D01*
X68308929Y10416786D01*
X68308929Y10702500D01*
X68251786Y10931071D01*
X68194643Y11045357D01*
X68137500Y11102500D01*
X68023214Y11159643D01*
X66480357Y9959643D02*
X67166072Y9959643D01*
X66823214Y9959643D02*
X66823214Y11159643D01*
X66937500Y10988214D01*
X67051786Y10873929D01*
X67166072Y10816786D01*
D12*
X38057563Y17301205D02*
X50224150Y16514427D01*
X37615000Y10457500D02*
X49781587Y9670722D01*
X49937304Y12078692D02*
X49781587Y9670722D01*
X50068433Y14106457D02*
X50224150Y16514427D01*
X49561492Y14139239D02*
X49430363Y12111475D01*
X50068433Y14106457D02*
X49561492Y14139239D01*
X49430363Y12111475D02*
X49937304Y12078692D01*
X37615000Y10457500D02*
X38057563Y17301205D01*
D11*
X37802331Y17734005D02*
X37863043Y17787342D01*
X37931129Y17954726D01*
X37938504Y18068774D01*
X37892543Y18243532D01*
X37785871Y18364955D01*
X37675511Y18429354D01*
X37451103Y18501128D01*
X37280032Y18512191D01*
X37048249Y18469917D01*
X36930515Y18420268D01*
X36809092Y18313595D01*
X36741006Y18146212D01*
X36733630Y18032165D01*
X36779592Y17857405D01*
X36832928Y17796694D01*
X37850003Y16700203D02*
X37222742Y16740766D01*
X37112382Y16805165D01*
X37062733Y16922901D01*
X37077483Y17150995D01*
X37141882Y17261355D01*
X37792979Y16703891D02*
X37857378Y16814251D01*
X37875816Y17099369D01*
X37826167Y17217105D01*
X37715808Y17281504D01*
X37601760Y17288879D01*
X37484025Y17239230D01*
X37419626Y17128870D01*
X37401188Y16843751D01*
X37336789Y16733391D01*
X37014795Y16181592D02*
X38212293Y16104153D01*
X37071819Y16177905D02*
X37007420Y16067544D01*
X36992669Y15839450D01*
X37042318Y15721714D01*
X37095654Y15661003D01*
X37206015Y15596604D01*
X37548157Y15574479D01*
X37665891Y15624127D01*
X37726603Y15677464D01*
X37791002Y15787824D01*
X37805752Y16015918D01*
X37756103Y16133654D01*
X37089990Y14687912D02*
X37115803Y15087078D01*
X37743064Y15046515D02*
X36545565Y15123954D01*
X36508689Y14553716D01*
X37676688Y14020088D02*
X36878355Y14071714D01*
X36479189Y14097527D02*
X36539900Y14150863D01*
X36593237Y14090152D01*
X36532525Y14036816D01*
X36479189Y14097527D01*
X36593237Y14090152D01*
X36841479Y13501476D02*
X37639812Y13449850D01*
X36955527Y13494101D02*
X36894816Y13440765D01*
X36830417Y13330404D01*
X36819354Y13159334D01*
X36869003Y13041598D01*
X36979363Y12977199D01*
X37606624Y12936636D01*
X36738228Y11904811D02*
X37707632Y11842123D01*
X37825366Y11891771D01*
X37886078Y11945108D01*
X37950477Y12055467D01*
X37961539Y12226539D01*
X37911891Y12344274D01*
X37479536Y11856873D02*
X37543935Y11967233D01*
X37558686Y12195328D01*
X37509037Y12313063D01*
X37455700Y12373774D01*
X37345341Y12438173D01*
X37003199Y12460299D01*
X36885464Y12410650D01*
X36824752Y12357314D01*
X36760353Y12246953D01*
X36745603Y12018859D01*
X36795252Y11901124D01*
X37413160Y10830446D02*
X37477559Y10940806D01*
X37492309Y11168901D01*
X37442661Y11286636D01*
X37332302Y11351035D01*
X36876111Y11380535D01*
X36758376Y11330887D01*
X36693977Y11220526D01*
X36679227Y10992432D01*
X36728876Y10874696D01*
X36839236Y10810297D01*
X36953283Y10802922D01*
X37104206Y11365785D01*
X37433309Y10256521D02*
X36634976Y10308147D01*
X36863072Y10293397D02*
X36745336Y10243748D01*
X36684625Y10190412D01*
X36620226Y10080052D01*
X36612851Y9966005D01*
X37332034Y9575924D02*
X37381683Y9458189D01*
X37366932Y9230093D01*
X37302533Y9119734D01*
X37184799Y9070085D01*
X37127775Y9073773D01*
X37017415Y9138172D01*
X36967766Y9255906D01*
X36978829Y9426978D01*
X36929180Y9544713D01*
X36818821Y9609112D01*
X36761797Y9612800D01*
X36644062Y9563151D01*
X36579663Y9452791D01*
X36568600Y9281719D01*
X36618249Y9163985D01*
M02*
