G04 #@! TF.FileFunction,Profile,NP*
%FSLAX46Y46*%
G04 Gerber Fmt 4.6, Leading zero omitted, Abs format (unit mm)*
G04 Created by KiCad (PCBNEW (2015-07-06 BZR 5889)-product) date Wed 26 Aug 2015 12:42:29 PM CEST*
%MOMM*%
G01*
G04 APERTURE LIST*
%ADD10C,0.100000*%
G04 APERTURE END LIST*
D10*
X1676889Y200580D02*
X85038278Y200580D01*
X85814389Y16957524D02*
X3934666Y22284469D01*
X1359389Y235858D02*
X1676889Y200580D01*
X1077166Y341691D02*
X1359389Y235858D01*
X794944Y482802D02*
X1077166Y341691D01*
X583278Y694469D02*
X794944Y482802D01*
X371611Y941413D02*
X583278Y694469D01*
X265778Y1223635D02*
X371611Y941413D01*
X195222Y1505858D02*
X265778Y1223635D01*
X195222Y1823358D02*
X195222Y1505858D01*
X971333Y10995580D02*
X195222Y1823358D01*
X1288833Y10995580D02*
X971333Y10995580D01*
X1606333Y11066135D02*
X1288833Y10995580D01*
X1888555Y11207246D02*
X1606333Y11066135D01*
X2135500Y11383635D02*
X1888555Y11207246D01*
X2347166Y11630580D02*
X2135500Y11383635D01*
X2488278Y11912802D02*
X2347166Y11630580D01*
X2594111Y12195024D02*
X2488278Y11912802D01*
X2594111Y12512524D02*
X2594111Y12195024D01*
X2558833Y12830024D02*
X2594111Y12512524D01*
X2453000Y13112246D02*
X2558833Y12830024D01*
X2311889Y13394469D02*
X2453000Y13112246D01*
X2100222Y13606135D02*
X2311889Y13394469D01*
X1818000Y13782524D02*
X2100222Y13606135D01*
X1535778Y13923635D02*
X1818000Y13782524D01*
X1253555Y13994191D02*
X1535778Y13923635D01*
X1782722Y20379469D02*
X1253555Y13994191D01*
X1853278Y20732246D02*
X1782722Y20379469D01*
X1959111Y21085024D02*
X1853278Y20732246D01*
X2135500Y21367246D02*
X1959111Y21085024D01*
X2347166Y21649469D02*
X2135500Y21367246D01*
X2594111Y21896413D02*
X2347166Y21649469D01*
X2911611Y22072802D02*
X2594111Y21896413D01*
X3229111Y22213913D02*
X2911611Y22072802D01*
X3581889Y22284469D02*
X3229111Y22213913D01*
X3934666Y22284469D02*
X3581889Y22284469D01*
X86167166Y16886969D02*
X85814389Y16957524D01*
X86484666Y16781135D02*
X86167166Y16886969D01*
X86802166Y16604746D02*
X86484666Y16781135D01*
X87084389Y16393080D02*
X86802166Y16604746D01*
X87296055Y16110858D02*
X87084389Y16393080D01*
X87507722Y15793358D02*
X87296055Y16110858D01*
X87613555Y15475858D02*
X87507722Y15793358D01*
X87684111Y15123080D02*
X87613555Y15475858D01*
X87684111Y14770302D02*
X87684111Y15123080D01*
X87366611Y11418913D02*
X87684111Y14770302D01*
X87084389Y11418913D02*
X87366611Y11418913D01*
X86766889Y11348358D02*
X87084389Y11418913D01*
X86484666Y11207246D02*
X86766889Y11348358D01*
X86237722Y10995580D02*
X86484666Y11207246D01*
X86026055Y10783913D02*
X86237722Y10995580D01*
X85884944Y10501691D02*
X86026055Y10783913D01*
X85779111Y10219469D02*
X85884944Y10501691D01*
X85743833Y9901969D02*
X85779111Y10219469D01*
X85779111Y9584469D02*
X85743833Y9901969D01*
X85884944Y9266969D02*
X85779111Y9584469D01*
X86061333Y9020024D02*
X85884944Y9266969D01*
X86273000Y8773080D02*
X86061333Y9020024D01*
X86519944Y8596691D02*
X86273000Y8773080D01*
X86802166Y8490858D02*
X86519944Y8596691D01*
X87119666Y8420302D02*
X86802166Y8490858D01*
X86519944Y1576413D02*
X87119666Y8420302D01*
X86484666Y1294191D02*
X86519944Y1576413D01*
X86378833Y1047246D02*
X86484666Y1294191D01*
X86237722Y800302D02*
X86378833Y1047246D01*
X86061333Y588635D02*
X86237722Y800302D01*
X85814389Y412246D02*
X86061333Y588635D01*
X85567444Y306413D02*
X85814389Y412246D01*
X85320500Y235858D02*
X85567444Y306413D01*
X85038278Y200580D02*
X85320500Y235858D01*
X175147581Y-88211378D02*
X175147581Y-88211378D01*
X168856378Y-111906285D02*
X168856378Y-111906285D01*
X26646481Y-88211378D02*
X26646481Y-88211378D01*
M02*
