G04 #@! TF.FileFunction,Soldermask,Bot*
%FSLAX46Y46*%
G04 Gerber Fmt 4.6, Leading zero omitted, Abs format (unit mm)*
G04 Created by KiCad (PCBNEW (2015-07-06 BZR 5889)-product) date Wed 26 Aug 2015 12:42:29 PM CEST*
%MOMM*%
G01*
G04 APERTURE LIST*
%ADD10C,0.100000*%
G04 APERTURE END LIST*
D10*
G36*
X38229937Y9103995D02*
X38513879Y13494824D01*
X40409919Y13372213D01*
X40125977Y8981384D01*
X38229937Y9103995D01*
X38229937Y9103995D01*
G37*
G36*
X40764643Y8940083D02*
X41048585Y13330912D01*
X42944625Y13208301D01*
X42660683Y8817472D01*
X40764643Y8940083D01*
X40764643Y8940083D01*
G37*
G36*
X39825114Y14091450D02*
X40109056Y18482279D01*
X42005096Y18359668D01*
X41721154Y13968839D01*
X39825114Y14091450D01*
X39825114Y14091450D01*
G37*
G36*
X42359820Y13927538D02*
X42643762Y18318367D01*
X44539802Y18195756D01*
X44255860Y13804927D01*
X42359820Y13927538D01*
X42359820Y13927538D01*
G37*
G36*
X43299348Y8776171D02*
X43583290Y13167000D01*
X45479330Y13044389D01*
X45195388Y8653560D01*
X43299348Y8776171D01*
X43299348Y8776171D01*
G37*
G36*
X44894525Y13763626D02*
X45178467Y18154455D01*
X47074507Y18031844D01*
X46790565Y13641015D01*
X44894525Y13763626D01*
X44894525Y13763626D01*
G37*
G36*
X45834054Y8612259D02*
X46117996Y13003088D01*
X48014036Y12880477D01*
X47730094Y8489648D01*
X45834054Y8612259D01*
X45834054Y8612259D01*
G37*
G36*
X47429231Y13599714D02*
X47713173Y17990543D01*
X49609213Y17867932D01*
X49325271Y13477103D01*
X47429231Y13599714D01*
X47429231Y13599714D01*
G37*
M02*
