G04 #@! TF.FileFunction,Legend,Bot*
%FSLAX46Y46*%
G04 Gerber Fmt 4.6, Leading zero omitted, Abs format (unit mm)*
G04 Created by KiCad (PCBNEW (2015-05-13 BZR 5653)-product) date Tue 26 May 2015 04:41:06 PM CEST*
%MOMM*%
G01*
G04 APERTURE LIST*
%ADD10C,0.100000*%
%ADD11C,0.300000*%
%ADD12C,0.250000*%
%ADD13C,0.150000*%
%ADD14C,0.200000*%
G04 APERTURE END LIST*
D10*
D11*
X116077857Y-57670000D02*
X116220714Y-57598571D01*
X116435000Y-57598571D01*
X116649285Y-57670000D01*
X116792143Y-57812857D01*
X116863571Y-57955714D01*
X116935000Y-58241429D01*
X116935000Y-58455714D01*
X116863571Y-58741429D01*
X116792143Y-58884286D01*
X116649285Y-59027143D01*
X116435000Y-59098571D01*
X116292143Y-59098571D01*
X116077857Y-59027143D01*
X116006428Y-58955714D01*
X116006428Y-58455714D01*
X116292143Y-58455714D01*
X115363571Y-59098571D02*
X115363571Y-57598571D01*
X114506428Y-59098571D01*
X114506428Y-57598571D01*
X113792142Y-59098571D02*
X113792142Y-57598571D01*
X113434999Y-57598571D01*
X113220714Y-57670000D01*
X113077856Y-57812857D01*
X113006428Y-57955714D01*
X112934999Y-58241429D01*
X112934999Y-58455714D01*
X113006428Y-58741429D01*
X113077856Y-58884286D01*
X113220714Y-59027143D01*
X113434999Y-59098571D01*
X113792142Y-59098571D01*
X116935000Y-55058571D02*
X116435000Y-56558571D01*
X115935000Y-55058571D01*
X115435000Y-56558571D02*
X115435000Y-55058571D01*
X115077857Y-55058571D01*
X114863572Y-55130000D01*
X114720714Y-55272857D01*
X114649286Y-55415714D01*
X114577857Y-55701429D01*
X114577857Y-55915714D01*
X114649286Y-56201429D01*
X114720714Y-56344286D01*
X114863572Y-56487143D01*
X115077857Y-56558571D01*
X115435000Y-56558571D01*
X113935000Y-56558571D02*
X113935000Y-55058571D01*
X113577857Y-55058571D01*
X113363572Y-55130000D01*
X113220714Y-55272857D01*
X113149286Y-55415714D01*
X113077857Y-55701429D01*
X113077857Y-55915714D01*
X113149286Y-56201429D01*
X113220714Y-56344286D01*
X113363572Y-56487143D01*
X113577857Y-56558571D01*
X113935000Y-56558571D01*
D12*
X158439285Y-78108571D02*
X157510714Y-78108571D01*
X158010714Y-78680000D01*
X157796428Y-78680000D01*
X157653571Y-78751429D01*
X157582142Y-78822857D01*
X157510714Y-78965714D01*
X157510714Y-79322857D01*
X157582142Y-79465714D01*
X157653571Y-79537143D01*
X157796428Y-79608571D01*
X158225000Y-79608571D01*
X158367857Y-79537143D01*
X158439285Y-79465714D01*
X156867857Y-79608571D02*
X156867857Y-78108571D01*
X156510714Y-78108571D01*
X156296429Y-78180000D01*
X156153571Y-78322857D01*
X156082143Y-78465714D01*
X156010714Y-78751429D01*
X156010714Y-78965714D01*
X156082143Y-79251429D01*
X156153571Y-79394286D01*
X156296429Y-79537143D01*
X156510714Y-79608571D01*
X156867857Y-79608571D01*
X155367857Y-79608571D02*
X155367857Y-78108571D01*
X154867857Y-79180000D01*
X154367857Y-78108571D01*
X154367857Y-79608571D01*
X153653571Y-79608571D02*
X153653571Y-78608571D01*
X153653571Y-78108571D02*
X153725000Y-78180000D01*
X153653571Y-78251429D01*
X153582143Y-78180000D01*
X153653571Y-78108571D01*
X153653571Y-78251429D01*
X152939285Y-78608571D02*
X152939285Y-79608571D01*
X152939285Y-78751429D02*
X152867857Y-78680000D01*
X152724999Y-78608571D01*
X152510714Y-78608571D01*
X152367857Y-78680000D01*
X152296428Y-78822857D01*
X152296428Y-79608571D01*
X150439285Y-79608571D02*
X150439285Y-78108571D01*
X149867857Y-78108571D01*
X149724999Y-78180000D01*
X149653571Y-78251429D01*
X149582142Y-78394286D01*
X149582142Y-78608571D01*
X149653571Y-78751429D01*
X149724999Y-78822857D01*
X149867857Y-78894286D01*
X150439285Y-78894286D01*
X148296428Y-78608571D02*
X148296428Y-79608571D01*
X148939285Y-78608571D02*
X148939285Y-79394286D01*
X148867857Y-79537143D01*
X148724999Y-79608571D01*
X148510714Y-79608571D01*
X148367857Y-79537143D01*
X148296428Y-79465714D01*
X147653571Y-79537143D02*
X147510714Y-79608571D01*
X147224999Y-79608571D01*
X147082142Y-79537143D01*
X147010714Y-79394286D01*
X147010714Y-79322857D01*
X147082142Y-79180000D01*
X147224999Y-79108571D01*
X147439285Y-79108571D01*
X147582142Y-79037143D01*
X147653571Y-78894286D01*
X147653571Y-78822857D01*
X147582142Y-78680000D01*
X147439285Y-78608571D01*
X147224999Y-78608571D01*
X147082142Y-78680000D01*
X146367856Y-79608571D02*
X146367856Y-78108571D01*
X145724999Y-79608571D02*
X145724999Y-78822857D01*
X145796428Y-78680000D01*
X145939285Y-78608571D01*
X146153570Y-78608571D01*
X146296428Y-78680000D01*
X146367856Y-78751429D01*
X145010713Y-79608571D02*
X145010713Y-78108571D01*
X144439285Y-78108571D01*
X144296427Y-78180000D01*
X144224999Y-78251429D01*
X144153570Y-78394286D01*
X144153570Y-78608571D01*
X144224999Y-78751429D01*
X144296427Y-78822857D01*
X144439285Y-78894286D01*
X145010713Y-78894286D01*
X142867856Y-78608571D02*
X142867856Y-79608571D01*
X143510713Y-78608571D02*
X143510713Y-79394286D01*
X143439285Y-79537143D01*
X143296427Y-79608571D01*
X143082142Y-79608571D01*
X142939285Y-79537143D01*
X142867856Y-79465714D01*
X141939284Y-79608571D02*
X142082142Y-79537143D01*
X142153570Y-79394286D01*
X142153570Y-78108571D01*
X141153570Y-79608571D02*
X141296428Y-79537143D01*
X141367856Y-79394286D01*
X141367856Y-78108571D01*
X158939284Y-80458571D02*
X158939284Y-81672857D01*
X158867856Y-81815714D01*
X158796427Y-81887143D01*
X158653570Y-81958571D01*
X158367856Y-81958571D01*
X158224998Y-81887143D01*
X158153570Y-81815714D01*
X158082141Y-81672857D01*
X158082141Y-80458571D01*
X156724998Y-81958571D02*
X156724998Y-80458571D01*
X156724998Y-81887143D02*
X156867855Y-81958571D01*
X157153569Y-81958571D01*
X157296427Y-81887143D01*
X157367855Y-81815714D01*
X157439284Y-81672857D01*
X157439284Y-81244286D01*
X157367855Y-81101429D01*
X157296427Y-81030000D01*
X157153569Y-80958571D01*
X156867855Y-80958571D01*
X156724998Y-81030000D01*
X156010712Y-81958571D02*
X156010712Y-80458571D01*
X155153569Y-81958571D02*
X155796426Y-81101429D01*
X155153569Y-80458571D02*
X156010712Y-81315714D01*
X152867855Y-81172857D02*
X152653569Y-81244286D01*
X152582141Y-81315714D01*
X152510712Y-81458571D01*
X152510712Y-81672857D01*
X152582141Y-81815714D01*
X152653569Y-81887143D01*
X152796427Y-81958571D01*
X153367855Y-81958571D01*
X153367855Y-80458571D01*
X152867855Y-80458571D01*
X152724998Y-80530000D01*
X152653569Y-80601429D01*
X152582141Y-80744286D01*
X152582141Y-80887143D01*
X152653569Y-81030000D01*
X152724998Y-81101429D01*
X152867855Y-81172857D01*
X153367855Y-81172857D01*
X151296427Y-81887143D02*
X151439284Y-81958571D01*
X151724998Y-81958571D01*
X151867855Y-81887143D01*
X151939284Y-81744286D01*
X151939284Y-81172857D01*
X151867855Y-81030000D01*
X151724998Y-80958571D01*
X151439284Y-80958571D01*
X151296427Y-81030000D01*
X151224998Y-81172857D01*
X151224998Y-81315714D01*
X151939284Y-81458571D01*
X150582141Y-81958571D02*
X150582141Y-80958571D01*
X150582141Y-81244286D02*
X150510713Y-81101429D01*
X150439284Y-81030000D01*
X150296427Y-80958571D01*
X150153570Y-80958571D01*
X149439284Y-81958571D02*
X149582142Y-81887143D01*
X149653570Y-81744286D01*
X149653570Y-80458571D01*
X148867856Y-81958571D02*
X148867856Y-80958571D01*
X148867856Y-80458571D02*
X148939285Y-80530000D01*
X148867856Y-80601429D01*
X148796428Y-80530000D01*
X148867856Y-80458571D01*
X148867856Y-80601429D01*
X148153570Y-80958571D02*
X148153570Y-81958571D01*
X148153570Y-81101429D02*
X148082142Y-81030000D01*
X147939284Y-80958571D01*
X147724999Y-80958571D01*
X147582142Y-81030000D01*
X147510713Y-81172857D01*
X147510713Y-81958571D01*
X145724999Y-80601429D02*
X145653570Y-80530000D01*
X145510713Y-80458571D01*
X145153570Y-80458571D01*
X145010713Y-80530000D01*
X144939284Y-80601429D01*
X144867856Y-80744286D01*
X144867856Y-80887143D01*
X144939284Y-81101429D01*
X145796427Y-81958571D01*
X144867856Y-81958571D01*
X143939285Y-80458571D02*
X143796428Y-80458571D01*
X143653571Y-80530000D01*
X143582142Y-80601429D01*
X143510713Y-80744286D01*
X143439285Y-81030000D01*
X143439285Y-81387143D01*
X143510713Y-81672857D01*
X143582142Y-81815714D01*
X143653571Y-81887143D01*
X143796428Y-81958571D01*
X143939285Y-81958571D01*
X144082142Y-81887143D01*
X144153571Y-81815714D01*
X144224999Y-81672857D01*
X144296428Y-81387143D01*
X144296428Y-81030000D01*
X144224999Y-80744286D01*
X144153571Y-80601429D01*
X144082142Y-80530000D01*
X143939285Y-80458571D01*
X142010714Y-81958571D02*
X142867857Y-81958571D01*
X142439285Y-81958571D02*
X142439285Y-80458571D01*
X142582142Y-80672857D01*
X142725000Y-80815714D01*
X142867857Y-80887143D01*
X140653571Y-80458571D02*
X141367857Y-80458571D01*
X141439286Y-81172857D01*
X141367857Y-81101429D01*
X141225000Y-81030000D01*
X140867857Y-81030000D01*
X140725000Y-81101429D01*
X140653571Y-81172857D01*
X140582143Y-81315714D01*
X140582143Y-81672857D01*
X140653571Y-81815714D01*
X140725000Y-81887143D01*
X140867857Y-81958571D01*
X141225000Y-81958571D01*
X141367857Y-81887143D01*
X141439286Y-81815714D01*
X158796428Y-84308571D02*
X158796428Y-82808571D01*
X158296428Y-83880000D01*
X157796428Y-82808571D01*
X157796428Y-84308571D01*
X156439285Y-84308571D02*
X156439285Y-83522857D01*
X156510714Y-83380000D01*
X156653571Y-83308571D01*
X156939285Y-83308571D01*
X157082142Y-83380000D01*
X156439285Y-84237143D02*
X156582142Y-84308571D01*
X156939285Y-84308571D01*
X157082142Y-84237143D01*
X157153571Y-84094286D01*
X157153571Y-83951429D01*
X157082142Y-83808571D01*
X156939285Y-83737143D01*
X156582142Y-83737143D01*
X156439285Y-83665714D01*
X155724999Y-84308571D02*
X155724999Y-83308571D01*
X155724999Y-82808571D02*
X155796428Y-82880000D01*
X155724999Y-82951429D01*
X155653571Y-82880000D01*
X155724999Y-82808571D01*
X155724999Y-82951429D01*
X155010713Y-83308571D02*
X155010713Y-84308571D01*
X155010713Y-83451429D02*
X154939285Y-83380000D01*
X154796427Y-83308571D01*
X154582142Y-83308571D01*
X154439285Y-83380000D01*
X154367856Y-83522857D01*
X154367856Y-84308571D01*
X152510713Y-84308571D02*
X152510713Y-82808571D01*
X151939285Y-82808571D01*
X151796427Y-82880000D01*
X151724999Y-82951429D01*
X151653570Y-83094286D01*
X151653570Y-83308571D01*
X151724999Y-83451429D01*
X151796427Y-83522857D01*
X151939285Y-83594286D01*
X152510713Y-83594286D01*
X150153570Y-84165714D02*
X150224999Y-84237143D01*
X150439285Y-84308571D01*
X150582142Y-84308571D01*
X150796427Y-84237143D01*
X150939285Y-84094286D01*
X151010713Y-83951429D01*
X151082142Y-83665714D01*
X151082142Y-83451429D01*
X151010713Y-83165714D01*
X150939285Y-83022857D01*
X150796427Y-82880000D01*
X150582142Y-82808571D01*
X150439285Y-82808571D01*
X150224999Y-82880000D01*
X150153570Y-82951429D01*
X149010713Y-83522857D02*
X148796427Y-83594286D01*
X148724999Y-83665714D01*
X148653570Y-83808571D01*
X148653570Y-84022857D01*
X148724999Y-84165714D01*
X148796427Y-84237143D01*
X148939285Y-84308571D01*
X149510713Y-84308571D01*
X149510713Y-82808571D01*
X149010713Y-82808571D01*
X148867856Y-82880000D01*
X148796427Y-82951429D01*
X148724999Y-83094286D01*
X148724999Y-83237143D01*
X148796427Y-83380000D01*
X148867856Y-83451429D01*
X149010713Y-83522857D01*
X149510713Y-83522857D01*
X146010713Y-84308571D02*
X146510713Y-83594286D01*
X146867856Y-84308571D02*
X146867856Y-82808571D01*
X146296428Y-82808571D01*
X146153570Y-82880000D01*
X146082142Y-82951429D01*
X146010713Y-83094286D01*
X146010713Y-83308571D01*
X146082142Y-83451429D01*
X146153570Y-83522857D01*
X146296428Y-83594286D01*
X146867856Y-83594286D01*
X144796428Y-84237143D02*
X144939285Y-84308571D01*
X145224999Y-84308571D01*
X145367856Y-84237143D01*
X145439285Y-84094286D01*
X145439285Y-83522857D01*
X145367856Y-83380000D01*
X145224999Y-83308571D01*
X144939285Y-83308571D01*
X144796428Y-83380000D01*
X144724999Y-83522857D01*
X144724999Y-83665714D01*
X145439285Y-83808571D01*
X144224999Y-83308571D02*
X143867856Y-84308571D01*
X143510714Y-83308571D01*
X141510714Y-82808571D02*
X141367857Y-82808571D01*
X141225000Y-82880000D01*
X141153571Y-82951429D01*
X141082142Y-83094286D01*
X141010714Y-83380000D01*
X141010714Y-83737143D01*
X141082142Y-84022857D01*
X141153571Y-84165714D01*
X141225000Y-84237143D01*
X141367857Y-84308571D01*
X141510714Y-84308571D01*
X141653571Y-84237143D01*
X141725000Y-84165714D01*
X141796428Y-84022857D01*
X141867857Y-83737143D01*
X141867857Y-83380000D01*
X141796428Y-83094286D01*
X141725000Y-82951429D01*
X141653571Y-82880000D01*
X141510714Y-82808571D01*
X139582143Y-84308571D02*
X140439286Y-84308571D01*
X140010714Y-84308571D02*
X140010714Y-82808571D01*
X140153571Y-83022857D01*
X140296429Y-83165714D01*
X140439286Y-83237143D01*
D13*
X170025000Y-58500000D02*
X170025000Y-60500000D01*
X167975000Y-60500000D02*
X167975000Y-58500000D01*
X107025000Y-58500000D02*
X107025000Y-60500000D01*
X104975000Y-60500000D02*
X104975000Y-58500000D01*
X107025000Y-105500000D02*
X107025000Y-107500000D01*
X104975000Y-107500000D02*
X104975000Y-105500000D01*
X170025000Y-105500000D02*
X170025000Y-107500000D01*
X167975000Y-107500000D02*
X167975000Y-105500000D01*
X99425000Y-80205000D02*
X97425000Y-80205000D01*
X97425000Y-82355000D02*
X99425000Y-82355000D01*
X99425000Y-83380000D02*
X97425000Y-83380000D01*
X97425000Y-85530000D02*
X99425000Y-85530000D01*
X99425000Y-86555000D02*
X97425000Y-86555000D01*
X97425000Y-88705000D02*
X99425000Y-88705000D01*
X99425000Y-89730000D02*
X97425000Y-89730000D01*
X97425000Y-91880000D02*
X99425000Y-91880000D01*
X99425000Y-92905000D02*
X97425000Y-92905000D01*
X97425000Y-95055000D02*
X99425000Y-95055000D01*
X99425000Y-96080000D02*
X97425000Y-96080000D01*
X97425000Y-98230000D02*
X99425000Y-98230000D01*
X167910000Y-68385000D02*
X169910000Y-68385000D01*
X169910000Y-66235000D02*
X167910000Y-66235000D01*
X120000000Y-54500000D02*
X120000000Y-55500000D01*
X120000000Y-55500000D02*
X122500000Y-55500000D01*
X122500000Y-55500000D02*
X122500000Y-54500000D01*
X122500000Y-54500000D02*
X120000000Y-54500000D01*
X120000000Y-59500000D02*
X122500000Y-59500000D01*
X122500000Y-59500000D02*
X122500000Y-58500000D01*
X122500000Y-58500000D02*
X120000000Y-58500000D01*
X120000000Y-58500000D02*
X120000000Y-59500000D01*
X124500000Y-54000000D02*
X117000000Y-54000000D01*
X117000000Y-54000000D02*
X117000000Y-54500000D01*
X117000000Y-54500000D02*
X118500000Y-54500000D01*
X118500000Y-54500000D02*
X118500000Y-59500000D01*
X124500000Y-54000000D02*
X124500000Y-60000000D01*
X124500000Y-60000000D02*
X117000000Y-60000000D01*
X117000000Y-60000000D02*
X117000000Y-59500000D01*
X117000000Y-59500000D02*
X118500000Y-59500000D01*
X108839000Y-65405000D02*
X115951000Y-65405000D01*
X112395000Y-72263000D02*
X115951000Y-72263000D01*
X112395000Y-72263000D02*
X108839000Y-72263000D01*
X115951000Y-69850000D02*
X115951000Y-72263000D01*
X115951000Y-67818000D02*
X115951000Y-65405000D01*
X115443000Y-67818000D02*
X115443000Y-69850000D01*
X115951000Y-67818000D02*
X115443000Y-67818000D01*
X115443000Y-69850000D02*
X115951000Y-69850000D01*
X108839000Y-72263000D02*
X108839000Y-65405000D01*
X97282000Y-77470000D02*
X97282000Y-65278000D01*
X104140000Y-77470000D02*
X104140000Y-65278000D01*
X101727000Y-65278000D02*
X104140000Y-65278000D01*
X99695000Y-65278000D02*
X97282000Y-65278000D01*
X99695000Y-65786000D02*
X101727000Y-65786000D01*
X99695000Y-65278000D02*
X99695000Y-65786000D01*
X101727000Y-65786000D02*
X101727000Y-65278000D01*
X104140000Y-77470000D02*
X97282000Y-77470000D01*
D14*
X169195714Y-63407857D02*
X169881429Y-63407857D01*
X169538571Y-63407857D02*
X169538571Y-62207857D01*
X169652857Y-62379286D01*
X169767143Y-62493571D01*
X169881429Y-62550714D01*
X168681429Y-62607857D02*
X168681429Y-63807857D01*
X168110000Y-63236429D02*
X168052857Y-63350714D01*
X167938572Y-63407857D01*
X168681429Y-63236429D02*
X168624286Y-63350714D01*
X168510000Y-63407857D01*
X168281429Y-63407857D01*
X168167143Y-63350714D01*
X168110000Y-63236429D01*
X168110000Y-62607857D01*
X106330714Y-63407857D02*
X107016429Y-63407857D01*
X106673571Y-63407857D02*
X106673571Y-62207857D01*
X106787857Y-62379286D01*
X106902143Y-62493571D01*
X107016429Y-62550714D01*
X105816429Y-62607857D02*
X105816429Y-63807857D01*
X105245000Y-63236429D02*
X105187857Y-63350714D01*
X105073572Y-63407857D01*
X105816429Y-63236429D02*
X105759286Y-63350714D01*
X105645000Y-63407857D01*
X105416429Y-63407857D01*
X105302143Y-63350714D01*
X105245000Y-63236429D01*
X105245000Y-62607857D01*
X106330714Y-110397857D02*
X107016429Y-110397857D01*
X106673571Y-110397857D02*
X106673571Y-109197857D01*
X106787857Y-109369286D01*
X106902143Y-109483571D01*
X107016429Y-109540714D01*
X105816429Y-109597857D02*
X105816429Y-110797857D01*
X105245000Y-110226429D02*
X105187857Y-110340714D01*
X105073572Y-110397857D01*
X105816429Y-110226429D02*
X105759286Y-110340714D01*
X105645000Y-110397857D01*
X105416429Y-110397857D01*
X105302143Y-110340714D01*
X105245000Y-110226429D01*
X105245000Y-109597857D01*
X169195714Y-110397857D02*
X169881429Y-110397857D01*
X169538571Y-110397857D02*
X169538571Y-109197857D01*
X169652857Y-109369286D01*
X169767143Y-109483571D01*
X169881429Y-109540714D01*
X168681429Y-109597857D02*
X168681429Y-110797857D01*
X168110000Y-110226429D02*
X168052857Y-110340714D01*
X167938572Y-110397857D01*
X168681429Y-110226429D02*
X168624286Y-110340714D01*
X168510000Y-110397857D01*
X168281429Y-110397857D01*
X168167143Y-110340714D01*
X168110000Y-110226429D01*
X168110000Y-109597857D01*
X105304999Y-81822857D02*
X105704999Y-81251429D01*
X105990714Y-81822857D02*
X105990714Y-80622857D01*
X105533571Y-80622857D01*
X105419285Y-80680000D01*
X105362142Y-80737143D01*
X105304999Y-80851429D01*
X105304999Y-81022857D01*
X105362142Y-81137143D01*
X105419285Y-81194286D01*
X105533571Y-81251429D01*
X105990714Y-81251429D01*
X104276428Y-81765714D02*
X104390714Y-81822857D01*
X104619285Y-81822857D01*
X104733571Y-81765714D01*
X104790714Y-81708571D01*
X104847857Y-81594286D01*
X104847857Y-81251429D01*
X104790714Y-81137143D01*
X104733571Y-81080000D01*
X104619285Y-81022857D01*
X104390714Y-81022857D01*
X104276428Y-81080000D01*
X103247857Y-81822857D02*
X103247857Y-81194286D01*
X103305000Y-81080000D01*
X103419286Y-81022857D01*
X103647857Y-81022857D01*
X103762143Y-81080000D01*
X103247857Y-81765714D02*
X103362143Y-81822857D01*
X103647857Y-81822857D01*
X103762143Y-81765714D01*
X103819286Y-81651429D01*
X103819286Y-81537143D01*
X103762143Y-81422857D01*
X103647857Y-81365714D01*
X103362143Y-81365714D01*
X103247857Y-81308571D01*
X102676429Y-81022857D02*
X102676429Y-82222857D01*
X102676429Y-81080000D02*
X102562143Y-81022857D01*
X102333572Y-81022857D01*
X102219286Y-81080000D01*
X102162143Y-81137143D01*
X102105000Y-81251429D01*
X102105000Y-81594286D01*
X102162143Y-81708571D01*
X102219286Y-81765714D01*
X102333572Y-81822857D01*
X102562143Y-81822857D01*
X102676429Y-81765714D01*
X100962143Y-81822857D02*
X101647858Y-81822857D01*
X101305000Y-81822857D02*
X101305000Y-80622857D01*
X101419286Y-80794286D01*
X101533572Y-80908571D01*
X101647858Y-80965714D01*
X105304999Y-84997857D02*
X105704999Y-84426429D01*
X105990714Y-84997857D02*
X105990714Y-83797857D01*
X105533571Y-83797857D01*
X105419285Y-83855000D01*
X105362142Y-83912143D01*
X105304999Y-84026429D01*
X105304999Y-84197857D01*
X105362142Y-84312143D01*
X105419285Y-84369286D01*
X105533571Y-84426429D01*
X105990714Y-84426429D01*
X104276428Y-84940714D02*
X104390714Y-84997857D01*
X104619285Y-84997857D01*
X104733571Y-84940714D01*
X104790714Y-84883571D01*
X104847857Y-84769286D01*
X104847857Y-84426429D01*
X104790714Y-84312143D01*
X104733571Y-84255000D01*
X104619285Y-84197857D01*
X104390714Y-84197857D01*
X104276428Y-84255000D01*
X103247857Y-84997857D02*
X103247857Y-84369286D01*
X103305000Y-84255000D01*
X103419286Y-84197857D01*
X103647857Y-84197857D01*
X103762143Y-84255000D01*
X103247857Y-84940714D02*
X103362143Y-84997857D01*
X103647857Y-84997857D01*
X103762143Y-84940714D01*
X103819286Y-84826429D01*
X103819286Y-84712143D01*
X103762143Y-84597857D01*
X103647857Y-84540714D01*
X103362143Y-84540714D01*
X103247857Y-84483571D01*
X102676429Y-84197857D02*
X102676429Y-85397857D01*
X102676429Y-84255000D02*
X102562143Y-84197857D01*
X102333572Y-84197857D01*
X102219286Y-84255000D01*
X102162143Y-84312143D01*
X102105000Y-84426429D01*
X102105000Y-84769286D01*
X102162143Y-84883571D01*
X102219286Y-84940714D01*
X102333572Y-84997857D01*
X102562143Y-84997857D01*
X102676429Y-84940714D01*
X101647858Y-83912143D02*
X101590715Y-83855000D01*
X101476429Y-83797857D01*
X101190715Y-83797857D01*
X101076429Y-83855000D01*
X101019286Y-83912143D01*
X100962143Y-84026429D01*
X100962143Y-84140714D01*
X101019286Y-84312143D01*
X101705000Y-84997857D01*
X100962143Y-84997857D01*
X105304999Y-88172857D02*
X105704999Y-87601429D01*
X105990714Y-88172857D02*
X105990714Y-86972857D01*
X105533571Y-86972857D01*
X105419285Y-87030000D01*
X105362142Y-87087143D01*
X105304999Y-87201429D01*
X105304999Y-87372857D01*
X105362142Y-87487143D01*
X105419285Y-87544286D01*
X105533571Y-87601429D01*
X105990714Y-87601429D01*
X104276428Y-88115714D02*
X104390714Y-88172857D01*
X104619285Y-88172857D01*
X104733571Y-88115714D01*
X104790714Y-88058571D01*
X104847857Y-87944286D01*
X104847857Y-87601429D01*
X104790714Y-87487143D01*
X104733571Y-87430000D01*
X104619285Y-87372857D01*
X104390714Y-87372857D01*
X104276428Y-87430000D01*
X103247857Y-88172857D02*
X103247857Y-87544286D01*
X103305000Y-87430000D01*
X103419286Y-87372857D01*
X103647857Y-87372857D01*
X103762143Y-87430000D01*
X103247857Y-88115714D02*
X103362143Y-88172857D01*
X103647857Y-88172857D01*
X103762143Y-88115714D01*
X103819286Y-88001429D01*
X103819286Y-87887143D01*
X103762143Y-87772857D01*
X103647857Y-87715714D01*
X103362143Y-87715714D01*
X103247857Y-87658571D01*
X102676429Y-87372857D02*
X102676429Y-88572857D01*
X102676429Y-87430000D02*
X102562143Y-87372857D01*
X102333572Y-87372857D01*
X102219286Y-87430000D01*
X102162143Y-87487143D01*
X102105000Y-87601429D01*
X102105000Y-87944286D01*
X102162143Y-88058571D01*
X102219286Y-88115714D01*
X102333572Y-88172857D01*
X102562143Y-88172857D01*
X102676429Y-88115714D01*
X101705000Y-86972857D02*
X100962143Y-86972857D01*
X101362143Y-87430000D01*
X101190715Y-87430000D01*
X101076429Y-87487143D01*
X101019286Y-87544286D01*
X100962143Y-87658571D01*
X100962143Y-87944286D01*
X101019286Y-88058571D01*
X101076429Y-88115714D01*
X101190715Y-88172857D01*
X101533572Y-88172857D01*
X101647858Y-88115714D01*
X101705000Y-88058571D01*
X105304999Y-91347857D02*
X105704999Y-90776429D01*
X105990714Y-91347857D02*
X105990714Y-90147857D01*
X105533571Y-90147857D01*
X105419285Y-90205000D01*
X105362142Y-90262143D01*
X105304999Y-90376429D01*
X105304999Y-90547857D01*
X105362142Y-90662143D01*
X105419285Y-90719286D01*
X105533571Y-90776429D01*
X105990714Y-90776429D01*
X104276428Y-91290714D02*
X104390714Y-91347857D01*
X104619285Y-91347857D01*
X104733571Y-91290714D01*
X104790714Y-91233571D01*
X104847857Y-91119286D01*
X104847857Y-90776429D01*
X104790714Y-90662143D01*
X104733571Y-90605000D01*
X104619285Y-90547857D01*
X104390714Y-90547857D01*
X104276428Y-90605000D01*
X103247857Y-91347857D02*
X103247857Y-90719286D01*
X103305000Y-90605000D01*
X103419286Y-90547857D01*
X103647857Y-90547857D01*
X103762143Y-90605000D01*
X103247857Y-91290714D02*
X103362143Y-91347857D01*
X103647857Y-91347857D01*
X103762143Y-91290714D01*
X103819286Y-91176429D01*
X103819286Y-91062143D01*
X103762143Y-90947857D01*
X103647857Y-90890714D01*
X103362143Y-90890714D01*
X103247857Y-90833571D01*
X102676429Y-90547857D02*
X102676429Y-91747857D01*
X102676429Y-90605000D02*
X102562143Y-90547857D01*
X102333572Y-90547857D01*
X102219286Y-90605000D01*
X102162143Y-90662143D01*
X102105000Y-90776429D01*
X102105000Y-91119286D01*
X102162143Y-91233571D01*
X102219286Y-91290714D01*
X102333572Y-91347857D01*
X102562143Y-91347857D01*
X102676429Y-91290714D01*
X101076429Y-90547857D02*
X101076429Y-91347857D01*
X101362143Y-90090714D02*
X101647858Y-90947857D01*
X100905000Y-90947857D01*
X105304999Y-94522857D02*
X105704999Y-93951429D01*
X105990714Y-94522857D02*
X105990714Y-93322857D01*
X105533571Y-93322857D01*
X105419285Y-93380000D01*
X105362142Y-93437143D01*
X105304999Y-93551429D01*
X105304999Y-93722857D01*
X105362142Y-93837143D01*
X105419285Y-93894286D01*
X105533571Y-93951429D01*
X105990714Y-93951429D01*
X104276428Y-94465714D02*
X104390714Y-94522857D01*
X104619285Y-94522857D01*
X104733571Y-94465714D01*
X104790714Y-94408571D01*
X104847857Y-94294286D01*
X104847857Y-93951429D01*
X104790714Y-93837143D01*
X104733571Y-93780000D01*
X104619285Y-93722857D01*
X104390714Y-93722857D01*
X104276428Y-93780000D01*
X103247857Y-94522857D02*
X103247857Y-93894286D01*
X103305000Y-93780000D01*
X103419286Y-93722857D01*
X103647857Y-93722857D01*
X103762143Y-93780000D01*
X103247857Y-94465714D02*
X103362143Y-94522857D01*
X103647857Y-94522857D01*
X103762143Y-94465714D01*
X103819286Y-94351429D01*
X103819286Y-94237143D01*
X103762143Y-94122857D01*
X103647857Y-94065714D01*
X103362143Y-94065714D01*
X103247857Y-94008571D01*
X102676429Y-93722857D02*
X102676429Y-94922857D01*
X102676429Y-93780000D02*
X102562143Y-93722857D01*
X102333572Y-93722857D01*
X102219286Y-93780000D01*
X102162143Y-93837143D01*
X102105000Y-93951429D01*
X102105000Y-94294286D01*
X102162143Y-94408571D01*
X102219286Y-94465714D01*
X102333572Y-94522857D01*
X102562143Y-94522857D01*
X102676429Y-94465714D01*
X101019286Y-93322857D02*
X101590715Y-93322857D01*
X101647858Y-93894286D01*
X101590715Y-93837143D01*
X101476429Y-93780000D01*
X101190715Y-93780000D01*
X101076429Y-93837143D01*
X101019286Y-93894286D01*
X100962143Y-94008571D01*
X100962143Y-94294286D01*
X101019286Y-94408571D01*
X101076429Y-94465714D01*
X101190715Y-94522857D01*
X101476429Y-94522857D01*
X101590715Y-94465714D01*
X101647858Y-94408571D01*
X105304999Y-97697857D02*
X105704999Y-97126429D01*
X105990714Y-97697857D02*
X105990714Y-96497857D01*
X105533571Y-96497857D01*
X105419285Y-96555000D01*
X105362142Y-96612143D01*
X105304999Y-96726429D01*
X105304999Y-96897857D01*
X105362142Y-97012143D01*
X105419285Y-97069286D01*
X105533571Y-97126429D01*
X105990714Y-97126429D01*
X104276428Y-97640714D02*
X104390714Y-97697857D01*
X104619285Y-97697857D01*
X104733571Y-97640714D01*
X104790714Y-97583571D01*
X104847857Y-97469286D01*
X104847857Y-97126429D01*
X104790714Y-97012143D01*
X104733571Y-96955000D01*
X104619285Y-96897857D01*
X104390714Y-96897857D01*
X104276428Y-96955000D01*
X103247857Y-97697857D02*
X103247857Y-97069286D01*
X103305000Y-96955000D01*
X103419286Y-96897857D01*
X103647857Y-96897857D01*
X103762143Y-96955000D01*
X103247857Y-97640714D02*
X103362143Y-97697857D01*
X103647857Y-97697857D01*
X103762143Y-97640714D01*
X103819286Y-97526429D01*
X103819286Y-97412143D01*
X103762143Y-97297857D01*
X103647857Y-97240714D01*
X103362143Y-97240714D01*
X103247857Y-97183571D01*
X102676429Y-96897857D02*
X102676429Y-98097857D01*
X102676429Y-96955000D02*
X102562143Y-96897857D01*
X102333572Y-96897857D01*
X102219286Y-96955000D01*
X102162143Y-97012143D01*
X102105000Y-97126429D01*
X102105000Y-97469286D01*
X102162143Y-97583571D01*
X102219286Y-97640714D01*
X102333572Y-97697857D01*
X102562143Y-97697857D01*
X102676429Y-97640714D01*
X101076429Y-96497857D02*
X101305000Y-96497857D01*
X101419286Y-96555000D01*
X101476429Y-96612143D01*
X101590715Y-96783571D01*
X101647858Y-97012143D01*
X101647858Y-97469286D01*
X101590715Y-97583571D01*
X101533572Y-97640714D01*
X101419286Y-97697857D01*
X101190715Y-97697857D01*
X101076429Y-97640714D01*
X101019286Y-97583571D01*
X100962143Y-97469286D01*
X100962143Y-97183571D01*
X101019286Y-97069286D01*
X101076429Y-97012143D01*
X101190715Y-96955000D01*
X101419286Y-96955000D01*
X101533572Y-97012143D01*
X101590715Y-97069286D01*
X101647858Y-97183571D01*
X169709999Y-70152857D02*
X170395714Y-70152857D01*
X170052856Y-70152857D02*
X170052856Y-68952857D01*
X170167142Y-69124286D01*
X170281428Y-69238571D01*
X170395714Y-69295714D01*
X168967142Y-68952857D02*
X168852857Y-68952857D01*
X168738571Y-69010000D01*
X168681428Y-69067143D01*
X168624285Y-69181429D01*
X168567142Y-69410000D01*
X168567142Y-69695714D01*
X168624285Y-69924286D01*
X168681428Y-70038571D01*
X168738571Y-70095714D01*
X168852857Y-70152857D01*
X168967142Y-70152857D01*
X169081428Y-70095714D01*
X169138571Y-70038571D01*
X169195714Y-69924286D01*
X169252857Y-69695714D01*
X169252857Y-69410000D01*
X169195714Y-69181429D01*
X169138571Y-69067143D01*
X169081428Y-69010000D01*
X168967142Y-68952857D01*
X167824285Y-68952857D02*
X167710000Y-68952857D01*
X167595714Y-69010000D01*
X167538571Y-69067143D01*
X167481428Y-69181429D01*
X167424285Y-69410000D01*
X167424285Y-69695714D01*
X167481428Y-69924286D01*
X167538571Y-70038571D01*
X167595714Y-70095714D01*
X167710000Y-70152857D01*
X167824285Y-70152857D01*
X167938571Y-70095714D01*
X167995714Y-70038571D01*
X168052857Y-69924286D01*
X168110000Y-69695714D01*
X168110000Y-69410000D01*
X168052857Y-69181429D01*
X167995714Y-69067143D01*
X167938571Y-69010000D01*
X167824285Y-68952857D01*
X126757142Y-51962857D02*
X126542856Y-52034286D01*
X126471428Y-52105714D01*
X126399999Y-52248571D01*
X126399999Y-52462857D01*
X126471428Y-52605714D01*
X126542856Y-52677143D01*
X126685714Y-52748571D01*
X127257142Y-52748571D01*
X127257142Y-51248571D01*
X126757142Y-51248571D01*
X126614285Y-51320000D01*
X126542856Y-51391429D01*
X126471428Y-51534286D01*
X126471428Y-51677143D01*
X126542856Y-51820000D01*
X126614285Y-51891429D01*
X126757142Y-51962857D01*
X127257142Y-51962857D01*
X125114285Y-52748571D02*
X125114285Y-51962857D01*
X125185714Y-51820000D01*
X125328571Y-51748571D01*
X125614285Y-51748571D01*
X125757142Y-51820000D01*
X125114285Y-52677143D02*
X125257142Y-52748571D01*
X125614285Y-52748571D01*
X125757142Y-52677143D01*
X125828571Y-52534286D01*
X125828571Y-52391429D01*
X125757142Y-52248571D01*
X125614285Y-52177143D01*
X125257142Y-52177143D01*
X125114285Y-52105714D01*
X124614285Y-51748571D02*
X124042856Y-51748571D01*
X124399999Y-51248571D02*
X124399999Y-52534286D01*
X124328571Y-52677143D01*
X124185713Y-52748571D01*
X124042856Y-52748571D01*
X123757142Y-51748571D02*
X123185713Y-51748571D01*
X123542856Y-51248571D02*
X123542856Y-52534286D01*
X123471428Y-52677143D01*
X123328570Y-52748571D01*
X123185713Y-52748571D01*
X122114285Y-52677143D02*
X122257142Y-52748571D01*
X122542856Y-52748571D01*
X122685713Y-52677143D01*
X122757142Y-52534286D01*
X122757142Y-51962857D01*
X122685713Y-51820000D01*
X122542856Y-51748571D01*
X122257142Y-51748571D01*
X122114285Y-51820000D01*
X122042856Y-51962857D01*
X122042856Y-52105714D01*
X122757142Y-52248571D01*
X121399999Y-52748571D02*
X121399999Y-51748571D01*
X121399999Y-52034286D02*
X121328571Y-51891429D01*
X121257142Y-51820000D01*
X121114285Y-51748571D01*
X120971428Y-51748571D01*
X120614285Y-51748571D02*
X120257142Y-52748571D01*
X119900000Y-51748571D02*
X120257142Y-52748571D01*
X120400000Y-53105714D01*
X120471428Y-53177143D01*
X120614285Y-53248571D01*
X118328571Y-51248571D02*
X117400000Y-51248571D01*
X117900000Y-51820000D01*
X117685714Y-51820000D01*
X117542857Y-51891429D01*
X117471428Y-51962857D01*
X117400000Y-52105714D01*
X117400000Y-52462857D01*
X117471428Y-52605714D01*
X117542857Y-52677143D01*
X117685714Y-52748571D01*
X118114286Y-52748571D01*
X118257143Y-52677143D01*
X118328571Y-52605714D01*
X116757143Y-52605714D02*
X116685715Y-52677143D01*
X116757143Y-52748571D01*
X116828572Y-52677143D01*
X116757143Y-52605714D01*
X116757143Y-52748571D01*
X116185714Y-51248571D02*
X115185714Y-51248571D01*
X115828571Y-52748571D01*
X114828572Y-51248571D02*
X114328572Y-52748571D01*
X113828572Y-51248571D01*
D12*
X116750000Y-75535714D02*
X116821429Y-75607143D01*
X117035715Y-75678571D01*
X117178572Y-75678571D01*
X117392857Y-75607143D01*
X117535715Y-75464286D01*
X117607143Y-75321429D01*
X117678572Y-75035714D01*
X117678572Y-74821429D01*
X117607143Y-74535714D01*
X117535715Y-74392857D01*
X117392857Y-74250000D01*
X117178572Y-74178571D01*
X117035715Y-74178571D01*
X116821429Y-74250000D01*
X116750000Y-74321429D01*
X115464286Y-75678571D02*
X115464286Y-74892857D01*
X115535715Y-74750000D01*
X115678572Y-74678571D01*
X115964286Y-74678571D01*
X116107143Y-74750000D01*
X115464286Y-75607143D02*
X115607143Y-75678571D01*
X115964286Y-75678571D01*
X116107143Y-75607143D01*
X116178572Y-75464286D01*
X116178572Y-75321429D01*
X116107143Y-75178571D01*
X115964286Y-75107143D01*
X115607143Y-75107143D01*
X115464286Y-75035714D01*
X114750000Y-74678571D02*
X114750000Y-76178571D01*
X114750000Y-74750000D02*
X114607143Y-74678571D01*
X114321429Y-74678571D01*
X114178572Y-74750000D01*
X114107143Y-74821429D01*
X114035714Y-74964286D01*
X114035714Y-75392857D01*
X114107143Y-75535714D01*
X114178572Y-75607143D01*
X114321429Y-75678571D01*
X114607143Y-75678571D01*
X114750000Y-75607143D01*
X113607143Y-74178571D02*
X112750000Y-74178571D01*
X113178571Y-75678571D02*
X113178571Y-74178571D01*
X112250000Y-75678571D02*
X112250000Y-74178571D01*
X111607143Y-75678571D02*
X111607143Y-74892857D01*
X111678572Y-74750000D01*
X111821429Y-74678571D01*
X112035714Y-74678571D01*
X112178572Y-74750000D01*
X112250000Y-74821429D01*
X110250000Y-74678571D02*
X110250000Y-75678571D01*
X110892857Y-74678571D02*
X110892857Y-75464286D01*
X110821429Y-75607143D01*
X110678571Y-75678571D01*
X110464286Y-75678571D01*
X110321429Y-75607143D01*
X110250000Y-75535714D01*
X109535714Y-75678571D02*
X109535714Y-74678571D01*
X109535714Y-74821429D02*
X109464286Y-74750000D01*
X109321428Y-74678571D01*
X109107143Y-74678571D01*
X108964286Y-74750000D01*
X108892857Y-74892857D01*
X108892857Y-75678571D01*
X108892857Y-74892857D02*
X108821428Y-74750000D01*
X108678571Y-74678571D01*
X108464286Y-74678571D01*
X108321428Y-74750000D01*
X108250000Y-74892857D01*
X108250000Y-75678571D01*
X107535714Y-75678571D02*
X107535714Y-74178571D01*
X107535714Y-74750000D02*
X107392857Y-74678571D01*
X107107143Y-74678571D01*
X106964286Y-74750000D01*
X106892857Y-74821429D01*
X106821428Y-74964286D01*
X106821428Y-75392857D01*
X106892857Y-75535714D01*
X106964286Y-75607143D01*
X107107143Y-75678571D01*
X107392857Y-75678571D01*
X107535714Y-75607143D01*
X105929285Y-79275714D02*
X106000714Y-79347143D01*
X106215000Y-79418571D01*
X106357857Y-79418571D01*
X106572142Y-79347143D01*
X106715000Y-79204286D01*
X106786428Y-79061429D01*
X106857857Y-78775714D01*
X106857857Y-78561429D01*
X106786428Y-78275714D01*
X106715000Y-78132857D01*
X106572142Y-77990000D01*
X106357857Y-77918571D01*
X106215000Y-77918571D01*
X106000714Y-77990000D01*
X105929285Y-78061429D01*
X104643571Y-79418571D02*
X104643571Y-78632857D01*
X104715000Y-78490000D01*
X104857857Y-78418571D01*
X105143571Y-78418571D01*
X105286428Y-78490000D01*
X104643571Y-79347143D02*
X104786428Y-79418571D01*
X105143571Y-79418571D01*
X105286428Y-79347143D01*
X105357857Y-79204286D01*
X105357857Y-79061429D01*
X105286428Y-78918571D01*
X105143571Y-78847143D01*
X104786428Y-78847143D01*
X104643571Y-78775714D01*
X103929285Y-78418571D02*
X103929285Y-79918571D01*
X103929285Y-78490000D02*
X103786428Y-78418571D01*
X103500714Y-78418571D01*
X103357857Y-78490000D01*
X103286428Y-78561429D01*
X103214999Y-78704286D01*
X103214999Y-79132857D01*
X103286428Y-79275714D01*
X103357857Y-79347143D01*
X103500714Y-79418571D01*
X103786428Y-79418571D01*
X103929285Y-79347143D01*
X102072142Y-78632857D02*
X102572142Y-78632857D01*
X102572142Y-79418571D02*
X102572142Y-77918571D01*
X101857856Y-77918571D01*
X101286428Y-79418571D02*
X101286428Y-78418571D01*
X101286428Y-77918571D02*
X101357857Y-77990000D01*
X101286428Y-78061429D01*
X101215000Y-77990000D01*
X101286428Y-77918571D01*
X101286428Y-78061429D01*
X100572142Y-78418571D02*
X100572142Y-79418571D01*
X100572142Y-78561429D02*
X100500714Y-78490000D01*
X100357856Y-78418571D01*
X100143571Y-78418571D01*
X100000714Y-78490000D01*
X99929285Y-78632857D01*
X99929285Y-79418571D01*
X98572142Y-78418571D02*
X98572142Y-79632857D01*
X98643571Y-79775714D01*
X98714999Y-79847143D01*
X98857856Y-79918571D01*
X99072142Y-79918571D01*
X99214999Y-79847143D01*
X98572142Y-79347143D02*
X98714999Y-79418571D01*
X99000713Y-79418571D01*
X99143571Y-79347143D01*
X99214999Y-79275714D01*
X99286428Y-79132857D01*
X99286428Y-78704286D01*
X99214999Y-78561429D01*
X99143571Y-78490000D01*
X99000713Y-78418571D01*
X98714999Y-78418571D01*
X98572142Y-78490000D01*
X97286428Y-79347143D02*
X97429285Y-79418571D01*
X97714999Y-79418571D01*
X97857856Y-79347143D01*
X97929285Y-79204286D01*
X97929285Y-78632857D01*
X97857856Y-78490000D01*
X97714999Y-78418571D01*
X97429285Y-78418571D01*
X97286428Y-78490000D01*
X97214999Y-78632857D01*
X97214999Y-78775714D01*
X97929285Y-78918571D01*
X96572142Y-79418571D02*
X96572142Y-78418571D01*
X96572142Y-78704286D02*
X96500714Y-78561429D01*
X96429285Y-78490000D01*
X96286428Y-78418571D01*
X96143571Y-78418571D01*
X95715000Y-79347143D02*
X95572143Y-79418571D01*
X95286428Y-79418571D01*
X95143571Y-79347143D01*
X95072143Y-79204286D01*
X95072143Y-79132857D01*
X95143571Y-78990000D01*
X95286428Y-78918571D01*
X95500714Y-78918571D01*
X95643571Y-78847143D01*
X95715000Y-78704286D01*
X95715000Y-78632857D01*
X95643571Y-78490000D01*
X95500714Y-78418571D01*
X95286428Y-78418571D01*
X95143571Y-78490000D01*
M02*
