G04 #@! TF.FileFunction,Soldermask,Top*
%FSLAX46Y46*%
G04 Gerber Fmt 4.6, Leading zero omitted, Abs format (unit mm)*
G04 Created by KiCad (PCBNEW (2015-05-13 BZR 5653)-product) date Tue 26 May 2015 04:41:06 PM CEST*
%MOMM*%
G01*
G04 APERTURE LIST*
%ADD10C,0.100000*%
%ADD11C,1.800000*%
%ADD12R,2.032000X1.727200*%
%ADD13O,2.032000X1.727200*%
%ADD14R,2.400300X3.500120*%
%ADD15C,1.600000*%
%ADD16R,1.000000X1.600000*%
%ADD17C,6.000000*%
%ADD18R,1.727200X2.032000*%
%ADD19O,1.727200X2.032000*%
G04 APERTURE END LIST*
D10*
D11*
X71120000Y-55880000D03*
X71120000Y-58420000D03*
X71120000Y-60960000D03*
X71120000Y-63500000D03*
X71120000Y-66040000D03*
X71120000Y-68580000D03*
X71120000Y-71120000D03*
X71120000Y-73660000D03*
X71120000Y-76200000D03*
X71120000Y-78740000D03*
X71120000Y-81280000D03*
X71120000Y-83820000D03*
X71120000Y-86360000D03*
X71120000Y-88900000D03*
X71120000Y-91440000D03*
X71120000Y-93980000D03*
X71120000Y-96520000D03*
X71120000Y-99060000D03*
X71120000Y-101600000D03*
X71120000Y-104140000D03*
X71120000Y-106680000D03*
X71120000Y-109220000D03*
X91440000Y-109220000D03*
X91440000Y-106680000D03*
X91440000Y-104140000D03*
X91440000Y-101600000D03*
X91440000Y-99060000D03*
X91440000Y-96520000D03*
X91440000Y-93980000D03*
X91440000Y-91440000D03*
X91440000Y-88900000D03*
X91440000Y-86360000D03*
X91440000Y-83820000D03*
X91440000Y-81280000D03*
X91440000Y-78740000D03*
X91440000Y-76200000D03*
X91440000Y-73660000D03*
X91440000Y-68580000D03*
X91440000Y-66040000D03*
X91440000Y-63500000D03*
X91440000Y-60960000D03*
X91440000Y-58420000D03*
X91440000Y-55880000D03*
X91440000Y-71120000D03*
X85090000Y-54610000D03*
X82550000Y-54610000D03*
X80010000Y-54610000D03*
X77470000Y-54610000D03*
D12*
X171500000Y-78000000D03*
D13*
X171500000Y-80540000D03*
X171500000Y-83080000D03*
X171500000Y-85620000D03*
D14*
X125730000Y-60401200D03*
X125730000Y-53898800D03*
D11*
X120650000Y-95250000D03*
X123190000Y-95250000D03*
X125730000Y-95250000D03*
X128270000Y-95250000D03*
X130810000Y-95250000D03*
X133350000Y-95250000D03*
X135890000Y-95250000D03*
X138430000Y-95250000D03*
X140970000Y-95250000D03*
X143510000Y-95250000D03*
X146050000Y-95250000D03*
X148590000Y-95250000D03*
X151130000Y-95250000D03*
X153670000Y-95250000D03*
X156210000Y-95250000D03*
X158750000Y-95250000D03*
X161290000Y-95250000D03*
X163830000Y-95250000D03*
X163830000Y-67310000D03*
X161290000Y-67310000D03*
X158750000Y-67310000D03*
X156210000Y-67310000D03*
X153670000Y-67310000D03*
X151130000Y-67310000D03*
X148590000Y-67310000D03*
X146050000Y-67310000D03*
X143510000Y-67310000D03*
X140970000Y-67310000D03*
X138430000Y-67310000D03*
X135890000Y-67310000D03*
X133350000Y-67310000D03*
X130810000Y-67310000D03*
X128270000Y-67310000D03*
X125730000Y-67310000D03*
X123190000Y-67310000D03*
X120650000Y-67310000D03*
D15*
X118500000Y-58000000D03*
X118500000Y-56000000D03*
D11*
X111080000Y-107540000D03*
X111080000Y-105000000D03*
X111080000Y-102460000D03*
X100920000Y-102460000D03*
X100920000Y-105000000D03*
X100920000Y-107540000D03*
D16*
X104300000Y-107500000D03*
X107700000Y-107500000D03*
X107700000Y-102500000D03*
X104300000Y-102500000D03*
D11*
X111080000Y-60540000D03*
X111080000Y-58000000D03*
X111080000Y-55460000D03*
X100920000Y-55460000D03*
X100920000Y-58000000D03*
X100920000Y-60540000D03*
D16*
X104300000Y-60500000D03*
X107700000Y-60500000D03*
X107700000Y-55500000D03*
X104300000Y-55500000D03*
D11*
X174080000Y-60540000D03*
X174080000Y-58000000D03*
X174080000Y-55460000D03*
X163920000Y-55460000D03*
X163920000Y-58000000D03*
X163920000Y-60540000D03*
D16*
X167300000Y-60500000D03*
X170700000Y-60500000D03*
X170700000Y-55500000D03*
X167300000Y-55500000D03*
D11*
X174080000Y-107540000D03*
X174080000Y-105000000D03*
X174080000Y-102460000D03*
X163920000Y-102460000D03*
X163920000Y-105000000D03*
X163920000Y-107540000D03*
D16*
X167300000Y-107500000D03*
X170700000Y-107500000D03*
X170700000Y-102500000D03*
X167300000Y-102500000D03*
D17*
X89000000Y-37500000D03*
X154000000Y-37500000D03*
X89000000Y-125500000D03*
X154000000Y-125500000D03*
D18*
X86360000Y-101600000D03*
D19*
X83820000Y-101600000D03*
X81280000Y-101600000D03*
X78740000Y-101600000D03*
X76200000Y-101600000D03*
M02*
