M48
METRIC,TZ
T1C0.400
T2C0.800
T3C1.000
T4C1.016
T5C4.000
%
G90
G05
T1
X117475Y-68580
X167640Y-95250
X170180Y-92710
T2
X118500Y-56000
X118500Y-58000
T3
X71120Y-55880
X71120Y-58420
X71120Y-60960
X71120Y-63500
X71120Y-66040
X71120Y-68580
X71120Y-71120
X71120Y-73660
X71120Y-76200
X71120Y-78740
X71120Y-81280
X71120Y-83820
X71120Y-86360
X71120Y-88900
X71120Y-91440
X71120Y-93980
X71120Y-96520
X71120Y-99060
X71120Y-101600
X71120Y-104140
X71120Y-106680
X71120Y-109220
X77470Y-54610
X80010Y-54610
X82550Y-54610
X85090Y-54610
X91440Y-55880
X91440Y-58420
X91440Y-60960
X91440Y-63500
X91440Y-66040
X91440Y-68580
X91440Y-71120
X91440Y-73660
X91440Y-76200
X91440Y-78740
X91440Y-81280
X91440Y-83820
X91440Y-86360
X91440Y-88900
X91440Y-91440
X91440Y-93980
X91440Y-96520
X91440Y-99060
X91440Y-101600
X91440Y-104140
X91440Y-106680
X91440Y-109220
X100920Y-55460
X100920Y-58000
X100920Y-60540
X100920Y-102460
X100920Y-105000
X100920Y-107540
X111080Y-55460
X111080Y-58000
X111080Y-60540
X111080Y-102460
X111080Y-105000
X111080Y-107540
X120650Y-67310
X120650Y-95250
X123190Y-67310
X123190Y-95250
X125730Y-67310
X125730Y-95250
X128270Y-67310
X128270Y-95250
X130810Y-67310
X130810Y-95250
X133350Y-67310
X133350Y-95250
X135890Y-67310
X135890Y-95250
X138430Y-67310
X138430Y-95250
X140970Y-67310
X140970Y-95250
X143510Y-67310
X143510Y-95250
X146050Y-67310
X146050Y-95250
X148590Y-67310
X148590Y-95250
X151130Y-67310
X151130Y-95250
X153670Y-67310
X153670Y-95250
X156210Y-67310
X156210Y-95250
X158750Y-67310
X158750Y-95250
X161290Y-67310
X161290Y-95250
X163830Y-67310
X163830Y-95250
X163920Y-55460
X163920Y-58000
X163920Y-60540
X163920Y-102460
X163920Y-105000
X163920Y-107540
X174080Y-55460
X174080Y-58000
X174080Y-60540
X174080Y-102460
X174080Y-105000
X174080Y-107540
T4
X76200Y-101600
X78740Y-101600
X81280Y-101600
X83820Y-101600
X86360Y-101600
X171500Y-78000
X171500Y-80540
X171500Y-83080
X171500Y-85620
T5
X89000Y-37500
X89000Y-125500
X154000Y-37500
X154000Y-125500
T0
M30
