G04 #@! TF.FileFunction,Soldermask,Bot*
%FSLAX46Y46*%
G04 Gerber Fmt 4.6, Leading zero omitted, Abs format (unit mm)*
G04 Created by KiCad (PCBNEW (2015-05-13 BZR 5653)-product) date Tue 26 May 2015 04:41:06 PM CEST*
%MOMM*%
G01*
G04 APERTURE LIST*
%ADD10C,0.100000*%
%ADD11C,1.800000*%
%ADD12R,1.600000X1.000000*%
%ADD13R,2.032000X1.727200*%
%ADD14O,2.032000X1.727200*%
%ADD15R,0.900000X1.700000*%
%ADD16C,1.600000*%
%ADD17R,1.500000X4.000000*%
%ADD18R,4.000000X1.500000*%
%ADD19C,6.000000*%
%ADD20R,1.727200X2.032000*%
%ADD21O,1.727200X2.032000*%
G04 APERTURE END LIST*
D10*
D11*
X71120000Y-55880000D03*
X71120000Y-58420000D03*
X71120000Y-60960000D03*
X71120000Y-63500000D03*
X71120000Y-66040000D03*
X71120000Y-68580000D03*
X71120000Y-71120000D03*
X71120000Y-73660000D03*
X71120000Y-76200000D03*
X71120000Y-78740000D03*
X71120000Y-81280000D03*
X71120000Y-83820000D03*
X71120000Y-86360000D03*
X71120000Y-88900000D03*
X71120000Y-91440000D03*
X71120000Y-93980000D03*
X71120000Y-96520000D03*
X71120000Y-99060000D03*
X71120000Y-101600000D03*
X71120000Y-104140000D03*
X71120000Y-106680000D03*
X71120000Y-109220000D03*
X91440000Y-109220000D03*
X91440000Y-106680000D03*
X91440000Y-104140000D03*
X91440000Y-101600000D03*
X91440000Y-99060000D03*
X91440000Y-96520000D03*
X91440000Y-93980000D03*
X91440000Y-91440000D03*
X91440000Y-88900000D03*
X91440000Y-86360000D03*
X91440000Y-83820000D03*
X91440000Y-81280000D03*
X91440000Y-78740000D03*
X91440000Y-76200000D03*
X91440000Y-73660000D03*
X91440000Y-68580000D03*
X91440000Y-66040000D03*
X91440000Y-63500000D03*
X91440000Y-60960000D03*
X91440000Y-58420000D03*
X91440000Y-55880000D03*
X91440000Y-71120000D03*
X85090000Y-54610000D03*
X82550000Y-54610000D03*
X80010000Y-54610000D03*
X77470000Y-54610000D03*
D12*
X169000000Y-61000000D03*
X169000000Y-58000000D03*
X106000000Y-61000000D03*
X106000000Y-58000000D03*
X106000000Y-108000000D03*
X106000000Y-105000000D03*
X169000000Y-108000000D03*
X169000000Y-105000000D03*
D13*
X171500000Y-78000000D03*
D14*
X171500000Y-80540000D03*
X171500000Y-83080000D03*
X171500000Y-85620000D03*
D15*
X96975000Y-81280000D03*
X99875000Y-81280000D03*
X96975000Y-84455000D03*
X99875000Y-84455000D03*
X96975000Y-87630000D03*
X99875000Y-87630000D03*
X96975000Y-90805000D03*
X99875000Y-90805000D03*
X96975000Y-93980000D03*
X99875000Y-93980000D03*
X96975000Y-97155000D03*
X99875000Y-97155000D03*
X170360000Y-67310000D03*
X167460000Y-67310000D03*
D11*
X120650000Y-95250000D03*
X123190000Y-95250000D03*
X125730000Y-95250000D03*
X128270000Y-95250000D03*
X130810000Y-95250000D03*
X133350000Y-95250000D03*
X135890000Y-95250000D03*
X138430000Y-95250000D03*
X140970000Y-95250000D03*
X143510000Y-95250000D03*
X146050000Y-95250000D03*
X148590000Y-95250000D03*
X151130000Y-95250000D03*
X153670000Y-95250000D03*
X156210000Y-95250000D03*
X158750000Y-95250000D03*
X161290000Y-95250000D03*
X163830000Y-95250000D03*
X163830000Y-67310000D03*
X161290000Y-67310000D03*
X158750000Y-67310000D03*
X156210000Y-67310000D03*
X153670000Y-67310000D03*
X151130000Y-67310000D03*
X148590000Y-67310000D03*
X146050000Y-67310000D03*
X143510000Y-67310000D03*
X140970000Y-67310000D03*
X138430000Y-67310000D03*
X135890000Y-67310000D03*
X133350000Y-67310000D03*
X130810000Y-67310000D03*
X128270000Y-67310000D03*
X125730000Y-67310000D03*
X123190000Y-67310000D03*
X120650000Y-67310000D03*
D16*
X118500000Y-58000000D03*
X118500000Y-56000000D03*
D17*
X110490000Y-71374000D03*
X113030000Y-71374000D03*
X111760000Y-66294000D03*
X114300000Y-66294000D03*
D18*
X103251000Y-75819000D03*
X103251000Y-73279000D03*
X98171000Y-74549000D03*
X98171000Y-72009000D03*
X103251000Y-70739000D03*
X98171000Y-69469000D03*
X103251000Y-68199000D03*
X98171000Y-66929000D03*
D11*
X111080000Y-107540000D03*
X111080000Y-105000000D03*
X111080000Y-102460000D03*
X100920000Y-102460000D03*
X100920000Y-105000000D03*
X100920000Y-107540000D03*
X111080000Y-60540000D03*
X111080000Y-58000000D03*
X111080000Y-55460000D03*
X100920000Y-55460000D03*
X100920000Y-58000000D03*
X100920000Y-60540000D03*
X174080000Y-60540000D03*
X174080000Y-58000000D03*
X174080000Y-55460000D03*
X163920000Y-55460000D03*
X163920000Y-58000000D03*
X163920000Y-60540000D03*
X174080000Y-107540000D03*
X174080000Y-105000000D03*
X174080000Y-102460000D03*
X163920000Y-102460000D03*
X163920000Y-105000000D03*
X163920000Y-107540000D03*
D19*
X89000000Y-37500000D03*
X154000000Y-37500000D03*
X89000000Y-125500000D03*
X154000000Y-125500000D03*
D20*
X86360000Y-101600000D03*
D21*
X83820000Y-101600000D03*
X81280000Y-101600000D03*
X78740000Y-101600000D03*
X76200000Y-101600000D03*
M02*
