G04 #@! TF.FileFunction,Legend,Top*
%FSLAX46Y46*%
G04 Gerber Fmt 4.6, Leading zero omitted, Abs format (unit mm)*
G04 Created by KiCad (PCBNEW (2015-05-13 BZR 5653)-product) date Tue 26 May 2015 04:41:06 PM CEST*
%MOMM*%
G01*
G04 APERTURE LIST*
%ADD10C,0.100000*%
%ADD11C,0.200000*%
%ADD12C,0.300000*%
%ADD13C,0.150000*%
%ADD14C,0.250000*%
G04 APERTURE END LIST*
D10*
D11*
X86845714Y-99466429D02*
X86902857Y-99295000D01*
X86902857Y-99009286D01*
X86845714Y-98895000D01*
X86788571Y-98837857D01*
X86674286Y-98780714D01*
X86560000Y-98780714D01*
X86445714Y-98837857D01*
X86388571Y-98895000D01*
X86331429Y-99009286D01*
X86274286Y-99237857D01*
X86217143Y-99352143D01*
X86160000Y-99409286D01*
X86045714Y-99466429D01*
X85931429Y-99466429D01*
X85817143Y-99409286D01*
X85760000Y-99352143D01*
X85702857Y-99237857D01*
X85702857Y-98952143D01*
X85760000Y-98780714D01*
X85702857Y-98380714D02*
X86902857Y-98095000D01*
X86045714Y-97866429D01*
X86902857Y-97637857D01*
X85702857Y-97352143D01*
X86902857Y-96895000D02*
X85702857Y-96895000D01*
X85702857Y-96609285D01*
X85760000Y-96437857D01*
X85874286Y-96323571D01*
X85988571Y-96266428D01*
X86217143Y-96209285D01*
X86388571Y-96209285D01*
X86617143Y-96266428D01*
X86731429Y-96323571D01*
X86845714Y-96437857D01*
X86902857Y-96609285D01*
X86902857Y-96895000D01*
X86902857Y-95695000D02*
X85702857Y-95695000D01*
X85702857Y-94894999D02*
X85702857Y-94666428D01*
X85760000Y-94552142D01*
X85874286Y-94437856D01*
X86102857Y-94380714D01*
X86502857Y-94380714D01*
X86731429Y-94437856D01*
X86845714Y-94552142D01*
X86902857Y-94666428D01*
X86902857Y-94894999D01*
X86845714Y-95009285D01*
X86731429Y-95123571D01*
X86502857Y-95180714D01*
X86102857Y-95180714D01*
X85874286Y-95123571D01*
X85760000Y-95009285D01*
X85702857Y-94894999D01*
X84305714Y-99466429D02*
X84362857Y-99295000D01*
X84362857Y-99009286D01*
X84305714Y-98895000D01*
X84248571Y-98837857D01*
X84134286Y-98780714D01*
X84020000Y-98780714D01*
X83905714Y-98837857D01*
X83848571Y-98895000D01*
X83791429Y-99009286D01*
X83734286Y-99237857D01*
X83677143Y-99352143D01*
X83620000Y-99409286D01*
X83505714Y-99466429D01*
X83391429Y-99466429D01*
X83277143Y-99409286D01*
X83220000Y-99352143D01*
X83162857Y-99237857D01*
X83162857Y-98952143D01*
X83220000Y-98780714D01*
X83162857Y-98380714D02*
X84362857Y-98095000D01*
X83505714Y-97866429D01*
X84362857Y-97637857D01*
X83162857Y-97352143D01*
X84362857Y-96895000D02*
X83162857Y-96895000D01*
X83162857Y-96609285D01*
X83220000Y-96437857D01*
X83334286Y-96323571D01*
X83448571Y-96266428D01*
X83677143Y-96209285D01*
X83848571Y-96209285D01*
X84077143Y-96266428D01*
X84191429Y-96323571D01*
X84305714Y-96437857D01*
X84362857Y-96609285D01*
X84362857Y-96895000D01*
X84248571Y-95009285D02*
X84305714Y-95066428D01*
X84362857Y-95237857D01*
X84362857Y-95352143D01*
X84305714Y-95523571D01*
X84191429Y-95637857D01*
X84077143Y-95695000D01*
X83848571Y-95752143D01*
X83677143Y-95752143D01*
X83448571Y-95695000D01*
X83334286Y-95637857D01*
X83220000Y-95523571D01*
X83162857Y-95352143D01*
X83162857Y-95237857D01*
X83220000Y-95066428D01*
X83277143Y-95009285D01*
X84362857Y-93923571D02*
X84362857Y-94495000D01*
X83162857Y-94495000D01*
X84362857Y-93523571D02*
X83162857Y-93523571D01*
X84362857Y-92837856D02*
X83677143Y-93352142D01*
X83162857Y-92837856D02*
X83848571Y-93523571D01*
X81822857Y-98723571D02*
X81251429Y-99123571D01*
X81822857Y-99409286D02*
X80622857Y-99409286D01*
X80622857Y-98952143D01*
X80680000Y-98837857D01*
X80737143Y-98780714D01*
X80851429Y-98723571D01*
X81022857Y-98723571D01*
X81137143Y-98780714D01*
X81194286Y-98837857D01*
X81251429Y-98952143D01*
X81251429Y-99409286D01*
X81765714Y-97752143D02*
X81822857Y-97866429D01*
X81822857Y-98095000D01*
X81765714Y-98209286D01*
X81651429Y-98266429D01*
X81194286Y-98266429D01*
X81080000Y-98209286D01*
X81022857Y-98095000D01*
X81022857Y-97866429D01*
X81080000Y-97752143D01*
X81194286Y-97695000D01*
X81308571Y-97695000D01*
X81422857Y-98266429D01*
X81765714Y-97237858D02*
X81822857Y-97123572D01*
X81822857Y-96895000D01*
X81765714Y-96780715D01*
X81651429Y-96723572D01*
X81594286Y-96723572D01*
X81480000Y-96780715D01*
X81422857Y-96895000D01*
X81422857Y-97066429D01*
X81365714Y-97180715D01*
X81251429Y-97237858D01*
X81194286Y-97237858D01*
X81080000Y-97180715D01*
X81022857Y-97066429D01*
X81022857Y-96895000D01*
X81080000Y-96780715D01*
X81765714Y-95752143D02*
X81822857Y-95866429D01*
X81822857Y-96095000D01*
X81765714Y-96209286D01*
X81651429Y-96266429D01*
X81194286Y-96266429D01*
X81080000Y-96209286D01*
X81022857Y-96095000D01*
X81022857Y-95866429D01*
X81080000Y-95752143D01*
X81194286Y-95695000D01*
X81308571Y-95695000D01*
X81422857Y-96266429D01*
X81022857Y-95352143D02*
X81022857Y-94895000D01*
X80622857Y-95180715D02*
X81651429Y-95180715D01*
X81765714Y-95123572D01*
X81822857Y-95009286D01*
X81822857Y-94895000D01*
X76742857Y-99409286D02*
X75542857Y-99409286D01*
X75542857Y-98952143D01*
X75600000Y-98837857D01*
X75657143Y-98780714D01*
X75771429Y-98723571D01*
X75942857Y-98723571D01*
X76057143Y-98780714D01*
X76114286Y-98837857D01*
X76171429Y-98952143D01*
X76171429Y-99409286D01*
X75942857Y-97695000D02*
X76742857Y-97695000D01*
X75485714Y-97980714D02*
X76342857Y-98266429D01*
X76342857Y-97523571D01*
X75542857Y-97237857D02*
X76742857Y-96837857D01*
X75542857Y-96437857D01*
X76742857Y-96037858D02*
X75542857Y-96037858D01*
X75542857Y-95752143D01*
X75600000Y-95580715D01*
X75714286Y-95466429D01*
X75828571Y-95409286D01*
X76057143Y-95352143D01*
X76228571Y-95352143D01*
X76457143Y-95409286D01*
X76571429Y-95466429D01*
X76685714Y-95580715D01*
X76742857Y-95752143D01*
X76742857Y-96037858D01*
X76742857Y-94837858D02*
X75542857Y-94837858D01*
X75542857Y-94552143D01*
X75600000Y-94380715D01*
X75714286Y-94266429D01*
X75828571Y-94209286D01*
X76057143Y-94152143D01*
X76228571Y-94152143D01*
X76457143Y-94209286D01*
X76571429Y-94266429D01*
X76685714Y-94380715D01*
X76742857Y-94552143D01*
X76742857Y-94837858D01*
X78140000Y-98780714D02*
X78082857Y-98895000D01*
X78082857Y-99066429D01*
X78140000Y-99237857D01*
X78254286Y-99352143D01*
X78368571Y-99409286D01*
X78597143Y-99466429D01*
X78768571Y-99466429D01*
X78997143Y-99409286D01*
X79111429Y-99352143D01*
X79225714Y-99237857D01*
X79282857Y-99066429D01*
X79282857Y-98952143D01*
X79225714Y-98780714D01*
X79168571Y-98723571D01*
X78768571Y-98723571D01*
X78768571Y-98952143D01*
X79282857Y-98209286D02*
X78082857Y-98209286D01*
X79282857Y-97523571D01*
X78082857Y-97523571D01*
X79282857Y-96952143D02*
X78082857Y-96952143D01*
X78082857Y-96666428D01*
X78140000Y-96495000D01*
X78254286Y-96380714D01*
X78368571Y-96323571D01*
X78597143Y-96266428D01*
X78768571Y-96266428D01*
X78997143Y-96323571D01*
X79111429Y-96380714D01*
X79225714Y-96495000D01*
X79282857Y-96666428D01*
X79282857Y-96952143D01*
X174425001Y-78647857D02*
X174025001Y-78076429D01*
X173739286Y-78647857D02*
X173739286Y-77447857D01*
X174196429Y-77447857D01*
X174310715Y-77505000D01*
X174367858Y-77562143D01*
X174425001Y-77676429D01*
X174425001Y-77847857D01*
X174367858Y-77962143D01*
X174310715Y-78019286D01*
X174196429Y-78076429D01*
X173739286Y-78076429D01*
X174825001Y-77447857D02*
X175625001Y-78647857D01*
X175625001Y-77447857D02*
X174825001Y-78647857D01*
X174345715Y-85125000D02*
X174231429Y-85067857D01*
X174060000Y-85067857D01*
X173888572Y-85125000D01*
X173774286Y-85239286D01*
X173717143Y-85353571D01*
X173660000Y-85582143D01*
X173660000Y-85753571D01*
X173717143Y-85982143D01*
X173774286Y-86096429D01*
X173888572Y-86210714D01*
X174060000Y-86267857D01*
X174174286Y-86267857D01*
X174345715Y-86210714D01*
X174402858Y-86153571D01*
X174402858Y-85753571D01*
X174174286Y-85753571D01*
X174917143Y-86267857D02*
X174917143Y-85067857D01*
X175602858Y-86267857D01*
X175602858Y-85067857D01*
X176174286Y-86267857D02*
X176174286Y-85067857D01*
X176460001Y-85067857D01*
X176631429Y-85125000D01*
X176745715Y-85239286D01*
X176802858Y-85353571D01*
X176860001Y-85582143D01*
X176860001Y-85753571D01*
X176802858Y-85982143D01*
X176745715Y-86096429D01*
X176631429Y-86210714D01*
X176460001Y-86267857D01*
X176174286Y-86267857D01*
X173758571Y-83727857D02*
X173758571Y-82527857D01*
X174444286Y-83727857D01*
X174444286Y-82527857D01*
X175472857Y-83670714D02*
X175358571Y-83727857D01*
X175130000Y-83727857D01*
X175015714Y-83670714D01*
X174958571Y-83556429D01*
X174958571Y-83099286D01*
X175015714Y-82985000D01*
X175130000Y-82927857D01*
X175358571Y-82927857D01*
X175472857Y-82985000D01*
X175530000Y-83099286D01*
X175530000Y-83213571D01*
X174958571Y-83327857D01*
X176215714Y-83727857D02*
X176101428Y-83670714D01*
X176044285Y-83613571D01*
X175987142Y-83499286D01*
X175987142Y-83156429D01*
X176044285Y-83042143D01*
X176101428Y-82985000D01*
X176215714Y-82927857D01*
X176387142Y-82927857D01*
X176501428Y-82985000D01*
X176558571Y-83042143D01*
X176615714Y-83156429D01*
X176615714Y-83499286D01*
X176558571Y-83613571D01*
X176501428Y-83670714D01*
X176387142Y-83727857D01*
X176215714Y-83727857D01*
X177129999Y-83727857D02*
X177129999Y-82527857D01*
X177587142Y-82527857D01*
X177701428Y-82585000D01*
X177758571Y-82642143D01*
X177815714Y-82756429D01*
X177815714Y-82927857D01*
X177758571Y-83042143D01*
X177701428Y-83099286D01*
X177587142Y-83156429D01*
X177129999Y-83156429D01*
X178329999Y-83727857D02*
X178329999Y-82927857D01*
X178329999Y-82527857D02*
X178272856Y-82585000D01*
X178329999Y-82642143D01*
X178387142Y-82585000D01*
X178329999Y-82527857D01*
X178329999Y-82642143D01*
X178787143Y-83727857D02*
X179415714Y-82927857D01*
X178787143Y-82927857D02*
X179415714Y-83727857D01*
X173660001Y-79987857D02*
X174060001Y-81187857D01*
X174460001Y-79987857D01*
X174860000Y-81187857D02*
X174860000Y-79987857D01*
X175145715Y-79987857D01*
X175317143Y-80045000D01*
X175431429Y-80159286D01*
X175488572Y-80273571D01*
X175545715Y-80502143D01*
X175545715Y-80673571D01*
X175488572Y-80902143D01*
X175431429Y-81016429D01*
X175317143Y-81130714D01*
X175145715Y-81187857D01*
X174860000Y-81187857D01*
X176060000Y-81187857D02*
X176060000Y-79987857D01*
X176345715Y-79987857D01*
X176517143Y-80045000D01*
X176631429Y-80159286D01*
X176688572Y-80273571D01*
X176745715Y-80502143D01*
X176745715Y-80673571D01*
X176688572Y-80902143D01*
X176631429Y-81016429D01*
X176517143Y-81130714D01*
X176345715Y-81187857D01*
X176060000Y-81187857D01*
D12*
X170180000Y-75565000D02*
X172720000Y-75565000D01*
X113792143Y-57670000D02*
X113649286Y-57598571D01*
X113435000Y-57598571D01*
X113220715Y-57670000D01*
X113077857Y-57812857D01*
X113006429Y-57955714D01*
X112935000Y-58241429D01*
X112935000Y-58455714D01*
X113006429Y-58741429D01*
X113077857Y-58884286D01*
X113220715Y-59027143D01*
X113435000Y-59098571D01*
X113577857Y-59098571D01*
X113792143Y-59027143D01*
X113863572Y-58955714D01*
X113863572Y-58455714D01*
X113577857Y-58455714D01*
X114506429Y-59098571D02*
X114506429Y-57598571D01*
X115363572Y-59098571D01*
X115363572Y-57598571D01*
X116077858Y-59098571D02*
X116077858Y-57598571D01*
X116435001Y-57598571D01*
X116649286Y-57670000D01*
X116792144Y-57812857D01*
X116863572Y-57955714D01*
X116935001Y-58241429D01*
X116935001Y-58455714D01*
X116863572Y-58741429D01*
X116792144Y-58884286D01*
X116649286Y-59027143D01*
X116435001Y-59098571D01*
X116077858Y-59098571D01*
X112935000Y-55058571D02*
X113435000Y-56558571D01*
X113935000Y-55058571D01*
X114435000Y-56558571D02*
X114435000Y-55058571D01*
X114792143Y-55058571D01*
X115006428Y-55130000D01*
X115149286Y-55272857D01*
X115220714Y-55415714D01*
X115292143Y-55701429D01*
X115292143Y-55915714D01*
X115220714Y-56201429D01*
X115149286Y-56344286D01*
X115006428Y-56487143D01*
X114792143Y-56558571D01*
X114435000Y-56558571D01*
X115935000Y-56558571D02*
X115935000Y-55058571D01*
X116292143Y-55058571D01*
X116506428Y-55130000D01*
X116649286Y-55272857D01*
X116720714Y-55415714D01*
X116792143Y-55701429D01*
X116792143Y-55915714D01*
X116720714Y-56201429D01*
X116649286Y-56344286D01*
X116506428Y-56487143D01*
X116292143Y-56558571D01*
X115935000Y-56558571D01*
D11*
X74930000Y-82550000D02*
X81280000Y-76200000D01*
X81280000Y-76200000D02*
X87630000Y-82550000D01*
X87630000Y-82550000D02*
X81280000Y-88900000D01*
X81280000Y-88900000D02*
X74930000Y-82550000D01*
X93345000Y-111125000D02*
X93345000Y-52705000D01*
X93345000Y-52705000D02*
X69215000Y-52705000D01*
X69215000Y-52705000D02*
X69215000Y-111125000D01*
X69215000Y-111125000D02*
X93345000Y-111125000D01*
D13*
X170230000Y-79270000D02*
X170230000Y-86890000D01*
X172770000Y-79270000D02*
X172770000Y-86890000D01*
X173050000Y-76450000D02*
X173050000Y-78000000D01*
X170230000Y-86890000D02*
X172770000Y-86890000D01*
X172770000Y-79270000D02*
X170230000Y-79270000D01*
X169950000Y-78000000D02*
X169950000Y-76450000D01*
X169950000Y-76450000D02*
X173050000Y-76450000D01*
X126746000Y-53340000D02*
X124714000Y-53340000D01*
X124333000Y-53467000D02*
X127127000Y-53467000D01*
X127381000Y-53594000D02*
X124079000Y-53594000D01*
X123825000Y-53721000D02*
X127635000Y-53721000D01*
X123698000Y-53848000D02*
X127762000Y-53848000D01*
X128016000Y-53975000D02*
X123444000Y-53975000D01*
X129667000Y-57150000D02*
G75*
G03X129667000Y-57150000I-3937000J0D01*
G01*
X129921000Y-52959000D02*
X121539000Y-52959000D01*
X121539000Y-52959000D02*
X121539000Y-60579000D01*
X121539000Y-60579000D02*
X122301000Y-61341000D01*
X122301000Y-61341000D02*
X129159000Y-61341000D01*
X129159000Y-61341000D02*
X129921000Y-60579000D01*
X129921000Y-60579000D02*
X129921000Y-52959000D01*
X125730000Y-60833000D02*
X125730000Y-60071000D01*
X126111000Y-60452000D02*
X125349000Y-60452000D01*
X165735000Y-97155000D02*
X165735000Y-65405000D01*
X118745000Y-65405000D02*
X118745000Y-97155000D01*
X165735000Y-65405000D02*
X118745000Y-65405000D01*
X165735000Y-97155000D02*
X118745000Y-97155000D01*
X160020000Y-72390000D02*
X160020000Y-90170000D01*
X160020000Y-90170000D02*
X138430000Y-90170000D01*
X138430000Y-90170000D02*
X138430000Y-72390000D01*
X138430000Y-72390000D02*
X160020000Y-72390000D01*
D11*
X108500000Y-105000000D02*
X106000000Y-102500000D01*
X108500000Y-107500000D02*
X103500000Y-107500000D01*
X108000000Y-102500000D02*
X108500000Y-102500000D01*
X108500000Y-107500000D02*
X108500000Y-102500000D01*
X103500000Y-107500000D02*
X103500000Y-102500000D01*
X103500000Y-102500000D02*
X108000000Y-102500000D01*
X113620000Y-102460000D02*
G75*
G03X111080000Y-99920000I-2540000J0D01*
G01*
X100920000Y-99920000D02*
G75*
G03X98380000Y-102460000I0J-2540000D01*
G01*
X98380000Y-107540000D02*
G75*
G03X100920000Y-110080000I2540000J0D01*
G01*
X111080000Y-110080000D02*
G75*
G03X113620000Y-107540000I0J2540000D01*
G01*
X100920000Y-99920000D02*
X111080000Y-99920000D01*
X98380000Y-107540000D02*
X98380000Y-102460000D01*
X111080000Y-110080000D02*
X100920000Y-110080000D01*
X113620000Y-102460000D02*
X113620000Y-107540000D01*
X108500000Y-58000000D02*
X106000000Y-55500000D01*
X108500000Y-60500000D02*
X103500000Y-60500000D01*
X108000000Y-55500000D02*
X108500000Y-55500000D01*
X108500000Y-60500000D02*
X108500000Y-55500000D01*
X103500000Y-60500000D02*
X103500000Y-55500000D01*
X103500000Y-55500000D02*
X108000000Y-55500000D01*
X113620000Y-55460000D02*
G75*
G03X111080000Y-52920000I-2540000J0D01*
G01*
X100920000Y-52920000D02*
G75*
G03X98380000Y-55460000I0J-2540000D01*
G01*
X98380000Y-60540000D02*
G75*
G03X100920000Y-63080000I2540000J0D01*
G01*
X111080000Y-63080000D02*
G75*
G03X113620000Y-60540000I0J2540000D01*
G01*
X100920000Y-52920000D02*
X111080000Y-52920000D01*
X98380000Y-60540000D02*
X98380000Y-55460000D01*
X111080000Y-63080000D02*
X100920000Y-63080000D01*
X113620000Y-55460000D02*
X113620000Y-60540000D01*
X171500000Y-58000000D02*
X169000000Y-55500000D01*
X171500000Y-60500000D02*
X166500000Y-60500000D01*
X171000000Y-55500000D02*
X171500000Y-55500000D01*
X171500000Y-60500000D02*
X171500000Y-55500000D01*
X166500000Y-60500000D02*
X166500000Y-55500000D01*
X166500000Y-55500000D02*
X171000000Y-55500000D01*
X176620000Y-55460000D02*
G75*
G03X174080000Y-52920000I-2540000J0D01*
G01*
X163920000Y-52920000D02*
G75*
G03X161380000Y-55460000I0J-2540000D01*
G01*
X161380000Y-60540000D02*
G75*
G03X163920000Y-63080000I2540000J0D01*
G01*
X174080000Y-63080000D02*
G75*
G03X176620000Y-60540000I0J2540000D01*
G01*
X163920000Y-52920000D02*
X174080000Y-52920000D01*
X161380000Y-60540000D02*
X161380000Y-55460000D01*
X174080000Y-63080000D02*
X163920000Y-63080000D01*
X176620000Y-55460000D02*
X176620000Y-60540000D01*
X171500000Y-105000000D02*
X169000000Y-102500000D01*
X171500000Y-107500000D02*
X166500000Y-107500000D01*
X171000000Y-102500000D02*
X171500000Y-102500000D01*
X171500000Y-107500000D02*
X171500000Y-102500000D01*
X166500000Y-107500000D02*
X166500000Y-102500000D01*
X166500000Y-102500000D02*
X171000000Y-102500000D01*
X176620000Y-102460000D02*
G75*
G03X174080000Y-99920000I-2540000J0D01*
G01*
X163920000Y-99920000D02*
G75*
G03X161380000Y-102460000I0J-2540000D01*
G01*
X161380000Y-107540000D02*
G75*
G03X163920000Y-110080000I2540000J0D01*
G01*
X174080000Y-110080000D02*
G75*
G03X176620000Y-107540000I0J2540000D01*
G01*
X163920000Y-99920000D02*
X174080000Y-99920000D01*
X161380000Y-107540000D02*
X161380000Y-102460000D01*
X174080000Y-110080000D02*
X163920000Y-110080000D01*
X176620000Y-102460000D02*
X176620000Y-107540000D01*
D13*
X87910000Y-100300000D02*
X86360000Y-100300000D01*
X87910000Y-101600000D02*
X87910000Y-100300000D01*
X86487000Y-105791000D02*
X86487000Y-111633000D01*
X86487000Y-111633000D02*
X86233000Y-111633000D01*
X86233000Y-111633000D02*
X86233000Y-105791000D01*
X86233000Y-105791000D02*
X86360000Y-105791000D01*
X86360000Y-105791000D02*
X86360000Y-111633000D01*
X86614000Y-103124000D02*
X86614000Y-102743000D01*
X86106000Y-103124000D02*
X86106000Y-102743000D01*
X84074000Y-103124000D02*
X84074000Y-102743000D01*
X83566000Y-103124000D02*
X83566000Y-102743000D01*
X81534000Y-103124000D02*
X81534000Y-102743000D01*
X81026000Y-103124000D02*
X81026000Y-102743000D01*
X78994000Y-103124000D02*
X78994000Y-102743000D01*
X78486000Y-103124000D02*
X78486000Y-102743000D01*
X75946000Y-103124000D02*
X75946000Y-102743000D01*
X76454000Y-103124000D02*
X76454000Y-102743000D01*
X85090000Y-105664000D02*
X87630000Y-105664000D01*
X86106000Y-111760000D02*
X86106000Y-105664000D01*
X86614000Y-111760000D02*
X86106000Y-111760000D01*
X86614000Y-105664000D02*
X86614000Y-111760000D01*
X85090000Y-103124000D02*
X85090000Y-105664000D01*
X87630000Y-103124000D02*
X85090000Y-103124000D01*
X87630000Y-103124000D02*
X87630000Y-105664000D01*
X82550000Y-103124000D02*
X82550000Y-105664000D01*
X82550000Y-103124000D02*
X80010000Y-103124000D01*
X80010000Y-103124000D02*
X80010000Y-105664000D01*
X81534000Y-105664000D02*
X81534000Y-111760000D01*
X81534000Y-111760000D02*
X81026000Y-111760000D01*
X81026000Y-111760000D02*
X81026000Y-105664000D01*
X80010000Y-105664000D02*
X82550000Y-105664000D01*
X82550000Y-105664000D02*
X85090000Y-105664000D01*
X83566000Y-111760000D02*
X83566000Y-105664000D01*
X84074000Y-111760000D02*
X83566000Y-111760000D01*
X84074000Y-105664000D02*
X84074000Y-111760000D01*
X82550000Y-103124000D02*
X82550000Y-105664000D01*
X85090000Y-103124000D02*
X82550000Y-103124000D01*
X85090000Y-103124000D02*
X85090000Y-105664000D01*
X77470000Y-103124000D02*
X77470000Y-105664000D01*
X77470000Y-103124000D02*
X74930000Y-103124000D01*
X74930000Y-103124000D02*
X74930000Y-105664000D01*
X76454000Y-105664000D02*
X76454000Y-111760000D01*
X76454000Y-111760000D02*
X75946000Y-111760000D01*
X75946000Y-111760000D02*
X75946000Y-105664000D01*
X74930000Y-105664000D02*
X77470000Y-105664000D01*
X77470000Y-105664000D02*
X80010000Y-105664000D01*
X78486000Y-111760000D02*
X78486000Y-105664000D01*
X78994000Y-111760000D02*
X78486000Y-111760000D01*
X78994000Y-105664000D02*
X78994000Y-111760000D01*
X77470000Y-103124000D02*
X77470000Y-105664000D01*
X80010000Y-103124000D02*
X77470000Y-103124000D01*
X80010000Y-103124000D02*
X80010000Y-105664000D01*
D14*
X81815714Y-89366426D02*
X81887143Y-89437855D01*
X81958571Y-89652141D01*
X81958571Y-89794998D01*
X81887143Y-90009283D01*
X81744286Y-90152141D01*
X81601429Y-90223569D01*
X81315714Y-90294998D01*
X81101429Y-90294998D01*
X80815714Y-90223569D01*
X80672857Y-90152141D01*
X80530000Y-90009283D01*
X80458571Y-89794998D01*
X80458571Y-89652141D01*
X80530000Y-89437855D01*
X80601429Y-89366426D01*
X80958571Y-88866426D02*
X81958571Y-88509283D01*
X80958571Y-88152141D02*
X81958571Y-88509283D01*
X82315714Y-88652141D01*
X82387143Y-88723569D01*
X82458571Y-88866426D01*
X80958571Y-87580712D02*
X82458571Y-87580712D01*
X81030000Y-87580712D02*
X80958571Y-87437855D01*
X80958571Y-87152141D01*
X81030000Y-87009284D01*
X81101429Y-86937855D01*
X81244286Y-86866426D01*
X81672857Y-86866426D01*
X81815714Y-86937855D01*
X81887143Y-87009284D01*
X81958571Y-87152141D01*
X81958571Y-87437855D01*
X81887143Y-87580712D01*
X81958571Y-86223569D02*
X80958571Y-86223569D01*
X81244286Y-86223569D02*
X81101429Y-86152141D01*
X81030000Y-86080712D01*
X80958571Y-85937855D01*
X80958571Y-85794998D01*
X81887143Y-84723570D02*
X81958571Y-84866427D01*
X81958571Y-85152141D01*
X81887143Y-85294998D01*
X81744286Y-85366427D01*
X81172857Y-85366427D01*
X81030000Y-85294998D01*
X80958571Y-85152141D01*
X80958571Y-84866427D01*
X81030000Y-84723570D01*
X81172857Y-84652141D01*
X81315714Y-84652141D01*
X81458571Y-85366427D01*
X81887143Y-84080713D02*
X81958571Y-83937856D01*
X81958571Y-83652141D01*
X81887143Y-83509284D01*
X81744286Y-83437856D01*
X81672857Y-83437856D01*
X81530000Y-83509284D01*
X81458571Y-83652141D01*
X81458571Y-83866427D01*
X81387143Y-84009284D01*
X81244286Y-84080713D01*
X81172857Y-84080713D01*
X81030000Y-84009284D01*
X80958571Y-83866427D01*
X80958571Y-83652141D01*
X81030000Y-83509284D01*
X81887143Y-82866427D02*
X81958571Y-82723570D01*
X81958571Y-82437855D01*
X81887143Y-82294998D01*
X81744286Y-82223570D01*
X81672857Y-82223570D01*
X81530000Y-82294998D01*
X81458571Y-82437855D01*
X81458571Y-82652141D01*
X81387143Y-82794998D01*
X81244286Y-82866427D01*
X81172857Y-82866427D01*
X81030000Y-82794998D01*
X80958571Y-82652141D01*
X80958571Y-82437855D01*
X81030000Y-82294998D01*
X81815714Y-79580712D02*
X81887143Y-79652141D01*
X81958571Y-79866427D01*
X81958571Y-80009284D01*
X81887143Y-80223569D01*
X81744286Y-80366427D01*
X81601429Y-80437855D01*
X81315714Y-80509284D01*
X81101429Y-80509284D01*
X80815714Y-80437855D01*
X80672857Y-80366427D01*
X80530000Y-80223569D01*
X80458571Y-80009284D01*
X80458571Y-79866427D01*
X80530000Y-79652141D01*
X80601429Y-79580712D01*
X81244286Y-78652141D02*
X81958571Y-78652141D01*
X80458571Y-79152141D02*
X81244286Y-78652141D01*
X80458571Y-78152141D01*
X81101429Y-77437855D02*
X81030000Y-77580713D01*
X80958571Y-77652141D01*
X80815714Y-77723570D01*
X80744286Y-77723570D01*
X80601429Y-77652141D01*
X80530000Y-77580713D01*
X80458571Y-77437855D01*
X80458571Y-77152141D01*
X80530000Y-77009284D01*
X80601429Y-76937855D01*
X80744286Y-76866427D01*
X80815714Y-76866427D01*
X80958571Y-76937855D01*
X81030000Y-77009284D01*
X81101429Y-77152141D01*
X81101429Y-77437855D01*
X81172857Y-77580713D01*
X81244286Y-77652141D01*
X81387143Y-77723570D01*
X81672857Y-77723570D01*
X81815714Y-77652141D01*
X81887143Y-77580713D01*
X81958571Y-77437855D01*
X81958571Y-77152141D01*
X81887143Y-77009284D01*
X81815714Y-76937855D01*
X81672857Y-76866427D01*
X81387143Y-76866427D01*
X81244286Y-76937855D01*
X81172857Y-77009284D01*
X81101429Y-77152141D01*
X81815714Y-75366427D02*
X81887143Y-75437856D01*
X81958571Y-75652142D01*
X81958571Y-75794999D01*
X81887143Y-76009284D01*
X81744286Y-76152142D01*
X81601429Y-76223570D01*
X81315714Y-76294999D01*
X81101429Y-76294999D01*
X80815714Y-76223570D01*
X80672857Y-76152142D01*
X80530000Y-76009284D01*
X80458571Y-75794999D01*
X80458571Y-75652142D01*
X80530000Y-75437856D01*
X80601429Y-75366427D01*
X81958571Y-74723570D02*
X80458571Y-74723570D01*
X81958571Y-73866427D02*
X81101429Y-74509284D01*
X80458571Y-73866427D02*
X81315714Y-74723570D01*
X81958571Y-73223570D02*
X80458571Y-73223570D01*
X80458571Y-72723570D02*
X80458571Y-71866427D01*
X81958571Y-72294998D02*
X80458571Y-72294998D01*
X81387143Y-71366427D02*
X81387143Y-70223570D01*
X80458571Y-69223570D02*
X80458571Y-69080713D01*
X80530000Y-68937856D01*
X80601429Y-68866427D01*
X80744286Y-68794998D01*
X81030000Y-68723570D01*
X81387143Y-68723570D01*
X81672857Y-68794998D01*
X81815714Y-68866427D01*
X81887143Y-68937856D01*
X81958571Y-69080713D01*
X81958571Y-69223570D01*
X81887143Y-69366427D01*
X81815714Y-69437856D01*
X81672857Y-69509284D01*
X81387143Y-69580713D01*
X81030000Y-69580713D01*
X80744286Y-69509284D01*
X80601429Y-69437856D01*
X80530000Y-69366427D01*
X80458571Y-69223570D01*
X80958571Y-67437856D02*
X81958571Y-67437856D01*
X80387143Y-67794999D02*
X81458571Y-68152142D01*
X81458571Y-67223570D01*
X81958571Y-66580714D02*
X81958571Y-66294999D01*
X81887143Y-66152142D01*
X81815714Y-66080714D01*
X81601429Y-65937856D01*
X81315714Y-65866428D01*
X80744286Y-65866428D01*
X80601429Y-65937856D01*
X80530000Y-66009285D01*
X80458571Y-66152142D01*
X80458571Y-66437856D01*
X80530000Y-66580714D01*
X80601429Y-66652142D01*
X80744286Y-66723571D01*
X81101429Y-66723571D01*
X81244286Y-66652142D01*
X81315714Y-66580714D01*
X81387143Y-66437856D01*
X81387143Y-66152142D01*
X81315714Y-66009285D01*
X81244286Y-65937856D01*
X81101429Y-65866428D01*
X81387143Y-65223571D02*
X81387143Y-64080714D01*
X80958571Y-62723571D02*
X81958571Y-62723571D01*
X80387143Y-63080714D02*
X81458571Y-63437857D01*
X81458571Y-62509285D01*
X80601429Y-62009286D02*
X80530000Y-61937857D01*
X80458571Y-61795000D01*
X80458571Y-61437857D01*
X80530000Y-61295000D01*
X80601429Y-61223571D01*
X80744286Y-61152143D01*
X80887143Y-61152143D01*
X81101429Y-61223571D01*
X81958571Y-62080714D01*
X81958571Y-61152143D01*
X80458571Y-60652143D02*
X81958571Y-59652143D01*
X80458571Y-59652143D02*
X81958571Y-60652143D01*
X80458571Y-59223572D02*
X81958571Y-58223572D01*
X80458571Y-58223572D02*
X81958571Y-59223572D01*
X167953571Y-86415000D02*
X167953571Y-85843571D01*
X167453571Y-86200714D02*
X168739286Y-86200714D01*
X168882143Y-86129286D01*
X168953571Y-85986428D01*
X168953571Y-85843571D01*
X168953571Y-85129285D02*
X168882143Y-85272143D01*
X168810714Y-85343571D01*
X168667857Y-85415000D01*
X168239286Y-85415000D01*
X168096429Y-85343571D01*
X168025000Y-85272143D01*
X167953571Y-85129285D01*
X167953571Y-84915000D01*
X168025000Y-84772143D01*
X168096429Y-84700714D01*
X168239286Y-84629285D01*
X168667857Y-84629285D01*
X168810714Y-84700714D01*
X168882143Y-84772143D01*
X168953571Y-84915000D01*
X168953571Y-85129285D01*
X168953571Y-82629285D02*
X168882143Y-82772143D01*
X168739286Y-82843571D01*
X167453571Y-82843571D01*
X168953571Y-81843571D02*
X168882143Y-81986429D01*
X168810714Y-82057857D01*
X168667857Y-82129286D01*
X168239286Y-82129286D01*
X168096429Y-82057857D01*
X168025000Y-81986429D01*
X167953571Y-81843571D01*
X167953571Y-81629286D01*
X168025000Y-81486429D01*
X168096429Y-81415000D01*
X168239286Y-81343571D01*
X168667857Y-81343571D01*
X168810714Y-81415000D01*
X168882143Y-81486429D01*
X168953571Y-81629286D01*
X168953571Y-81843571D01*
X167953571Y-80843571D02*
X168953571Y-80557857D01*
X168239286Y-80272143D01*
X168953571Y-79986428D01*
X167953571Y-79700714D01*
X168882143Y-78557857D02*
X168953571Y-78700714D01*
X168953571Y-78986428D01*
X168882143Y-79129285D01*
X168739286Y-79200714D01*
X168167857Y-79200714D01*
X168025000Y-79129285D01*
X167953571Y-78986428D01*
X167953571Y-78700714D01*
X168025000Y-78557857D01*
X168167857Y-78486428D01*
X168310714Y-78486428D01*
X168453571Y-79200714D01*
X168953571Y-77843571D02*
X167953571Y-77843571D01*
X168239286Y-77843571D02*
X168096429Y-77772143D01*
X168025000Y-77700714D01*
X167953571Y-77557857D01*
X167953571Y-77415000D01*
D11*
X131187857Y-58692857D02*
X131987857Y-58692857D01*
X130730714Y-58978571D02*
X131587857Y-59264286D01*
X131587857Y-58521428D01*
X130787857Y-58178571D02*
X130787857Y-57378571D01*
X131987857Y-57892857D01*
X130787857Y-56692857D02*
X130787857Y-56578572D01*
X130845000Y-56464286D01*
X130902143Y-56407143D01*
X131016429Y-56350000D01*
X131245000Y-56292857D01*
X131530714Y-56292857D01*
X131759286Y-56350000D01*
X131873571Y-56407143D01*
X131930714Y-56464286D01*
X131987857Y-56578572D01*
X131987857Y-56692857D01*
X131930714Y-56807143D01*
X131873571Y-56864286D01*
X131759286Y-56921429D01*
X131530714Y-56978572D01*
X131245000Y-56978572D01*
X131016429Y-56921429D01*
X130902143Y-56864286D01*
X130845000Y-56807143D01*
X130787857Y-56692857D01*
X131187857Y-55778572D02*
X132387857Y-55778572D01*
X131816429Y-55207143D02*
X131930714Y-55150000D01*
X131987857Y-55035715D01*
X131816429Y-55778572D02*
X131930714Y-55721429D01*
X131987857Y-55607143D01*
X131987857Y-55378572D01*
X131930714Y-55264286D01*
X131816429Y-55207143D01*
X131187857Y-55207143D01*
D14*
X143252858Y-80458571D02*
X144252858Y-81958571D01*
X144252858Y-80458571D02*
X143252858Y-81958571D01*
X144824286Y-81387143D02*
X145967143Y-81387143D01*
X146967143Y-80458571D02*
X147252857Y-80458571D01*
X147395715Y-80530000D01*
X147538572Y-80672857D01*
X147610000Y-80958571D01*
X147610000Y-81458571D01*
X147538572Y-81744286D01*
X147395715Y-81887143D01*
X147252857Y-81958571D01*
X146967143Y-81958571D01*
X146824286Y-81887143D01*
X146681429Y-81744286D01*
X146610000Y-81458571D01*
X146610000Y-80958571D01*
X146681429Y-80672857D01*
X146824286Y-80530000D01*
X146967143Y-80458571D01*
X148181429Y-81887143D02*
X148395715Y-81958571D01*
X148752858Y-81958571D01*
X148895715Y-81887143D01*
X148967144Y-81815714D01*
X149038572Y-81672857D01*
X149038572Y-81530000D01*
X148967144Y-81387143D01*
X148895715Y-81315714D01*
X148752858Y-81244286D01*
X148467144Y-81172857D01*
X148324286Y-81101429D01*
X148252858Y-81030000D01*
X148181429Y-80887143D01*
X148181429Y-80744286D01*
X148252858Y-80601429D01*
X148324286Y-80530000D01*
X148467144Y-80458571D01*
X148824286Y-80458571D01*
X149038572Y-80530000D01*
X150538572Y-81815714D02*
X150467143Y-81887143D01*
X150252857Y-81958571D01*
X150110000Y-81958571D01*
X149895715Y-81887143D01*
X149752857Y-81744286D01*
X149681429Y-81601429D01*
X149610000Y-81315714D01*
X149610000Y-81101429D01*
X149681429Y-80815714D01*
X149752857Y-80672857D01*
X149895715Y-80530000D01*
X150110000Y-80458571D01*
X150252857Y-80458571D01*
X150467143Y-80530000D01*
X150538572Y-80601429D01*
X152181429Y-80958571D02*
X152538572Y-81958571D01*
X152895714Y-80958571D01*
X154252857Y-81958571D02*
X153395714Y-81958571D01*
X153824286Y-81958571D02*
X153824286Y-80458571D01*
X153681429Y-80672857D01*
X153538571Y-80815714D01*
X153395714Y-80887143D01*
X154895714Y-81815714D02*
X154967142Y-81887143D01*
X154895714Y-81958571D01*
X154824285Y-81887143D01*
X154895714Y-81815714D01*
X154895714Y-81958571D01*
X156252857Y-80458571D02*
X155967143Y-80458571D01*
X155824286Y-80530000D01*
X155752857Y-80601429D01*
X155610000Y-80815714D01*
X155538571Y-81101429D01*
X155538571Y-81672857D01*
X155610000Y-81815714D01*
X155681428Y-81887143D01*
X155824286Y-81958571D01*
X156110000Y-81958571D01*
X156252857Y-81887143D01*
X156324286Y-81815714D01*
X156395714Y-81672857D01*
X156395714Y-81315714D01*
X156324286Y-81172857D01*
X156252857Y-81101429D01*
X156110000Y-81030000D01*
X155824286Y-81030000D01*
X155681428Y-81101429D01*
X155610000Y-81172857D01*
X155538571Y-81315714D01*
X101357143Y-112178571D02*
X101357143Y-110678571D01*
X102214286Y-112178571D01*
X102214286Y-110678571D01*
X102928572Y-111392857D02*
X103428572Y-111392857D01*
X103642858Y-112178571D02*
X102928572Y-112178571D01*
X102928572Y-110678571D01*
X103642858Y-110678571D01*
X104571429Y-110678571D02*
X104857143Y-110678571D01*
X105000001Y-110750000D01*
X105142858Y-110892857D01*
X105214286Y-111178571D01*
X105214286Y-111678571D01*
X105142858Y-111964286D01*
X105000001Y-112107143D01*
X104857143Y-112178571D01*
X104571429Y-112178571D01*
X104428572Y-112107143D01*
X104285715Y-111964286D01*
X104214286Y-111678571D01*
X104214286Y-111178571D01*
X104285715Y-110892857D01*
X104428572Y-110750000D01*
X104571429Y-110678571D01*
X105857144Y-112178571D02*
X105857144Y-110678571D01*
X106428572Y-110678571D01*
X106571430Y-110750000D01*
X106642858Y-110821429D01*
X106714287Y-110964286D01*
X106714287Y-111178571D01*
X106642858Y-111321429D01*
X106571430Y-111392857D01*
X106428572Y-111464286D01*
X105857144Y-111464286D01*
X107357144Y-112178571D02*
X107357144Y-111178571D01*
X107357144Y-110678571D02*
X107285715Y-110750000D01*
X107357144Y-110821429D01*
X107428572Y-110750000D01*
X107357144Y-110678571D01*
X107357144Y-110821429D01*
X107928573Y-112178571D02*
X108714287Y-111178571D01*
X107928573Y-111178571D02*
X108714287Y-112178571D01*
X109857144Y-112107143D02*
X109714287Y-112178571D01*
X109428573Y-112178571D01*
X109285716Y-112107143D01*
X109214287Y-111964286D01*
X109214287Y-111392857D01*
X109285716Y-111250000D01*
X109428573Y-111178571D01*
X109714287Y-111178571D01*
X109857144Y-111250000D01*
X109928573Y-111392857D01*
X109928573Y-111535714D01*
X109214287Y-111678571D01*
X110785716Y-112178571D02*
X110642858Y-112107143D01*
X110571430Y-111964286D01*
X110571430Y-110678571D01*
D11*
X101402143Y-52113571D02*
X101402143Y-50613571D01*
X102259286Y-52113571D01*
X102259286Y-50613571D01*
X102973572Y-51327857D02*
X103473572Y-51327857D01*
X103687858Y-52113571D02*
X102973572Y-52113571D01*
X102973572Y-50613571D01*
X103687858Y-50613571D01*
X104616429Y-50613571D02*
X104902143Y-50613571D01*
X105045001Y-50685000D01*
X105187858Y-50827857D01*
X105259286Y-51113571D01*
X105259286Y-51613571D01*
X105187858Y-51899286D01*
X105045001Y-52042143D01*
X104902143Y-52113571D01*
X104616429Y-52113571D01*
X104473572Y-52042143D01*
X104330715Y-51899286D01*
X104259286Y-51613571D01*
X104259286Y-51113571D01*
X104330715Y-50827857D01*
X104473572Y-50685000D01*
X104616429Y-50613571D01*
X105902144Y-52113571D02*
X105902144Y-50613571D01*
X106473572Y-50613571D01*
X106616430Y-50685000D01*
X106687858Y-50756429D01*
X106759287Y-50899286D01*
X106759287Y-51113571D01*
X106687858Y-51256429D01*
X106616430Y-51327857D01*
X106473572Y-51399286D01*
X105902144Y-51399286D01*
X107402144Y-52113571D02*
X107402144Y-51113571D01*
X107402144Y-50613571D02*
X107330715Y-50685000D01*
X107402144Y-50756429D01*
X107473572Y-50685000D01*
X107402144Y-50613571D01*
X107402144Y-50756429D01*
X107973573Y-52113571D02*
X108759287Y-51113571D01*
X107973573Y-51113571D02*
X108759287Y-52113571D01*
X109902144Y-52042143D02*
X109759287Y-52113571D01*
X109473573Y-52113571D01*
X109330716Y-52042143D01*
X109259287Y-51899286D01*
X109259287Y-51327857D01*
X109330716Y-51185000D01*
X109473573Y-51113571D01*
X109759287Y-51113571D01*
X109902144Y-51185000D01*
X109973573Y-51327857D01*
X109973573Y-51470714D01*
X109259287Y-51613571D01*
X110830716Y-52113571D02*
X110687858Y-52042143D01*
X110616430Y-51899286D01*
X110616430Y-50613571D01*
D14*
X163632143Y-52113571D02*
X163632143Y-50613571D01*
X164489286Y-52113571D01*
X164489286Y-50613571D01*
X165203572Y-51327857D02*
X165703572Y-51327857D01*
X165917858Y-52113571D02*
X165203572Y-52113571D01*
X165203572Y-50613571D01*
X165917858Y-50613571D01*
X166846429Y-50613571D02*
X167132143Y-50613571D01*
X167275001Y-50685000D01*
X167417858Y-50827857D01*
X167489286Y-51113571D01*
X167489286Y-51613571D01*
X167417858Y-51899286D01*
X167275001Y-52042143D01*
X167132143Y-52113571D01*
X166846429Y-52113571D01*
X166703572Y-52042143D01*
X166560715Y-51899286D01*
X166489286Y-51613571D01*
X166489286Y-51113571D01*
X166560715Y-50827857D01*
X166703572Y-50685000D01*
X166846429Y-50613571D01*
X168132144Y-52113571D02*
X168132144Y-50613571D01*
X168703572Y-50613571D01*
X168846430Y-50685000D01*
X168917858Y-50756429D01*
X168989287Y-50899286D01*
X168989287Y-51113571D01*
X168917858Y-51256429D01*
X168846430Y-51327857D01*
X168703572Y-51399286D01*
X168132144Y-51399286D01*
X169632144Y-52113571D02*
X169632144Y-51113571D01*
X169632144Y-50613571D02*
X169560715Y-50685000D01*
X169632144Y-50756429D01*
X169703572Y-50685000D01*
X169632144Y-50613571D01*
X169632144Y-50756429D01*
X170203573Y-52113571D02*
X170989287Y-51113571D01*
X170203573Y-51113571D02*
X170989287Y-52113571D01*
X172132144Y-52042143D02*
X171989287Y-52113571D01*
X171703573Y-52113571D01*
X171560716Y-52042143D01*
X171489287Y-51899286D01*
X171489287Y-51327857D01*
X171560716Y-51185000D01*
X171703573Y-51113571D01*
X171989287Y-51113571D01*
X172132144Y-51185000D01*
X172203573Y-51327857D01*
X172203573Y-51470714D01*
X171489287Y-51613571D01*
X173060716Y-52113571D02*
X172917858Y-52042143D01*
X172846430Y-51899286D01*
X172846430Y-50613571D01*
X164357143Y-112178571D02*
X164357143Y-110678571D01*
X165214286Y-112178571D01*
X165214286Y-110678571D01*
X165928572Y-111392857D02*
X166428572Y-111392857D01*
X166642858Y-112178571D02*
X165928572Y-112178571D01*
X165928572Y-110678571D01*
X166642858Y-110678571D01*
X167571429Y-110678571D02*
X167857143Y-110678571D01*
X168000001Y-110750000D01*
X168142858Y-110892857D01*
X168214286Y-111178571D01*
X168214286Y-111678571D01*
X168142858Y-111964286D01*
X168000001Y-112107143D01*
X167857143Y-112178571D01*
X167571429Y-112178571D01*
X167428572Y-112107143D01*
X167285715Y-111964286D01*
X167214286Y-111678571D01*
X167214286Y-111178571D01*
X167285715Y-110892857D01*
X167428572Y-110750000D01*
X167571429Y-110678571D01*
X168857144Y-112178571D02*
X168857144Y-110678571D01*
X169428572Y-110678571D01*
X169571430Y-110750000D01*
X169642858Y-110821429D01*
X169714287Y-110964286D01*
X169714287Y-111178571D01*
X169642858Y-111321429D01*
X169571430Y-111392857D01*
X169428572Y-111464286D01*
X168857144Y-111464286D01*
X170357144Y-112178571D02*
X170357144Y-111178571D01*
X170357144Y-110678571D02*
X170285715Y-110750000D01*
X170357144Y-110821429D01*
X170428572Y-110750000D01*
X170357144Y-110678571D01*
X170357144Y-110821429D01*
X170928573Y-112178571D02*
X171714287Y-111178571D01*
X170928573Y-111178571D02*
X171714287Y-112178571D01*
X172857144Y-112107143D02*
X172714287Y-112178571D01*
X172428573Y-112178571D01*
X172285716Y-112107143D01*
X172214287Y-111964286D01*
X172214287Y-111392857D01*
X172285716Y-111250000D01*
X172428573Y-111178571D01*
X172714287Y-111178571D01*
X172857144Y-111250000D01*
X172928573Y-111392857D01*
X172928573Y-111535714D01*
X172214287Y-111678571D01*
X173785716Y-112178571D02*
X173642858Y-112107143D01*
X173571430Y-111964286D01*
X173571430Y-110678571D01*
X76101429Y-114343571D02*
X76101429Y-112843571D01*
X76101429Y-114272143D02*
X75958572Y-114343571D01*
X75672858Y-114343571D01*
X75530000Y-114272143D01*
X75458572Y-114200714D01*
X75387143Y-114057857D01*
X75387143Y-113629286D01*
X75458572Y-113486429D01*
X75530000Y-113415000D01*
X75672858Y-113343571D01*
X75958572Y-113343571D01*
X76101429Y-113415000D01*
X77387143Y-114272143D02*
X77244286Y-114343571D01*
X76958572Y-114343571D01*
X76815715Y-114272143D01*
X76744286Y-114129286D01*
X76744286Y-113557857D01*
X76815715Y-113415000D01*
X76958572Y-113343571D01*
X77244286Y-113343571D01*
X77387143Y-113415000D01*
X77458572Y-113557857D01*
X77458572Y-113700714D01*
X76744286Y-113843571D01*
X78101429Y-114343571D02*
X78101429Y-112843571D01*
X78101429Y-113415000D02*
X78244286Y-113343571D01*
X78530000Y-113343571D01*
X78672857Y-113415000D01*
X78744286Y-113486429D01*
X78815715Y-113629286D01*
X78815715Y-114057857D01*
X78744286Y-114200714D01*
X78672857Y-114272143D01*
X78530000Y-114343571D01*
X78244286Y-114343571D01*
X78101429Y-114272143D01*
X80101429Y-113343571D02*
X80101429Y-114343571D01*
X79458572Y-113343571D02*
X79458572Y-114129286D01*
X79530000Y-114272143D01*
X79672858Y-114343571D01*
X79887143Y-114343571D01*
X80030000Y-114272143D01*
X80101429Y-114200714D01*
X81458572Y-113343571D02*
X81458572Y-114557857D01*
X81387143Y-114700714D01*
X81315715Y-114772143D01*
X81172858Y-114843571D01*
X80958572Y-114843571D01*
X80815715Y-114772143D01*
X81458572Y-114272143D02*
X81315715Y-114343571D01*
X81030001Y-114343571D01*
X80887143Y-114272143D01*
X80815715Y-114200714D01*
X80744286Y-114057857D01*
X80744286Y-113629286D01*
X80815715Y-113486429D01*
X80887143Y-113415000D01*
X81030001Y-113343571D01*
X81315715Y-113343571D01*
X81458572Y-113415000D01*
X83315715Y-113343571D02*
X83315715Y-114843571D01*
X83315715Y-113415000D02*
X83458572Y-113343571D01*
X83744286Y-113343571D01*
X83887143Y-113415000D01*
X83958572Y-113486429D01*
X84030001Y-113629286D01*
X84030001Y-114057857D01*
X83958572Y-114200714D01*
X83887143Y-114272143D01*
X83744286Y-114343571D01*
X83458572Y-114343571D01*
X83315715Y-114272143D01*
X84887144Y-114343571D02*
X84744286Y-114272143D01*
X84672858Y-114200714D01*
X84601429Y-114057857D01*
X84601429Y-113629286D01*
X84672858Y-113486429D01*
X84744286Y-113415000D01*
X84887144Y-113343571D01*
X85101429Y-113343571D01*
X85244286Y-113415000D01*
X85315715Y-113486429D01*
X85387144Y-113629286D01*
X85387144Y-114057857D01*
X85315715Y-114200714D01*
X85244286Y-114272143D01*
X85101429Y-114343571D01*
X84887144Y-114343571D01*
X86030001Y-114343571D02*
X86030001Y-113343571D01*
X86030001Y-113629286D02*
X86101429Y-113486429D01*
X86172858Y-113415000D01*
X86315715Y-113343571D01*
X86458572Y-113343571D01*
X86744286Y-113343571D02*
X87315715Y-113343571D01*
X86958572Y-112843571D02*
X86958572Y-114129286D01*
X87030000Y-114272143D01*
X87172858Y-114343571D01*
X87315715Y-114343571D01*
M02*
